<?xml version="1.0" encoding="utf-8"?>
<!-- Generator: Adobe Illustrator 19.0.0, SVG Export Plug-In . SVG Version: 6.00 Build 0)  -->
<svg version="1.1" id="Layer_1" xmlns="http://www.w3.org/2000/svg" xmlns:xlink="http://www.w3.org/1999/xlink" x="0px" y="0px"
	 viewBox="0 0 792 612" style="enable-background:new 0 0 792 612;" xml:space="preserve">
<style type="text/css">
	.st0{fill:#414042;}
	.st1{enable-background:new    ;}
	.st2{fill:#FFFFFF;}
</style>
<rect id="XMLID_1_" y="306" class="st0" width="792" height="306"/>
<g id="XMLID_3_" class="st1">
	<path class="st2" d="M149,463.7v-0.2c-2.5-1.3-6.3-4.7-6.3-9.5c0-6.8,5.9-11.2,13.2-11.2c7.6,0,13.5,4.4,13.5,11.2
		c0,4.6-3.8,7.9-6.3,9.4v0.2c2.7,1.4,7.4,4.9,7.4,10.2c0,6.6-5.6,11.7-14.6,11.7c-8.7,0-14.3-5.1-14.3-11.7
		C141.6,468.6,147.3,464.6,149,463.7z M156.1,479.4c3.4,0,6.3-2.3,6.3-5.6c0-2.7-2.3-5.6-6.3-6.5c-4.1,0.9-6.3,3.7-6.3,6.5
		C149.7,477.1,152.8,479.4,156.1,479.4z M161.6,454.4c0-2.9-2.5-5.2-5.7-5.2c-2.9,0-5.4,2.3-5.4,5.2c0,2.7,1.7,4.9,5.6,5.8
		C159.8,459.3,161.6,457,161.6,454.4z"/>
	<path class="st2" d="M190.5,443.5c0-0.6,0.5-1.2,1.2-1.2h5.2c0.6,0,1.2,0.5,1.2,1.2V462c1.2-0.9,3.6-2,6.5-2
		c7.7,0,10.9,6,10.9,12.1v11.7c0,0.6-0.5,1.2-1.2,1.2h-4.9c-0.7,0-1.2-0.5-1.2-1.2v-11.8c0-3.4-1.9-5.5-4.8-5.5
		c-2.8,0-4.7,1.8-5.3,4.3v12.9c0,0.7-0.4,1.2-1.3,1.2h-5.1c-0.6,0-1.2-0.5-1.2-1.2V443.5z"/>
	<path class="st2" d="M232.8,460c6.9,0,12.5,5.9,12.5,12.8c0,7-5.6,12.9-12.5,12.9s-12.5-5.9-12.5-12.9
		C220.3,465.8,225.9,460,232.8,460z M232.8,479c3.2,0,5.9-2.8,5.9-6.3c0-3.4-2.6-6.2-5.9-6.2c-3.3,0-5.9,2.7-5.9,6.2
		C226.9,476.2,229.5,479,232.8,479z"/>
	<path class="st2" d="M250.3,461.8c0-0.7,0.5-1.2,1.2-1.2h5c0.6,0,1.2,0.5,1.2,1.2v12c0,3.2,1.6,5.2,4.5,5.2c2.6,0,4.5-2.4,4.9-4.6
		v-12.7c0-0.9,0.4-1.2,1.3-1.2h4.6c0.6,0,1.2,0.5,1.2,1.2v22.1c0,0.6-0.5,1.2-1.2,1.2h-2.3c-0.6,0-1-0.4-1.2-0.9l-0.7-2
		c-1.1,1-3.4,3.5-8.2,3.5c-7.6,0-10.3-5.8-10.3-12V461.8z"/>
	<path class="st2" d="M281.4,461.8c0-0.7,0.5-1.2,1.2-1.2h2.3c0.5,0,0.9,0.3,1.1,0.8l0.9,2.4c0.9-1.2,3.1-3.8,6.9-3.8
		c2.9,0,5.4,0.9,4.7,2.4l-2.3,4c-0.3,0.5-0.9,0.8-1.4,0.5c-0.2-0.1-1.1-0.4-1.8-0.4c-2.4,0-3.9,1.6-4.3,2.5v14.8
		c0,0.9-0.5,1.2-1.4,1.2h-4.7c-0.6,0-1.2-0.5-1.2-1.2V461.8z"/>
	<path class="st2" d="M313.1,462c-0.4-0.8,0.2-1.4,1-1.4h4.4c0.4,0,1,0.3,1.1,0.7l3.7,10.9h0.1l6.2-11.7c0.1-0.2,0.4-0.5,1-0.5h0.5
		c0.5,0,0.8,0.2,1,0.5l6.2,11.7h0.1l3.7-10.9c0.2-0.7,0.7-0.7,1.4-0.7h4c0.9,0,1.4,0.6,1.1,1.4l-7.6,22.9c-0.1,0.4-0.5,0.7-1.1,0.7
		h-0.2c-0.5,0-0.8-0.2-1-0.5l-7.7-14.2h-0.1l-7.6,14.2c-0.2,0.3-0.5,0.5-1,0.5h-0.3c-0.5,0-0.9-0.3-1-0.7L313.1,462z"/>
	<path class="st2" d="M363.9,460c6.9,0,12.5,5.9,12.5,12.8c0,7-5.6,12.9-12.5,12.9s-12.5-5.9-12.5-12.9
		C351.4,465.8,357,460,363.9,460z M363.9,479c3.2,0,5.9-2.8,5.9-6.3c0-3.4-2.6-6.2-5.9-6.2c-3.3,0-5.9,2.7-5.9,6.2
		C358,476.2,360.6,479,363.9,479z"/>
	<path class="st2" d="M381.8,461.8c0-0.7,0.5-1.2,1.2-1.2h2.3c0.5,0,0.9,0.3,1.1,0.8l0.9,2.4c0.9-1.2,3.1-3.8,6.9-3.8
		c2.9,0,5.4,0.9,4.7,2.4l-2.3,4c-0.3,0.5-0.9,0.8-1.4,0.5c-0.2-0.1-1.1-0.4-1.8-0.4c-2.4,0-3.9,1.6-4.3,2.5v14.8
		c0,0.9-0.5,1.2-1.4,1.2H383c-0.6,0-1.2-0.5-1.2-1.2V461.8z"/>
	<path class="st2" d="M402.6,443.5c0-0.6,0.5-1.2,1.2-1.2h5.2c0.6,0,1.2,0.5,1.2,1.2v26.4l8.4-8.5c0.4-0.4,0.9-0.7,1.5-0.7h5.6
		c1,0,1.4,1.1,0.8,1.8l-9.1,9.3l10.9,11.7c0.6,0.7,0.2,1.7-0.8,1.7h-6.6c-0.4,0-0.9-0.2-1-0.5l-9.6-11v10.3c0,0.6-0.5,1.2-1.2,1.2
		h-5.2c-0.6,0-1.2-0.5-1.2-1.2V443.5z"/>
	<path class="st2" d="M443.4,462c-0.4-0.8,0.2-1.4,1-1.4h4.4c0.4,0,1,0.3,1.1,0.7l3.7,10.9h0.1l6.2-11.7c0.1-0.2,0.4-0.5,1-0.5h0.5
		c0.5,0,0.8,0.2,1,0.5l6.2,11.7h0.1l3.7-10.9c0.2-0.7,0.7-0.7,1.4-0.7h4c0.9,0,1.4,0.6,1.1,1.4l-7.6,22.9c-0.1,0.4-0.5,0.7-1.1,0.7
		h-0.2c-0.5,0-0.8-0.2-1-0.5l-7.7-14.2h-0.1l-7.6,14.2c-0.2,0.3-0.5,0.5-1,0.5H452c-0.5,0-0.9-0.3-1-0.7L443.4,462z"/>
	<path class="st2" d="M494.1,460c6.3,0,11.4,4.8,11.4,11.3c0,0.4-0.1,1.2-0.1,1.6c-0.1,0.6-0.6,1-1.2,1h-15.6
		c0.2,2.5,2.3,5.3,5.9,5.3c1.9,0,3.7-0.7,4.8-1.5c0.6-0.4,1.2-0.5,1.6,0l2.5,2.9c0.4,0.4,0.5,1.1-0.1,1.6c-2,1.9-5.1,3.4-9.1,3.4
		c-7.3,0-12.5-5.8-12.5-12.8C481.7,465.9,486.9,460,494.1,460z M498.4,469.7c-0.2-2.3-2.1-4.1-4.5-4.1c-2.4,0-4.5,1.8-4.8,4.1H498.4
		z"/>
	<path class="st2" d="M521.3,460c6.3,0,11.4,4.8,11.4,11.3c0,0.4-0.1,1.2-0.1,1.6c-0.1,0.6-0.6,1-1.2,1h-15.6
		c0.2,2.5,2.3,5.3,5.9,5.3c1.9,0,3.7-0.7,4.8-1.5c0.6-0.4,1.2-0.5,1.6,0l2.5,2.9c0.4,0.4,0.5,1.1-0.1,1.6c-2,1.9-5.1,3.4-9.1,3.4
		c-7.3,0-12.5-5.8-12.5-12.8C508.8,465.9,514,460,521.3,460z M525.5,469.7c-0.2-2.3-2.1-4.1-4.5-4.1c-2.4,0-4.5,1.8-4.8,4.1H525.5z"
		/>
	<path class="st2" d="M537.8,443.5c0-0.6,0.5-1.2,1.2-1.2h5.2c0.6,0,1.2,0.5,1.2,1.2v26.4l8.4-8.5c0.4-0.4,0.9-0.7,1.5-0.7h5.6
		c1,0,1.4,1.1,0.8,1.8l-9.1,9.3l10.9,11.7c0.6,0.7,0.2,1.7-0.8,1.7H556c-0.4,0-0.9-0.2-1-0.5l-9.6-11v10.3c0,0.6-0.5,1.2-1.2,1.2
		H539c-0.6,0-1.2-0.5-1.2-1.2V443.5z"/>
	<path class="st2" d="M577.7,460c6.3,0,11.4,4.8,11.4,11.3c0,0.4-0.1,1.2-0.1,1.6c-0.1,0.6-0.6,1-1.2,1h-15.6
		c0.2,2.5,2.3,5.3,5.9,5.3c1.9,0,3.7-0.7,4.8-1.5c0.6-0.4,1.2-0.5,1.6,0l2.5,2.9c0.4,0.4,0.5,1.1-0.1,1.6c-2,1.9-5.1,3.4-9.1,3.4
		c-7.3,0-12.5-5.8-12.5-12.8C565.3,465.9,570.5,460,577.7,460z M582,469.7c-0.2-2.3-2.1-4.1-4.5-4.1c-2.4,0-4.5,1.8-4.8,4.1H582z"/>
	<path class="st2" d="M594.3,461.8c0-0.7,0.5-1.2,1.2-1.2h2.3c0.5,0,0.9,0.3,1,0.7l0.9,2.3c0.9-1,3.9-3.6,8.6-3.6
		c7.7,0,10.9,5.8,10.9,12.1v11.7c0,0.6-0.5,1.2-1.2,1.2h-5c-0.7,0-1.2-0.5-1.2-1.2v-12.1c0-3.2-1.6-5.2-4.6-5.2
		c-3.2,0-5.1,2.2-5.7,3.8v13.4c0,0.9-0.4,1.2-1.5,1.2h-4.5c-0.6,0-1.2-0.5-1.2-1.2V461.8z"/>
	<path class="st2" d="M636.2,460c2.4,0,4.3,0.7,5.4,1.1v-17.6c0-0.6,0.5-1.2,1.2-1.2h5.2c0.6,0,1.2,0.5,1.2,1.2v40.4
		c0,0.6-0.5,1.2-1.2,1.2h-2.4c-0.5,0-1-0.5-1.2-1.2l-0.6-1.9c0,0-2.9,3.7-8,3.7c-6.6,0-11.7-5.8-11.7-12.8
		C624.1,465.7,628.9,460,636.2,460z M636.7,479c3.2,0,4.7-2.5,5.1-4V468c0,0-1.7-1.4-4.8-1.4c-3.4,0-5.9,2.8-5.9,6.2
		S633.5,479,636.7,479z"/>
</g>
<g id="XMLID_2_" class="st1">
	<path d="M623.7,148.4v1l-25,30.7h-1.1c-0.4,0-0.7-0.1-0.7-0.7c0-9.9-0.1-19.8-0.1-29.6h-4.6c-0.4,0-0.8-0.3-0.8-0.7v-0.8
		c0-0.4,0.4-0.8,0.8-0.8h4.6v-8.8c0-0.4,0.4-0.8,0.8-0.8c0.7,0,2-0.2,2,0.8v8.7h23C623.3,147.5,623.7,147.8,623.7,148.4z M599.6,150
		v25.4l20.7-25.4H599.6z"/>
	<path d="M584.4,158.8c0,13.4-5.4,21.4-14.9,21.4s-14.9-8.1-14.9-21.4c0-13.4,5.4-21.4,14.9-21.4S584.4,145.4,584.4,158.8z
		 M557.2,158.8c0,11.9,4.4,18.9,12.2,18.9c7.9,0,12.3-7,12.3-18.9c0-12-4.4-18.9-12.3-18.9C561.6,139.9,557.2,146.8,557.2,158.8z"/>
	<path d="M531.9,179.9c0,0.4-0.4,0.8-0.9,0.8h-1c-0.4,0-0.8-0.4-0.8-0.8v-20.8c-0.8,0.8-4,3.9-8.8,3.9c-6.3,0-9.8-3.9-9.8-11.2
		v-13.1c0-0.4,0.4-0.8,0.8-0.8h1.1c0.4,0,0.8,0.4,0.8,0.8v13.1c0,5.6,2.6,8.5,7.3,8.5c5.1,0,8.5-4,8.7-4.3v-17.3
		c0-0.5,0.2-0.8,0.8-0.8h1.2c0.4,0,0.7,0.4,0.7,0.8V179.9z"/>
	<path d="M491.3,163c-6.8,0-12.3-5.8-12.3-12.8c0-7.1,5.4-12.9,12.3-12.9c6.9,0,12.3,5.7,12.3,12.9C503.5,157.2,498.2,163,491.3,163
		z M491.3,139.9c-5.4,0-9.6,4.6-9.6,10.4c0,5.6,4.2,10.2,9.6,10.2c5.4,0,9.6-4.6,9.6-10.2C500.9,144.5,496.7,139.9,491.3,139.9z"/>
	<path d="M471.9,161.6c0,0.4-0.4,0.8-0.8,0.8h-1.1c-0.4,0-0.8-0.4-0.8-0.8v-13.1c0-5.7-2.6-8.5-7.3-8.5c-5.1,0-7.9,4-8.1,4.3v17.4
		c0,0.5-0.3,0.8-0.8,0.8h-1.1c-0.4,0-0.8-0.4-0.8-0.8v-22.8c0-0.4,0.4-0.8,0.8-0.8h0.7c0.5,0,0.7,0.4,0.7,0.7l0.2,2.4
		c0.7-0.9,3.6-3.7,8.4-3.7c6.8,0,9.8,4.2,9.8,11.1V161.6z"/>
	<path d="M442,161.6c0,0.4-0.4,0.8-0.8,0.8h-0.7c-0.4,0-0.7-0.2-0.7-0.7l-0.2-2.5c-0.6,0.9-3,3.8-7.6,3.8c-2,0-3.3-0.5-3.8-0.7
		c-0.5-0.2-0.9-0.6-0.7-1.1l0.5-1.2c0.2-0.4,0.5-0.5,1-0.3c0.3,0.1,1.5,0.7,3.2,0.7c4.8,0,7.1-3.8,7.3-4.2v-17.4
		c0-0.5,0.2-0.8,0.8-0.8h1.2c0.4,0,0.7,0.4,0.7,0.8V161.6z"/>
	<path d="M411.6,161.4c0.2,0.5,0.2,1-0.4,1h-1.3c-0.3,0-0.7-0.1-0.8-0.5l-5.7-19.2h-0.1l-7.3,19.8c-0.1,0.4-0.4,0.5-0.7,0.5H395
		c-0.3,0-0.6-0.2-0.7-0.5l-7.3-19.8H387l-5.7,19.2c-0.1,0.4-0.5,0.5-0.8,0.5h-1.3c-0.5,0-0.5-0.4-0.4-1l7.3-23.5
		c0.1-0.4,0.4-0.5,0.7-0.5h0.2c0.3,0,0.6,0.2,0.7,0.5l7.4,20.6h0.1l7.3-20.6c0.1-0.4,0.4-0.5,0.7-0.5h0.2c0.4,0,0.6,0.1,0.7,0.5
		L411.6,161.4z"/>
	<path d="M361.6,163c-6.8,0-12.3-5.8-12.3-12.8c0-7.1,5.4-12.9,12.3-12.9c6.9,0,12.3,5.7,12.3,12.9C373.9,157.2,368.5,163,361.6,163
		z M361.6,139.9c-5.4,0-9.6,4.6-9.6,10.4c0,5.6,4.2,10.2,9.6,10.2c5.4,0,9.6-4.6,9.6-10.2C371.2,144.5,367,139.9,361.6,139.9z"/>
	<path d="M341.9,161.6c0,0.4-0.4,0.8-0.8,0.8h-0.7c-0.4,0-0.7-0.2-0.7-0.7l-0.2-2.5c-0.6,0.9-3.1,3.8-7.6,3.8c-2,0-3.3-0.5-3.8-0.7
		c-0.5-0.2-0.9-0.6-0.7-1.1l0.5-1.2c0.2-0.4,0.5-0.5,1-0.3c0.3,0.1,1.5,0.7,3.2,0.7c4.8,0,7.1-3.8,7.3-4.2v-17.4
		c0-0.5,0.2-0.8,0.8-0.8h1.2c0.4,0,0.7,0.4,0.7,0.8V161.6z"/>
	<path d="M322.1,179.9c0,0.4-0.4,0.8-0.8,0.8h-1c-0.4,0-0.8-0.4-0.8-0.8v-27.3l-13,9.5c-0.3,0.2-0.7,0.4-1,0.4h-1.8
		c-0.6,0-0.7-0.8-0.2-1.1l13.1-9.6L302,139c-0.5-0.4-0.2-1,0.3-1h1.9c0.4,0,0.7,0.1,1.2,0.5l14.1,12.1v-11.8c0-0.5,0.2-0.8,0.8-0.8
		h1.2c0.4,0,0.7,0.4,0.7,0.8V179.9z"/>
	<path d="M285.3,161.4c0.2,0.5,0.2,1-0.4,1h-1.3c-0.3,0-0.7-0.1-0.8-0.5l-5.7-19.2h-0.1l-7.3,19.8c-0.1,0.4-0.4,0.5-0.7,0.5h-0.2
		c-0.3,0-0.6-0.2-0.7-0.5l-7.3-19.8h-0.1l-5.7,19.2c-0.1,0.4-0.5,0.5-0.8,0.5h-1.3c-0.5,0-0.5-0.4-0.4-1l7.3-23.5
		c0.1-0.4,0.4-0.5,0.7-0.5h0.2c0.3,0,0.6,0.2,0.7,0.5l7.4,20.6h0.1l7.3-20.6c0.1-0.4,0.4-0.5,0.7-0.5h0.2c0.4,0,0.6,0.1,0.7,0.5
		L285.3,161.4z"/>
	<path d="M235.6,163c-6.4,0-11-4.7-11-11.2c0-1,0-2.4,0.9-2.4h19.5c-0.2-5.2-4-9.6-9.5-9.6c-3.2,0-5.7,1.3-7.2,2.3
		c-0.5,0.4-0.8,0.4-1.1,0l-0.6-0.9c-0.2-0.2-0.1-0.6,0.2-1c1.2-1.2,5.1-2.9,8.8-2.9c7.4,0,12,5.7,12,12.9
		C247.6,157.2,243,163,235.6,163z M227.2,151.7c0,4.8,2.9,8.9,8.4,8.9c5.4,0,9-3.9,9.3-8.9H227.2z"/>
	<path d="M207.1,163c-6.4,0-11-4.7-11-11.2c0-1,0-2.4,0.9-2.4h19.5c-0.2-5.2-4-9.6-9.5-9.6c-3.2,0-5.7,1.3-7.2,2.3
		c-0.5,0.4-0.8,0.4-1.1,0l-0.6-0.9c-0.2-0.2-0.1-0.6,0.2-1c1.2-1.2,5.1-2.9,8.8-2.9c7.4,0,12,5.7,12,12.9
		C219.1,157.2,214.5,163,207.1,163z M198.7,151.7c0,4.8,2.9,8.9,8.4,8.9c5.4,0,9-3.9,9.3-8.9H198.7z"/>
	<path d="M188.8,179.9c0,0.4-0.4,0.8-0.8,0.8h-1c-0.4,0-0.8-0.4-0.8-0.8v-27.3l-13,9.5c-0.3,0.2-0.7,0.4-1,0.4h-1.8
		c-0.6,0-0.7-0.8-0.2-1.1l13.1-9.6L168.7,139c-0.5-0.4-0.2-1,0.3-1h1.9c0.4,0,0.7,0.1,1.2,0.5l14.1,12.1v-11.8
		c0-0.5,0.2-0.8,0.8-0.8h1.2c0.4,0,0.7,0.4,0.7,0.8V179.9z"/>
</g>
</svg>
