<?xml version="1.0" encoding="utf-8"?>
<!-- Generator: Adobe Illustrator 19.0.0, SVG Export Plug-In . SVG Version: 6.00 Build 0)  -->
<svg version="1.1" id="Layer_1" xmlns="http://www.w3.org/2000/svg" xmlns:xlink="http://www.w3.org/1999/xlink" x="0px" y="0px"
	 viewBox="0 0 792 612" style="enable-background:new 0 0 792 612;" xml:space="preserve">
<style type="text/css">
	.st0{enable-background:new    ;}
	.st1{fill:#2E3192;}
	.st2{fill:#BE1E2D;}
</style>
<g id="XMLID_1_">
	<g id="XMLID_2_" class="st0">
		<path d="M45.4,42c2.5,0,4.8,0.2,6.8,0.5c2,0.3,3.7,0.9,5.1,1.8c1.4,0.9,2.5,2.1,3.2,3.6c0.7,1.5,1.1,3.5,1.1,5.8
			c0,1.4-0.2,2.8-0.6,4.1s-1,2.5-1.9,3.6c-0.8,1-1.8,1.9-2.9,2.6c-1.1,0.7-2.5,1.1-4,1.3v0.1c2.4,0.7,4.2,1.9,5.5,3.7
			c1.3,1.8,1.9,4,1.9,6.4c0,2.7-0.5,5.1-1.6,7.1c-1,2.1-2.5,3.8-4.2,5.1c-1.8,1.4-3.8,2.4-6.1,3.1c-2.3,0.7-4.7,1-7.2,1H14l10.4-50
			H45.4z M40.1,83.5c2.5,0,4.6-0.7,6.2-2c1.6-1.4,2.4-3.4,2.4-6c0-1.3-0.3-2.3-0.8-3.1c-0.5-0.7-1.2-1.3-2.1-1.7
			c-0.8-0.4-1.8-0.6-2.8-0.7c-1-0.1-2-0.1-3-0.1H29.3l-2.9,13.7H40.1z M43.3,62.2c2,0,3.7-0.5,5.2-1.6c1.5-1.1,2.2-2.7,2.2-4.9
			c0-2-0.5-3.3-1.6-4c-1-0.7-2.5-1.1-4.2-1.1H33.3l-2.5,11.7H43.3z"/>
		<path d="M113.1,42l-1.9,9.2H84.1L81.8,62H107l-1.8,8.5H80l-2.6,12.2H105l-2,9.2H64.6L75,42H113.1z"/>
		<path d="M139.8,42c7,0,12.3,1.7,15.9,5.1c3.5,3.4,5.3,8.2,5.3,14.4c0,4.3-0.6,8.4-1.8,12.1c-1.2,3.7-3,7-5.4,9.7
			c-2.4,2.7-5.4,4.9-9,6.4c-3.6,1.5-7.8,2.3-12.6,2.3h-20.9l10.5-50H139.8z M132.6,82.8c2.8,0,5.3-0.5,7.5-1.5c2.2-1,4-2.4,5.5-4.2
			c1.5-1.8,2.6-3.8,3.4-6.2c0.8-2.3,1.2-4.8,1.2-7.5c0-1.8-0.2-3.5-0.6-4.9c-0.4-1.5-1-2.7-1.9-3.8c-0.9-1.1-2-1.9-3.4-2.5
			c-1.4-0.6-3-0.9-5-0.9h-8.3l-6.7,31.5H132.6z"/>
		<path d="M218.2,42l8.3,50h-10.9L214,80.9h-18.7L189,92h-11.5l29.5-50H218.2z M213,72.7l-2.5-19.9h-0.1l-10.8,19.9H213z"/>
		<path d="M252.4,42l13.6,35.6h0.1l7.1-35.6h10.1l-10.6,50h-11L248,56.9h-0.1L240.7,92h-10.2L241,42H252.4z"/>
		<path d="M311,42c7,0,12.3,1.7,15.9,5.1c3.5,3.4,5.3,8.2,5.3,14.4c0,4.3-0.6,8.4-1.8,12.1c-1.2,3.7-3,7-5.4,9.7
			c-2.4,2.7-5.4,4.9-9,6.4c-3.6,1.5-7.8,2.3-12.6,2.3h-20.9l10.5-50H311z M303.7,82.8c2.8,0,5.3-0.5,7.5-1.5c2.2-1,4-2.4,5.5-4.2
			c1.5-1.8,2.6-3.8,3.4-6.2c0.8-2.3,1.2-4.8,1.2-7.5c0-1.8-0.2-3.5-0.6-4.9c-0.4-1.5-1-2.7-1.9-3.8c-0.9-1.1-2-1.9-3.4-2.5
			c-1.4-0.6-3-0.9-5-0.9H302l-6.7,31.5H303.7z"/>
		<path d="M385.2,42c2.5,0,4.8,0.2,6.8,0.5c2,0.3,3.7,0.9,5.1,1.8c1.4,0.9,2.5,2.1,3.2,3.6c0.7,1.5,1.1,3.5,1.1,5.8
			c0,1.4-0.2,2.8-0.6,4.1s-1,2.5-1.9,3.6s-1.8,1.9-2.9,2.6c-1.1,0.7-2.5,1.1-4,1.3v0.1c2.4,0.7,4.2,1.9,5.5,3.7
			c1.3,1.8,1.9,4,1.9,6.4c0,2.7-0.5,5.1-1.6,7.1c-1,2.1-2.5,3.8-4.2,5.1c-1.8,1.4-3.8,2.4-6.1,3.1c-2.3,0.7-4.7,1-7.2,1h-26.6
			l10.4-50H385.2z M379.8,83.5c2.5,0,4.6-0.7,6.2-2c1.6-1.4,2.4-3.4,2.4-6c0-1.3-0.3-2.3-0.8-3.1c-0.5-0.7-1.2-1.3-2.1-1.7
			c-0.8-0.4-1.8-0.6-2.8-0.7c-1-0.1-2-0.1-3-0.1H369L366,83.5H379.8z M383,62.2c2,0,3.7-0.5,5.2-1.6c1.5-1.1,2.2-2.7,2.2-4.9
			c0-2-0.5-3.3-1.6-4c-1-0.7-2.5-1.1-4.2-1.1H373l-2.5,11.7H383z"/>
		<path d="M438.6,42c2.2,0,4.3,0.2,6.1,0.6s3.4,1.2,4.7,2.2c1.3,1,2.3,2.4,3,4.1c0.7,1.7,1,3.7,1,6.2c0,1.7-0.3,3.3-0.8,4.8
			s-1.4,2.9-2.4,4.1c-1,1.2-2.2,2.2-3.6,3c-1.4,0.8-2.9,1.3-4.6,1.5v0.1c2.1,0.7,3.4,1.8,4.1,3.4s1.1,3.4,1.1,5.4
			c0,1.1-0.1,2.5-0.2,4c-0.1,1.6-0.2,3.1-0.2,4.7c0,1.1,0,2.2,0.1,3.2c0.1,1,0.3,1.9,0.6,2.6h-10.7c-0.1-0.6-0.3-1.2-0.3-1.7
			c-0.1-0.5-0.1-1.1-0.1-1.6c0-1.7,0.1-3.4,0.3-5.1c0.2-1.7,0.3-3.4,0.3-5.1c0-1.2-0.2-2.2-0.5-3c-0.3-0.8-0.8-1.4-1.5-1.9
			c-0.6-0.5-1.4-0.8-2.3-0.9c-0.9-0.2-1.9-0.2-2.9-0.2h-10.4L415.2,92h-10.9l10.4-50H438.6z M431.1,64.6c1.5,0,2.9-0.2,4.3-0.5
			c1.4-0.3,2.6-0.8,3.6-1.4c1.1-0.6,1.9-1.4,2.5-2.5c0.6-1,0.9-2.2,0.9-3.6c0-1.4-0.2-2.4-0.7-3.3c-0.4-0.8-1-1.4-1.8-1.9
			c-0.7-0.4-1.6-0.7-2.6-0.8c-1-0.1-2-0.2-3.1-0.2h-10.4L421,64.6H431.1z"/>
		<path d="M503.4,42l-1.9,9.2h-27.2L472.1,62h25.1l-1.8,8.5h-25.1l-2.6,12.2h27.6l-2,9.2h-38.5l10.4-50H503.4z"/>
		<path d="M537.1,42l8.3,50h-10.9l-1.6-11.1h-18.7L507.9,92h-11.6l29.5-50H537.1z M531.9,72.7l-2.5-19.9h-0.1l-10.8,19.9H531.9z"/>
		<path d="M570.8,42L566.4,63h0.1L589.3,42h14.6l-24,20.6L595.1,92h-12.4l-11.4-22.5l-7.6,6.6L560.4,92h-11l10.4-50H570.8z"/>
		<path d="M646,42l-2,9.2h-24.5l-2.5,11.5h21.4l-1.8,8.5h-21.3L610.9,92H600l10.5-50H646z"/>
		<path d="M673.3,42l8.3,50h-10.9l-1.6-11.1h-18.7L644.1,92h-11.6L662,42H673.3z M668.1,72.7l-2.5-19.9h-0.1l-10.8,19.9H668.1z"/>
		<path d="M697.2,79.9c0.5,1.2,1.3,2.1,2.2,2.8c1,0.7,2.1,1.2,3.5,1.5c1.4,0.3,2.8,0.5,4.4,0.5c1.1,0,2.2-0.1,3.4-0.4
			c1.1-0.3,2.1-0.7,3-1.3c0.9-0.6,1.7-1.3,2.2-2.2c0.6-0.9,0.9-2,0.9-3.2c0-1.2-0.4-2.2-1.1-3c-0.7-0.8-1.7-1.4-2.9-2
			c-1.2-0.6-2.5-1.1-4.1-1.5c-1.5-0.4-3-0.9-4.6-1.3c-1.6-0.5-3.1-1-4.6-1.7c-1.5-0.7-2.8-1.5-4-2.5c-1.2-1-2.1-2.3-2.9-3.8
			c-0.7-1.5-1.1-3.3-1.1-5.5c0-2.8,0.6-5.2,1.8-7.1c1.2-2,2.7-3.6,4.6-4.8c1.9-1.2,4-2.1,6.3-2.7c2.4-0.6,4.7-0.9,7.2-0.9
			c2.6,0,5,0.3,7.2,0.9c2.3,0.6,4.2,1.5,6,2.8c1.7,1.3,3.1,3,4.1,5c1,2,1.5,4.5,1.5,7.4h-10.4c0-1.4-0.2-2.6-0.6-3.5
			c-0.4-1-1.1-1.7-1.9-2.3c-0.8-0.6-1.8-1-2.9-1.3c-1.1-0.3-2.3-0.4-3.6-0.4c-1,0-2.1,0.1-3.1,0.3s-2,0.6-2.8,1.1
			c-0.8,0.5-1.5,1.1-2,1.9c-0.5,0.8-0.8,1.8-0.8,2.9c0,1.2,0.5,2.2,1.4,3c0.9,0.8,2,1.5,3.3,2c1.3,0.5,2.6,1,4,1.3
			c1.4,0.3,2.5,0.5,3.3,0.7c2,0.5,3.8,1.1,5.4,1.8c1.6,0.7,3,1.6,4.2,2.6c1.2,1.1,2.1,2.4,2.8,3.9c0.7,1.5,1,3.4,1,5.7
			c0,3-0.6,5.5-1.9,7.6c-1.2,2.1-2.8,3.8-4.8,5.1c-1.9,1.3-4.1,2.3-6.5,2.8s-4.8,0.9-7.2,0.9c-7,0-12.2-1.4-15.6-4.3
			c-3.4-2.8-5.1-7.3-5.1-13.4h10.4C696.5,77.2,696.7,78.7,697.2,79.9z"/>
		<path d="M734.9,51.3l2-9.2h41.7l-2,9.2h-15L753.1,92h-11.1l8.5-40.7H734.9z"/>
	</g>
	<g id="XMLID_3_" class="st0">
		<path d="M45.4,280c2.5,0,4.8,0.2,6.8,0.5c2,0.3,3.7,0.9,5.1,1.8c1.4,0.9,2.5,2.1,3.2,3.6c0.7,1.5,1.1,3.5,1.1,5.8
			c0,1.4-0.2,2.8-0.6,4.1s-1,2.5-1.9,3.6c-0.8,1-1.8,1.9-2.9,2.6c-1.1,0.7-2.5,1.1-4,1.3v0.1c2.4,0.7,4.2,1.9,5.5,3.7
			c1.3,1.8,1.9,4,1.9,6.4c0,2.7-0.5,5.1-1.6,7.1c-1,2.1-2.5,3.8-4.2,5.1c-1.8,1.4-3.8,2.4-6.1,3.1c-2.3,0.7-4.7,1-7.2,1H14l10.4-50
			H45.4z M40.1,321.5c2.5,0,4.6-0.7,6.2-2c1.6-1.4,2.4-3.4,2.4-6c0-1.3-0.3-2.3-0.8-3.1c-0.5-0.7-1.2-1.3-2.1-1.7
			c-0.8-0.4-1.8-0.6-2.8-0.7c-1-0.1-2-0.1-3-0.1H29.3l-2.9,13.7H40.1z M43.3,300.2c2,0,3.7-0.5,5.2-1.6c1.5-1.1,2.2-2.7,2.2-4.9
			c0-2-0.5-3.3-1.6-4c-1-0.7-2.5-1.1-4.2-1.1H33.3l-2.5,11.7H43.3z"/>
		<path d="M113.1,280l-1.9,9.2H84.1L81.8,300H107l-1.8,8.5H80l-2.6,12.2H105l-2,9.2H64.6L75,280H113.1z"/>
		<path d="M139.8,280c7,0,12.3,1.7,15.9,5.1c3.5,3.4,5.3,8.2,5.3,14.4c0,4.3-0.6,8.4-1.8,12.1c-1.2,3.7-3,7-5.4,9.7
			c-2.4,2.7-5.4,4.9-9,6.4c-3.6,1.5-7.8,2.3-12.6,2.3h-20.9l10.5-50H139.8z M132.6,320.8c2.8,0,5.3-0.5,7.5-1.5c2.2-1,4-2.4,5.5-4.2
			c1.5-1.8,2.6-3.8,3.4-6.2c0.8-2.3,1.2-4.8,1.2-7.5c0-1.8-0.2-3.5-0.6-4.9c-0.4-1.5-1-2.7-1.9-3.8c-0.9-1.1-2-1.9-3.4-2.5
			c-1.4-0.6-3-0.9-5-0.9h-8.3l-6.7,31.5H132.6z"/>
		<path d="M218.2,280l8.3,50h-10.9l-1.6-11.1h-18.7L189,330h-11.5l29.5-50H218.2z M213,310.7l-2.5-19.9h-0.1l-10.8,19.9H213z"/>
		<path d="M252.4,280l13.6,35.6h0.1l7.1-35.6h10.1l-10.6,50h-11L248,294.9h-0.1l-7.1,35.1h-10.2l10.5-50H252.4z"/>
		<path d="M311,280c7,0,12.3,1.7,15.9,5.1c3.5,3.4,5.3,8.2,5.3,14.4c0,4.3-0.6,8.4-1.8,12.1c-1.2,3.7-3,7-5.4,9.7
			c-2.4,2.7-5.4,4.9-9,6.4c-3.6,1.5-7.8,2.3-12.6,2.3h-20.9l10.5-50H311z M303.7,320.8c2.8,0,5.3-0.5,7.5-1.5c2.2-1,4-2.4,5.5-4.2
			c1.5-1.8,2.6-3.8,3.4-6.2c0.8-2.3,1.2-4.8,1.2-7.5c0-1.8-0.2-3.5-0.6-4.9c-0.4-1.5-1-2.7-1.9-3.8c-0.9-1.1-2-1.9-3.4-2.5
			c-1.4-0.6-3-0.9-5-0.9H302l-6.7,31.5H303.7z"/>
		<path d="M385.2,280c2.5,0,4.8,0.2,6.8,0.5c2,0.3,3.7,0.9,5.1,1.8c1.4,0.9,2.5,2.1,3.2,3.6c0.7,1.5,1.1,3.5,1.1,5.8
			c0,1.4-0.2,2.8-0.6,4.1s-1,2.5-1.9,3.6s-1.8,1.9-2.9,2.6c-1.1,0.7-2.5,1.1-4,1.3v0.1c2.4,0.7,4.2,1.9,5.5,3.7
			c1.3,1.8,1.9,4,1.9,6.4c0,2.7-0.5,5.1-1.6,7.1c-1,2.1-2.5,3.8-4.2,5.1c-1.8,1.4-3.8,2.4-6.1,3.1c-2.3,0.7-4.7,1-7.2,1h-26.6
			l10.4-50H385.2z M379.8,321.5c2.5,0,4.6-0.7,6.2-2c1.6-1.4,2.4-3.4,2.4-6c0-1.3-0.3-2.3-0.8-3.1c-0.5-0.7-1.2-1.3-2.1-1.7
			c-0.8-0.4-1.8-0.6-2.8-0.7c-1-0.1-2-0.1-3-0.1H369l-2.9,13.7H379.8z M383,300.2c2,0,3.7-0.5,5.2-1.6c1.5-1.1,2.2-2.7,2.2-4.9
			c0-2-0.5-3.3-1.6-4c-1-0.7-2.5-1.1-4.2-1.1H373l-2.5,11.7H383z"/>
		<path d="M438.6,280c2.2,0,4.3,0.2,6.1,0.6s3.4,1.2,4.7,2.2c1.3,1,2.3,2.4,3,4.1c0.7,1.7,1,3.7,1,6.2c0,1.7-0.3,3.3-0.8,4.8
			s-1.4,2.9-2.4,4.1c-1,1.2-2.2,2.2-3.6,3c-1.4,0.8-2.9,1.3-4.6,1.5v0.1c2.1,0.7,3.4,1.8,4.1,3.4s1.1,3.4,1.1,5.4
			c0,1.1-0.1,2.5-0.2,4c-0.1,1.6-0.2,3.1-0.2,4.7c0,1.1,0,2.2,0.1,3.2c0.1,1,0.3,1.9,0.6,2.6h-10.7c-0.1-0.6-0.3-1.2-0.3-1.7
			c-0.1-0.5-0.1-1.1-0.1-1.6c0-1.7,0.1-3.4,0.3-5.1c0.2-1.7,0.3-3.4,0.3-5.1c0-1.2-0.2-2.2-0.5-3c-0.3-0.8-0.8-1.4-1.5-1.9
			c-0.6-0.5-1.4-0.8-2.3-0.9c-0.9-0.2-1.9-0.2-2.9-0.2h-10.4l-4.1,19.5h-10.9l10.4-50H438.6z M431.1,302.6c1.5,0,2.9-0.2,4.3-0.5
			c1.4-0.3,2.6-0.8,3.6-1.4c1.1-0.6,1.9-1.4,2.5-2.5c0.6-1,0.9-2.2,0.9-3.6c0-1.4-0.2-2.4-0.7-3.3c-0.4-0.8-1-1.4-1.8-1.9
			c-0.7-0.4-1.6-0.7-2.6-0.8c-1-0.1-2-0.2-3.1-0.2h-10.4l-2.9,14.1H431.1z"/>
		<path d="M503.4,280l-1.9,9.2h-27.2l-2.2,10.7h25.1l-1.8,8.5h-25.1l-2.6,12.2h27.6l-2,9.2h-38.5l10.4-50H503.4z"/>
		<path d="M537.1,280l8.3,50h-10.9l-1.6-11.1h-18.7l-6.3,11.1h-11.6l29.5-50H537.1z M531.9,310.7l-2.5-19.9h-0.1l-10.8,19.9H531.9z"
			/>
		<path d="M570.8,280l-4.3,20.9h0.1l22.7-20.9h14.6l-24,20.6l15.3,29.4h-12.4l-11.4-22.5l-7.6,6.6l-3.3,15.8h-11l10.4-50H570.8z"/>
		<path d="M646,280l-2,9.2h-24.5l-2.5,11.5h21.4l-1.8,8.5h-21.3l-4.4,20.7H600l10.5-50H646z"/>
		<path d="M673.3,280l8.3,50h-10.9l-1.6-11.1h-18.7l-6.3,11.1h-11.6l29.5-50H673.3z M668.1,310.7l-2.5-19.9h-0.1l-10.8,19.9H668.1z"
			/>
		<path d="M697.2,317.9c0.5,1.2,1.3,2.1,2.2,2.8c1,0.7,2.1,1.2,3.5,1.5c1.4,0.3,2.8,0.5,4.4,0.5c1.1,0,2.2-0.1,3.4-0.4
			c1.1-0.3,2.1-0.7,3-1.3c0.9-0.6,1.7-1.3,2.2-2.2c0.6-0.9,0.9-2,0.9-3.2c0-1.2-0.4-2.2-1.1-3c-0.7-0.8-1.7-1.4-2.9-2
			c-1.2-0.6-2.5-1.1-4.1-1.5c-1.5-0.4-3-0.9-4.6-1.3c-1.6-0.5-3.1-1-4.6-1.7c-1.5-0.7-2.8-1.5-4-2.5c-1.2-1-2.1-2.3-2.9-3.8
			c-0.7-1.5-1.1-3.3-1.1-5.5c0-2.8,0.6-5.2,1.8-7.1c1.2-2,2.7-3.6,4.6-4.8c1.9-1.2,4-2.1,6.3-2.7c2.4-0.6,4.7-0.9,7.2-0.9
			c2.6,0,5,0.3,7.2,0.9c2.3,0.6,4.2,1.5,6,2.8c1.7,1.3,3.1,3,4.1,5c1,2,1.5,4.5,1.5,7.4h-10.4c0-1.4-0.2-2.6-0.6-3.5
			c-0.4-1-1.1-1.7-1.9-2.3c-0.8-0.6-1.8-1-2.9-1.3c-1.1-0.3-2.3-0.4-3.6-0.4c-1,0-2.1,0.1-3.1,0.3s-2,0.6-2.8,1.1
			c-0.8,0.5-1.5,1.1-2,1.9c-0.5,0.8-0.8,1.8-0.8,2.9c0,1.2,0.5,2.2,1.4,3c0.9,0.8,2,1.5,3.3,2c1.3,0.5,2.6,1,4,1.3
			c1.4,0.3,2.5,0.5,3.3,0.7c2,0.5,3.8,1.1,5.4,1.8c1.6,0.7,3,1.6,4.2,2.6c1.2,1.1,2.1,2.4,2.8,3.9c0.7,1.5,1,3.4,1,5.7
			c0,3-0.6,5.5-1.9,7.6c-1.2,2.1-2.8,3.8-4.8,5.1c-1.9,1.3-4.1,2.3-6.5,2.8s-4.8,0.9-7.2,0.9c-7,0-12.2-1.4-15.6-4.3
			c-3.4-2.8-5.1-7.3-5.1-13.4h10.4C696.5,315.2,696.7,316.7,697.2,317.9z"/>
		<path d="M734.9,289.3l2-9.2h41.7l-2,9.2h-15l-8.5,40.7h-11.1l8.5-40.7H734.9z"/>
	</g>
	<g id="XMLID_4_" class="st0">
		<path class="st1" d="M45.4,388c2.5,0,4.8,0.2,6.8,0.5c2,0.3,3.7,0.9,5.1,1.8c1.4,0.9,2.5,2.1,3.2,3.6c0.7,1.5,1.1,3.5,1.1,5.8
			c0,1.4-0.2,2.8-0.6,4.1s-1,2.5-1.9,3.6c-0.8,1-1.8,1.9-2.9,2.6c-1.1,0.7-2.5,1.1-4,1.3v0.1c2.4,0.7,4.2,1.9,5.5,3.7
			c1.3,1.8,1.9,4,1.9,6.4c0,2.7-0.5,5.1-1.6,7.1c-1,2.1-2.5,3.8-4.2,5.1c-1.8,1.4-3.8,2.4-6.1,3.1c-2.3,0.7-4.7,1-7.2,1H14l10.4-50
			H45.4z M40.1,429.5c2.5,0,4.6-0.7,6.2-2c1.6-1.4,2.4-3.4,2.4-6c0-1.3-0.3-2.3-0.8-3.1c-0.5-0.7-1.2-1.3-2.1-1.7
			c-0.8-0.4-1.8-0.6-2.8-0.7c-1-0.1-2-0.1-3-0.1H29.3l-2.9,13.7H40.1z M43.3,408.2c2,0,3.7-0.5,5.2-1.6c1.5-1.1,2.2-2.7,2.2-4.9
			c0-2-0.5-3.3-1.6-4c-1-0.7-2.5-1.1-4.2-1.1H33.3l-2.5,11.7H43.3z"/>
		<path class="st1" d="M113.1,388l-1.9,9.2H84.1L81.8,408H107l-1.8,8.5H80l-2.6,12.2H105l-2,9.2H64.6L75,388H113.1z"/>
		<path class="st1" d="M139.8,388c7,0,12.3,1.7,15.9,5.1c3.5,3.4,5.3,8.2,5.3,14.4c0,4.3-0.6,8.4-1.8,12.1c-1.2,3.7-3,7-5.4,9.7
			c-2.4,2.7-5.4,4.9-9,6.4c-3.6,1.5-7.8,2.3-12.6,2.3h-20.9l10.5-50H139.8z M132.6,428.8c2.8,0,5.3-0.5,7.5-1.5c2.2-1,4-2.4,5.5-4.2
			c1.5-1.8,2.6-3.8,3.4-6.2c0.8-2.3,1.2-4.8,1.2-7.5c0-1.8-0.2-3.5-0.6-4.9c-0.4-1.5-1-2.7-1.9-3.8c-0.9-1.1-2-1.9-3.4-2.5
			c-1.4-0.6-3-0.9-5-0.9h-8.3l-6.7,31.5H132.6z"/>
		<path class="st1" d="M218.2,388l8.3,50h-10.9l-1.6-11.1h-18.7L189,438h-11.5l29.5-50H218.2z M213,418.7l-2.5-19.9h-0.1l-10.8,19.9
			H213z"/>
		<path class="st1" d="M252.4,388l13.6,35.6h0.1l7.1-35.6h10.1l-10.6,50h-11L248,402.9h-0.1l-7.1,35.1h-10.2l10.5-50H252.4z"/>
		<path class="st1" d="M311,388c7,0,12.3,1.7,15.9,5.1c3.5,3.4,5.3,8.2,5.3,14.4c0,4.3-0.6,8.4-1.8,12.1c-1.2,3.7-3,7-5.4,9.7
			c-2.4,2.7-5.4,4.9-9,6.4c-3.6,1.5-7.8,2.3-12.6,2.3h-20.9l10.5-50H311z M303.7,428.8c2.8,0,5.3-0.5,7.5-1.5c2.2-1,4-2.4,5.5-4.2
			c1.5-1.8,2.6-3.8,3.4-6.2c0.8-2.3,1.2-4.8,1.2-7.5c0-1.8-0.2-3.5-0.6-4.9c-0.4-1.5-1-2.7-1.9-3.8c-0.9-1.1-2-1.9-3.4-2.5
			c-1.4-0.6-3-0.9-5-0.9H302l-6.7,31.5H303.7z"/>
		<path class="st1" d="M385.2,388c2.5,0,4.8,0.2,6.8,0.5c2,0.3,3.7,0.9,5.1,1.8c1.4,0.9,2.5,2.1,3.2,3.6c0.7,1.5,1.1,3.5,1.1,5.8
			c0,1.4-0.2,2.8-0.6,4.1s-1,2.5-1.9,3.6s-1.8,1.9-2.9,2.6c-1.1,0.7-2.5,1.1-4,1.3v0.1c2.4,0.7,4.2,1.9,5.5,3.7
			c1.3,1.8,1.9,4,1.9,6.4c0,2.7-0.5,5.1-1.6,7.1c-1,2.1-2.5,3.8-4.2,5.1c-1.8,1.4-3.8,2.4-6.1,3.1c-2.3,0.7-4.7,1-7.2,1h-26.6
			l10.4-50H385.2z M379.8,429.5c2.5,0,4.6-0.7,6.2-2c1.6-1.4,2.4-3.4,2.4-6c0-1.3-0.3-2.3-0.8-3.1c-0.5-0.7-1.2-1.3-2.1-1.7
			c-0.8-0.4-1.8-0.6-2.8-0.7c-1-0.1-2-0.1-3-0.1H369l-2.9,13.7H379.8z M383,408.2c2,0,3.7-0.5,5.2-1.6c1.5-1.1,2.2-2.7,2.2-4.9
			c0-2-0.5-3.3-1.6-4c-1-0.7-2.5-1.1-4.2-1.1H373l-2.5,11.7H383z"/>
		<path class="st1" d="M438.6,388c2.2,0,4.3,0.2,6.1,0.6s3.4,1.2,4.7,2.2c1.3,1,2.3,2.4,3,4.1c0.7,1.7,1,3.7,1,6.2
			c0,1.7-0.3,3.3-0.8,4.8s-1.4,2.9-2.4,4.1c-1,1.2-2.2,2.2-3.6,3c-1.4,0.8-2.9,1.3-4.6,1.5v0.1c2.1,0.7,3.4,1.8,4.1,3.4
			s1.1,3.4,1.1,5.4c0,1.1-0.1,2.5-0.2,4c-0.1,1.6-0.2,3.1-0.2,4.7c0,1.1,0,2.2,0.1,3.2c0.1,1,0.3,1.9,0.6,2.6h-10.7
			c-0.1-0.6-0.3-1.2-0.3-1.7c-0.1-0.5-0.1-1.1-0.1-1.6c0-1.7,0.1-3.4,0.3-5.1c0.2-1.7,0.3-3.4,0.3-5.1c0-1.2-0.2-2.2-0.5-3
			c-0.3-0.8-0.8-1.4-1.5-1.9c-0.6-0.5-1.4-0.8-2.3-0.9c-0.9-0.2-1.9-0.2-2.9-0.2h-10.4l-4.1,19.5h-10.9l10.4-50H438.6z M431.1,410.6
			c1.5,0,2.9-0.2,4.3-0.5c1.4-0.3,2.6-0.8,3.6-1.4c1.1-0.6,1.9-1.4,2.5-2.5c0.6-1,0.9-2.2,0.9-3.6c0-1.4-0.2-2.4-0.7-3.3
			c-0.4-0.8-1-1.4-1.8-1.9c-0.7-0.4-1.6-0.7-2.6-0.8c-1-0.1-2-0.2-3.1-0.2h-10.4l-2.9,14.1H431.1z"/>
		<path class="st1" d="M503.4,388l-1.9,9.2h-27.2l-2.2,10.7h25.1l-1.8,8.5h-25.1l-2.6,12.2h27.6l-2,9.2h-38.5l10.4-50H503.4z"/>
		<path class="st1" d="M537.1,388l8.3,50h-10.9l-1.6-11.1h-18.7l-6.3,11.1h-11.6l29.5-50H537.1z M531.9,418.7l-2.5-19.9h-0.1
			l-10.8,19.9H531.9z"/>
		<path class="st1" d="M570.8,388l-4.3,20.9h0.1l22.7-20.9h14.6l-24,20.6l15.3,29.4h-12.4l-11.4-22.5l-7.6,6.6l-3.3,15.8h-11
			l10.4-50H570.8z"/>
		<path class="st1" d="M646,388l-2,9.2h-24.5l-2.5,11.5h21.4l-1.8,8.5h-21.3l-4.4,20.7H600l10.5-50H646z"/>
		<path class="st1" d="M673.3,388l8.3,50h-10.9l-1.6-11.1h-18.7l-6.3,11.1h-11.6l29.5-50H673.3z M668.1,418.7l-2.5-19.9h-0.1
			l-10.8,19.9H668.1z"/>
		<path class="st1" d="M697.2,425.9c0.5,1.2,1.3,2.1,2.2,2.8c1,0.7,2.1,1.2,3.5,1.5c1.4,0.3,2.8,0.5,4.4,0.5c1.1,0,2.2-0.1,3.4-0.4
			c1.1-0.3,2.1-0.7,3-1.3c0.9-0.6,1.7-1.3,2.2-2.2c0.6-0.9,0.9-2,0.9-3.2c0-1.2-0.4-2.2-1.1-3c-0.7-0.8-1.7-1.4-2.9-2
			c-1.2-0.6-2.5-1.1-4.1-1.5c-1.5-0.4-3-0.9-4.6-1.3c-1.6-0.5-3.1-1-4.6-1.7c-1.5-0.7-2.8-1.5-4-2.5c-1.2-1-2.1-2.3-2.9-3.8
			c-0.7-1.5-1.1-3.3-1.1-5.5c0-2.8,0.6-5.2,1.8-7.1c1.2-2,2.7-3.6,4.6-4.8c1.9-1.2,4-2.1,6.3-2.7c2.4-0.6,4.7-0.9,7.2-0.9
			c2.6,0,5,0.3,7.2,0.9c2.3,0.6,4.2,1.5,6,2.8c1.7,1.3,3.1,3,4.1,5c1,2,1.5,4.5,1.5,7.4h-10.4c0-1.4-0.2-2.6-0.6-3.5
			c-0.4-1-1.1-1.7-1.9-2.3c-0.8-0.6-1.8-1-2.9-1.3c-1.1-0.3-2.3-0.4-3.6-0.4c-1,0-2.1,0.1-3.1,0.3s-2,0.6-2.8,1.1
			c-0.8,0.5-1.5,1.1-2,1.9c-0.5,0.8-0.8,1.8-0.8,2.9c0,1.2,0.5,2.2,1.4,3c0.9,0.8,2,1.5,3.3,2c1.3,0.5,2.6,1,4,1.3
			c1.4,0.3,2.5,0.5,3.3,0.7c2,0.5,3.8,1.1,5.4,1.8c1.6,0.7,3,1.6,4.2,2.6c1.2,1.1,2.1,2.4,2.8,3.9c0.7,1.5,1,3.4,1,5.7
			c0,3-0.6,5.5-1.9,7.6c-1.2,2.1-2.8,3.8-4.8,5.1c-1.9,1.3-4.1,2.3-6.5,2.8s-4.8,0.9-7.2,0.9c-7,0-12.2-1.4-15.6-4.3
			c-3.4-2.8-5.1-7.3-5.1-13.4h10.4C696.5,423.2,696.7,424.7,697.2,425.9z"/>
		<path class="st1" d="M734.9,397.3l2-9.2h41.7l-2,9.2h-15l-8.5,40.7h-11.1l8.5-40.7H734.9z"/>
	</g>
	<g id="XMLID_5_" class="st0">
		<path class="st2" d="M45.4,164c2.5,0,4.8,0.2,6.8,0.5c2,0.3,3.7,0.9,5.1,1.8c1.4,0.9,2.5,2.1,3.2,3.6c0.7,1.5,1.1,3.5,1.1,5.8
			c0,1.4-0.2,2.8-0.6,4.1s-1,2.5-1.9,3.6c-0.8,1-1.8,1.9-2.9,2.6c-1.1,0.7-2.5,1.1-4,1.3v0.1c2.4,0.7,4.2,1.9,5.5,3.7
			c1.3,1.8,1.9,4,1.9,6.4c0,2.7-0.5,5.1-1.6,7.1c-1,2.1-2.5,3.8-4.2,5.1c-1.8,1.4-3.8,2.4-6.1,3.1c-2.3,0.7-4.7,1-7.2,1H14l10.4-50
			H45.4z M40.1,205.5c2.5,0,4.6-0.7,6.2-2c1.6-1.4,2.4-3.4,2.4-6c0-1.3-0.3-2.3-0.8-3.1c-0.5-0.7-1.2-1.3-2.1-1.7
			c-0.8-0.4-1.8-0.6-2.8-0.7c-1-0.1-2-0.1-3-0.1H29.3l-2.9,13.7H40.1z M43.3,184.2c2,0,3.7-0.5,5.2-1.6c1.5-1.1,2.2-2.7,2.2-4.9
			c0-2-0.5-3.3-1.6-4c-1-0.7-2.5-1.1-4.2-1.1H33.3l-2.5,11.7H43.3z"/>
		<path class="st2" d="M113.1,164l-1.9,9.2H84.1L81.8,184H107l-1.8,8.5H80l-2.6,12.2H105l-2,9.2H64.6L75,164H113.1z"/>
		<path class="st2" d="M139.8,164c7,0,12.3,1.7,15.9,5.1c3.5,3.4,5.3,8.2,5.3,14.4c0,4.3-0.6,8.4-1.8,12.1c-1.2,3.7-3,7-5.4,9.7
			c-2.4,2.7-5.4,4.9-9,6.4c-3.6,1.5-7.8,2.3-12.6,2.3h-20.9l10.5-50H139.8z M132.6,204.8c2.8,0,5.3-0.5,7.5-1.5c2.2-1,4-2.4,5.5-4.2
			c1.5-1.8,2.6-3.8,3.4-6.2c0.8-2.3,1.2-4.8,1.2-7.5c0-1.8-0.2-3.5-0.6-4.9c-0.4-1.5-1-2.7-1.9-3.8c-0.9-1.1-2-1.9-3.4-2.5
			c-1.4-0.6-3-0.9-5-0.9h-8.3l-6.7,31.5H132.6z"/>
		<path class="st2" d="M218.2,164l8.3,50h-10.9l-1.6-11.1h-18.7L189,214h-11.5l29.5-50H218.2z M213,194.7l-2.5-19.9h-0.1l-10.8,19.9
			H213z"/>
		<path class="st2" d="M252.4,164l13.6,35.6h0.1l7.1-35.6h10.1l-10.6,50h-11L248,178.9h-0.1l-7.1,35.1h-10.2l10.5-50H252.4z"/>
		<path class="st2" d="M311,164c7,0,12.3,1.7,15.9,5.1c3.5,3.4,5.3,8.2,5.3,14.4c0,4.3-0.6,8.4-1.8,12.1c-1.2,3.7-3,7-5.4,9.7
			c-2.4,2.7-5.4,4.9-9,6.4c-3.6,1.5-7.8,2.3-12.6,2.3h-20.9l10.5-50H311z M303.7,204.8c2.8,0,5.3-0.5,7.5-1.5c2.2-1,4-2.4,5.5-4.2
			c1.5-1.8,2.6-3.8,3.4-6.2c0.8-2.3,1.2-4.8,1.2-7.5c0-1.8-0.2-3.5-0.6-4.9c-0.4-1.5-1-2.7-1.9-3.8c-0.9-1.1-2-1.9-3.4-2.5
			c-1.4-0.6-3-0.9-5-0.9H302l-6.7,31.5H303.7z"/>
		<path class="st2" d="M385.2,164c2.5,0,4.8,0.2,6.8,0.5c2,0.3,3.7,0.9,5.1,1.8c1.4,0.9,2.5,2.1,3.2,3.6c0.7,1.5,1.1,3.5,1.1,5.8
			c0,1.4-0.2,2.8-0.6,4.1s-1,2.5-1.9,3.6s-1.8,1.9-2.9,2.6c-1.1,0.7-2.5,1.1-4,1.3v0.1c2.4,0.7,4.2,1.9,5.5,3.7
			c1.3,1.8,1.9,4,1.9,6.4c0,2.7-0.5,5.1-1.6,7.1c-1,2.1-2.5,3.8-4.2,5.1c-1.8,1.4-3.8,2.4-6.1,3.1c-2.3,0.7-4.7,1-7.2,1h-26.6
			l10.4-50H385.2z M379.8,205.5c2.5,0,4.6-0.7,6.2-2c1.6-1.4,2.4-3.4,2.4-6c0-1.3-0.3-2.3-0.8-3.1c-0.5-0.7-1.2-1.3-2.1-1.7
			c-0.8-0.4-1.8-0.6-2.8-0.7c-1-0.1-2-0.1-3-0.1H369l-2.9,13.7H379.8z M383,184.2c2,0,3.7-0.5,5.2-1.6c1.5-1.1,2.2-2.7,2.2-4.9
			c0-2-0.5-3.3-1.6-4c-1-0.7-2.5-1.1-4.2-1.1H373l-2.5,11.7H383z"/>
		<path class="st2" d="M438.6,164c2.2,0,4.3,0.2,6.1,0.6s3.4,1.2,4.7,2.2c1.3,1,2.3,2.4,3,4.1c0.7,1.7,1,3.7,1,6.2
			c0,1.7-0.3,3.3-0.8,4.8s-1.4,2.9-2.4,4.1c-1,1.2-2.2,2.2-3.6,3c-1.4,0.8-2.9,1.3-4.6,1.5v0.1c2.1,0.7,3.4,1.8,4.1,3.4
			s1.1,3.4,1.1,5.4c0,1.1-0.1,2.5-0.2,4c-0.1,1.6-0.2,3.1-0.2,4.7c0,1.1,0,2.2,0.1,3.2c0.1,1,0.3,1.9,0.6,2.6h-10.7
			c-0.1-0.6-0.3-1.2-0.3-1.7c-0.1-0.5-0.1-1.1-0.1-1.6c0-1.7,0.1-3.4,0.3-5.1c0.2-1.7,0.3-3.4,0.3-5.1c0-1.2-0.2-2.2-0.5-3
			c-0.3-0.8-0.8-1.4-1.5-1.9c-0.6-0.5-1.4-0.8-2.3-0.9c-0.9-0.2-1.9-0.2-2.9-0.2h-10.4l-4.1,19.5h-10.9l10.4-50H438.6z M431.1,186.6
			c1.5,0,2.9-0.2,4.3-0.5c1.4-0.3,2.6-0.8,3.6-1.4c1.1-0.6,1.9-1.4,2.5-2.5c0.6-1,0.9-2.2,0.9-3.6c0-1.4-0.2-2.4-0.7-3.3
			c-0.4-0.8-1-1.4-1.8-1.9c-0.7-0.4-1.6-0.7-2.6-0.8c-1-0.1-2-0.2-3.1-0.2h-10.4l-2.9,14.1H431.1z"/>
		<path class="st2" d="M503.4,164l-1.9,9.2h-27.2l-2.2,10.7h25.1l-1.8,8.5h-25.1l-2.6,12.2h27.6l-2,9.2h-38.5l10.4-50H503.4z"/>
		<path class="st2" d="M537.1,164l8.3,50h-10.9l-1.6-11.1h-18.7l-6.3,11.1h-11.6l29.5-50H537.1z M531.9,194.7l-2.5-19.9h-0.1
			l-10.8,19.9H531.9z"/>
		<path class="st2" d="M570.8,164l-4.3,20.9h0.1l22.7-20.9h14.6l-24,20.6l15.3,29.4h-12.4l-11.4-22.5l-7.6,6.6l-3.3,15.8h-11
			l10.4-50H570.8z"/>
		<path class="st2" d="M646,164l-2,9.2h-24.5l-2.5,11.5h21.4l-1.8,8.5h-21.3l-4.4,20.7H600l10.5-50H646z"/>
		<path class="st2" d="M673.3,164l8.3,50h-10.9l-1.6-11.1h-18.7l-6.3,11.1h-11.6l29.5-50H673.3z M668.1,194.7l-2.5-19.9h-0.1
			l-10.8,19.9H668.1z"/>
		<path class="st2" d="M697.2,201.9c0.5,1.2,1.3,2.1,2.2,2.8c1,0.7,2.1,1.2,3.5,1.5c1.4,0.3,2.8,0.5,4.4,0.5c1.1,0,2.2-0.1,3.4-0.4
			c1.1-0.3,2.1-0.7,3-1.3c0.9-0.6,1.7-1.3,2.2-2.2c0.6-0.9,0.9-2,0.9-3.2c0-1.2-0.4-2.2-1.1-3c-0.7-0.8-1.7-1.4-2.9-2
			c-1.2-0.6-2.5-1.1-4.1-1.5c-1.5-0.4-3-0.9-4.6-1.3c-1.6-0.5-3.1-1-4.6-1.7c-1.5-0.7-2.8-1.5-4-2.5c-1.2-1-2.1-2.3-2.9-3.8
			c-0.7-1.5-1.1-3.3-1.1-5.5c0-2.8,0.6-5.2,1.8-7.1c1.2-2,2.7-3.6,4.6-4.8c1.9-1.2,4-2.1,6.3-2.7c2.4-0.6,4.7-0.9,7.2-0.9
			c2.6,0,5,0.3,7.2,0.9c2.3,0.6,4.2,1.5,6,2.8c1.7,1.3,3.1,3,4.1,5c1,2,1.5,4.5,1.5,7.4h-10.4c0-1.4-0.2-2.6-0.6-3.5
			c-0.4-1-1.1-1.7-1.9-2.3c-0.8-0.6-1.8-1-2.9-1.3c-1.1-0.3-2.3-0.4-3.6-0.4c-1,0-2.1,0.1-3.1,0.3s-2,0.6-2.8,1.1
			c-0.8,0.5-1.5,1.1-2,1.9c-0.5,0.8-0.8,1.8-0.8,2.9c0,1.2,0.5,2.2,1.4,3c0.9,0.8,2,1.5,3.3,2c1.3,0.5,2.6,1,4,1.3
			c1.4,0.3,2.5,0.5,3.3,0.7c2,0.5,3.8,1.1,5.4,1.8c1.6,0.7,3,1.6,4.2,2.6c1.2,1.1,2.1,2.4,2.8,3.9c0.7,1.5,1,3.4,1,5.7
			c0,3-0.6,5.5-1.9,7.6c-1.2,2.1-2.8,3.8-4.8,5.1c-1.9,1.3-4.1,2.3-6.5,2.8s-4.8,0.9-7.2,0.9c-7,0-12.2-1.4-15.6-4.3
			c-3.4-2.8-5.1-7.3-5.1-13.4h10.4C696.5,199.2,696.7,200.7,697.2,201.9z"/>
		<path class="st2" d="M734.9,173.3l2-9.2h41.7l-2,9.2h-15l-8.5,40.7h-11.1l8.5-40.7H734.9z"/>
	</g>
	<g id="XMLID_6_" class="st0">
		<path d="M45.4,518c2.5,0,4.8,0.2,6.8,0.5c2,0.3,3.7,0.9,5.1,1.8c1.4,0.9,2.5,2.1,3.2,3.6c0.7,1.5,1.1,3.5,1.1,5.8
			c0,1.4-0.2,2.8-0.6,4.1s-1,2.5-1.9,3.6c-0.8,1-1.8,1.9-2.9,2.6c-1.1,0.7-2.5,1.1-4,1.3v0.1c2.4,0.7,4.2,1.9,5.5,3.7
			c1.3,1.8,1.9,4,1.9,6.4c0,2.7-0.5,5.1-1.6,7.1c-1,2.1-2.5,3.8-4.2,5.1c-1.8,1.4-3.8,2.4-6.1,3.1c-2.3,0.7-4.7,1-7.2,1H14l10.4-50
			H45.4z M40.1,559.5c2.5,0,4.6-0.7,6.2-2c1.6-1.4,2.4-3.4,2.4-6c0-1.3-0.3-2.3-0.8-3.1c-0.5-0.7-1.2-1.3-2.1-1.7
			c-0.8-0.4-1.8-0.6-2.8-0.7c-1-0.1-2-0.1-3-0.1H29.3l-2.9,13.7H40.1z M43.3,538.2c2,0,3.7-0.5,5.2-1.6c1.5-1.1,2.2-2.7,2.2-4.9
			c0-2-0.5-3.3-1.6-4c-1-0.7-2.5-1.1-4.2-1.1H33.3l-2.5,11.7H43.3z"/>
		<path d="M113.1,518l-1.9,9.2H84.1L81.8,538H107l-1.8,8.5H80l-2.6,12.2H105l-2,9.2H64.6L75,518H113.1z"/>
		<path d="M139.8,518c7,0,12.3,1.7,15.9,5.1c3.5,3.4,5.3,8.2,5.3,14.4c0,4.3-0.6,8.4-1.8,12.1c-1.2,3.7-3,7-5.4,9.7
			c-2.4,2.7-5.4,4.9-9,6.4c-3.6,1.5-7.8,2.3-12.6,2.3h-20.9l10.5-50H139.8z M132.6,558.8c2.8,0,5.3-0.5,7.5-1.5c2.2-1,4-2.4,5.5-4.2
			c1.5-1.8,2.6-3.8,3.4-6.2c0.8-2.3,1.2-4.8,1.2-7.5c0-1.8-0.2-3.5-0.6-4.9c-0.4-1.5-1-2.7-1.9-3.8c-0.9-1.1-2-1.9-3.4-2.5
			c-1.4-0.6-3-0.9-5-0.9h-8.3l-6.7,31.5H132.6z"/>
		<path d="M218.2,518l8.3,50h-10.9l-1.6-11.1h-18.7L189,568h-11.5l29.5-50H218.2z M213,548.7l-2.5-19.9h-0.1l-10.8,19.9H213z"/>
		<path d="M252.4,518l13.6,35.6h0.1l7.1-35.6h10.1l-10.6,50h-11L248,532.9h-0.1l-7.1,35.1h-10.2l10.5-50H252.4z"/>
		<path d="M311,518c7,0,12.3,1.7,15.9,5.1c3.5,3.4,5.3,8.2,5.3,14.4c0,4.3-0.6,8.4-1.8,12.1c-1.2,3.7-3,7-5.4,9.7
			c-2.4,2.7-5.4,4.9-9,6.4c-3.6,1.5-7.8,2.3-12.6,2.3h-20.9l10.5-50H311z M303.7,558.8c2.8,0,5.3-0.5,7.5-1.5c2.2-1,4-2.4,5.5-4.2
			c1.5-1.8,2.6-3.8,3.4-6.2c0.8-2.3,1.2-4.8,1.2-7.5c0-1.8-0.2-3.5-0.6-4.9c-0.4-1.5-1-2.7-1.9-3.8c-0.9-1.1-2-1.9-3.4-2.5
			c-1.4-0.6-3-0.9-5-0.9H302l-6.7,31.5H303.7z"/>
		<path d="M385.2,518c2.5,0,4.8,0.2,6.8,0.5c2,0.3,3.7,0.9,5.1,1.8c1.4,0.9,2.5,2.1,3.2,3.6c0.7,1.5,1.1,3.5,1.1,5.8
			c0,1.4-0.2,2.8-0.6,4.1s-1,2.5-1.9,3.6s-1.8,1.9-2.9,2.6c-1.1,0.7-2.5,1.1-4,1.3v0.1c2.4,0.7,4.2,1.9,5.5,3.7
			c1.3,1.8,1.9,4,1.9,6.4c0,2.7-0.5,5.1-1.6,7.1c-1,2.1-2.5,3.8-4.2,5.1c-1.8,1.4-3.8,2.4-6.1,3.1c-2.3,0.7-4.7,1-7.2,1h-26.6
			l10.4-50H385.2z M379.8,559.5c2.5,0,4.6-0.7,6.2-2c1.6-1.4,2.4-3.4,2.4-6c0-1.3-0.3-2.3-0.8-3.1c-0.5-0.7-1.2-1.3-2.1-1.7
			c-0.8-0.4-1.8-0.6-2.8-0.7c-1-0.1-2-0.1-3-0.1H369l-2.9,13.7H379.8z M383,538.2c2,0,3.7-0.5,5.2-1.6c1.5-1.1,2.2-2.7,2.2-4.9
			c0-2-0.5-3.3-1.6-4c-1-0.7-2.5-1.1-4.2-1.1H373l-2.5,11.7H383z"/>
		<path d="M438.6,518c2.2,0,4.3,0.2,6.1,0.6s3.4,1.2,4.7,2.2c1.3,1,2.3,2.4,3,4.1c0.7,1.7,1,3.7,1,6.2c0,1.7-0.3,3.3-0.8,4.8
			s-1.4,2.9-2.4,4.1c-1,1.2-2.2,2.2-3.6,3c-1.4,0.8-2.9,1.3-4.6,1.5v0.1c2.1,0.7,3.4,1.8,4.1,3.4s1.1,3.4,1.1,5.4
			c0,1.1-0.1,2.5-0.2,4c-0.1,1.6-0.2,3.1-0.2,4.7c0,1.1,0,2.2,0.1,3.2c0.1,1,0.3,1.9,0.6,2.6h-10.7c-0.1-0.6-0.3-1.2-0.3-1.7
			c-0.1-0.5-0.1-1.1-0.1-1.6c0-1.7,0.1-3.4,0.3-5.1c0.2-1.7,0.3-3.4,0.3-5.1c0-1.2-0.2-2.2-0.5-3c-0.3-0.8-0.8-1.4-1.5-1.9
			c-0.6-0.5-1.4-0.8-2.3-0.9c-0.9-0.2-1.9-0.2-2.9-0.2h-10.4l-4.1,19.5h-10.9l10.4-50H438.6z M431.1,540.6c1.5,0,2.9-0.2,4.3-0.5
			c1.4-0.3,2.6-0.8,3.6-1.4c1.1-0.6,1.9-1.4,2.5-2.5c0.6-1,0.9-2.2,0.9-3.6c0-1.4-0.2-2.4-0.7-3.3c-0.4-0.8-1-1.4-1.8-1.9
			c-0.7-0.4-1.6-0.7-2.6-0.8c-1-0.1-2-0.2-3.1-0.2h-10.4l-2.9,14.1H431.1z"/>
		<path d="M503.4,518l-1.9,9.2h-27.2l-2.2,10.7h25.1l-1.8,8.5h-25.1l-2.6,12.2h27.6l-2,9.2h-38.5l10.4-50H503.4z"/>
		<path d="M537.1,518l8.3,50h-10.9l-1.6-11.1h-18.7l-6.3,11.1h-11.6l29.5-50H537.1z M531.9,548.7l-2.5-19.9h-0.1l-10.8,19.9H531.9z"
			/>
		<path d="M570.8,518l-4.3,20.9h0.1l22.7-20.9h14.6l-24,20.6l15.3,29.4h-12.4l-11.4-22.5l-7.6,6.6l-3.3,15.8h-11l10.4-50H570.8z"/>
		<path d="M646,518l-2,9.2h-24.5l-2.5,11.5h21.4l-1.8,8.5h-21.3l-4.4,20.7H600l10.5-50H646z"/>
		<path d="M673.3,518l8.3,50h-10.9l-1.6-11.1h-18.7l-6.3,11.1h-11.6l29.5-50H673.3z M668.1,548.7l-2.5-19.9h-0.1l-10.8,19.9H668.1z"
			/>
		<path d="M697.2,555.9c0.5,1.2,1.3,2.1,2.2,2.8c1,0.7,2.1,1.2,3.5,1.5c1.4,0.3,2.8,0.5,4.4,0.5c1.1,0,2.2-0.1,3.4-0.4
			c1.1-0.3,2.1-0.7,3-1.3c0.9-0.6,1.7-1.3,2.2-2.2c0.6-0.9,0.9-2,0.9-3.2c0-1.2-0.4-2.2-1.1-3c-0.7-0.8-1.7-1.4-2.9-2
			c-1.2-0.6-2.5-1.1-4.1-1.5c-1.5-0.4-3-0.9-4.6-1.3c-1.6-0.5-3.1-1-4.6-1.7c-1.5-0.7-2.8-1.5-4-2.5c-1.2-1-2.1-2.3-2.9-3.8
			c-0.7-1.5-1.1-3.3-1.1-5.5c0-2.8,0.6-5.2,1.8-7.1c1.2-2,2.7-3.6,4.6-4.8c1.9-1.2,4-2.1,6.3-2.7c2.4-0.6,4.7-0.9,7.2-0.9
			c2.6,0,5,0.3,7.2,0.9c2.3,0.6,4.2,1.5,6,2.8c1.7,1.3,3.1,3,4.1,5c1,2,1.5,4.5,1.5,7.4h-10.4c0-1.4-0.2-2.6-0.6-3.5
			c-0.4-1-1.1-1.7-1.9-2.3c-0.8-0.6-1.8-1-2.9-1.3c-1.1-0.3-2.3-0.4-3.6-0.4c-1,0-2.1,0.1-3.1,0.3s-2,0.6-2.8,1.1
			c-0.8,0.5-1.5,1.1-2,1.9c-0.5,0.8-0.8,1.8-0.8,2.9c0,1.2,0.5,2.2,1.4,3c0.9,0.8,2,1.5,3.3,2c1.3,0.5,2.6,1,4,1.3
			c1.4,0.3,2.5,0.5,3.3,0.7c2,0.5,3.8,1.1,5.4,1.8c1.6,0.7,3,1.6,4.2,2.6c1.2,1.1,2.1,2.4,2.8,3.9c0.7,1.5,1,3.4,1,5.7
			c0,3-0.6,5.5-1.9,7.6c-1.2,2.1-2.8,3.8-4.8,5.1c-1.9,1.3-4.1,2.3-6.5,2.8s-4.8,0.9-7.2,0.9c-7,0-12.2-1.4-15.6-4.3
			c-3.4-2.8-5.1-7.3-5.1-13.4h10.4C696.5,553.2,696.7,554.7,697.2,555.9z"/>
		<path d="M734.9,527.3l2-9.2h41.7l-2,9.2h-15l-8.5,40.7h-11.1l8.5-40.7H734.9z"/>
	</g>
</g>
</svg>
