<?xml version="1.0" encoding="utf-8"?>
<!-- Generator: Adobe Illustrator 19.0.0, SVG Export Plug-In . SVG Version: 6.00 Build 0)  -->
<svg version="1.1" id="Layer_1" xmlns="http://www.w3.org/2000/svg" xmlns:xlink="http://www.w3.org/1999/xlink" x="0px" y="0px"
	 viewBox="-89 -90 612 792" style="enable-background:new -89 -90 612 792;" xml:space="preserve">
<style type="text/css">
	.st0{fill:#2B2B2B;}
	.st1{fill:#BAAC5A;}
	.st2{fill:none;stroke:#FFDD71;stroke-width:20;stroke-miterlimit:10;}
	.st3{enable-background:new    ;}
	.st4{fill:#C1C1C0;}
	.st5{fill:#FFFFFF;}
</style>
<g>
	<rect x="-89" y="97.7" width="612" height="604.3"/>
	<path class="st0" d="M523,122L523,122c-202.7-32.5-409.3-32.5-612,0l0,0V-90h612V122z"/>
</g>
<path class="st1" d="M226.6,175.3h-19.1c-13.1,0-23.8-10.7-23.8-23.8V92.5c0-13.1,10.7-23.8,23.8-23.8h19.1
	c13.1,0,23.8,10.7,23.8,23.8v59.1C250.4,164.7,239.7,175.3,226.6,175.3z"/>
<path class="st2" d="M226.6,175.3h-19.1c-13.1,0-23.8-10.7-23.8-23.8V92.5c0-13.1,10.7-23.8,23.8-23.8h19.1
	c13.1,0,23.8,10.7,23.8,23.8v59.1C250.4,164.7,239.7,175.3,226.6,175.3z"/>
<g>
	<g class="st3">
		<path class="st4" d="M147.6-81.1c3.3,0,6.4,0.5,9.2,1.4c2.8,0.9,5.3,2.6,7.4,5c2.1,2.4,3.1,5.4,3.1,9c0,3.4-1.2,6.2-3.6,8.6
			c-2.4,2.3-4.7,3.9-6.9,4.7c-0.5,0.2-0.7,0.4-0.5,0.6c3.3,0.4,6.7,2.1,10.3,5.1s5.4,6.8,5.4,11.3c0,3.1-0.9,6.1-2.8,8.8
			c-1.9,2.8-4.3,5.1-7.5,7c-1.8,1-4,1.8-6.5,2.3c-2.5,0.5-4.6,0.8-6.4,0.9c-1.8,0.1-4.2,0.1-7.4,0h-22.8c-0.2-0.3-0.3-0.9-0.3-1.8
			c0-0.9,0.1-1.5,0.3-1.8c3.8-0.3,5.9-0.9,6.2-1.7c0.5-1.3,0.8-4.4,0.8-9.2v-35.9c0-4.8-0.3-7.9-0.8-9.2c-0.3-0.7-2.3-1.2-6.2-1.6
			c-0.3-0.3-0.4-0.9-0.3-1.8c0-0.9,0.1-1.5,0.3-1.8c2.9,0.2,7.6,0.3,14,0.3c1.2,0,3.5,0,6.9-0.1C142.9-81.1,145.6-81.1,147.6-81.1z
			 M139.4-52.9h5.1c2.5,0,4.6-1,6.1-3c1.5-2,2.3-4.8,2.3-8.3c0-8.7-2.7-13-8.1-13c-2.9,0-4.6,0.4-4.9,1.2c-0.3,0.8-0.5,2.8-0.5,6
			V-52.9z M139.4-49.1v21.8c0,3,0.3,4.9,0.8,5.7c0.6,0.8,2.6,1.2,6.2,1.2c2.7,0,5.1-1.1,7.2-3.3c2.1-2.2,3.2-5.5,3.2-10.1
			c0-4.2-1-7.8-2.9-10.8c-1.9-3-5-4.4-9.3-4.4H139.4z"/>
		<path class="st4" d="M189.4-72c6.7-6.5,14.4-9.8,23.1-9.8c8.7,0,16.4,3.3,23.1,9.8c6.7,6.5,10.1,14.3,10.1,23.3
			s-3.4,16.7-10.1,23.2c-6.7,6.5-14.4,9.8-23.1,9.8c-8.7,0-16.4-3.3-23.1-9.8c-6.7-6.5-10.1-14.3-10.1-23.2S182.7-65.4,189.4-72z
			 M210.2-77.6c-3.6,0-6.7,1.4-9,4.1c-2.4,2.7-4,5.9-4.9,9.5c-0.9,3.6-1.3,7.6-1.3,11.9c0,4,0.4,7.8,1.1,11.4
			c0.7,3.6,1.8,7.1,3.3,10.3c1.5,3.2,3.5,5.7,6.2,7.7c2.6,1.9,5.7,2.9,9.1,2.9c3.6,0,6.7-1.3,9.1-4c2.4-2.7,4.1-5.8,5-9.4
			c0.9-3.6,1.4-7.6,1.4-11.9c0-4-0.4-7.8-1.1-11.4c-0.7-3.6-1.9-7.1-3.4-10.3c-1.5-3.2-3.6-5.8-6.2-7.8
			C216.7-76.6,213.7-77.6,210.2-77.6z"/>
		<path class="st4" d="M266.9-80.7c1.6,0,6.2-0.2,14.1-0.6c0.1,0.3,0.2,0.9,0.1,2c0,1.1-0.1,1.6-0.3,1.6c-1,0-2.1,0.2-3.3,0.5
			c-1.2,0.4-1.8,0.9-1.9,1.5c0,0.7,0.3,1.4,0.8,2.1l10.8,16.4c0.9-1.2,2.5-3.1,4.6-5.7c2.2-2.6,4-4.9,5.3-6.7
			c1.4-1.8,2.3-3.2,2.7-4.2c0.2-0.4,0.3-0.7,0.3-1c0-0.8-0.8-1.5-2.3-2.1c-1.5-0.6-3.2-0.9-4.9-0.9c-0.3,0-0.4-0.5-0.4-1.6
			c0-1.1,0.1-1.7,0.3-2c4,0.5,8.3,0.7,13,0.7c4.5,0,8.4-0.2,11.7-0.7c0.2,0.3,0.3,1,0.3,2.1c0,1-0.1,1.6-0.4,1.6
			c-4.4,0-8,1.7-10.9,5.2l-16.7,19.8c11.2,16.9,17.7,26.5,19.6,28.6c1.2,1.5,2.9,2.6,4.9,3.2c2,0.7,3.6,1,4.8,1
			c0.2,0.5,0.3,1.1,0.3,1.9c0,0.8-0.1,1.4-0.3,1.8c-7.8-0.4-13-0.6-15.6-0.6c-2.1,0-5.1,0.1-8.9,0.3c-3.8,0.2-6,0.3-6.5,0.3
			c-0.3-0.3-0.4-0.9-0.3-2c0.1-1.1,0.2-1.6,0.5-1.6c0.8,0,2-0.3,3.4-0.8c1.4-0.5,2.1-1.2,2.1-2c0-0.5-0.1-0.8-0.3-1.1l-13-19.6
			c-7.9,10.5-12.4,16.7-13.5,18.6c-0.5,0.8-0.8,1.4-0.8,1.7c0,1,0.9,1.8,2.7,2.4c1.8,0.6,3.6,0.8,5.4,0.8c0.6,0.8,0.7,2.1,0.3,3.6
			c-6.4-0.4-10.7-0.6-12.9-0.6c-0.5,0-4.7,0.2-12.5,0.6c-0.3-0.3-0.4-0.8-0.4-1.8c0-0.9,0.1-1.5,0.4-1.9c0.7,0,1.5-0.1,2.5-0.2
			c0.9-0.1,2.3-0.6,4.1-1.3c1.8-0.7,3.1-1.7,4.1-3l17.4-23.7l-13.7-21c-2.9-4.3-4.6-6.7-5.3-7.1c-1.4-1-3.6-1.5-6.6-1.5
			c-0.3,0-0.4-0.5-0.4-1.6s0.1-1.7,0.4-2C261.2-80.9,266.3-80.7,266.9-80.7z"/>
	</g>
	<g class="st3">
		<path class="st4" d="M144,0.3c1.7,0,2.5,1.2,2.5,3.5c0,1.5-0.4,3-1.1,4.4c-0.7,1.5-1.7,2.6-2.8,3.6c-1.2,0.9-2.3,1.4-3.5,1.4
			c-0.7,0-1.2-0.1-1.3-0.4l-1,4.5c-0.1,0.3-0.1,0.5-0.1,0.8c0,0.4,0.1,0.6,0.4,0.7c0.3,0.1,0.7,0.1,1.4,0.1c0.1,0,0.1,0.2,0.1,0.4
			c0,0.3-0.1,0.4-0.1,0.4c-0.1,0-0.3,0-0.5,0c-0.2,0-0.4,0-0.5,0c-1.4,0-2.9,0.1-4.3,0.3c-0.1,0-0.1-0.2-0.1-0.4
			c0-0.3,0.1-0.4,0.1-0.4c0.5,0,0.9-0.2,1.2-0.5c0.2-0.2,0.3-0.7,0.5-1.3l2.3-11.6l-1.4,1.4c-0.1-0.2-0.2-0.4-0.2-0.6
			c0-0.1,0-0.1,0.1-0.2l1.7-1.8l0.8-4.1c0.3-0.1,0.7-0.1,1.1-0.1c0.4,0,0.7,0.1,0.9,0.2c-0.2,1.2-0.4,2-0.5,2.5
			C141.6,1.1,143,0.3,144,0.3z M142.9,1.9c-0.5,0-1.1,0.2-1.8,0.7c-0.7,0.5-1.3,1-1.7,1.6l-1,5c-0.2,0.8-0.1,1.5,0.2,2.1
			c0.3,0.6,0.7,0.9,1.2,0.9c1.2,0,2.3-0.9,3.2-2.6s1.4-3.5,1.4-5.4C144.4,2.6,143.9,1.9,142.9,1.9z"/>
		<path class="st4" d="M156.8,0.3c0.6,0,1.1,0.2,1.4,0.6c0.2,0.2,0.3,0.5,0.3,0.8c0,0.4-0.1,0.7-0.3,0.9C158,2.9,157.8,3,157.4,3
			c-0.3,0-0.6-0.1-0.9-0.4c-0.1-0.2-0.3-0.2-0.6-0.2c-0.5,0-1.3,0.8-2.2,2.4c-0.9,1.6-1.6,3.2-1.8,4.7l-0.6,3.6
			c-0.3,0.1-0.6,0.1-1,0.1c-0.4,0-0.7,0-1.1-0.1l1.8-9.5c0.1-0.5,0.1-0.8,0.1-0.9c0-0.5-0.1-0.7-0.3-0.7c-0.1,0-0.2,0-0.4,0.1
			s-0.3,0.2-0.4,0.3c-0.1,0.1-0.3,0.3-0.4,0.4c-0.2,0.2-0.3,0.3-0.4,0.4c-0.1,0.1-0.2,0.2-0.3,0.3l-0.1,0.1c0,0-0.1-0.1-0.2-0.2
			c-0.1-0.1-0.1-0.3-0.1-0.3c0.3-0.4,0.8-1,1.6-1.7c0.8-0.7,1.5-1.1,2.1-1.1c0.3,0,0.6,0.1,0.8,0.4c0.2,0.3,0.3,0.7,0.3,1.1
			c0,0.2-0.1,0.7-0.2,1.6c-0.1,0.5-0.3,1.3-0.5,2.5c0.5-1.2,1.2-2.5,2.1-3.7C155.4,0.9,156.2,0.3,156.8,0.3z"/>
		<path class="st4" d="M165.6,0.3c1.1,0,2,0.4,2.6,1.2c0.6,0.8,0.9,1.8,0.9,3.1c0,2.1-0.7,4-2.1,5.8c-1.4,1.8-2.9,2.7-4.6,2.7
			c-1.1,0-2-0.4-2.5-1.1c-0.6-0.7-0.8-1.8-0.8-3.1c0-2.1,0.7-4.1,2.1-5.9C162.4,1.2,163.9,0.3,165.6,0.3z M165.2,1.2
			c-1.1,0-2.1,0.8-2.8,2.3c-0.8,1.6-1.1,3.2-1.1,4.8c0,1.2,0.1,2.1,0.4,2.8s0.7,1,1.2,1c0.8,0,1.4-0.4,2.1-1.2
			c0.6-0.8,1.1-1.8,1.3-2.8s0.4-2.1,0.4-3.2C166.7,2.5,166.2,1.2,165.2,1.2z"/>
		<path class="st4" d="M175.8,11.1c1-0.9,1.7-1.6,2.3-2.3c0.5-0.7,1-1.5,1.5-2.4c0.5-1,0.7-2,0.7-3.1c0-0.7-0.3-1.3-0.8-1.8
			c0.1-0.3,0.3-0.6,0.5-0.8c0.3-0.2,0.5-0.4,0.8-0.4c0.5,0,0.9,0.2,1.2,0.6c0.3,0.4,0.4,1,0.4,1.7c0,0.9-0.4,1.9-1.1,3.2
			c-0.7,1.3-1.6,2.4-2.5,3.5c-1,1.1-2,2-2.9,2.7c-1,0.8-1.7,1.1-2.2,1.1c-0.2-0.2-0.2-1.7-0.2-4.5V2.6c0-0.5-0.1-0.7-0.3-0.7
			c-0.1,0-0.2,0-0.4,0.1s-0.3,0.2-0.4,0.3c-0.1,0.1-0.3,0.3-0.4,0.4c-0.2,0.2-0.3,0.3-0.4,0.4c-0.1,0.1-0.2,0.2-0.3,0.3l-0.1,0.1
			c0,0-0.1-0.1-0.2-0.2c-0.1-0.1-0.1-0.3-0.1-0.3c0.3-0.4,0.8-1,1.6-1.7c0.8-0.7,1.5-1.1,2.1-1.1c0.3,0,0.6,0.2,0.8,0.5
			c0.2,0.3,0.3,0.7,0.3,1.1v1.6v4.5C175.7,9.5,175.7,10.5,175.8,11.1z"/>
		<path class="st4" d="M186.5,3.5c0.1-0.5,0.1-0.8,0.1-0.9c0-0.5-0.1-0.7-0.3-0.7c-0.1,0-0.2,0-0.4,0.1s-0.3,0.2-0.4,0.3
			c-0.1,0.1-0.3,0.3-0.4,0.4c-0.2,0.2-0.3,0.3-0.4,0.4c-0.1,0.1-0.2,0.2-0.3,0.3l-0.1,0.1c0,0-0.1-0.1-0.2-0.2
			c-0.1-0.1-0.1-0.3-0.1-0.3c0.3-0.4,0.8-1,1.6-1.7c0.8-0.7,1.5-1.1,2.1-1.1c0.3,0,0.6,0.1,0.8,0.4c0.2,0.3,0.3,0.7,0.3,1.1
			c0,0.3-0.1,0.8-0.2,1.6l-1.5,6.6c-0.1,0.4-0.1,0.7-0.1,0.9c0,0.5,0.1,0.7,0.3,0.7c0.1,0,0.2,0,0.4-0.1s0.3-0.2,0.4-0.3
			c0.1-0.1,0.3-0.3,0.4-0.4c0.2-0.2,0.3-0.3,0.4-0.4c0.1-0.1,0.2-0.2,0.3-0.3l0.1-0.1c0,0,0.1,0.1,0.2,0.2c0.1,0.1,0.1,0.3,0.1,0.3
			c-0.2,0.4-0.8,1-1.6,1.7c-0.9,0.7-1.6,1.1-2.2,1.1c-0.3,0-0.6-0.1-0.7-0.4s-0.3-0.6-0.3-1.1c0-0.3,0.1-0.8,0.2-1.6L186.5,3.5z
			 M188.1-5.9c0.3,0,0.5,0.1,0.7,0.4s0.3,0.5,0.3,0.8c0,0.5-0.2,0.9-0.5,1.2C188.4-3.2,188-3,187.6-3c-0.3,0-0.6-0.1-0.7-0.4
			s-0.3-0.5-0.3-0.9c0-0.4,0.1-0.8,0.4-1.2S187.7-5.9,188.1-5.9z"/>
		<path class="st4" d="M200.8-3.4c0-0.1,0.1-0.3,0.1-0.5c0-0.2,0.1-0.4,0.1-0.6s0-0.3,0-0.4c0-0.4-0.6-0.6-1.8-0.6
			c0-0.1,0-0.2,0-0.3s0.1-0.2,0.1-0.3c1.1-0.1,2.4-0.4,3.9-1c0.1,0.1,0.2,0.3,0.2,0.6c0,0.2-0.1,0.9-0.4,2.2l-2.8,14.2
			c-0.1,0.3-0.1,0.6-0.1,1c0,0.5,0.1,0.7,0.3,0.7c0.1,0,0.2,0,0.4-0.1s0.3-0.2,0.4-0.3c0.1-0.1,0.3-0.3,0.4-0.4
			c0.2-0.2,0.3-0.3,0.4-0.4c0.1-0.1,0.2-0.2,0.3-0.3l0.1-0.1c0,0,0.1,0.1,0.2,0.2c0.1,0.1,0.1,0.3,0.1,0.3c-0.2,0.4-0.8,1-1.6,1.7
			c-0.9,0.7-1.6,1.1-2.2,1.1c-0.3,0-0.6-0.1-0.7-0.4s-0.3-0.6-0.3-1.1c0-0.3,0.1-0.8,0.2-1.6c0-0.2,0.1-0.5,0.1-0.9
			c-0.4,0.7-1,1.6-1.9,2.5c-0.9,1-1.7,1.4-2.5,1.4c-0.8,0-1.5-0.4-1.9-1.1s-0.7-1.5-0.7-2.5c0-2.3,0.9-4.4,2.7-6.4
			c1.8-2,3.7-3,5.6-3h0.4L200.8-3.4z M199.6,3c0.1-0.4,0-0.7-0.2-1.1c-0.2-0.3-0.5-0.5-0.8-0.5c-1.2,0-2.3,0.8-3.3,2.3
			s-1.6,3.2-1.6,4.9c0,1.9,0.5,2.8,1.5,2.8c0.7,0,1.5-0.7,2.4-2.2c0.9-1.4,1.4-2.9,1.7-4.4L199.6,3z"/>
		<path class="st4" d="M212.1,0.3c0.7,0,1.2,0.2,1.5,0.5c0.3,0.4,0.5,0.8,0.5,1.3c0,0.9-0.5,1.7-1.4,2.6c-0.9,0.9-1.9,1.5-3,2
			c-1.1,0.5-1.9,0.7-2.6,0.7c0,0.1-0.1,0.4-0.1,0.9c0,2.1,0.7,3.2,2,3.2c0.2,0,0.3,0,0.5-0.1s0.3-0.1,0.5-0.2
			c0.2-0.1,0.3-0.2,0.5-0.3c0.2-0.1,0.3-0.2,0.5-0.4c0.1-0.1,0.3-0.2,0.4-0.4c0.1-0.1,0.2-0.2,0.3-0.3c0.1-0.1,0.2-0.2,0.2-0.2
			l0.1-0.1c0,0,0.1,0.1,0.2,0.2c0.1,0.2,0.1,0.3,0.1,0.4c-0.3,0.5-0.9,1.2-1.9,2c-0.9,0.8-1.8,1.2-2.6,1.2c-1,0-1.8-0.4-2.4-1.1
			s-0.8-1.8-0.8-3.1c0-2.1,0.8-4.1,2.4-5.9C208.7,1.2,210.3,0.3,212.1,0.3z M207.1,6.6c0.7,0,1.7-0.4,2.9-1.3s1.8-1.7,1.8-2.7
			c0-0.4-0.1-0.7-0.4-0.9c-0.3-0.2-0.5-0.3-0.8-0.3c-0.9,0-1.7,0.6-2.3,1.8C207.6,4.5,207.2,5.6,207.1,6.6z"/>
		<path class="st4" d="M224.6-3.4c0-0.1,0.1-0.3,0.1-0.5s0.1-0.4,0.1-0.6s0-0.3,0-0.4c0-0.4-0.6-0.6-1.8-0.6c0-0.1,0-0.2,0-0.3
			s0.1-0.2,0.1-0.3c1.1-0.1,2.4-0.4,3.9-1c0.1,0.1,0.2,0.3,0.2,0.6c0,0.2-0.1,0.9-0.4,2.2l-2.8,14.2c-0.1,0.3-0.1,0.6-0.1,1
			c0,0.5,0.1,0.7,0.3,0.7c0.1,0,0.2,0,0.4-0.1s0.3-0.2,0.4-0.3s0.3-0.3,0.4-0.4s0.3-0.3,0.4-0.4s0.2-0.2,0.3-0.3l0.1-0.1
			c0,0,0.1,0.1,0.2,0.2s0.1,0.3,0.1,0.3c-0.2,0.4-0.8,1-1.6,1.7s-1.6,1.1-2.2,1.1c-0.3,0-0.6-0.1-0.7-0.4s-0.3-0.6-0.3-1.1
			c0-0.3,0.1-0.8,0.2-1.6c0-0.2,0.1-0.5,0.1-0.9c-0.4,0.7-1,1.6-1.9,2.5s-1.7,1.4-2.5,1.4c-0.8,0-1.5-0.4-1.9-1.1s-0.7-1.5-0.7-2.5
			c0-2.3,0.9-4.4,2.7-6.4s3.7-3,5.6-3h0.4L224.6-3.4z M223.3,3c0.1-0.4,0-0.7-0.2-1.1s-0.5-0.5-0.8-0.5c-1.2,0-2.3,0.8-3.3,2.3
			s-1.6,3.2-1.6,4.9c0,1.9,0.5,2.8,1.5,2.8c0.7,0,1.5-0.7,2.4-2.2s1.4-2.9,1.7-4.4L223.3,3z"/>
		<path class="st4" d="M238.7,4.7c0.9-1.5,1.9-2.6,2.8-3.3s1.7-1.1,2.3-1.1c0.7,0,1.2,0.3,1.5,0.9s0.5,1.4,0.5,2.4
			c0,1.7-0.4,3.3-1.2,4.8s-1.8,2.7-2.9,3.5s-2.2,1.3-3.3,1.3c-0.8,0-1.5-0.3-2-0.9s-0.7-1.4-0.7-2.5c0-0.2,0.1-0.7,0.2-1.4l2.3-11.7
			c0.2-0.8,0.3-1.3,0.3-1.6c0-0.4-0.6-0.6-1.8-0.6c0-0.1,0-0.2,0-0.3s0.1-0.2,0.1-0.3c1.1-0.1,2.4-0.4,3.9-1
			c0.1,0.1,0.2,0.3,0.2,0.6c0,0.2-0.1,0.9-0.4,2.2L238.7,4.7z M242.5,1.9c-0.7,0-1.5,0.7-2.6,2.1s-1.7,2.9-2,4.4
			c-0.5,2.5,0,3.8,1.3,3.8c0.8,0,1.5-0.5,2.2-1.5s1.3-2.2,1.6-3.4s0.6-2.3,0.6-3.1C243.7,2.6,243.3,1.9,242.5,1.9z"/>
		<path class="st4" d="M250.9,0.3c0.6,0,1.1,0.5,1.5,1.6s0.7,2.4,0.8,4s0.2,2.9,0.3,3.9s0.1,1.9,0.1,2.8c0.8-1,1.5-2.2,2.3-3.6
			s1.1-2.9,1.1-4.3c0-1.2-0.2-2.2-0.7-3.1c0.3-0.8,0.7-1.3,1.5-1.3c0.9,0,1.3,0.8,1.3,2.3c0,2.1-0.8,4.6-2.5,7.4s-3.6,5.1-5.7,7
			s-3.8,2.8-5.1,2.8c-0.5,0-0.9-0.1-1.3-0.4c-0.3-0.2-0.5-0.5-0.5-0.8c0-0.6,0.2-1.1,0.7-1.3c0.2,0.1,0.6,0.3,1.1,0.4
			c0.5,0.1,0.9,0.2,1.3,0.2c1.5,0,2.9-0.8,4-2.4c0.1-0.2,0.2-0.4,0.3-0.7s0.1-0.6,0.2-0.9s0-0.7,0.1-0.9s0-0.5,0-1s0-0.7,0-0.8
			c0-1,0-1.9-0.1-2.9s-0.1-2-0.3-3s-0.3-1.8-0.6-2.5s-0.5-1-0.9-1c-0.1,0-0.2,0-0.4,0.1s-0.3,0.2-0.4,0.3s-0.3,0.3-0.4,0.4
			S248,3,247.9,3.1s-0.2,0.2-0.3,0.3l-0.1,0.1c0,0-0.1-0.1-0.2-0.2s-0.1-0.3-0.1-0.3c0.3-0.4,0.8-1,1.6-1.7S250.3,0.3,250.9,0.3z"/>
		<path class="st4" d="M270.2,0.9l0.3-1.7c0.2-0.3,0.6-0.7,1.1-1.2s0.8-0.7,0.8-0.7c0.2,0,0.3,0.1,0.5,0.2l-0.6,3.5h2.2
			c0.1,0,0.1,0.1,0.1,0.4c0,0.2-0.1,0.5-0.3,0.7h-2.3l-1.6,7.9c-0.1,0.4-0.1,0.7-0.1,0.9c0,0.5,0.1,0.7,0.3,0.7c0.1,0,0.2,0,0.4-0.1
			s0.3-0.2,0.4-0.3s0.3-0.3,0.4-0.4s0.3-0.3,0.4-0.4s0.2-0.2,0.3-0.3l0.1-0.1c0,0,0.1,0.1,0.2,0.2s0.1,0.3,0.1,0.3
			c-0.2,0.4-0.8,1-1.6,1.7s-1.6,1.1-2.2,1.1c-0.3,0-0.6-0.1-0.7-0.4s-0.3-0.6-0.3-1.1c0-0.3,0.1-0.8,0.2-1.6L270,2h-2
			c0,0-0.1,0-0.1-0.1c0-0.2,0.1-0.4,0.4-0.6s0.6-0.4,0.9-0.4H270.2z"/>
		<path class="st4" d="M281-4.3l-1.5,7.6L279,6c0.4-0.8,1.3-1.9,2.6-3.5s2.4-2.3,3.2-2.3c1.1,0,1.6,0.6,1.6,1.9
			c0,0.8-0.1,1.9-0.4,3.2l-1,4.5c-0.1,0.3-0.1,0.6-0.1,0.9c0,0.5,0.1,0.7,0.3,0.7c0.1,0,0.2,0,0.4-0.1s0.3-0.2,0.4-0.3
			s0.3-0.3,0.4-0.4s0.3-0.3,0.4-0.4s0.2-0.2,0.3-0.3l0.1-0.1c0,0,0.1,0.1,0.2,0.2s0.1,0.3,0.1,0.3c-0.2,0.4-0.8,1-1.6,1.7
			s-1.6,1.1-2.2,1.1c-0.3,0-0.6-0.1-0.7-0.4s-0.3-0.6-0.3-1.1c0-0.5,0.1-1,0.2-1.6l1-4.8c0.1-0.6,0.2-1.2,0.2-1.6
			c0-0.8-0.2-1.3-0.6-1.3s-0.9,0.3-1.7,1s-1.5,1.6-2.2,2.8s-1.2,2.3-1.4,3.3c-0.1,0.7-0.4,1.9-0.7,3.5c-0.3,0.1-0.6,0.1-1.1,0.1
			c-0.4,0-0.7,0-1-0.1l3.2-16.4c0-0.1,0.1-0.3,0.1-0.5s0.1-0.4,0.1-0.6s0-0.3,0-0.4c0-0.4-0.6-0.6-1.8-0.6c0-0.1,0-0.2,0-0.3
			s0.1-0.2,0.1-0.3c1.1-0.1,2.4-0.4,3.9-1c0.1,0.1,0.2,0.3,0.2,0.6C281.4-6.3,281.3-5.6,281-4.3z"/>
		<path class="st4" d="M296.7,0.3c0.7,0,1.2,0.2,1.5,0.5s0.5,0.8,0.5,1.3c0,0.9-0.5,1.7-1.4,2.6s-1.9,1.5-3,2s-1.9,0.7-2.6,0.7
			c0,0.1-0.1,0.4-0.1,0.9c0,2.1,0.7,3.2,2,3.2c0.2,0,0.3,0,0.5-0.1s0.3-0.1,0.5-0.2s0.3-0.2,0.5-0.3s0.3-0.2,0.5-0.4
			s0.3-0.2,0.4-0.4s0.2-0.2,0.3-0.3s0.2-0.2,0.2-0.2l0.1-0.1c0,0,0.1,0.1,0.2,0.2s0.1,0.3,0.1,0.4c-0.3,0.5-0.9,1.2-1.9,2
			s-1.8,1.2-2.6,1.2c-1,0-1.8-0.4-2.4-1.1s-0.8-1.8-0.8-3.1c0-2.1,0.8-4.1,2.4-5.9S295,0.3,296.7,0.3z M291.8,6.6
			c0.7,0,1.7-0.4,2.9-1.3s1.8-1.7,1.8-2.7c0-0.4-0.1-0.7-0.4-0.9s-0.5-0.3-0.8-0.3c-0.9,0-1.7,0.6-2.3,1.8S291.9,5.6,291.8,6.6z"/>
	</g>
	<g class="st3">
		<path class="st4" d="M-51.9,29.4c0.3,0,1.4,0,3.4-0.1c0.1,0.1,0.1,0.2,0.1,0.4c0,0.2,0,0.3-0.1,0.4c-0.3,0-0.7,0-1.2,0.1
			c-0.5,0.1-0.8,0.2-0.8,0.3c-0.1,0.3-0.1,1-0.1,2.2V40c0,2.4,0.5,4.2,1.4,5.4c0.9,1.1,2.2,1.7,4,1.7c3.7,0,5.6-2.1,5.7-6.4v-7.9
			c0-1-0.1-1.7-0.3-2c-0.1-0.1-0.4-0.3-0.9-0.4s-0.9-0.2-1.2-0.2c-0.2-0.2-0.2-0.5-0.1-0.8c2,0.1,3,0.1,3.3,0.1c0.4,0,0.7,0,1.1,0
			c0.3,0,0.7,0,1-0.1c0.4,0,0.7,0,1.1-0.1c0.2,0.2,0.2,0.5,0,0.8c-0.3,0-0.7,0.1-1.3,0.2c-0.6,0.1-0.9,0.3-1,0.4
			c-0.2,0.3-0.3,1-0.3,2v7.9c0,2.8-0.7,4.9-2,6.2s-3.2,2-5.6,2c-2.1,0-3.9-0.6-5.2-1.9c-1.4-1.4-2.2-3.2-2.2-5.5v-8.6
			c0-1.1,0-1.9-0.1-2.2c0-0.1-0.3-0.2-0.8-0.3c-0.5-0.1-0.9-0.1-1.2-0.1c-0.1-0.1-0.1-0.2-0.1-0.4c0-0.2,0-0.3,0.1-0.4
			C-53.3,29.4-52.2,29.4-51.9,29.4z"/>
		<path class="st4" d="M-30.8,29.3c0.9,0,1.7,0,2.2-0.1c0.5,0.8,2.2,3,5.3,6.7c3,3.7,5.1,6.3,6.2,7.9v-1.7v-9.4c0-1-0.1-1.7-0.3-2
			c-0.1-0.1-0.4-0.3-1-0.4s-1-0.2-1.3-0.2c-0.2-0.2-0.2-0.5-0.1-0.8c2,0.1,3.1,0.1,3.4,0.1c0.4,0,0.7,0,1.1,0c0.3,0,0.7,0,1-0.1
			c0.4,0,0.7,0,1.1-0.1c0.1,0.2,0.1,0.5,0,0.8c-0.3,0-0.7,0.1-1.3,0.2c-0.6,0.1-0.9,0.3-1,0.4c-0.2,0.3-0.3,1-0.3,2v11.9
			c0,1.7,0,3,0.1,4c0,0.1-0.1,0.2-0.4,0.2c-0.3,0-0.7-0.2-1-0.7L-29.9,32v13.3c0,1,0.1,1.7,0.3,2c0.1,0.1,0.4,0.3,0.9,0.4
			c0.5,0.1,1,0.2,1.3,0.2c0.2,0.2,0.2,0.5,0.1,0.8c-2-0.1-3.1-0.1-3.3-0.1c-0.4,0-0.7,0-1.1,0c-0.3,0-0.7,0-1,0.1
			c-0.4,0-0.7,0-1.1,0.1c-0.1-0.3-0.1-0.5,0-0.8c0.3,0,0.7-0.1,1.3-0.2c0.6-0.1,0.9-0.3,1-0.4c0.2-0.3,0.3-1,0.3-2V32.6
			c0-1-0.1-1.7-0.3-2c-0.1-0.2-0.4-0.3-1-0.4c-0.6-0.1-1-0.2-1.3-0.2c-0.1-0.3-0.1-0.6,0-0.8c0.3,0,0.8,0,1.5,0.1
			C-31.7,29.3-31.2,29.3-30.8,29.3z"/>
		<path class="st4" d="M-7.5,29.4c0.3,0,1.4,0,3.4-0.1c0.1,0.1,0.1,0.2,0.1,0.4c0,0.2,0,0.3-0.1,0.4c-0.3,0-0.7,0-1.2,0.1
			c-0.5,0.1-0.8,0.2-0.8,0.3c-0.1,0.3-0.1,1-0.1,2.2v12.5c0,1.1,0,1.9,0.1,2.2c0,0.1,0.3,0.2,0.8,0.3c0.5,0.1,0.9,0.1,1.2,0.1
			C-4,48-4,48.1-4,48.3c0,0.2,0,0.3-0.1,0.4c-2-0.1-3.1-0.1-3.4-0.1s-1.4,0-3.5,0.1c-0.1-0.1-0.1-0.2-0.1-0.4c0-0.2,0-0.3,0.1-0.4
			c0.3,0,0.7,0,1.2-0.1c0.5-0.1,0.8-0.2,0.8-0.3c0.1-0.3,0.1-1,0.1-2.2V32.8c0-1.1,0-1.9-0.1-2.2c0-0.1-0.3-0.2-0.8-0.3
			c-0.5-0.1-0.9-0.1-1.2-0.1C-11,30-11,29.9-11,29.7c0-0.2,0-0.3,0.1-0.4C-8.9,29.4-7.8,29.4-7.5,29.4z"/>
		<path class="st4" d="M12.1,29.3c0.6,0,1.2-0.1,1.8-0.4c0.2-0.1,0.4-0.1,0.6-0.1c0.2,2.1,0.5,3.7,0.8,5C15,34,14.8,34.1,14.6,34
			c-0.2,0-0.4,0-0.4-0.1c-0.2-1.1-0.6-1.9-1-2.6c-0.5-0.7-1.1-1-1.8-1H7.7v14.9c0,1.1,0,1.9,0.1,2.2c0,0.1,0.3,0.2,0.8,0.3
			c0.5,0.1,0.9,0.1,1.2,0.1c0.1,0.1,0.1,0.2,0.1,0.4c0,0.2,0,0.3-0.1,0.4c-2-0.1-3.2-0.1-3.4-0.1c-0.3,0-1.5,0-3.5,0.1
			c-0.1-0.1-0.1-0.2-0.1-0.4c0-0.2,0-0.3,0.1-0.4c0.3,0,0.7,0,1.2-0.1C4.7,47.7,5,47.6,5,47.4c0.1-0.3,0.1-1,0.1-2.2V30.3H1.4
			c-0.7,0-1.3,0.3-1.8,1c-0.5,0.7-0.8,1.5-1,2.6C-1.5,34-1.6,34-1.9,34c-0.2,0-0.4,0-0.6-0.2c0.3-1.3,0.5-3,0.8-5
			c0.2-0.1,0.4,0,0.7,0.1c0.5,0.3,1.1,0.4,1.6,0.4H12.1z"/>
		<path class="st4" d="M20.3,29.4c0.9,0,2.4,0,4.6-0.1c2.2-0.1,3.8-0.1,4.9-0.1c0.1,0.6,0.2,1.3,0.5,2.2c0.2,0.9,0.4,1.5,0.4,1.7
			c-0.1,0.1-0.3,0.1-0.5,0.1c-0.3,0-0.4-0.1-0.4-0.2c-0.3-1.1-0.7-1.8-1.3-2.2c-0.5-0.4-1.3-0.6-2.1-0.6h-2.5c-1.3,0-2,0.1-2,0.3
			c-0.1,0.3-0.1,1-0.1,2.1v5.5c0,0.1,0.4,0.2,1.3,0.2h1.6c1.3,0,2.1-0.1,2.4-0.3s0.5-0.7,0.8-1.6c0-0.1,0-0.2,0.1-0.3
			c0-0.1,0.2-0.2,0.4-0.2c0.2,0,0.4,0,0.5,0.1v5.5c-0.1,0.1-0.2,0.1-0.5,0.1c-0.3,0-0.4-0.1-0.5-0.2c-0.1-0.5-0.3-1-0.4-1.2
			c-0.1-0.3-0.2-0.4-0.2-0.5s-0.1-0.1-0.2-0.2c-0.3-0.2-1.3-0.2-3.1-0.2c-1.4,0-2.1,0.1-2.1,0.3v5.6c0,1.2,0.1,1.9,0.2,2
			c0.3,0.2,0.9,0.3,2.1,0.3h1.4c1.6,0,2.8-0.3,3.7-0.8c0.6-0.4,1.3-1.4,1.8-3c0-0.1,0.2-0.2,0.4-0.2c0.4,0,0.6,0.1,0.7,0.2
			c-0.1,0.3-0.2,0.7-0.5,1.2s-0.4,1-0.5,1.3s-0.2,0.7-0.4,1.2c-0.1,0.4-0.2,0.8-0.3,1.1c-1,0-2.6,0-4.7-0.1c-2.1,0-3.9-0.1-5.3-0.1
			c-0.5,0-1.1,0-1.8,0c-0.7,0-1.3,0-1.7,0c-0.1-0.1-0.1-0.2-0.1-0.4c0-0.2,0-0.3,0.1-0.4c0.3,0,0.7,0,1.2-0.1
			c0.5-0.1,0.8-0.2,0.8-0.3c0.1-0.3,0.1-1,0.1-2.2V32.8c0-1.1,0-1.9-0.1-2.2c0-0.1-0.3-0.2-0.8-0.3c-0.5-0.1-0.9-0.1-1.2-0.1
			c-0.1-0.1-0.1-0.2-0.1-0.4c0-0.2,0-0.3,0.1-0.4C18.9,29.4,20.1,29.4,20.3,29.4z"/>
		<path class="st4" d="M41.8,29.4c3.1,0,5.6,0.9,7.5,2.7c1.9,1.8,2.8,4.1,2.8,6.8c0,1.3-0.2,2.5-0.5,3.7s-0.9,2.2-1.7,3.1
			c-0.8,1-1.9,1.7-3.3,2.3s-3.1,0.8-5.1,0.8h-7.3C34,48.7,34,48.5,34,48.3c0-0.2,0-0.3,0.1-0.4c0.3,0,0.7,0,1.2-0.1
			c0.5-0.1,0.8-0.2,0.8-0.3c0.1-0.3,0.1-1,0.1-2.2V32.8c0-1.1,0-1.9-0.1-2.2c0-0.1-0.3-0.2-0.8-0.3c-0.5-0.1-0.9-0.1-1.2-0.1
			C34,30,34,29.9,34,29.7c0-0.2,0-0.3,0.1-0.4c2,0.1,3.2,0.1,3.5,0.1c0.4,0,1.1,0,2.1,0C40.6,29.4,41.3,29.4,41.8,29.4z M38.8,32.8
			v12.5c0,1.3,0.1,2,0.2,2.1c0.2,0.3,1,0.4,2.4,0.4c2.2,0,4.1-0.7,5.6-2.1c1.5-1.4,2.2-3.5,2.2-6.2c0-1.6-0.2-3-0.7-4.2
			c-0.4-1.2-1.1-2.2-1.8-2.9c-0.8-0.7-1.6-1.2-2.6-1.6c-0.9-0.3-2-0.5-3.1-0.5c-1.3,0-2,0.1-2,0.3C38.9,31,38.8,31.7,38.8,32.8z"/>
		<path class="st4" d="M67.6,29.2c0.4,0,0.8,0,1.2,0.1s0.7,0.1,0.9,0.2c0.2,0.1,0.6,0.2,1.1,0.3c0.5,0.1,0.9,0.2,1.2,0.3
			c0.1,0.9,0.3,2.2,0.4,4.2c0,0.1,0,0.2-0.2,0.2s-0.3,0.1-0.4,0.1c-0.1,0-0.2,0-0.3-0.1c-0.1-0.9-0.6-1.8-1.3-2.8
			c-0.8-0.9-1.7-1.4-2.8-1.4c-1.1,0-1.9,0.3-2.4,1c-0.5,0.7-0.8,1.4-0.8,2.3c0,0.4,0.1,0.7,0.2,1.1c0.1,0.3,0.3,0.6,0.4,0.8
			c0.1,0.2,0.4,0.5,0.7,0.8c0.4,0.3,0.6,0.5,0.8,0.6c0.2,0.1,0.5,0.3,1,0.6s0.8,0.5,1,0.6c0.1,0.1,0.4,0.3,1,0.6s1,0.6,1.2,0.8
			c0.2,0.1,0.6,0.4,1,0.8c0.5,0.4,0.8,0.7,1,1s0.4,0.7,0.6,1.1c0.2,0.4,0.3,0.9,0.3,1.4c0,1.6-0.6,2.8-1.8,3.9
			c-1.2,1-2.7,1.5-4.3,1.5c-0.5,0-1,0-1.5-0.1s-1-0.1-1.3-0.2s-0.8-0.2-1.3-0.3c-0.5-0.1-0.9-0.2-1.1-0.2c-0.4-2-0.6-3.5-0.6-4.5
			c0.2-0.2,0.5-0.4,0.8-0.4c0.2,0,0.3,0.1,0.3,0.3c0.1,0.3,0.1,0.6,0.2,0.9c0.1,0.3,0.3,0.7,0.6,1.1s0.6,0.8,0.9,1.2
			c0.3,0.3,0.8,0.6,1.3,0.9s1.2,0.4,1.8,0.4c1,0,1.8-0.3,2.5-1s1-1.5,1-2.6c0-0.4-0.1-0.8-0.2-1.1s-0.2-0.6-0.4-0.8
			c-0.1-0.2-0.4-0.4-0.7-0.7s-0.6-0.4-0.7-0.5s-0.5-0.3-1-0.6s-0.8-0.4-1-0.5c-0.6-0.3-1-0.6-1.2-0.7c-0.2-0.1-0.6-0.4-1.1-0.7
			c-0.5-0.3-0.9-0.6-1.1-0.9s-0.5-0.6-0.8-1c-0.3-0.4-0.5-0.8-0.7-1.2c-0.1-0.4-0.2-0.9-0.2-1.3c0-1.5,0.6-2.7,1.7-3.7
			C64.7,29.6,66,29.2,67.6,29.2z"/>
		<path class="st4" d="M89.5,29.3c0.6,0,1.2-0.1,1.8-0.4c0.2-0.1,0.4-0.1,0.6-0.1c0.2,2.1,0.5,3.7,0.8,5C92.4,34,92.2,34.1,92,34
			c-0.2,0-0.4,0-0.4-0.1c-0.2-1.1-0.6-1.9-1-2.6c-0.5-0.7-1.1-1-1.8-1h-3.7v14.9c0,1.1,0,1.9,0.1,2.2c0,0.1,0.3,0.2,0.8,0.3
			c0.5,0.1,0.9,0.1,1.2,0.1c0.1,0.1,0.1,0.2,0.1,0.4c0,0.2,0,0.3-0.1,0.4c-2-0.1-3.2-0.1-3.4-0.1c-0.3,0-1.5,0-3.5,0.1
			c-0.1-0.1-0.1-0.2-0.1-0.4c0-0.2,0-0.3,0.1-0.4c0.3,0,0.7,0,1.2-0.1c0.5-0.1,0.8-0.2,0.8-0.3c0.1-0.3,0.1-1,0.1-2.2V30.3h-3.8
			c-0.7,0-1.3,0.3-1.8,1c-0.5,0.7-0.8,1.5-1,2.6C75.9,34,75.8,34,75.5,34c-0.2,0-0.4,0-0.6-0.2c0.3-1.3,0.5-3,0.8-5
			c0.2-0.1,0.4,0,0.7,0.1c0.5,0.3,1.1,0.4,1.6,0.4H89.5z"/>
		<path class="st4" d="M94.2,44.6c2.6-6.6,4.5-11.5,5.7-14.5c0.1-0.2,0.2-0.3,0.5-0.5s0.5-0.3,0.6-0.3c0,0,0.1,0,0.1,0
			c0,0,0.1,0.1,0.1,0.1l6,15.6l0.7,1.9c0.1,0.3,0.4,0.5,0.9,0.7c0.5,0.2,0.8,0.3,1.1,0.3c0.2,0.2,0.2,0.5,0.1,0.8
			c-2-0.1-3-0.1-3.2-0.1c0,0-1.2,0-3.4,0.1c-0.1-0.1-0.1-0.2-0.1-0.4c0-0.2,0.1-0.3,0.1-0.4c0.8,0,1.3-0.1,1.6-0.4
			c0.1-0.1,0.1-0.2,0.1-0.4c0-0.3-0.2-0.9-0.5-1.8c-0.3-1-0.7-1.8-1-2.7l-0.5-1.2c-0.1-0.1-0.1-0.1-0.2-0.1c-0.3,0-1.2,0-2.9,0
			c-1.2,0-2.3,0-3.2,0.1l-0.1,0.1c-0.5,1.4-1,2.6-1.3,3.6c-0.3,0.8-0.4,1.5-0.4,2.1c0,0.3,0.3,0.5,0.8,0.6c0.5,0.1,0.9,0.2,1.3,0.2
			c0,0,0.1,0.2,0.1,0.4c0,0.2,0,0.4,0,0.5c-0.3,0-0.6,0-0.9-0.1c-0.3,0-0.6,0-0.9-0.1c-0.3,0-0.6,0-1,0c-0.4,0-0.7,0-1.1,0
			c-0.3,0-0.7,0-1,0.1c-0.4,0-0.7,0-1.1,0.1c0,0-0.1-0.2-0.1-0.4s0-0.4,0.1-0.5c0.3,0,0.6,0,1-0.1c0.4-0.1,0.7-0.2,0.8-0.4
			C93.3,46.8,93.7,45.9,94.2,44.6z M100,32.8l-2.7,7.1c0,0.1,0,0.1,0.1,0.1c1,0,1.9,0.1,2.7,0.1c0.7,0,1.6,0,2.5-0.1l0.1-0.1
			L100,32.8z"/>
		<path class="st4" d="M123.2,29.3c0.6,0,1.2-0.1,1.8-0.4c0.2-0.1,0.4-0.1,0.6-0.1c0.2,2.1,0.5,3.7,0.8,5c-0.2,0.2-0.3,0.2-0.6,0.2
			c-0.2,0-0.4,0-0.4-0.1c-0.2-1.1-0.6-1.9-1-2.6c-0.5-0.7-1.1-1-1.8-1h-3.7v14.9c0,1.1,0,1.9,0.1,2.2c0,0.1,0.3,0.2,0.8,0.3
			c0.5,0.1,0.9,0.1,1.2,0.1c0.1,0.1,0.1,0.2,0.1,0.4c0,0.2,0,0.3-0.1,0.4c-2-0.1-3.2-0.1-3.4-0.1c-0.3,0-1.5,0-3.5,0.1
			c-0.1-0.1-0.1-0.2-0.1-0.4c0-0.2,0-0.3,0.1-0.4c0.3,0,0.7,0,1.2-0.1c0.5-0.1,0.8-0.2,0.8-0.3c0.1-0.3,0.1-1,0.1-2.2V30.3h-3.8
			c-0.7,0-1.3,0.3-1.8,1c-0.5,0.7-0.8,1.5-1,2.6c-0.1,0.1-0.2,0.1-0.4,0.1c-0.2,0-0.4,0-0.6-0.2c0.3-1.3,0.5-3,0.8-5
			c0.2-0.1,0.4,0,0.7,0.1c0.5,0.3,1.1,0.4,1.6,0.4H123.2z"/>
		<path class="st4" d="M131.4,29.4c0.9,0,2.4,0,4.6-0.1c2.2-0.1,3.8-0.1,4.9-0.1c0.1,0.6,0.2,1.3,0.5,2.2c0.2,0.9,0.4,1.5,0.4,1.7
			c-0.1,0.1-0.3,0.1-0.5,0.1c-0.3,0-0.4-0.1-0.4-0.2c-0.3-1.1-0.7-1.8-1.3-2.2c-0.5-0.4-1.3-0.6-2.1-0.6h-2.5c-1.3,0-2,0.1-2,0.3
			c-0.1,0.3-0.1,1-0.1,2.1v5.5c0,0.1,0.4,0.2,1.3,0.2h1.6c1.3,0,2.1-0.1,2.4-0.3s0.5-0.7,0.8-1.6c0-0.1,0-0.2,0.1-0.3
			c0-0.1,0.2-0.2,0.4-0.2c0.2,0,0.4,0,0.5,0.1v5.5c-0.1,0.1-0.2,0.1-0.5,0.1c-0.3,0-0.4-0.1-0.5-0.2c-0.1-0.5-0.3-1-0.4-1.2
			c-0.1-0.3-0.2-0.4-0.2-0.5s-0.1-0.1-0.2-0.2c-0.3-0.2-1.3-0.2-3.1-0.2c-1.4,0-2.1,0.1-2.1,0.3v5.6c0,1.2,0.1,1.9,0.2,2
			c0.3,0.2,0.9,0.3,2.1,0.3h1.4c1.6,0,2.8-0.3,3.7-0.8c0.6-0.4,1.3-1.4,1.8-3c0-0.1,0.2-0.2,0.4-0.2c0.4,0,0.6,0.1,0.7,0.2
			c-0.1,0.3-0.2,0.7-0.5,1.2s-0.4,1-0.5,1.3s-0.2,0.7-0.4,1.2c-0.1,0.4-0.2,0.8-0.3,1.1c-1,0-2.6,0-4.7-0.1c-2.1,0-3.9-0.1-5.3-0.1
			c-0.5,0-1.1,0-1.8,0c-0.7,0-1.3,0-1.7,0c-0.1-0.1-0.1-0.2-0.1-0.4c0-0.2,0-0.3,0.1-0.4c0.3,0,0.7,0,1.2-0.1
			c0.5-0.1,0.8-0.2,0.8-0.3c0.1-0.3,0.1-1,0.1-2.2V32.8c0-1.1,0-1.9-0.1-2.2c0-0.1-0.3-0.2-0.8-0.3c-0.5-0.1-0.9-0.1-1.2-0.1
			c-0.1-0.1-0.1-0.2-0.1-0.4c0-0.2,0-0.3,0.1-0.4C130,29.4,131.1,29.4,131.4,29.4z"/>
		<path class="st4" d="M151.5,29.2c0.4,0,0.8,0,1.2,0.1s0.7,0.1,0.9,0.2c0.2,0.1,0.6,0.2,1.1,0.3c0.5,0.1,0.9,0.2,1.2,0.3
			c0.1,0.9,0.3,2.2,0.4,4.2c0,0.1,0,0.2-0.2,0.2s-0.3,0.1-0.4,0.1c-0.1,0-0.2,0-0.3-0.1c-0.1-0.9-0.6-1.8-1.3-2.8
			c-0.8-0.9-1.7-1.4-2.8-1.4c-1.1,0-1.9,0.3-2.4,1c-0.5,0.7-0.8,1.4-0.8,2.3c0,0.4,0.1,0.7,0.2,1.1c0.1,0.3,0.3,0.6,0.4,0.8
			c0.1,0.2,0.4,0.5,0.7,0.8c0.4,0.3,0.6,0.5,0.8,0.6c0.2,0.1,0.5,0.3,1,0.6s0.8,0.5,1,0.6c0.1,0.1,0.4,0.3,1,0.6s1,0.6,1.2,0.8
			c0.2,0.1,0.6,0.4,1,0.8c0.5,0.4,0.8,0.7,1,1s0.4,0.7,0.6,1.1c0.2,0.4,0.3,0.9,0.3,1.4c0,1.6-0.6,2.8-1.8,3.9
			c-1.2,1-2.7,1.5-4.3,1.5c-0.5,0-1,0-1.5-0.1s-1-0.1-1.3-0.2s-0.8-0.2-1.3-0.3c-0.5-0.1-0.9-0.2-1.1-0.2c-0.4-2-0.6-3.5-0.6-4.5
			c0.2-0.2,0.5-0.4,0.8-0.4c0.2,0,0.3,0.1,0.3,0.3c0.1,0.3,0.1,0.6,0.2,0.9c0.1,0.3,0.3,0.7,0.6,1.1s0.6,0.8,0.9,1.2
			c0.3,0.3,0.8,0.6,1.3,0.9s1.2,0.4,1.8,0.4c1,0,1.8-0.3,2.5-1s1-1.5,1-2.6c0-0.4-0.1-0.8-0.2-1.1s-0.2-0.6-0.4-0.8
			c-0.1-0.2-0.4-0.4-0.7-0.7s-0.6-0.4-0.7-0.5s-0.5-0.3-1-0.6s-0.8-0.4-1-0.5c-0.6-0.3-1-0.6-1.2-0.7c-0.2-0.1-0.6-0.4-1.1-0.7
			c-0.5-0.3-0.9-0.6-1.1-0.9s-0.5-0.6-0.8-1c-0.3-0.4-0.5-0.8-0.7-1.2c-0.1-0.4-0.2-0.9-0.2-1.3c0-1.5,0.6-2.7,1.7-3.7
			C148.6,29.6,150,29.2,151.5,29.2z"/>
		<path class="st4" d="M170.9,45.3c0,1.3,0.1,2,0.2,2.1c0.3,0.2,0.9,0.3,2.1,0.3h1.7c1.5,0,2.6-0.3,3.4-0.8c0.8-0.5,1.4-1.5,1.8-3
			c0-0.1,0.2-0.2,0.4-0.2c0.4,0,0.6,0.1,0.7,0.2c-0.1,0.3-0.2,0.7-0.5,1.2s-0.4,1-0.5,1.3s-0.2,0.7-0.4,1.2
			c-0.1,0.4-0.2,0.8-0.3,1.1c-1,0-2.6,0-4.7-0.1c-2.1,0-3.9-0.1-5.3-0.1c-0.5,0-1.1,0-1.8,0c-0.7,0-1.3,0-1.7,0
			c-0.1-0.1-0.1-0.2-0.1-0.4c0-0.2,0-0.3,0.1-0.4c0.3,0,0.7,0,1.2-0.1c0.5-0.1,0.8-0.2,0.8-0.3c0.1-0.3,0.1-1,0.1-2.2V32.8
			c0-1.1,0-1.9-0.1-2.2c0-0.1-0.3-0.2-0.8-0.3c-0.5-0.1-0.9-0.1-1.2-0.1c-0.1-0.1-0.1-0.2-0.1-0.4c0-0.2,0-0.3,0.1-0.4
			c2,0.1,3.2,0.1,3.5,0.1s1.4,0,3.4-0.1c0.1,0.1,0.1,0.2,0.1,0.4c0,0.2,0,0.3-0.1,0.4c-0.3,0-0.7,0-1.2,0.1
			c-0.5,0.1-0.8,0.2-0.8,0.3c-0.1,0.3-0.1,1-0.1,2.2V45.3z"/>
		<path class="st4" d="M192.3,29.1c2.6,0,4.9,0.9,6.8,2.8c1.9,1.9,2.8,4.2,2.8,7.1c0,2.7-0.9,5-2.8,7c-1.9,1.9-4.1,2.9-6.7,2.9
			c-2.6,0-4.9-0.9-6.7-2.8c-1.9-1.9-2.8-4.2-2.8-7.1c0-2.7,0.9-5.1,2.8-7S189.8,29.1,192.3,29.1z M191.9,30.1c-1.1,0-2,0.2-2.8,0.7
			s-1.5,1.1-1.9,1.9s-0.8,1.7-1.1,2.7s-0.4,1.9-0.4,3c0,1.6,0.3,3.1,0.8,4.5s1.3,2.6,2.4,3.6c1.1,1,2.4,1.5,3.8,1.5
			c1.1,0,2-0.2,2.8-0.7s1.5-1.1,1.9-2s0.8-1.7,1.1-2.7c0.2-1,0.4-2,0.4-3c0-1.6-0.3-3.1-0.8-4.5c-0.5-1.4-1.4-2.6-2.5-3.6
			C194.6,30.6,193.4,30.1,191.9,30.1z"/>
		<path class="st4" d="M218.1,29.3c0.6,0,1.2-0.1,1.8-0.4c0.2-0.1,0.4-0.1,0.6-0.1c0.2,2.1,0.5,3.7,0.8,5c-0.2,0.2-0.3,0.2-0.6,0.2
			c-0.2,0-0.4,0-0.4-0.1c-0.2-1.1-0.6-1.9-1-2.6s-1.1-1-1.8-1h-3.7v14.9c0,1.1,0,1.9,0.1,2.2c0,0.1,0.3,0.2,0.8,0.3
			c0.5,0.1,0.9,0.1,1.2,0.1c0.1,0.1,0.1,0.2,0.1,0.4c0,0.2,0,0.3-0.1,0.4c-2-0.1-3.2-0.1-3.4-0.1c-0.3,0-1.5,0-3.5,0.1
			c-0.1-0.1-0.1-0.2-0.1-0.4c0-0.2,0-0.3,0.1-0.4c0.3,0,0.7,0,1.2-0.1c0.5-0.1,0.8-0.2,0.8-0.3c0.1-0.3,0.1-1,0.1-2.2V30.3h-3.8
			c-0.7,0-1.3,0.3-1.8,1c-0.5,0.7-0.8,1.5-1,2.6c-0.1,0.1-0.2,0.1-0.4,0.1c-0.2,0-0.4,0-0.6-0.2c0.3-1.3,0.5-3,0.8-5
			c0.2-0.1,0.4,0,0.7,0.1c0.5,0.3,1.1,0.4,1.6,0.4H218.1z"/>
		<path class="st4" d="M236.4,29.3c0.6,0,1.2-0.1,1.8-0.4c0.2-0.1,0.4-0.1,0.6-0.1c0.2,2.1,0.5,3.7,0.8,5c-0.2,0.2-0.3,0.2-0.6,0.2
			c-0.2,0-0.4,0-0.4-0.1c-0.2-1.1-0.6-1.9-1-2.6s-1.1-1-1.8-1H232v14.9c0,1.1,0,1.9,0.1,2.2c0,0.1,0.3,0.2,0.8,0.3s0.9,0.1,1.2,0.1
			c0.1,0.1,0.1,0.2,0.1,0.4s0,0.3-0.1,0.4c-2-0.1-3.2-0.1-3.4-0.1c-0.3,0-1.5,0-3.5,0.1c-0.1-0.1-0.1-0.2-0.1-0.4s0-0.3,0.1-0.4
			c0.3,0,0.7,0,1.2-0.1s0.8-0.2,0.8-0.3c0.1-0.3,0.1-1,0.1-2.2V30.3h-3.8c-0.7,0-1.3,0.3-1.8,1s-0.8,1.5-1,2.6
			c-0.1,0.1-0.2,0.1-0.4,0.1c-0.2,0-0.4,0-0.6-0.2c0.3-1.3,0.5-3,0.8-5c0.2-0.1,0.4,0,0.7,0.1c0.5,0.3,1.1,0.4,1.6,0.4H236.4z"/>
		<path class="st4" d="M244.6,29.4c0.9,0,2.4,0,4.6-0.1s3.8-0.1,4.9-0.1c0.1,0.6,0.2,1.3,0.5,2.2s0.4,1.5,0.4,1.7
			c-0.1,0.1-0.3,0.1-0.5,0.1s-0.4-0.1-0.4-0.2c-0.3-1.1-0.7-1.8-1.3-2.2s-1.3-0.6-2.1-0.6h-2.5c-1.3,0-2,0.1-2,0.3
			c-0.1,0.3-0.1,1-0.1,2.1v5.5c0,0.1,0.4,0.2,1.3,0.2h1.6c1.3,0,2.1-0.1,2.4-0.3s0.5-0.7,0.8-1.6c0-0.1,0-0.2,0.1-0.3
			c0-0.1,0.2-0.2,0.4-0.2c0.2,0,0.4,0,0.5,0.1v5.5c-0.1,0.1-0.2,0.1-0.5,0.1c-0.3,0-0.4-0.1-0.5-0.2c-0.1-0.5-0.3-1-0.4-1.2
			s-0.2-0.4-0.2-0.5s-0.1-0.1-0.2-0.2c-0.3-0.2-1.3-0.2-3.1-0.2c-1.4,0-2.1,0.1-2.1,0.3v5.6c0,1.2,0.1,1.9,0.2,2
			c0.3,0.2,0.9,0.3,2.1,0.3h1.4c1.6,0,2.8-0.3,3.7-0.8c0.6-0.4,1.3-1.4,1.8-3c0-0.1,0.2-0.2,0.4-0.2c0.4,0,0.6,0.1,0.7,0.2
			c-0.1,0.3-0.2,0.7-0.5,1.2s-0.4,1-0.5,1.3s-0.2,0.7-0.4,1.2s-0.2,0.8-0.3,1.1c-1,0-2.6,0-4.7-0.1s-3.9-0.1-5.3-0.1
			c-0.5,0-1.1,0-1.8,0s-1.3,0-1.7,0c-0.1-0.1-0.1-0.2-0.1-0.4s0-0.3,0.1-0.4c0.3,0,0.7,0,1.2-0.1s0.8-0.2,0.8-0.3
			c0.1-0.3,0.1-1,0.1-2.2V32.8c0-1.1,0-1.9-0.1-2.2c0-0.1-0.3-0.2-0.8-0.3s-0.9-0.1-1.2-0.1c-0.1-0.1-0.1-0.2-0.1-0.4s0-0.3,0.1-0.4
			C243.2,29.4,244.3,29.4,244.6,29.4z"/>
		<path class="st4" d="M266,29.4c1.5,0,2.8,0.5,4.1,1.4s1.9,2.1,1.9,3.7c0,1-0.4,2-1.2,2.9s-1.7,1.6-2.8,1.9
			c1.3,2.1,2.9,4.4,4.7,6.9c0.4,0.6,0.9,1,1.4,1.3s1.1,0.4,1.9,0.5c0.1,0.1,0.1,0.2,0.1,0.5s0,0.3-0.1,0.4c-1.9,0-3.2-0.1-3.9-0.4
			c-0.8-0.3-1.5-0.7-1.9-1.3c-0.9-1.2-2.5-3.5-4.7-6.9c-0.2-0.2-0.4-0.4-0.9-0.4h-1.6v5.4c0,1.1,0,1.9,0.1,2.2
			c0,0.1,0.3,0.2,0.8,0.3s0.9,0.1,1.2,0.1c0.1,0.1,0.1,0.2,0.1,0.4s0,0.3-0.1,0.4c-2-0.1-3.1-0.1-3.4-0.1s-1.4,0-3.5,0.1
			c-0.1-0.1-0.1-0.2-0.1-0.4s0-0.3,0.1-0.4c0.3,0,0.7,0,1.2-0.1s0.8-0.2,0.8-0.3c0.1-0.3,0.1-1,0.1-2.2V32.8c0-1.1,0-1.9-0.1-2.2
			c0-0.1-0.3-0.2-0.8-0.3s-0.9-0.1-1.2-0.1c-0.1-0.1-0.1-0.2-0.1-0.4s0-0.3,0.1-0.4c2,0.1,3.2,0.1,3.5,0.1c0.3,0,1,0,1.9,0
			S265.4,29.4,266,29.4z M269.2,34.7c0-1.3-0.4-2.4-1.1-3.2s-1.9-1.2-3.4-1.2c-0.9,0-1.4,0.1-1.5,0.3c-0.1,0.2-0.1,1-0.1,2.2v6.1
			h1.6c1.2,0,2.3-0.4,3.2-1.2S269.2,35.9,269.2,34.7z"/>
		<path class="st4" d="M281.7,45.3v-4.4c0-0.3-0.1-0.5-0.2-0.8c-0.6-1.1-1.3-2.4-2.2-3.8s-1.5-2.7-2-3.6c-0.5-0.9-1.2-1.6-1.9-2
			c-0.5-0.3-1.1-0.5-1.6-0.5c-0.1,0-0.1-0.1-0.1-0.4s0-0.4,0.1-0.5c2.4,0.1,3.6,0.1,3.7,0.1c0.5,0,1.8,0,3.8-0.1
			c0,0.1,0.1,0.2,0,0.5s0,0.4-0.1,0.4c-0.4,0-0.7,0.1-1.1,0.2s-0.6,0.4-0.6,0.7c0,0.2,0.1,0.5,0.4,0.9l4.1,7c1.7-3.1,3-5.6,3.8-7.6
			c0.1-0.2,0.1-0.3,0.1-0.4s-0.1-0.2-0.2-0.3s-0.3-0.2-0.6-0.3s-0.7-0.1-1.2-0.1c0,0-0.1-0.1-0.1-0.4s0-0.4,0-0.5
			c1.8,0.1,2.8,0.1,2.9,0.1c0.2,0,1.3,0,3.2-0.1c0,0.1,0,0.3,0,0.5s0,0.4-0.1,0.4c-1.3,0-2.2,0.4-2.6,1.2c-0.6,1.1-2.1,3.9-4.6,8.5
			c-0.1,0.2-0.1,0.5-0.1,0.9l0,4.5c0,1.1,0,1.9,0.1,2.2c0,0.1,0.3,0.2,0.8,0.3s0.9,0.1,1.2,0.1c0.1,0.1,0.1,0.2,0.1,0.4
			s0,0.3-0.1,0.4c-2-0.1-3.1-0.1-3.4-0.1s-1.4,0-3.5,0.1c-0.1-0.1-0.1-0.2-0.1-0.4s0-0.3,0.1-0.4c0.3,0,0.7,0,1.2-0.1
			s0.8-0.2,0.8-0.3C281.6,47.1,281.7,46.4,281.7,45.3z"/>
		<path class="st4" d="M309.2,29.1c2.2,0,4.3,0.2,6.2,0.6c0.4,2.7,0.7,4.1,0.7,4.3c0,0.1,0,0.2-0.2,0.2s-0.3,0.1-0.5,0.1
			c-0.1,0-0.3,0-0.4-0.1c-0.5-2.9-2.5-4.3-5.7-4.3c-2.1,0-3.8,0.9-5.1,2.6s-2,3.7-2,5.9c0,1.6,0.3,3.1,0.8,4.4s1.4,2.5,2.6,3.4
			s2.6,1.4,4.2,1.4c1.5,0,2.8-0.5,3.9-1.4c0.9-0.8,1.5-1.9,1.8-3.4c0.3,0,0.6,0,0.9,0.2c0,0.4-0.1,1.1-0.4,2.3s-0.5,1.8-0.6,1.9
			c-1.6,0.9-3.7,1.3-6.3,1.3c-2.8,0-5.2-0.9-7-2.8s-2.8-4.1-2.8-6.8c0-2.8,0.9-5.2,2.8-7.1S306.4,29.1,309.2,29.1z"/>
		<path class="st4" d="M328.6,29.1c2.6,0,4.9,0.9,6.8,2.8s2.8,4.2,2.8,7.1c0,2.7-0.9,5-2.8,7s-4.1,2.9-6.7,2.9
			c-2.6,0-4.9-0.9-6.7-2.8s-2.8-4.2-2.8-7.1c0-2.7,0.9-5.1,2.8-7S326,29.1,328.6,29.1z M328.1,30.1c-1.1,0-2,0.2-2.8,0.7
			s-1.5,1.1-1.9,1.9s-0.8,1.7-1.1,2.7s-0.4,1.9-0.4,3c0,1.6,0.3,3.1,0.8,4.5s1.3,2.6,2.4,3.6s2.4,1.5,3.8,1.5c1.1,0,2-0.2,2.8-0.7
			s1.5-1.1,1.9-2s0.8-1.7,1.1-2.7s0.4-2,0.4-3c0-1.6-0.3-3.1-0.8-4.5s-1.4-2.6-2.5-3.6S329.6,30.1,328.1,30.1z"/>
		<path class="st4" d="M344,29.4c0.5,0,1.3,0,2.4-0.1c0.2,0.5,0.6,1.7,1.3,3.4s1.6,3.8,2.6,6.1s1.8,4.2,2.3,5.6c0,0,0.1,0.1,0.1,0.1
			c0.1,0,0.1,0,0.1-0.1c2.9-7.3,4.3-11.2,4.5-11.5l1.3-3.5c1.2,0.1,2,0.1,2.3,0.1c1.2,0,2.3,0,3.3-0.1l0.1,0.8
			c-0.3,0-0.7,0.1-1.2,0.2s-0.8,0.2-0.9,0.4c-0.1,0.2-0.1,0.6-0.1,1.1c0,0.6,0,1.7,0.1,3.2s0.1,3.3,0.1,5.3s0.1,3.5,0.1,4.4
			c0,1.4,0.2,2.3,0.4,2.8c0.1,0.2,0.3,0.3,0.8,0.4s0.9,0.1,1.2,0.1c0.1,0.3,0.2,0.5,0.1,0.8c-2-0.1-3.1-0.1-3.5-0.1
			c-0.1,0-1.3,0-3.5,0.1c0,0-0.1-0.2-0.1-0.4s0-0.4,0.1-0.5c0.9,0,1.5-0.1,1.9-0.3c0.2-0.1,0.3-0.5,0.3-1.2c0-0.1,0-0.4,0-0.8
			s0-0.7,0-0.9c-0.2-6-0.3-10.2-0.4-12.5c0-0.4-0.1-0.6-0.3-0.6c0,0-0.1,0.1-0.1,0.2c-0.4,1.1-2.5,6.3-6.2,15.5
			c-0.1,0.2-0.3,0.5-0.5,0.9s-0.4,0.6-0.6,0.6c0,0-0.1,0-0.3-0.1l-7.1-17.1c0,1.9-0.1,4-0.1,6.5s-0.1,4.4-0.2,6s-0.1,2.4-0.1,2.4
			c0,0.4,0,0.7,0.1,0.9c0.1,0.2,0.4,0.3,1,0.4s1,0.1,1.3,0.1c0.2,0.2,0.2,0.5,0.1,0.8c-2-0.1-3-0.1-3.1-0.1c0,0-1.2,0-3.4,0.1
			c0,0-0.1-0.2-0.1-0.4c0-0.2,0-0.4,0.1-0.5c0.3,0,0.8,0,1.3-0.1s0.9-0.2,1-0.4c0.2-0.3,0.3-0.8,0.4-1.5c0.3-7.3,0.4-12,0.4-14
			c0-0.6,0-1-0.1-1.2c-0.1-0.2-0.4-0.3-0.9-0.4s-0.9-0.2-1.2-0.2c0,0,0-0.1,0-0.4s0-0.4,0-0.5c0.3,0,0.7,0,1.3,0.1
			S343.5,29.4,344,29.4z"/>
		<path class="st4" d="M370.6,29.4c0.5,0,1.3,0,2.4-0.1c0.2,0.5,0.6,1.7,1.3,3.4s1.6,3.8,2.6,6.1s1.8,4.2,2.3,5.6
			c0,0,0.1,0.1,0.1,0.1c0.1,0,0.1,0,0.1-0.1c2.9-7.3,4.3-11.2,4.5-11.5l1.3-3.5c1.2,0.1,2,0.1,2.3,0.1c1.2,0,2.3,0,3.3-0.1l0.1,0.8
			c-0.3,0-0.7,0.1-1.2,0.2s-0.8,0.2-0.9,0.4c-0.1,0.2-0.1,0.6-0.1,1.1c0,0.6,0,1.7,0.1,3.2s0.1,3.3,0.1,5.3s0.1,3.5,0.1,4.4
			c0,1.4,0.2,2.3,0.4,2.8c0.1,0.2,0.3,0.3,0.8,0.4s0.9,0.1,1.2,0.1c0.1,0.3,0.2,0.5,0.1,0.8c-2-0.1-3.1-0.1-3.5-0.1
			c-0.1,0-1.3,0-3.5,0.1c0,0-0.1-0.2-0.1-0.4s0-0.4,0.1-0.5c0.9,0,1.5-0.1,1.9-0.3c0.2-0.1,0.3-0.5,0.3-1.2c0-0.1,0-0.4,0-0.8
			s0-0.7,0-0.9c-0.2-6-0.3-10.2-0.4-12.5c0-0.4-0.1-0.6-0.3-0.6c0,0-0.1,0.1-0.1,0.2c-0.4,1.1-2.5,6.3-6.2,15.5
			c-0.1,0.2-0.3,0.5-0.5,0.9s-0.4,0.6-0.6,0.6c0,0-0.1,0-0.3-0.1L371,31.6c0,1.9-0.1,4-0.1,6.5s-0.1,4.4-0.2,6s-0.1,2.4-0.1,2.4
			c0,0.4,0,0.7,0.1,0.9c0.1,0.2,0.4,0.3,1,0.4s1,0.1,1.3,0.1c0.2,0.2,0.2,0.5,0.1,0.8c-2-0.1-3-0.1-3.1-0.1c0,0-1.2,0-3.4,0.1
			c0,0-0.1-0.2-0.1-0.4s0-0.4,0.1-0.5c0.3,0,0.8,0,1.3-0.1s0.9-0.2,1-0.4c0.2-0.3,0.3-0.8,0.4-1.5c0.3-7.3,0.4-12,0.4-14
			c0-0.6,0-1-0.1-1.2c-0.1-0.2-0.4-0.3-0.9-0.4s-0.9-0.2-1.2-0.2c0,0,0-0.1,0-0.4s0-0.4,0-0.5c0.3,0,0.7,0,1.3,0.1
			S370,29.4,370.6,29.4z"/>
		<path class="st4" d="M397.2,29.4c0.3,0,1.4,0,3.4-0.1c0.1,0.1,0.1,0.2,0.1,0.4s0,0.3-0.1,0.4c-0.3,0-0.7,0-1.2,0.1
			s-0.8,0.2-0.8,0.3c-0.1,0.3-0.1,1-0.1,2.2v12.5c0,1.1,0,1.9,0.1,2.2c0,0.1,0.3,0.2,0.8,0.3s0.9,0.1,1.2,0.1
			c0.1,0.1,0.1,0.2,0.1,0.4s0,0.3-0.1,0.4c-2-0.1-3.1-0.1-3.4-0.1s-1.4,0-3.5,0.1c-0.1-0.1-0.1-0.2-0.1-0.4s0-0.3,0.1-0.4
			c0.3,0,0.7,0,1.2-0.1s0.8-0.2,0.8-0.3c0.1-0.3,0.1-1,0.1-2.2V32.8c0-1.1,0-1.9-0.1-2.2c0-0.1-0.3-0.2-0.8-0.3s-0.9-0.1-1.2-0.1
			c-0.1-0.1-0.1-0.2-0.1-0.4s0-0.3,0.1-0.4C395.7,29.4,396.9,29.4,397.2,29.4z"/>
		<path class="st4" d="M409.5,29.2c0.4,0,0.8,0,1.2,0.1s0.7,0.1,0.9,0.2s0.6,0.2,1.1,0.3s0.9,0.2,1.2,0.3c0.1,0.9,0.3,2.2,0.4,4.2
			c0,0.1,0,0.2-0.2,0.2s-0.3,0.1-0.4,0.1s-0.2,0-0.3-0.1c-0.1-0.9-0.6-1.8-1.3-2.8s-1.7-1.4-2.8-1.4c-1.1,0-1.9,0.3-2.4,1
			s-0.8,1.4-0.8,2.3c0,0.4,0.1,0.7,0.2,1.1s0.3,0.6,0.4,0.8s0.4,0.5,0.7,0.8s0.6,0.5,0.8,0.6s0.5,0.3,1,0.6s0.8,0.5,1,0.6
			c0.1,0.1,0.4,0.3,1,0.6s1,0.6,1.2,0.8s0.6,0.4,1,0.8s0.8,0.7,1,1s0.4,0.7,0.6,1.1s0.3,0.9,0.3,1.4c0,1.6-0.6,2.8-1.8,3.9
			s-2.7,1.5-4.3,1.5c-0.5,0-1,0-1.5-0.1s-1-0.1-1.3-0.2s-0.8-0.2-1.3-0.3s-0.9-0.2-1.1-0.2c-0.4-2-0.6-3.5-0.6-4.5
			c0.2-0.2,0.5-0.4,0.8-0.4c0.2,0,0.3,0.1,0.3,0.3c0.1,0.3,0.1,0.6,0.2,0.9s0.3,0.7,0.6,1.1s0.6,0.8,0.9,1.2s0.8,0.6,1.3,0.9
			s1.2,0.4,1.8,0.4c1,0,1.8-0.3,2.5-1s1-1.5,1-2.6c0-0.4-0.1-0.8-0.2-1.1s-0.2-0.6-0.4-0.8s-0.4-0.4-0.7-0.7s-0.6-0.4-0.7-0.5
			s-0.5-0.3-1-0.6s-0.8-0.4-1-0.5c-0.6-0.3-1-0.6-1.2-0.7s-0.6-0.4-1.1-0.7s-0.9-0.6-1.1-0.9s-0.5-0.6-0.8-1s-0.5-0.8-0.7-1.2
			s-0.2-0.9-0.2-1.3c0-1.5,0.6-2.7,1.7-3.7S408,29.2,409.5,29.2z"/>
		<path class="st4" d="M424.2,29.2c0.4,0,0.8,0,1.2,0.1s0.7,0.1,0.9,0.2s0.6,0.2,1.1,0.3s0.9,0.2,1.2,0.3c0.1,0.9,0.3,2.2,0.4,4.2
			c0,0.1,0,0.2-0.2,0.2s-0.3,0.1-0.4,0.1s-0.2,0-0.3-0.1c-0.1-0.9-0.6-1.8-1.3-2.8s-1.7-1.4-2.8-1.4c-1.1,0-1.9,0.3-2.4,1
			s-0.8,1.4-0.8,2.3c0,0.4,0.1,0.7,0.2,1.1s0.3,0.6,0.4,0.8s0.4,0.5,0.7,0.8s0.6,0.5,0.8,0.6s0.5,0.3,1,0.6s0.8,0.5,1,0.6
			c0.1,0.1,0.4,0.3,1,0.6s1,0.6,1.2,0.8s0.6,0.4,1,0.8s0.8,0.7,1,1s0.4,0.7,0.6,1.1s0.3,0.9,0.3,1.4c0,1.6-0.6,2.8-1.8,3.9
			s-2.7,1.5-4.3,1.5c-0.5,0-1,0-1.5-0.1s-1-0.1-1.3-0.2s-0.8-0.2-1.3-0.3s-0.9-0.2-1.1-0.2c-0.4-2-0.6-3.5-0.6-4.5
			c0.2-0.2,0.5-0.4,0.8-0.4c0.2,0,0.3,0.1,0.3,0.3c0.1,0.3,0.1,0.6,0.2,0.9s0.3,0.7,0.6,1.1s0.6,0.8,0.9,1.2s0.8,0.6,1.3,0.9
			s1.2,0.4,1.8,0.4c1,0,1.8-0.3,2.5-1s1-1.5,1-2.6c0-0.4-0.1-0.8-0.2-1.1s-0.2-0.6-0.4-0.8s-0.4-0.4-0.7-0.7s-0.6-0.4-0.7-0.5
			s-0.5-0.3-1-0.6s-0.8-0.4-1-0.5c-0.6-0.3-1-0.6-1.2-0.7s-0.6-0.4-1.1-0.7s-0.9-0.6-1.1-0.9s-0.5-0.6-0.8-1s-0.5-0.8-0.7-1.2
			s-0.2-0.9-0.2-1.3c0-1.5,0.6-2.7,1.7-3.7S422.7,29.2,424.2,29.2z"/>
		<path class="st4" d="M436.1,29.4c0.3,0,1.4,0,3.4-0.1c0.1,0.1,0.1,0.2,0.1,0.4s0,0.3-0.1,0.4c-0.3,0-0.7,0-1.2,0.1
			s-0.8,0.2-0.8,0.3c-0.1,0.3-0.1,1-0.1,2.2v12.5c0,1.1,0,1.9,0.1,2.2c0,0.1,0.3,0.2,0.8,0.3s0.9,0.1,1.2,0.1
			c0.1,0.1,0.1,0.2,0.1,0.4s0,0.3-0.1,0.4c-2-0.1-3.1-0.1-3.4-0.1s-1.4,0-3.5,0.1c-0.1-0.1-0.1-0.2-0.1-0.4s0-0.3,0.1-0.4
			c0.3,0,0.7,0,1.2-0.1s0.8-0.2,0.8-0.3c0.1-0.3,0.1-1,0.1-2.2V32.8c0-1.1,0-1.9-0.1-2.2c0-0.1-0.3-0.2-0.8-0.3s-0.9-0.1-1.2-0.1
			c-0.1-0.1-0.1-0.2-0.1-0.4s0-0.3,0.1-0.4C434.6,29.4,435.8,29.4,436.1,29.4z"/>
		<path class="st4" d="M451.4,29.1c2.6,0,4.9,0.9,6.8,2.8s2.8,4.2,2.8,7.1c0,2.7-0.9,5-2.8,7S454,49,451.4,49
			c-2.6,0-4.9-0.9-6.7-2.8s-2.8-4.2-2.8-7.1c0-2.7,0.9-5.1,2.8-7S448.9,29.1,451.4,29.1z M451,30.1c-1.1,0-2,0.2-2.8,0.7
			s-1.5,1.1-1.9,1.9s-0.8,1.7-1.1,2.7s-0.4,1.9-0.4,3c0,1.6,0.3,3.1,0.8,4.5s1.3,2.6,2.4,3.6s2.4,1.5,3.8,1.5c1.1,0,2-0.2,2.8-0.7
			s1.5-1.1,1.9-2s0.8-1.7,1.1-2.7s0.4-2,0.4-3c0-1.6-0.3-3.1-0.8-4.5s-1.4-2.6-2.5-3.6S452.5,30.1,451,30.1z"/>
		<path class="st4" d="M466.3,29.3c0.9,0,1.7,0,2.2-0.1c0.5,0.8,2.2,3,5.3,6.7s5.1,6.3,6.2,7.9v-1.7v-9.4c0-1-0.1-1.7-0.3-2
			c-0.1-0.1-0.4-0.3-1-0.4s-1-0.2-1.3-0.2c-0.2-0.2-0.2-0.5-0.1-0.8c2,0.1,3.1,0.1,3.4,0.1c0.4,0,0.7,0,1.1,0s0.7,0,1-0.1
			s0.7,0,1.1-0.1c0.1,0.2,0.1,0.5,0,0.8c-0.3,0-0.7,0.1-1.3,0.2s-0.9,0.3-1,0.4c-0.2,0.3-0.3,1-0.3,2v11.9c0,1.7,0,3,0.1,4
			c0,0.1-0.1,0.2-0.4,0.2c-0.3,0-0.7-0.2-1-0.7L467.2,32v13.3c0,1,0.1,1.7,0.3,2c0.1,0.1,0.4,0.3,0.9,0.4s1,0.2,1.3,0.2
			c0.2,0.2,0.2,0.5,0.1,0.8c-2-0.1-3.1-0.1-3.3-0.1c-0.4,0-0.7,0-1.1,0s-0.7,0-1,0.1s-0.7,0-1.1,0.1c-0.1-0.3-0.1-0.5,0-0.8
			c0.3,0,0.7-0.1,1.3-0.2s0.9-0.3,1-0.4c0.2-0.3,0.3-1,0.3-2V32.6c0-1-0.1-1.7-0.3-2c-0.1-0.2-0.4-0.3-1-0.4s-1-0.2-1.3-0.2
			c-0.1-0.3-0.1-0.6,0-0.8c0.3,0,0.8,0,1.5,0.1S465.9,29.3,466.3,29.3z"/>
	</g>
</g>
<g>
	<g class="st3">
		<path class="st5" d="M0.1,255.4v7.2c0,1.2,0.2,2.1,0.6,2.5c0.4,0.5,1.3,0.7,2.6,0.7h0.5v2.2h-14.3v-2.2h0.4c1.3,0,2.2-0.2,2.6-0.7
			c0.4-0.5,0.6-1.3,0.6-2.5v-15.7c0-1.2-0.2-2.1-0.6-2.5s-1.3-0.7-2.5-0.7h-0.5v-2.1h22.2l0.2,7H9.8c-0.3-1.2-0.7-2.2-1.2-2.9
			s-1-1.2-1.6-1.4s-1.4-0.3-2.5-0.3H0.1v9.1h2.1c1,0,1.7-0.2,2.1-0.6c0.4-0.4,0.6-1.3,0.7-2.6h2.2v9.1H5c-0.1-1.4-0.3-2.4-0.7-2.8
			s-1.1-0.7-2.1-0.7H0.1z"/>
		<path class="st5" d="M13.9,254.7c0-2.4,0.7-4.7,2-7s3.1-3.9,5.4-5c2.3-1.1,4.7-1.6,7.3-1.6c4.7,0,8.3,1.3,11,4c2.6,2.7,4,6,4,9.9
			c0,3.7-1.3,6.9-4,9.6c-2.6,2.7-6.2,4-10.8,4c-3.1,0-5.9-0.7-8.3-2c-2.4-1.3-4.1-3.1-5.1-5.3S13.9,256.9,13.9,254.7z M22,254.5
			c0,4.1,0.5,7,1.6,8.8s2.7,2.7,4.9,2.7c2.3,0,4-0.8,5.1-2.5c1.1-1.6,1.7-4.5,1.7-8.7c0-3.8-0.5-6.6-1.6-8.5s-2.8-2.8-5.1-2.8
			c-2.2,0-3.9,0.9-5,2.6S22,250.7,22,254.5z"/>
		<path class="st5" d="M56.7,256.3v6.3c0,1.2,0.2,2.1,0.6,2.5c0.4,0.5,1.3,0.7,2.6,0.7h0.5v2.2H46.1v-2.2h0.5c1.3,0,2.2-0.2,2.6-0.7
			c0.4-0.5,0.6-1.3,0.6-2.5v-15.7c0-1.2-0.2-2.1-0.6-2.5c-0.4-0.5-1.3-0.7-2.6-0.7h-0.5v-2.2l10.6,0l2.4,0c2.4,0,4.1,0.1,5.2,0.2
			c1.1,0.2,2.2,0.5,3.2,1.1s1.9,1.4,2.5,2.4s0.9,2.1,0.9,3.3c0,3.2-1.8,5.3-5.4,6.5c1,0.6,2.4,2.5,4.4,5.6c1.6,2.4,2.7,3.9,3.3,4.4
			s1.4,0.8,2.2,0.8v2.2h-8.3c-0.8-0.9-2.2-3.2-4.2-6.8c-1-1.8-1.8-3-2.2-3.6c-0.4-0.5-0.8-0.9-1.3-1
			C59.2,256.4,58.2,256.3,56.7,256.3z M56.7,253.9c2.2,0,3.7-0.1,4.5-0.4c0.8-0.3,1.4-0.8,1.8-1.6c0.4-0.8,0.7-1.8,0.7-3.1
			c0-1.9-0.4-3.2-1.3-3.9s-2.4-1.1-4.5-1.1c-0.3,0-0.6,0-1.1,0V253.9z"/>
		<path class="st5" d="M96.1,243.9h-2.2c-1.3,0-2.3,0.1-2.9,0.4s-1.1,0.9-1.6,1.7c-0.4,0.9-0.7,1.9-0.8,3h-2.2v-7.5h26.5v7.5h-2.2
			c-0.4-2-1-3.4-1.8-4.1c-0.8-0.7-2-1.1-3.6-1.1h-2.3v18.7c0,1.2,0.2,2.1,0.6,2.5s1.3,0.7,2.6,0.7h0.7v2.2H92.3v-2.2h0.6
			c1.3,0,2.2-0.2,2.6-0.7c0.4-0.5,0.6-1.3,0.6-2.5V243.9z"/>
		<path class="st5" d="M125.6,255.3v7.3c0,1.2,0.2,2.1,0.6,2.5s1.4,0.7,2.8,0.7v2.2h-13.8v-2.2c1.4,0,2.3-0.2,2.8-0.7
			c0.5-0.4,0.7-1.3,0.7-2.6v-15.7c0-1.2-0.2-2.1-0.7-2.6c-0.4-0.5-1.4-0.7-2.8-0.7v-2.2H129v2.2c-1.4,0-2.3,0.2-2.7,0.7
			s-0.7,1.3-0.7,2.6v5.9h10.9v-5.9c0-1.2-0.2-2.1-0.6-2.5c-0.4-0.5-1.3-0.7-2.7-0.7v-2.2h13.8v2.2c-1.4,0-2.3,0.2-2.8,0.6
			c-0.5,0.4-0.7,1.3-0.7,2.6v15.7c0,1.3,0.2,2.1,0.7,2.6c0.4,0.4,1.4,0.7,2.8,0.7v2.2h-13.8v-2.2c1.4,0,2.3-0.2,2.7-0.7
			c0.4-0.5,0.7-1.3,0.7-2.6v-7.3H125.6z"/>
		<path class="st5" d="M159.3,255.3v6.5c0,1.2,0.1,2.1,0.2,2.5c0.1,0.4,0.5,0.7,1.2,1s1.6,0.4,2.9,0.4c1.7,0,3-0.2,3.8-0.6
			c0.8-0.4,1.5-1.2,2.2-2.3s1.1-2.2,1.4-3.5h2.2L173,268h-24.2v-2.2h0.5c1.3,0,2.2-0.2,2.6-0.7c0.4-0.5,0.6-1.3,0.6-2.5v-15.7
			c0-1.2-0.2-2.1-0.6-2.5s-1.3-0.7-2.5-0.7h-0.5v-2.1h22.6l0.4,6.9h-2.2c-0.4-1.2-0.8-2.2-1.3-2.9c-0.5-0.7-1-1.2-1.5-1.4
			s-1.3-0.3-2.5-0.3h-4.9v9.1h2.5c1.2,0,1.9-0.2,2.3-0.7c0.4-0.4,0.6-1.3,0.7-2.6h2.2v9h-2.2c0-0.2,0-0.3,0-0.4
			c0-0.8-0.2-1.4-0.5-2.1c-0.3-0.6-1.1-0.9-2.5-0.9H159.3z"/>
		<path class="st5" d="M195.8,256.3v6.3c0,1.2,0.2,2.1,0.6,2.5s1.3,0.7,2.6,0.7h0.6v2.2h-14.4v-2.2h0.5c1.3,0,2.2-0.2,2.6-0.7
			c0.4-0.5,0.6-1.3,0.6-2.5v-15.7c0-1.2-0.2-2.1-0.6-2.5s-1.3-0.7-2.5-0.7h-0.6v-2.2l10.7-0.2c2.7,0,4.8,0.1,6.2,0.2s2.8,0.5,4,1.2
			c1.2,0.7,2.1,1.5,2.8,2.6c0.6,1.1,0.9,2.2,0.9,3.5c0,1.7-0.5,3.2-1.6,4.4s-2.4,2-4,2.4c-1.6,0.4-3.7,0.6-6.4,0.6H195.8z
			 M195.8,253.9h1.3c2.1,0,3.5-0.5,4.1-1.4c0.7-0.9,1-2.1,1-3.6c0-1.4-0.3-2.5-0.8-3.3s-1.2-1.4-1.9-1.6s-2-0.4-3.8-0.4V253.9z"/>
		<path class="st5" d="M210.6,243.7v-2.2h14v2.2h-0.4c-1.3,0-2.2,0.2-2.6,0.7s-0.6,1.3-0.6,2.5v10.4c0,1.9,0.2,3.4,0.5,4.5
			s1,2,2.1,2.8s2.3,1.2,3.8,1.2c1.6,0,3-0.4,4.1-1.2s1.9-1.8,2.2-3s0.5-2.8,0.5-4.9v-8.9c0-2.7-1.3-4.1-3.9-4.1v-2.2h9.8v2.2
			c-0.6,0-1.1,0.2-1.8,0.5s-1,0.8-1.3,1.3s-0.4,1.4-0.4,2.4v8.8c0,1.9-0.1,3.5-0.4,4.7s-0.8,2.4-1.7,3.5s-2.1,2-3.8,2.7
			s-3.4,1-5.3,1c-2,0-3.9-0.3-5.5-1s-2.9-1.5-3.7-2.5s-1.4-2.1-1.7-3.3c-0.3-1.2-0.5-2.6-0.5-4.3v-10.4c0-1.2-0.2-2.1-0.6-2.6
			S212,243.7,210.6,243.7z"/>
		<path class="st5" d="M252.2,256.3v6.3c0,1.2,0.2,2.1,0.6,2.5s1.3,0.7,2.6,0.7h0.5v2.2h-14.3v-2.2h0.5c1.3,0,2.2-0.2,2.6-0.7
			s0.6-1.3,0.6-2.5v-15.7c0-1.2-0.2-2.1-0.6-2.5s-1.3-0.7-2.6-0.7h-0.5v-2.2l10.6,0l2.4,0c2.4,0,4.1,0.1,5.2,0.2s2.2,0.5,3.2,1.1
			s1.9,1.4,2.5,2.4s0.9,2.1,0.9,3.3c0,3.2-1.8,5.3-5.4,6.5c1,0.6,2.4,2.5,4.4,5.6c1.6,2.4,2.7,3.9,3.3,4.4s1.4,0.8,2.2,0.8v2.2h-8.3
			c-0.8-0.9-2.2-3.2-4.2-6.8c-1-1.8-1.8-3-2.2-3.6s-0.8-0.9-1.3-1S253.6,256.3,252.2,256.3z M252.2,253.9c2.2,0,3.7-0.1,4.5-0.4
			s1.4-0.8,1.8-1.6s0.7-1.8,0.7-3.1c0-1.9-0.4-3.2-1.3-3.9s-2.4-1.1-4.5-1.1c-0.3,0-0.6,0-1.1,0V253.9z"/>
		<path class="st5" d="M282.1,256.3v6.3c0,1.2,0.2,2.1,0.6,2.5s1.3,0.7,2.6,0.7h0.6v2.2h-14.4v-2.2h0.5c1.3,0,2.2-0.2,2.6-0.7
			s0.6-1.3,0.6-2.5v-15.7c0-1.2-0.2-2.1-0.6-2.5s-1.3-0.7-2.5-0.7h-0.6v-2.2l10.7-0.2c2.7,0,4.8,0.1,6.2,0.2s2.8,0.5,4,1.2
			s2.1,1.5,2.8,2.6s0.9,2.2,0.9,3.5c0,1.7-0.5,3.2-1.6,4.4s-2.4,2-4,2.4s-3.7,0.6-6.4,0.6H282.1z M282.1,253.9h1.3
			c2.1,0,3.5-0.5,4.1-1.4s1-2.1,1-3.6c0-1.4-0.3-2.5-0.8-3.3s-1.2-1.4-1.9-1.6s-2-0.4-3.8-0.4V253.9z"/>
		<path class="st5" d="M298,254.7c0-2.4,0.7-4.7,2-7s3.1-3.9,5.4-5s4.7-1.6,7.3-1.6c4.7,0,8.3,1.3,11,4s4,6,4,9.9
			c0,3.7-1.3,6.9-4,9.6s-6.2,4-10.8,4c-3.1,0-5.9-0.7-8.3-2s-4.1-3.1-5.1-5.3S298,256.9,298,254.7z M306.2,254.5
			c0,4.1,0.5,7,1.6,8.8s2.7,2.7,4.9,2.7c2.3,0,4-0.8,5.1-2.5s1.7-4.5,1.7-8.7c0-3.8-0.5-6.6-1.6-8.5s-2.8-2.8-5.1-2.8
			c-2.2,0-3.9,0.9-5,2.6S306.2,250.7,306.2,254.5z"/>
		<path class="st5" d="M331.7,267.6v-9.1h2.3c0.7,2.7,1.6,4.6,2.9,5.8s2.7,1.7,4.2,1.7c1.1,0,2-0.3,2.7-1s1-1.4,1-2.3
			c0-0.6-0.2-1.3-0.6-1.9s-1.4-1.3-3-2.1c-3-1.5-5-2.6-6.1-3.3s-1.9-1.6-2.5-2.7s-1-2.4-1-3.8c0-2.3,0.8-4.2,2.5-5.6
			s3.5-2.2,5.7-2.2c2.3,0,4.2,0.8,5.7,2.3c0.3-0.4,0.5-1,0.6-1.8h2.2v7.8h-2.2c-0.4-1.7-1.1-3.2-2.2-4.3s-2.3-1.7-3.7-1.7
			c-1,0-1.8,0.3-2.5,0.9s-0.9,1.3-0.9,2.1c0,0.7,0.2,1.3,0.6,1.8s0.9,1,1.6,1.4s2.1,1.1,4.2,2.1c1.9,0.9,3.4,1.7,4.3,2.4
			s1.7,1.6,2.2,2.7s0.8,2.3,0.8,3.5c0,2.3-0.9,4.3-2.6,5.8s-3.8,2.3-6.2,2.3c-1.4,0-2.7-0.3-4-0.9s-2.4-1.3-3.1-2.3
			c-0.3,0.6-0.5,1.3-0.7,2.1H331.7z"/>
		<path class="st5" d="M363.5,255.3v6.5c0,1.2,0.1,2.1,0.2,2.5s0.5,0.7,1.2,1s1.6,0.4,2.9,0.4c1.7,0,3-0.2,3.8-0.6s1.5-1.2,2.2-2.3
			s1.1-2.2,1.4-3.5h2.2l-0.2,8.7h-24.2v-2.2h0.5c1.3,0,2.2-0.2,2.6-0.7s0.6-1.3,0.6-2.5v-15.7c0-1.2-0.2-2.1-0.6-2.5
			s-1.3-0.7-2.5-0.7h-0.5v-2.1h22.6l0.4,6.9h-2.2c-0.4-1.2-0.8-2.2-1.3-2.9s-1-1.2-1.5-1.4s-1.3-0.3-2.5-0.3h-4.9v9.1h2.5
			c1.2,0,2-0.2,2.3-0.7s0.6-1.3,0.7-2.6h2.2v9h-2.2c0-0.2,0-0.3,0-0.4c0-0.8-0.2-1.4-0.5-2.1s-1.1-0.9-2.5-0.9H363.5z"/>
		<path class="st5" d="M390.5,254.7c0-2.4,0.7-4.7,2-7s3.1-3.9,5.4-5s4.7-1.6,7.3-1.6c4.7,0,8.3,1.3,11,4s4,6,4,9.9
			c0,3.7-1.3,6.9-4,9.6s-6.2,4-10.8,4c-3.1,0-5.9-0.7-8.3-2s-4.1-3.1-5.1-5.3S390.5,256.9,390.5,254.7z M398.7,254.5
			c0,4.1,0.5,7,1.6,8.8s2.7,2.7,4.9,2.7c2.3,0,4-0.8,5.1-2.5s1.7-4.5,1.7-8.7c0-3.8-0.5-6.6-1.6-8.5s-2.8-2.8-5.1-2.8
			c-2.2,0-3.9,0.9-5,2.6S398.7,250.7,398.7,254.5z"/>
		<path class="st5" d="M433.5,255.4v7.2c0,1.2,0.2,2.1,0.6,2.5s1.3,0.7,2.6,0.7h0.5v2.2H423v-2.2h0.4c1.3,0,2.2-0.2,2.6-0.7
			s0.6-1.3,0.6-2.5v-15.7c0-1.2-0.2-2.1-0.6-2.5s-1.3-0.7-2.5-0.7h-0.5v-2.1h22.2l0.2,7h-2.2c-0.3-1.2-0.7-2.2-1.2-2.9
			s-1-1.2-1.6-1.4s-1.4-0.3-2.5-0.3h-4.3v9.1h2.1c1,0,1.7-0.2,2.1-0.6s0.6-1.3,0.7-2.6h2.2v9.1h-2.2c-0.1-1.4-0.3-2.4-0.7-2.8
			s-1.1-0.7-2.1-0.7H433.5z"/>
	</g>
	<g class="st3">
		<path class="st5" d="M145.4,297.2c1.1,0,2.1,0.3,2.9,0.9c0.3,0.5,0.5,1,0.5,1.5c0,0.5-0.2,1-0.5,1.4c-0.3,0.4-0.8,0.6-1.2,0.6
			c-0.8,0-1.3-0.4-1.7-1.1c0,0-0.1-0.1-0.2-0.2c-0.1-0.1-0.1-0.2-0.2-0.3c0-0.1-0.1-0.1-0.2-0.3c-0.1-0.1-0.2-0.2-0.2-0.3
			c-0.1-0.1-0.1-0.1-0.2-0.2c-0.1-0.1-0.2-0.2-0.3-0.2s-0.2-0.1-0.3-0.1c-0.1,0-0.2,0-0.4,0c-0.9,0-1.8,0.9-2.7,2.8
			c-0.8,1.8-1.2,3.9-1.2,6.2c0,2.6,0.9,3.9,2.6,3.9c0.2,0,0.4,0,0.6-0.1c0.2-0.1,0.4-0.1,0.6-0.2s0.4-0.2,0.6-0.3s0.4-0.2,0.5-0.4
			c0.2-0.1,0.3-0.3,0.5-0.4s0.3-0.3,0.4-0.4c0.1-0.1,0.3-0.3,0.4-0.4c0.1-0.1,0.2-0.2,0.2-0.3l0.1-0.1c0.1,0,0.2,0.1,0.3,0.4
			s0.2,0.4,0.2,0.5c-0.4,0.7-1.3,1.7-2.7,2.8c-1.4,1.1-2.6,1.7-3.8,1.7c-1.3,0-2.4-0.5-3.3-1.4c-0.8-1-1.3-2.3-1.3-4.1
			c0-3,1.1-5.7,3.2-8.2C141,298.5,143.2,297.2,145.4,297.2z"/>
		<path class="st5" d="M159.5,297.2c1.6,0,2.9,0.5,3.8,1.5c0.9,1,1.4,2.4,1.4,4.4c0,2.8-1,5.4-3.1,7.9c-2.1,2.5-4.2,3.7-6.5,3.7
			c-1.6,0-2.8-0.5-3.7-1.5s-1.3-2.4-1.3-4.2c0-2.8,1-5.4,3-8C155.1,298.5,157.2,297.2,159.5,297.2z M159,298.6
			c-1.4,0-2.6,1.1-3.6,3.4c-1,2.3-1.4,4.6-1.4,6.9c0,2.9,0.6,4.4,1.8,4.4c1,0,1.8-0.6,2.6-1.8c0.8-1.2,1.4-2.5,1.8-4.1
			c0.4-1.5,0.6-3,0.6-4.4C160.8,300.1,160.2,298.6,159,298.6z"/>
		<path class="st5" d="M174.1,301.8l-0.5,2.5c0.6-1.2,1.6-2.7,3.2-4.5c1.6-1.8,2.9-2.7,3.9-2.7c1,0,1.6,0.2,2.1,0.7
			c0.4,0.5,0.6,1.2,0.6,2.2c0,0.8-0.2,2.3-0.7,4.7l-1,5c-0.1,0.3-0.1,0.7-0.1,1.3c0,0.6,0.1,0.9,0.4,0.9c0.4,0,0.9-0.3,1.5-0.9
			c0.6-0.6,1-1.1,1.3-1.4c0.1,0,0.2,0.1,0.3,0.4s0.2,0.4,0.2,0.5c-0.4,0.7-1.2,1.5-2.5,2.6c-1.3,1.1-2.3,1.6-3.2,1.6
			c-0.5,0-1-0.2-1.3-0.6s-0.5-1-0.5-1.8c0-0.5,0.1-1.3,0.3-2.2l1.1-5.5c0.3-1.3,0.4-2.1,0.4-2.5c0-0.8-0.2-1.2-0.7-1.2
			c-0.8,0-1.9,1-3.3,3.1c-1.5,2-2.4,4.2-2.9,6.5c0,0.1-0.3,1.4-0.9,4.1c-0.8,0.1-1.4,0.2-1.8,0.2c-0.4,0-1-0.1-1.8-0.2l2.5-12.3
			c0.1-0.5,0.2-0.9,0.2-1.2c0-0.6-0.2-0.9-0.5-0.9c-0.4,0-0.9,0.3-1.5,0.9c-0.6,0.6-1,1.1-1.3,1.4c-0.1,0-0.2-0.1-0.3-0.4
			s-0.2-0.4-0.2-0.5c0.4-0.7,1.2-1.5,2.4-2.6c1.2-1.1,2.3-1.6,3.1-1.6c0.6,0,1.1,0.2,1.5,0.7c0.4,0.4,0.6,1,0.6,1.8
			C174.5,300.3,174.4,301,174.1,301.8z"/>
		<path class="st5" d="M199.6,292.6c0-0.2,0.1-0.4,0.1-0.7c0.1-0.3,0.1-0.6,0.2-0.8c0-0.2,0.1-0.4,0.1-0.5c0-0.5-0.8-0.8-2.4-0.8
			c-0.1-0.1-0.1-0.2,0-0.5c0-0.2,0.1-0.4,0.2-0.5c2.3-0.2,4.3-0.6,6.1-1.3c0.2,0.1,0.2,0.3,0.2,0.7c0,0.4-0.2,1.4-0.5,3l-3.7,18.6
			c-0.1,0.4-0.2,0.8-0.2,1.3c0,0.6,0.2,0.9,0.5,0.9c0.4,0,0.9-0.3,1.5-0.9s1.1-1.1,1.3-1.4c0.1,0,0.2,0.1,0.3,0.4s0.2,0.4,0.2,0.5
			c-0.4,0.7-1.2,1.5-2.5,2.6c-1.3,1.1-2.3,1.6-3.2,1.6c-0.8,0-1.4-0.5-1.6-1.5c-0.1-0.3-0.2-1-0.1-1.8c0-0.1,0.1-0.3,0.1-0.5
			c0-0.2,0-0.4,0.1-0.5c0-0.1,0-0.2,0.1-0.4c-0.5,0.9-1.3,1.9-2.5,3c-1.1,1.1-2.2,1.6-3.3,1.6c-1.1,0-1.9-0.5-2.5-1.4
			s-0.9-2.1-0.9-3.4c0-3,1.2-5.9,3.6-8.5c2.4-2.6,4.9-4,7.5-4.2h0.6L199.6,292.6z M197.9,300.9c0.1-0.5,0-1-0.2-1.3
			c-0.2-0.4-0.5-0.5-0.9-0.5c-1.4,0-2.7,1-3.9,3c-1.2,2-1.8,4.2-1.8,6.5c0,2.2,0.6,3.3,1.7,3.3c0.8,0,1.7-0.9,2.7-2.8
			c1-1.8,1.7-3.7,2.1-5.5C197.7,302,197.9,301.1,197.9,300.9z"/>
		<path class="st5" d="M216.1,310.4c0.1-0.5,0.3-1.4,0.6-2.7c-0.7,1.5-1.8,3-3.4,4.7c-1.6,1.7-2.9,2.5-3.9,2.5
			c-0.8,0-1.4-0.3-1.7-0.8c-0.3-0.5-0.5-1.3-0.5-2.3c0-0.9,0.2-2.4,0.7-4.5c0,0,0.2-0.8,0.5-2.3c0.3-1.5,0.5-2.4,0.6-2.8
			c0.1-0.5,0.2-0.9,0.2-1.2c0-0.6-0.2-0.9-0.5-0.9c-0.4,0-0.9,0.3-1.5,0.9c-0.6,0.6-1,1.1-1.3,1.4c-0.1,0-0.2-0.1-0.3-0.4
			s-0.2-0.4-0.2-0.5c0.4-0.7,1.2-1.5,2.4-2.6c1.2-1.1,2.3-1.6,3.1-1.6c0.6,0,1.1,0.2,1.5,0.7c0.4,0.4,0.6,1,0.6,1.8
			c0,0.3-0.1,1.1-0.3,2.2l-1.1,5.5c-0.3,1.3-0.4,2.1-0.4,2.5c0,0.8,0.2,1.2,0.7,1.2c0.7,0,1.8-1.1,3.3-3.4c1.5-2.3,2.4-4.5,2.9-6.8
			c0.1-0.3,0.2-0.9,0.4-1.7c0.2-0.9,0.3-1.5,0.4-1.7c0.4-0.1,1-0.2,1.7-0.2c0.8,0,1.4,0.1,1.9,0.2l-2.3,12.3
			c-0.1,0.4-0.2,0.8-0.2,1.3c0,0.6,0.2,0.9,0.5,0.9c0.3,0,0.6-0.2,1.1-0.6c0.5-0.4,0.8-0.7,1.1-1.1c0.3-0.3,0.5-0.5,0.6-0.7
			c0.1,0,0.2,0.1,0.3,0.4s0.2,0.4,0.2,0.5c-0.4,0.7-1.2,1.5-2.4,2.6c-1.3,1.1-2.3,1.6-3.2,1.6c-0.5,0-1-0.2-1.4-0.6
			c-0.4-0.4-0.5-1-0.5-1.8C215.9,312,216,311.3,216.1,310.4z"/>
		<path class="st5" d="M235.4,297.2c1.1,0,2.1,0.3,2.9,0.9c0.3,0.5,0.5,1,0.5,1.5c0,0.5-0.2,1-0.5,1.4c-0.3,0.4-0.8,0.6-1.2,0.6
			c-0.8,0-1.3-0.4-1.7-1.1c0,0-0.1-0.1-0.2-0.2c-0.1-0.1-0.1-0.2-0.2-0.3c0-0.1-0.1-0.1-0.2-0.3c-0.1-0.1-0.2-0.2-0.2-0.3
			c-0.1-0.1-0.1-0.1-0.2-0.2c-0.1-0.1-0.2-0.2-0.3-0.2s-0.2-0.1-0.3-0.1c-0.1,0-0.2,0-0.4,0c-0.9,0-1.8,0.9-2.7,2.8
			c-0.8,1.8-1.2,3.9-1.2,6.2c0,2.6,0.9,3.9,2.6,3.9c0.2,0,0.4,0,0.6-0.1c0.2-0.1,0.4-0.1,0.6-0.2s0.4-0.2,0.6-0.3s0.4-0.2,0.5-0.4
			c0.2-0.1,0.3-0.3,0.5-0.4s0.3-0.3,0.4-0.4c0.1-0.1,0.3-0.3,0.4-0.4c0.1-0.1,0.2-0.2,0.2-0.3l0.1-0.1c0.1,0,0.2,0.1,0.3,0.4
			s0.2,0.4,0.2,0.5c-0.4,0.7-1.3,1.7-2.7,2.8c-1.4,1.1-2.6,1.7-3.8,1.7c-1.3,0-2.4-0.5-3.3-1.4c-0.8-1-1.3-2.3-1.3-4.1
			c0-3,1.1-5.7,3.2-8.2C230.9,298.5,233.1,297.2,235.4,297.2z"/>
		<path class="st5" d="M243.8,298.1l0.5-2.7c0.2-0.3,0.8-0.8,1.7-1.5c1-0.7,1.5-1.1,1.7-1.1c0.2,0,0.5,0.1,0.7,0.2l-0.9,5h3.2
			c0.1,0,0.2,0.2,0.2,0.5c0,0.3-0.1,0.7-0.4,1.1h-3.3l-2,10.1c-0.1,0.5-0.2,1-0.2,1.3c0,0.6,0.2,0.9,0.5,0.9c0.3,0,0.6-0.2,1.1-0.6
			c0.5-0.4,0.8-0.7,1.1-1.1c0.3-0.3,0.5-0.5,0.6-0.7c0.1,0,0.2,0.1,0.3,0.4s0.2,0.4,0.2,0.5c-0.4,0.7-1.2,1.5-2.5,2.6
			c-1.3,1.1-2.3,1.6-3.2,1.6c-0.5,0-1-0.2-1.4-0.6c-0.4-0.4-0.5-1-0.5-1.8c0-0.6,0.1-1.3,0.3-2.2l2-10.4h-2.7c-0.1,0-0.1,0-0.1-0.1
			c0-0.2,0.2-0.5,0.6-0.9c0.4-0.4,0.8-0.6,1.2-0.6H243.8z"/>
		<path class="st5" d="M255.3,302.2c0.1-0.5,0.2-0.9,0.2-1.2c0-0.6-0.2-0.9-0.5-0.9c-0.4,0-0.9,0.3-1.5,0.9c-0.6,0.6-1,1.1-1.3,1.4
			c-0.1,0-0.2-0.1-0.3-0.4s-0.2-0.4-0.2-0.5c0.4-0.7,1.2-1.5,2.4-2.6c1.2-1.1,2.3-1.6,3.1-1.6c0.6,0,1.1,0.2,1.5,0.7
			c0.4,0.4,0.6,1,0.6,1.8c0,0.3-0.1,1.1-0.3,2.2l-1.7,8c-0.1,0.3-0.1,0.7-0.1,1.3c0,0.6,0.1,0.9,0.4,0.9c0.4,0,0.9-0.3,1.5-0.9
			c0.6-0.6,1-1.1,1.3-1.4c0.1,0,0.2,0.1,0.3,0.4s0.2,0.4,0.2,0.5c-0.4,0.7-1.2,1.5-2.5,2.6c-1.3,1.1-2.3,1.6-3.2,1.6
			c-0.5,0-1-0.2-1.3-0.6s-0.5-1-0.5-1.8c0-0.5,0.1-1.3,0.3-2.2L255.3,302.2z M258.5,288.4c0.5,0,1,0.2,1.3,0.6
			c0.3,0.4,0.5,0.9,0.5,1.4c0,0.8-0.3,1.4-0.8,2c-0.5,0.6-1.1,0.9-1.8,0.9c-0.5,0-1-0.2-1.3-0.6c-0.3-0.4-0.5-0.9-0.5-1.5
			c0-0.7,0.3-1.4,0.8-1.9C257.2,288.7,257.8,288.4,258.5,288.4z"/>
		<path class="st5" d="M270.1,301.8l-0.5,2.5c0.6-1.2,1.6-2.7,3.2-4.5c1.6-1.8,2.9-2.7,3.9-2.7c1,0,1.6,0.2,2.1,0.7
			c0.4,0.5,0.6,1.2,0.6,2.2c0,0.8-0.2,2.3-0.7,4.7l-1,5c-0.1,0.3-0.1,0.7-0.1,1.3c0,0.6,0.1,0.9,0.4,0.9c0.4,0,0.9-0.3,1.5-0.9
			c0.6-0.6,1-1.1,1.3-1.4c0.1,0,0.2,0.1,0.3,0.4s0.2,0.4,0.2,0.5c-0.4,0.7-1.2,1.5-2.5,2.6c-1.3,1.1-2.3,1.6-3.2,1.6
			c-0.5,0-1-0.2-1.3-0.6s-0.5-1-0.5-1.8c0-0.5,0.1-1.3,0.3-2.2l1.1-5.5c0.3-1.3,0.4-2.1,0.4-2.5c0-0.8-0.2-1.2-0.7-1.2
			c-0.8,0-1.9,1-3.3,3.1c-1.5,2-2.4,4.2-2.9,6.5c0,0.1-0.3,1.4-0.9,4.1c-0.8,0.1-1.4,0.2-1.8,0.2c-0.4,0-1-0.1-1.8-0.2l2.5-12.3
			c0.1-0.5,0.2-0.9,0.2-1.2c0-0.6-0.2-0.9-0.5-0.9c-0.4,0-0.9,0.3-1.5,0.9c-0.6,0.6-1,1.1-1.3,1.4c-0.1,0-0.2-0.1-0.3-0.4
			s-0.2-0.4-0.2-0.5c0.4-0.7,1.2-1.5,2.4-2.6c1.2-1.1,2.3-1.6,3.1-1.6c0.6,0,1.1,0.2,1.5,0.7c0.4,0.4,0.6,1,0.6,1.8
			C270.4,300.3,270.3,301,270.1,301.8z"/>
		<path class="st5" d="M296.1,299.3c0,0,0.1,0.2,0.2,0.4c0.1,0.2,0.2,0.4,0.3,0.7c0.1,0.2,0.2,0.5,0.3,0.9c0.1,0.4,0.1,0.7,0.1,1.1
			c0,1.7-0.5,3.1-1.5,4.2c-1,1.1-2,1.9-3,2.4c-0.3,0.1-0.7,0.3-1.4,0.5s-1.2,0.4-1.6,0.6c-0.4,0.2-0.6,0.4-0.6,0.7
			c0,0.2,0.3,0.4,0.8,0.7c0.5,0.2,1.2,0.5,1.9,0.8c0.8,0.3,1.5,0.6,2.3,1c0.8,0.4,1.4,0.9,1.9,1.5c0.5,0.6,0.8,1.3,0.8,2.1
			c0,1.9-0.9,3.5-2.7,4.7c-1.8,1.3-4.1,1.9-6.9,1.9c-2,0-3.5-0.4-4.7-1.2s-1.8-1.8-1.8-3c0-0.7,0.2-1.2,0.5-1.8
			c0.3-0.5,0.8-1,1.5-1.4s1.2-0.8,1.7-1c0.4-0.2,1-0.5,1.8-0.8c-0.7-0.4-1.1-0.6-1.2-0.7c-0.5-0.4-0.8-0.8-0.8-1.2
			c0-0.4,0.6-1,1.7-1.7c1.1-0.7,2.2-1.1,3-1.4c-1.1-0.2-2.2-0.7-3.2-1.5c-1-0.8-1.4-2-1.4-3.3c0-2,0.7-3.8,2.2-5.2
			c1.5-1.4,3.2-2.2,5.1-2.2c1.1,0,2.3,0.3,3.5,0.9c0.1,0.1,0.4,0.1,0.8,0c0.4-0.1,0.8-0.2,1.3-0.3c0.4-0.1,0.7-0.2,0.8-0.2
			c0.3,0.1,0.7,0.3,1.1,0.6c0.4,0.3,0.7,0.6,0.7,0.8c0,0.2-0.1,0.3-0.2,0.4c-0.1,0.1-0.2,0.2-0.4,0.2c-0.2,0-0.7,0-1.5,0
			C296.7,299.4,296.2,299.3,296.1,299.3z M293.2,319c0-1.5-2-2.9-6-4.1c-2.1,1-3.1,2.1-3.1,3.4c0,1.1,0.5,2,1.4,2.6
			c1,0.6,2.1,0.9,3.6,0.9c1.1,0,2-0.3,2.9-0.8C292.8,320.5,293.2,319.8,293.2,319z M291.2,298.4c-1,0-1.8,0.6-2.5,1.8s-1,2.6-1,4
			c0,1,0.1,1.9,0.5,2.7c0.3,0.7,0.9,1.1,1.6,1.1c0.9,0,1.7-0.5,2.4-1.6c0.7-1.1,1-2.3,1.1-3.6c0-1.1-0.1-2.1-0.5-3
			C292.4,298.9,291.9,298.5,291.2,298.4z"/>
	</g>
	<g class="st3">
		<path class="st5" d="M-8.2,340.3h-2.2c-1.3,0-2.3,0.1-2.9,0.4c-0.6,0.3-1.1,0.9-1.6,1.7c-0.4,0.9-0.7,1.9-0.8,3H-18v-7.5H8.6v7.5
			H6.3c-0.4-2-1-3.4-1.8-4.1c-0.8-0.7-2-1.1-3.6-1.1h-2.3V359c0,1.2,0.2,2.1,0.6,2.5c0.4,0.5,1.3,0.7,2.6,0.7h0.7v2.2h-14.6v-2.2
			h0.6c1.3,0,2.2-0.2,2.6-0.7c0.4-0.5,0.6-1.3,0.6-2.5V340.3z"/>
		<path class="st5" d="M21.2,351.7v7.3c0,1.2,0.2,2.1,0.6,2.5c0.4,0.5,1.4,0.7,2.8,0.7v2.2H10.8v-2.2c1.4,0,2.3-0.2,2.8-0.7
			c0.5-0.4,0.7-1.3,0.7-2.6v-15.7c0-1.2-0.2-2.1-0.7-2.6c-0.4-0.5-1.4-0.7-2.8-0.7v-2.2h13.8v2.2c-1.4,0-2.3,0.2-2.7,0.7
			s-0.7,1.3-0.7,2.6v5.9h10.9v-5.9c0-1.2-0.2-2.1-0.6-2.5c-0.4-0.5-1.3-0.7-2.7-0.7v-2.2h13.8v2.2c-1.4,0-2.3,0.2-2.8,0.6
			c-0.5,0.4-0.7,1.3-0.7,2.6V359c0,1.3,0.2,2.1,0.7,2.6c0.4,0.4,1.4,0.7,2.8,0.7v2.2H28.7v-2.2c1.4,0,2.3-0.2,2.7-0.7
			c0.4-0.5,0.7-1.3,0.7-2.6v-7.3H21.2z"/>
		<path class="st5" d="M55,351.8v6.5c0,1.2,0.1,2.1,0.2,2.5c0.1,0.4,0.5,0.7,1.2,1s1.6,0.4,2.9,0.4c1.7,0,3-0.2,3.8-0.6
			c0.8-0.4,1.5-1.2,2.2-2.3c0.6-1.1,1.1-2.2,1.4-3.5h2.2l-0.2,8.7H44.4v-2.2h0.5c1.3,0,2.2-0.2,2.6-0.7c0.4-0.5,0.6-1.3,0.6-2.5
			v-15.7c0-1.2-0.2-2.1-0.6-2.5c-0.4-0.5-1.3-0.7-2.5-0.7h-0.5v-2.1h22.6l0.4,6.9h-2.2c-0.4-1.2-0.8-2.2-1.3-2.9
			c-0.5-0.7-1-1.2-1.5-1.4c-0.5-0.2-1.3-0.3-2.5-0.3H55v9.1h2.5c1.2,0,1.9-0.2,2.3-0.7c0.4-0.4,0.6-1.3,0.7-2.6h2.2v9h-2.2
			c0-0.2,0-0.3,0-0.4c0-0.8-0.2-1.4-0.5-2.1c-0.3-0.6-1.1-0.9-2.5-0.9H55z"/>
		<path class="st5" d="M90.4,353.5l-6-10c-0.9-1.6-1.7-2.5-2.2-2.9c-0.5-0.4-1.2-0.6-2.1-0.6v-2.2h13.3v2.2c-1.4,0-2.1,0.4-2.1,1.2
			c0,0.4,0.3,1.1,0.8,2l4.3,7.2l4-6.6c0.4-0.7,0.6-1.3,0.6-1.9c0-1.2-0.9-1.7-2.6-1.7v-2.2h9.1v2.2c-0.8,0-1.6,0.3-2.3,0.9
			c-0.7,0.6-1.6,1.9-2.9,4l-5,8.1v5.9c0,1.2,0.2,2.1,0.6,2.5c0.4,0.5,1.3,0.7,2.5,0.7h0.4v2.2H86.8v-2.2h0.4c1.3,0,2.2-0.2,2.6-0.7
			c0.4-0.5,0.6-1.3,0.6-2.5V353.5z"/>
		<path class="st5" d="M119.1,351.8v6.5c0,1.2,0.1,2.1,0.2,2.5c0.1,0.4,0.5,0.7,1.2,1s1.6,0.4,2.9,0.4c1.7,0,3-0.2,3.8-0.6
			c0.8-0.4,1.5-1.2,2.2-2.3c0.6-1.1,1.1-2.2,1.4-3.5h2.2l-0.2,8.7h-24.2v-2.2h0.5c1.3,0,2.2-0.2,2.6-0.7c0.4-0.5,0.6-1.3,0.6-2.5
			v-15.7c0-1.2-0.2-2.1-0.6-2.5c-0.4-0.5-1.3-0.7-2.5-0.7h-0.5v-2.1h22.6l0.4,6.9h-2.2c-0.4-1.2-0.8-2.2-1.3-2.9
			c-0.5-0.7-1-1.2-1.5-1.4c-0.5-0.2-1.3-0.3-2.5-0.3h-4.9v9.1h2.5c1.2,0,1.9-0.2,2.3-0.7c0.4-0.4,0.6-1.3,0.7-2.6h2.2v9h-2.2
			c0-0.2,0-0.3,0-0.4c0-0.8-0.2-1.4-0.5-2.1c-0.3-0.6-1.1-0.9-2.5-0.9H119.1z"/>
		<path class="st5" d="M140.5,357.3l-0.5,1.3c-0.4,0.9-0.5,1.6-0.5,2c0,0.6,0.2,1.1,0.6,1.3s1.1,0.4,2.1,0.4v2.2h-8.8v-2.2
			c1.7,0,3.1-1.4,4.2-4.3l8.1-20.5h2.3l8.3,20.5c0.8,2,1.6,3.3,2.2,3.7s1.3,0.6,1.9,0.6v2.2h-13.1v-2.2c1.2,0,1.9-0.1,2.2-0.3
			c0.3-0.2,0.4-0.5,0.4-0.9c0-0.3-0.1-0.7-0.4-1.2l-0.3-0.6l-0.8-1.9H140.5z M141.4,355h6.4l-3.3-7.9L141.4,355z"/>
		<path class="st5" d="M171.1,352.7v6.3c0,1.2,0.2,2.1,0.6,2.5c0.4,0.5,1.3,0.7,2.6,0.7h0.5v2.2h-14.3v-2.2h0.5
			c1.3,0,2.2-0.2,2.6-0.7c0.4-0.5,0.6-1.3,0.6-2.5v-15.7c0-1.2-0.2-2.1-0.6-2.5c-0.4-0.5-1.3-0.7-2.6-0.7h-0.5v-2.2l10.6,0l2.4,0
			c2.4,0,4.1,0.1,5.2,0.2c1.1,0.2,2.2,0.5,3.2,1.1c1.1,0.6,1.9,1.4,2.5,2.4c0.6,1,0.9,2.1,0.9,3.3c0,3.2-1.8,5.3-5.4,6.5
			c1,0.6,2.4,2.5,4.4,5.6c1.6,2.4,2.7,3.9,3.3,4.4c0.7,0.5,1.4,0.8,2.2,0.8v2.2h-8.3c-0.8-0.9-2.2-3.2-4.2-6.8c-1-1.8-1.8-3-2.2-3.6
			c-0.4-0.5-0.8-0.9-1.3-1C173.5,352.8,172.6,352.7,171.1,352.7z M171.1,350.3c2.2,0,3.7-0.1,4.5-0.4c0.8-0.3,1.4-0.8,1.8-1.6
			c0.4-0.8,0.7-1.8,0.7-3.1c0-1.9-0.4-3.2-1.3-3.9c-0.9-0.7-2.4-1.1-4.5-1.1c-0.3,0-0.6,0-1.1,0V350.3z"/>
		<path class="st5" d="M214.8,355.6l-0.1,8.8h-24.1v-2.2h0.4c1.3,0,2.2-0.2,2.6-0.7c0.4-0.5,0.6-1.3,0.6-2.5v-15.7
			c0-1.2-0.2-2.1-0.6-2.5c-0.4-0.5-1.3-0.7-2.6-0.7h-0.4v-2.2h14.2v2.2h-0.5c-1.3,0-2.2,0.2-2.6,0.7c-0.4,0.5-0.6,1.3-0.6,2.5v15.1
			c0,1.1,0.1,1.9,0.2,2.2c0.1,0.4,0.5,0.7,1,0.9c0.6,0.3,1.5,0.4,2.9,0.4c2.3,0,4-0.6,5.2-1.7c1.1-1.2,1.9-2.7,2.3-4.7H214.8z"/>
		<path class="st5" d="M222.4,353.5l-6-10c-0.9-1.6-1.7-2.5-2.2-2.9c-0.5-0.4-1.2-0.6-2.1-0.6v-2.2h13.3v2.2c-1.4,0-2.1,0.4-2.1,1.2
			c0,0.4,0.3,1.1,0.8,2l4.3,7.2l4-6.6c0.4-0.7,0.6-1.3,0.6-1.9c0-1.2-0.9-1.7-2.6-1.7v-2.2h9.1v2.2c-0.8,0-1.6,0.3-2.3,0.9
			c-0.7,0.6-1.6,1.9-2.9,4l-5,8.1v5.9c0,1.2,0.2,2.1,0.6,2.5c0.4,0.5,1.3,0.7,2.5,0.7h0.4v2.2h-14.2v-2.2h0.4c1.3,0,2.2-0.2,2.6-0.7
			c0.4-0.5,0.6-1.3,0.6-2.5V353.5z"/>
		<path class="st5" d="M274.8,355.6l-0.1,8.8h-24.1v-2.2h0.4c1.3,0,2.2-0.2,2.6-0.7c0.4-0.5,0.6-1.3,0.6-2.5v-15.7
			c0-1.2-0.2-2.1-0.6-2.5c-0.4-0.5-1.3-0.7-2.6-0.7h-0.4v-2.2h14.2v2.2h-0.5c-1.3,0-2.2,0.2-2.6,0.7c-0.4,0.5-0.6,1.3-0.6,2.5v15.1
			c0,1.1,0.1,1.9,0.2,2.2c0.1,0.4,0.5,0.7,1,0.9c0.6,0.3,1.5,0.4,2.9,0.4c2.3,0,4-0.6,5.2-1.7c1.1-1.2,1.9-2.7,2.3-4.7H274.8z"/>
		<path class="st5" d="M276.5,351.1c0-2.4,0.7-4.7,2-7s3.1-3.9,5.4-5c2.3-1.1,4.7-1.6,7.3-1.6c4.7,0,8.3,1.3,11,4c2.6,2.7,4,6,4,9.9
			c0,3.7-1.3,6.9-4,9.6c-2.6,2.7-6.2,4-10.8,4c-3.1,0-5.9-0.7-8.3-2c-2.4-1.3-4.1-3.1-5.1-5.3C277,355.5,276.5,353.3,276.5,351.1z
			 M284.7,350.9c0,4.1,0.5,7,1.6,8.8c1.1,1.8,2.7,2.7,4.9,2.7c2.3,0,4-0.8,5.1-2.5c1.1-1.6,1.7-4.5,1.7-8.7c0-3.8-0.5-6.6-1.6-8.5
			c-1.1-1.9-2.8-2.8-5.1-2.8c-2.2,0-3.9,0.9-5,2.6C285.2,344.3,284.7,347.1,284.7,350.9z"/>
		<path class="st5" d="M317.7,340.3h-2.2c-1.3,0-2.3,0.1-2.9,0.4c-0.6,0.3-1.1,0.9-1.6,1.7c-0.4,0.9-0.7,1.9-0.8,3H308v-7.5h26.5
			v7.5h-2.2c-0.4-2-1-3.4-1.8-4.1c-0.8-0.7-2-1.1-3.6-1.1h-2.3V359c0,1.2,0.2,2.1,0.6,2.5c0.4,0.5,1.3,0.7,2.6,0.7h0.7v2.2h-14.6
			v-2.2h0.6c1.3,0,2.2-0.2,2.6-0.7c0.4-0.5,0.6-1.3,0.6-2.5V340.3z"/>
		<path class="st5" d="M346.4,340.3h-2.2c-1.3,0-2.3,0.1-2.9,0.4c-0.6,0.3-1.1,0.9-1.6,1.7c-0.4,0.9-0.7,1.9-0.8,3h-2.2v-7.5h26.5
			v7.5H361c-0.4-2-1-3.4-1.8-4.1c-0.8-0.7-2-1.1-3.6-1.1h-2.3V359c0,1.2,0.2,2.1,0.6,2.5c0.4,0.5,1.3,0.7,2.6,0.7h0.7v2.2h-14.6
			v-2.2h0.6c1.3,0,2.2-0.2,2.6-0.7c0.4-0.5,0.6-1.3,0.6-2.5V340.3z"/>
		<path class="st5" d="M375.9,351.8v6.5c0,1.2,0.1,2.1,0.2,2.5c0.1,0.4,0.5,0.7,1.2,1s1.6,0.4,2.9,0.4c1.7,0,3-0.2,3.8-0.6
			s1.5-1.2,2.2-2.3c0.6-1.1,1.1-2.2,1.4-3.5h2.2l-0.2,8.7h-24.2v-2.2h0.5c1.3,0,2.2-0.2,2.6-0.7c0.4-0.5,0.6-1.3,0.6-2.5v-15.7
			c0-1.2-0.2-2.1-0.6-2.5c-0.4-0.5-1.3-0.7-2.5-0.7h-0.5v-2.1h22.6l0.4,6.9h-2.2c-0.4-1.2-0.8-2.2-1.3-2.9c-0.5-0.7-1-1.2-1.5-1.4
			c-0.5-0.2-1.3-0.3-2.5-0.3h-4.9v9.1h2.5c1.2,0,2-0.2,2.3-0.7c0.4-0.4,0.6-1.3,0.7-2.6h2.2v9h-2.2c0-0.2,0-0.3,0-0.4
			c0-0.8-0.2-1.4-0.5-2.1c-0.3-0.6-1.1-0.9-2.5-0.9H375.9z"/>
		<path class="st5" d="M402.5,352.7v6.3c0,1.2,0.2,2.1,0.6,2.5c0.4,0.5,1.3,0.7,2.6,0.7h0.5v2.2h-14.3v-2.2h0.5
			c1.3,0,2.2-0.2,2.6-0.7s0.6-1.3,0.6-2.5v-15.7c0-1.2-0.2-2.1-0.6-2.5c-0.4-0.5-1.3-0.7-2.6-0.7h-0.5v-2.2l10.6,0l2.4,0
			c2.4,0,4.1,0.1,5.2,0.2s2.2,0.5,3.2,1.1c1.1,0.6,1.9,1.4,2.5,2.4c0.6,1,0.9,2.1,0.9,3.3c0,3.2-1.8,5.3-5.4,6.5
			c1,0.6,2.4,2.5,4.4,5.6c1.6,2.4,2.7,3.9,3.3,4.4c0.7,0.5,1.4,0.8,2.2,0.8v2.2h-8.3c-0.8-0.9-2.2-3.2-4.2-6.8c-1-1.8-1.8-3-2.2-3.6
			c-0.4-0.5-0.8-0.9-1.3-1C404.9,352.8,403.9,352.7,402.5,352.7z M402.5,350.3c2.2,0,3.7-0.1,4.5-0.4s1.4-0.8,1.8-1.6
			s0.7-1.8,0.7-3.1c0-1.9-0.4-3.2-1.3-3.9c-0.9-0.7-2.4-1.1-4.5-1.1c-0.3,0-0.6,0-1.1,0V350.3z"/>
		<path class="st5" d="M428.7,353.5l-6-10c-0.9-1.6-1.7-2.5-2.2-2.9c-0.5-0.4-1.2-0.6-2.1-0.6v-2.2h13.3v2.2c-1.4,0-2.1,0.4-2.1,1.2
			c0,0.4,0.3,1.1,0.8,2l4.3,7.2l4-6.6c0.4-0.7,0.6-1.3,0.6-1.9c0-1.2-0.9-1.7-2.6-1.7v-2.2h9.1v2.2c-0.8,0-1.6,0.3-2.3,0.9
			s-1.6,1.9-2.9,4l-5,8.1v5.9c0,1.2,0.2,2.1,0.6,2.5c0.4,0.5,1.3,0.7,2.5,0.7h0.4v2.2h-14.2v-2.2h0.4c1.3,0,2.2-0.2,2.6-0.7
			s0.6-1.3,0.6-2.5V353.5z"/>
	</g>
	<g class="st3">
		<path class="st5" d="M206.5,393c0.1-0.6,0.2-1,0.2-1.2c0-0.7-0.1-1-0.4-1c-0.1,0-0.3,0.1-0.5,0.2c-0.2,0.1-0.4,0.2-0.6,0.4
			c-0.2,0.2-0.4,0.3-0.6,0.5c-0.2,0.2-0.4,0.4-0.5,0.5c-0.1,0.2-0.3,0.3-0.4,0.4l-0.2,0.2c-0.1,0-0.1-0.1-0.2-0.3
			c-0.1-0.2-0.2-0.3-0.2-0.4c0.3-0.6,1-1.3,2.1-2.3c1.1-0.9,2-1.4,2.8-1.4c0.4,0,0.8,0.2,1.1,0.6c0.3,0.4,0.4,0.9,0.4,1.4
			c0,0.4-0.1,1.1-0.3,2.1l-2,8.8c-0.1,0.5-0.2,0.9-0.2,1.2c0,0.7,0.1,1,0.4,1c0.1,0,0.3-0.1,0.5-0.2c0.2-0.1,0.4-0.2,0.6-0.4
			c0.2-0.2,0.4-0.3,0.6-0.5c0.2-0.2,0.4-0.4,0.5-0.5c0.1-0.2,0.3-0.3,0.4-0.4l0.2-0.2c0.1,0,0.1,0.1,0.2,0.3
			c0.1,0.2,0.2,0.3,0.2,0.4c-0.3,0.5-1,1.3-2.2,2.2c-1.1,1-2.1,1.4-2.9,1.4c-0.4,0-0.7-0.2-1-0.6s-0.4-0.9-0.4-1.5
			c0-0.4,0.1-1.1,0.3-2.1L206.5,393z M208.7,380.4c0.4,0,0.7,0.2,1,0.5s0.4,0.7,0.4,1.1c0,0.6-0.2,1.2-0.6,1.6
			c-0.4,0.5-0.9,0.7-1.5,0.7c-0.4,0-0.7-0.2-1-0.5c-0.2-0.3-0.4-0.7-0.4-1.2c0-0.6,0.2-1.1,0.6-1.6
			C207.7,380.6,208.2,380.4,208.7,380.4z"/>
		<path class="st5" d="M219.4,392.7l-0.7,3.3c0.5-1,1.6-2.5,3.4-4.5c1.7-2,3.2-2.9,4.3-2.9c1.6,0,2.4,0.9,2.4,2.6
			c0,1.1-0.2,2.5-0.5,4.3l-1.3,6c-0.1,0.5-0.2,0.9-0.2,1.2c0,0.7,0.1,1,0.4,1c0.1,0,0.3-0.1,0.5-0.2c0.2-0.1,0.4-0.2,0.6-0.4
			c0.2-0.2,0.4-0.3,0.6-0.5c0.2-0.2,0.4-0.4,0.5-0.5c0.1-0.2,0.3-0.3,0.4-0.4l0.2-0.2c0.1,0,0.1,0.1,0.2,0.3
			c0.1,0.2,0.2,0.3,0.2,0.4c-0.3,0.5-1,1.3-2.2,2.2c-1.1,1-2.1,1.4-2.9,1.4c-0.4,0-0.7-0.2-1-0.6s-0.4-0.9-0.4-1.5
			c0-0.4,0.1-1.1,0.3-2.1l1.4-6.4c0.2-0.8,0.3-1.5,0.3-2.1c0-0.4,0-0.7,0-0.9c0-0.2-0.1-0.4-0.2-0.5c-0.1-0.2-0.3-0.2-0.5-0.2
			c-0.9,0-2.2,1-4,3c-1.8,2-2.8,4.1-3.3,6.3c-0.1,0.5-0.4,2.1-1,4.8c-0.4,0.1-0.9,0.2-1.4,0.2c-0.5,0-1-0.1-1.4-0.2l2.6-12.6
			c0.1-0.6,0.2-1,0.2-1.2c0-0.7-0.1-1-0.4-1c-0.1,0-0.3,0.1-0.5,0.2c-0.2,0.1-0.4,0.2-0.6,0.4c-0.2,0.2-0.4,0.3-0.6,0.5
			c-0.2,0.2-0.4,0.4-0.5,0.5c-0.1,0.2-0.3,0.3-0.4,0.4l-0.2,0.2c-0.1,0-0.1-0.1-0.2-0.3c-0.1-0.2-0.2-0.3-0.2-0.4
			c0.3-0.6,1-1.3,2.1-2.3c1.1-0.9,2-1.4,2.8-1.4c0.4,0,0.8,0.2,1.1,0.6c0.3,0.4,0.4,0.9,0.4,1.4
			C219.7,391.1,219.6,391.8,219.4,392.7z"/>
	</g>
	<g class="st3">
		<path class="st5" d="M-69.9,439.3l-0.5,1.3c-0.4,0.9-0.5,1.6-0.5,2c0,0.6,0.2,1.1,0.6,1.3s1.1,0.4,2.1,0.4v2.2h-8.8v-2.2
			c1.7,0,3.1-1.4,4.2-4.3l8.1-20.5h2.3L-54,440c0.8,2,1.6,3.3,2.2,3.7s1.3,0.6,1.9,0.6v2.2H-63v-2.2c1.2,0,1.9-0.1,2.2-0.3
			c0.3-0.2,0.4-0.5,0.4-0.9c0-0.3-0.1-0.7-0.4-1.2l-0.3-0.6l-0.8-1.9H-69.9z M-69,437h6.4l-3.3-7.9L-69,437z"/>
		<path class="st5" d="M-43.5,427.5v12.2c0,2,0.4,3.2,1.1,3.8c0.7,0.6,1.6,0.8,2.7,0.8v2.2h-9.9v-2.2c0.8,0,1.6-0.2,2.2-0.6
			s1-0.9,1.2-1.4c0.2-0.5,0.3-1.4,0.3-2.5v-13.5c0-2.7-1.3-4-3.8-4v-2.2h8.9l14.5,16.2v-9.7c0-2.9-1.2-4.3-3.7-4.3v-2.2h9.5v2.2
			c-0.7,0-1.3,0.2-1.9,0.5c-0.6,0.4-1,0.8-1.2,1.4c-0.2,0.6-0.3,1.4-0.3,2.5v20.3h-2.5L-43.5,427.5z"/>
		<path class="st5" d="M-9.2,435.5l-6-10c-0.9-1.6-1.7-2.5-2.2-2.9c-0.5-0.4-1.2-0.6-2.1-0.6v-2.2h13.3v2.2c-1.4,0-2.1,0.4-2.1,1.2
			c0,0.4,0.3,1.1,0.8,2l4.3,7.2l4-6.6c0.4-0.7,0.6-1.3,0.6-1.9c0-1.2-0.9-1.7-2.6-1.7v-2.2H8v2.2c-0.8,0-1.6,0.3-2.3,0.9
			c-0.7,0.6-1.6,1.9-2.9,4l-5,8.1v5.9c0,1.2,0.2,2.1,0.6,2.5c0.4,0.5,1.3,0.7,2.5,0.7h0.4v2.2h-14.2v-2.2h0.4c1.3,0,2.2-0.2,2.6-0.7
			c0.4-0.5,0.6-1.3,0.6-2.5V435.5z"/>
		<path class="st5" d="M31.3,447l-9-20.3c-0.7-1.6-1.2-2.7-1.5-3.2c-0.3-0.5-0.6-0.8-1.1-1c-0.5-0.2-1.2-0.4-2.2-0.4v-2.2h14.1v2.2
			c-2,0-2.9,0.5-2.9,1.4c0,0.5,0.3,1.4,0.8,2.6l5.4,12l5.1-12c0.4-0.9,0.6-1.6,0.6-2.2c0-1.2-1-1.8-2.9-1.8v-2.2h9.3v2.2
			c-1.1,0-1.9,0.3-2.5,0.9c-0.6,0.6-1.5,2.3-2.7,5.2l-8,18.8H31.3z"/>
		<path class="st5" d="M47.4,422.1v-2.2h14v2.2H61c-1.3,0-2.2,0.2-2.6,0.7c-0.4,0.5-0.6,1.3-0.6,2.5V441c0,1.2,0.2,2.1,0.6,2.5
			c0.4,0.5,1.3,0.7,2.5,0.7h0.4v2.2h-14v-2.2c1.4,0,2.3-0.2,2.8-0.6c0.5-0.4,0.7-1.3,0.7-2.6v-15.7c0-1.3-0.2-2.1-0.7-2.6
			C49.9,422.3,48.9,422.1,47.4,422.1z"/>
		<path class="st5" d="M87.8,437.6l-0.1,8.8H63.5v-2.2h0.4c1.3,0,2.2-0.2,2.6-0.7c0.4-0.5,0.6-1.3,0.6-2.5v-15.7
			c0-1.2-0.2-2.1-0.6-2.5c-0.4-0.5-1.3-0.7-2.6-0.7h-0.4v-2.2h14.2v2.2h-0.5c-1.3,0-2.2,0.2-2.6,0.7c-0.4,0.5-0.6,1.3-0.6,2.5v15.1
			c0,1.1,0.1,1.9,0.2,2.2c0.1,0.4,0.5,0.7,1,0.9c0.6,0.3,1.5,0.4,2.9,0.4c2.3,0,4-0.6,5.2-1.7c1.1-1.2,1.9-2.7,2.3-4.7H87.8z"/>
		<path class="st5" d="M113.2,437.6l-0.1,8.8H88.9v-2.2h0.4c1.3,0,2.2-0.2,2.6-0.7c0.4-0.5,0.6-1.3,0.6-2.5v-15.7
			c0-1.2-0.2-2.1-0.6-2.5c-0.4-0.5-1.3-0.7-2.6-0.7h-0.4v-2.2h14.2v2.2h-0.5c-1.3,0-2.2,0.2-2.6,0.7c-0.4,0.5-0.6,1.3-0.6,2.5v15.1
			c0,1.1,0.1,1.9,0.2,2.2c0.1,0.4,0.5,0.7,1,0.9c0.6,0.3,1.5,0.4,2.9,0.4c2.3,0,4-0.6,5.2-1.7c1.1-1.2,1.9-2.7,2.3-4.7H113.2z"/>
		<path class="st5" d="M119.7,439.3l-0.5,1.3c-0.4,0.9-0.5,1.6-0.5,2c0,0.6,0.2,1.1,0.6,1.3s1.1,0.4,2.1,0.4v2.2h-8.8v-2.2
			c1.7,0,3.1-1.4,4.2-4.3l8.1-20.5h2.3l8.3,20.5c0.8,2,1.6,3.3,2.2,3.7s1.3,0.6,1.9,0.6v2.2h-13.1v-2.2c1.2,0,1.9-0.1,2.2-0.3
			c0.3-0.2,0.4-0.5,0.4-0.9c0-0.3-0.1-0.7-0.4-1.2l-0.3-0.6l-0.8-1.9H119.7z M120.5,437h6.4l-3.3-7.9L120.5,437z"/>
		<path class="st5" d="M156.6,436.3v-2.1H169v2.1c-1,0.2-1.6,0.5-1.9,0.9c-0.3,0.4-0.4,1.3-0.4,2.5v5.5c-0.4,0-0.8,0-1,0
			c-1.3,0-3.5,0.3-6.5,1c-2.2,0.5-4,0.7-5.5,0.7c-4,0-7.3-1.3-9.8-4c-2.5-2.7-3.7-5.8-3.7-9.4c0-3.8,1.3-7.1,3.9-9.9
			c2.6-2.8,5.9-4.2,9.8-4.2c3.2,0,5.9,1,8.3,3c0.4-0.9,0.7-1.8,0.8-2.8h2.1l0.2,9.3H163c-1.3-4.5-4-6.8-7.9-6.8
			c-2.3,0-4.1,0.9-5.3,2.6c-1.2,1.7-1.8,4.6-1.8,8.6c0,2.8,0.2,5,0.5,6.4c0.4,1.5,1,2.6,2.1,3.4c1,0.8,2.3,1.2,4,1.2
			c1.4,0,2.6-0.3,3.6-0.9c1-0.6,1.4-1.9,1.4-3.7v-1C159.6,437.3,158.6,436.5,156.6,436.3z"/>
		<path class="st5" d="M181.3,433.8v6.5c0,1.2,0.1,2.1,0.2,2.5c0.1,0.4,0.5,0.7,1.2,1s1.6,0.4,2.9,0.4c1.7,0,3-0.2,3.8-0.6
			c0.8-0.4,1.5-1.2,2.2-2.3c0.6-1.1,1.1-2.2,1.4-3.5h2.2l-0.2,8.7h-24.2v-2.2h0.5c1.3,0,2.2-0.2,2.6-0.7c0.4-0.5,0.6-1.3,0.6-2.5
			v-15.7c0-1.2-0.2-2.1-0.6-2.5c-0.4-0.5-1.3-0.7-2.5-0.7h-0.5v-2.1h22.6l0.4,6.9h-2.2c-0.4-1.2-0.8-2.2-1.3-2.9
			c-0.5-0.7-1-1.2-1.5-1.4c-0.5-0.2-1.3-0.3-2.5-0.3h-4.9v9.1h2.5c1.2,0,1.9-0.2,2.3-0.7c0.4-0.4,0.6-1.3,0.7-2.6h2.2v9h-2.2
			c0-0.2,0-0.3,0-0.4c0-0.8-0.2-1.4-0.5-2.1c-0.3-0.6-1.1-0.9-2.5-0.9H181.3z"/>
		<path class="st5" d="M208.3,433.1c0-2.4,0.7-4.7,2-7s3.1-3.9,5.4-5c2.3-1.1,4.7-1.6,7.3-1.6c4.7,0,8.3,1.3,11,4c2.6,2.7,4,6,4,9.9
			c0,3.7-1.3,6.9-4,9.6c-2.6,2.7-6.2,4-10.8,4c-3.1,0-5.9-0.7-8.3-2c-2.4-1.3-4.1-3.1-5.1-5.3C208.8,437.5,208.3,435.3,208.3,433.1z
			 M216.5,432.9c0,4.1,0.5,7,1.6,8.8c1.1,1.8,2.7,2.7,4.9,2.7c2.3,0,4-0.8,5.1-2.5c1.1-1.6,1.7-4.5,1.7-8.7c0-3.8-0.5-6.6-1.6-8.5
			c-1.1-1.9-2.8-2.8-5.1-2.8c-2.2,0-3.9,0.9-5,2.6C217,426.3,216.5,429.1,216.5,432.9z"/>
		<path class="st5" d="M251.3,433.8v7.2c0,1.2,0.2,2.1,0.6,2.5c0.4,0.5,1.3,0.7,2.6,0.7h0.5v2.2h-14.3v-2.2h0.4
			c1.3,0,2.2-0.2,2.6-0.7c0.4-0.5,0.6-1.3,0.6-2.5v-15.7c0-1.2-0.2-2.1-0.6-2.5c-0.4-0.5-1.3-0.7-2.5-0.7h-0.5v-2.1h22.2l0.2,7h-2.2
			c-0.3-1.2-0.7-2.2-1.2-2.9s-1-1.2-1.6-1.4c-0.5-0.2-1.4-0.3-2.5-0.3h-4.3v9.1h2.1c1,0,1.7-0.2,2.1-0.6c0.4-0.4,0.6-1.3,0.7-2.6
			h2.2v9.1h-2.2c-0.1-1.4-0.3-2.4-0.7-2.8s-1.1-0.7-2.1-0.7H251.3z"/>
		<path class="st5" d="M298.2,437.6l-0.1,8.8H274v-2.2h0.4c1.3,0,2.2-0.2,2.6-0.7c0.4-0.5,0.6-1.3,0.6-2.5v-15.7
			c0-1.2-0.2-2.1-0.6-2.5c-0.4-0.5-1.3-0.7-2.6-0.7H274v-2.2h14.2v2.2h-0.5c-1.3,0-2.2,0.2-2.6,0.7c-0.4,0.5-0.6,1.3-0.6,2.5v15.1
			c0,1.1,0.1,1.9,0.2,2.2c0.1,0.4,0.5,0.7,1,0.9c0.6,0.3,1.5,0.4,2.9,0.4c2.3,0,4-0.6,5.2-1.7c1.1-1.2,1.9-2.7,2.3-4.7H298.2z"/>
		<path class="st5" d="M310,433.8v6.5c0,1.2,0.1,2.1,0.2,2.5c0.1,0.4,0.5,0.7,1.2,1s1.6,0.4,2.9,0.4c1.7,0,3-0.2,3.8-0.6
			c0.8-0.4,1.5-1.2,2.2-2.3c0.6-1.1,1.1-2.2,1.4-3.5h2.2l-0.2,8.7h-24.2v-2.2h0.5c1.3,0,2.2-0.2,2.6-0.7c0.4-0.5,0.6-1.3,0.6-2.5
			v-15.7c0-1.2-0.2-2.1-0.6-2.5c-0.4-0.5-1.3-0.7-2.5-0.7h-0.5v-2.1H322l0.4,6.9h-2.2c-0.4-1.2-0.8-2.2-1.3-2.9
			c-0.5-0.7-1-1.2-1.5-1.4c-0.5-0.2-1.3-0.3-2.5-0.3H310v9.1h2.5c1.2,0,1.9-0.2,2.3-0.7c0.4-0.4,0.6-1.3,0.7-2.6h2.2v9h-2.2
			c0-0.2,0-0.3,0-0.4c0-0.8-0.2-1.4-0.5-2.1c-0.3-0.6-1.1-0.9-2.5-0.9H310z"/>
		<path class="st5" d="M327.4,446v-9.1h2.3c0.7,2.7,1.6,4.6,2.9,5.8c1.3,1.2,2.7,1.7,4.2,1.7c1.1,0,2-0.3,2.7-1s1-1.4,1-2.3
			c0-0.6-0.2-1.3-0.6-1.9c-0.4-0.6-1.4-1.3-3-2.1c-3-1.5-5-2.6-6.1-3.3c-1.1-0.7-1.9-1.6-2.5-2.7s-1-2.3-1-3.8
			c0-2.3,0.8-4.2,2.5-5.6c1.6-1.5,3.5-2.2,5.7-2.2c2.3,0,4.2,0.8,5.7,2.3c0.3-0.4,0.5-1,0.6-1.8h2.2v7.8h-2.2
			c-0.4-1.7-1.1-3.2-2.2-4.3c-1.1-1.1-2.3-1.7-3.7-1.7c-1,0-1.8,0.3-2.5,0.9c-0.6,0.6-0.9,1.3-0.9,2.1c0,0.7,0.2,1.3,0.6,1.8
			s0.9,1,1.6,1.4s2.1,1.1,4.2,2.1c1.9,0.9,3.4,1.7,4.3,2.4c0.9,0.7,1.7,1.6,2.2,2.7c0.5,1.1,0.8,2.3,0.8,3.5c0,2.3-0.9,4.3-2.6,5.8
			c-1.7,1.6-3.8,2.3-6.2,2.3c-1.4,0-2.7-0.3-4-0.9c-1.3-0.6-2.4-1.3-3.1-2.3c-0.3,0.6-0.5,1.3-0.7,2.1H327.4z"/>
		<path class="st5" d="M349.9,446v-9.1h2.3c0.7,2.7,1.6,4.6,2.9,5.8c1.3,1.2,2.7,1.7,4.2,1.7c1.1,0,2-0.3,2.7-1s1-1.4,1-2.3
			c0-0.6-0.2-1.3-0.6-1.9c-0.4-0.6-1.4-1.3-3-2.1c-3-1.5-5-2.6-6.1-3.3c-1.1-0.7-1.9-1.6-2.5-2.7s-1-2.3-1-3.8
			c0-2.3,0.8-4.2,2.5-5.6c1.6-1.5,3.5-2.2,5.7-2.2c2.3,0,4.2,0.8,5.7,2.3c0.3-0.4,0.5-1,0.6-1.8h2.2v7.8h-2.2
			c-0.4-1.7-1.1-3.2-2.2-4.3c-1.1-1.1-2.3-1.7-3.7-1.7c-1,0-1.8,0.3-2.5,0.9c-0.6,0.6-0.9,1.3-0.9,2.1c0,0.7,0.2,1.3,0.6,1.8
			s0.9,1,1.6,1.4s2.1,1.1,4.2,2.1c1.9,0.9,3.4,1.7,4.3,2.4c0.9,0.7,1.7,1.6,2.2,2.7c0.5,1.1,0.8,2.3,0.8,3.5c0,2.3-0.9,4.3-2.6,5.8
			c-1.7,1.6-3.8,2.3-6.2,2.3c-1.4,0-2.7-0.3-4-0.9c-1.3-0.6-2.4-1.3-3.1-2.3c-0.3,0.6-0.5,1.3-0.7,2.1H349.9z"/>
		<path class="st5" d="M391,422.3h-2.2c-1.3,0-2.3,0.1-2.9,0.4c-0.6,0.3-1.1,0.9-1.6,1.7c-0.4,0.9-0.7,1.9-0.8,3h-2.2v-7.5h26.5v7.5
			h-2.2c-0.4-2-1-3.4-1.8-4.1c-0.8-0.7-2-1.1-3.6-1.1h-2.3V441c0,1.2,0.2,2.1,0.6,2.5c0.4,0.5,1.3,0.7,2.6,0.7h0.7v2.2h-14.6v-2.2
			h0.6c1.3,0,2.2-0.2,2.6-0.7s0.6-1.3,0.6-2.5V422.3z"/>
		<path class="st5" d="M420.4,433.7v7.3c0,1.2,0.2,2.1,0.6,2.5c0.4,0.5,1.4,0.7,2.8,0.7v2.2H410v-2.2c1.4,0,2.3-0.2,2.8-0.7
			c0.5-0.4,0.7-1.3,0.7-2.6v-15.7c0-1.2-0.2-2.1-0.7-2.6c-0.4-0.5-1.4-0.7-2.8-0.7v-2.2h13.8v2.2c-1.4,0-2.3,0.2-2.7,0.7
			s-0.7,1.3-0.7,2.6v5.9h10.9v-5.9c0-1.2-0.2-2.1-0.6-2.5s-1.3-0.7-2.7-0.7v-2.2h13.8v2.2c-1.4,0-2.3,0.2-2.8,0.6s-0.7,1.3-0.7,2.6
			V441c0,1.3,0.2,2.1,0.7,2.6s1.4,0.7,2.8,0.7v2.2h-13.8v-2.2c1.4,0,2.3-0.2,2.7-0.7c0.4-0.5,0.7-1.3,0.7-2.6v-7.3H420.4z"/>
		<path class="st5" d="M448.9,439.3l-0.5,1.3c-0.4,0.9-0.5,1.6-0.5,2c0,0.6,0.2,1.1,0.6,1.3s1.1,0.4,2.1,0.4v2.2h-8.8v-2.2
			c1.7,0,3.1-1.4,4.2-4.3l8.1-20.5h2.3l8.3,20.5c0.8,2,1.6,3.3,2.2,3.7s1.3,0.6,1.9,0.6v2.2h-13.1v-2.2c1.2,0,1.9-0.1,2.2-0.3
			c0.3-0.2,0.4-0.5,0.4-0.9c0-0.3-0.1-0.7-0.4-1.2l-0.3-0.6l-0.8-1.9H448.9z M449.8,437h6.4l-3.3-7.9L449.8,437z"/>
		<path class="st5" d="M475.3,427.5v12.2c0,2,0.4,3.2,1.1,3.8c0.7,0.6,1.6,0.8,2.7,0.8v2.2h-9.9v-2.2c0.8,0,1.6-0.2,2.2-0.6
			s1-0.9,1.2-1.4c0.2-0.5,0.3-1.4,0.3-2.5v-13.5c0-2.7-1.3-4-3.8-4v-2.2h8.9l14.5,16.2v-9.7c0-2.9-1.2-4.3-3.7-4.3v-2.2h9.5v2.2
			c-0.7,0-1.3,0.2-1.9,0.5c-0.6,0.4-1,0.8-1.2,1.4s-0.3,1.4-0.3,2.5v20.3h-2.5L475.3,427.5z"/>
	</g>
	<g class="st3">
		<path class="st5" d="M11.3,479.3c5.3,0,9.8,1.9,13.5,5.6c3.7,3.8,5.6,8.5,5.6,14.2c0,5.4-1.9,10.1-5.7,14
			c-3.8,3.9-8.3,5.8-13.4,5.8c-5.2,0-9.7-1.9-13.4-5.6c-3.7-3.8-5.6-8.5-5.6-14.2c0-5.5,1.9-10.1,5.6-14
			C1.7,481.3,6.2,479.3,11.3,479.3z M10.5,481.3c-2.1,0-4,0.5-5.6,1.5c-1.6,1-2.9,2.3-3.9,3.9c-0.9,1.6-1.6,3.4-2.1,5.3
			c-0.5,1.9-0.7,3.9-0.7,5.9c0,3.1,0.5,6.1,1.6,9c1.1,2.9,2.7,5.3,4.9,7.2c2.2,2,4.8,2.9,7.6,2.9c2.1,0,4-0.5,5.6-1.5
			c1.6-1,2.9-2.3,3.9-3.9s1.6-3.4,2.1-5.3c0.5-1.9,0.7-3.9,0.7-6c0-3.1-0.5-6.1-1.6-8.9c-1.1-2.8-2.7-5.2-4.9-7.1
			C15.9,482.3,13.3,481.3,10.5,481.3z"/>
		<path class="st5" d="M41,479.7c1.9,0,3.4,0,4.5-0.1c1,1.5,4.5,6,10.5,13.4c6.1,7.4,10.2,12.6,12.4,15.7v-3.4v-18.8
			c0-2.1-0.2-3.4-0.6-4c-0.2-0.3-0.8-0.5-1.9-0.8c-1.1-0.3-2-0.4-2.5-0.4c-0.3-0.4-0.4-1-0.1-1.7c3.9,0.2,6.2,0.3,6.7,0.3
			c0.8,0,1.5,0,2.1-0.1c0.6,0,1.3-0.1,2.1-0.1c0.7,0,1.4-0.1,2.1-0.1c0.3,0.5,0.3,1,0,1.7c-0.5,0-1.4,0.1-2.5,0.4
			c-1.2,0.2-1.8,0.5-2,0.8c-0.4,0.7-0.6,2-0.6,4v23.8c0,3.4,0,6.1,0.1,8.1c0,0.2-0.3,0.4-0.8,0.4c-0.7,0-1.3-0.4-2.1-1.3l-25.5-32.3
			v26.6c0,2.1,0.2,3.4,0.6,4c0.2,0.3,0.8,0.5,1.9,0.8c1.1,0.3,1.9,0.4,2.5,0.4c0.3,0.4,0.4,1,0.1,1.7c-3.9-0.2-6.1-0.3-6.7-0.3
			c-0.8,0-1.5,0-2.1,0.1c-0.6,0-1.3,0.1-2.1,0.1c-0.7,0-1.4,0.1-2.1,0.1c-0.3-0.5-0.3-1.1,0-1.7c0.5,0,1.4-0.1,2.5-0.4
			c1.2-0.2,1.8-0.5,2-0.8c0.4-0.7,0.6-2,0.6-4v-25.4c0-2-0.2-3.3-0.6-4c-0.2-0.3-0.9-0.6-2-0.8c-1.2-0.2-2-0.4-2.5-0.4
			c-0.3-0.6-0.3-1.2,0-1.7c0.6,0,1.6,0.1,2.9,0.2C39.3,479.7,40.3,479.7,41,479.7z"/>
		<path class="st5" d="M87.7,479.9c1.8,0,4.8-0.1,9.1-0.2c4.3-0.1,7.6-0.2,9.8-0.2c0.2,1.1,0.5,2.6,0.9,4.5c0.4,1.9,0.7,3,0.8,3.5
			c-0.2,0.2-0.5,0.3-1.1,0.3c-0.5,0-0.8-0.1-0.8-0.4c-0.6-2.2-1.4-3.7-2.5-4.4c-1.1-0.7-2.5-1.1-4.3-1.1h-5c-2.6,0-3.9,0.2-4,0.6
			c-0.2,0.6-0.3,2-0.3,4.2v11c0,0.2,0.8,0.4,2.5,0.4h3.1c2.6,0,4.2-0.2,4.8-0.6c0.6-0.4,1.1-1.4,1.5-3.1c0-0.2,0.1-0.4,0.1-0.5
			c0-0.3,0.3-0.4,0.9-0.4c0.5,0,0.8,0.1,1,0.3v11.1c-0.2,0.2-0.5,0.2-0.9,0.2c-0.5,0-0.8-0.2-0.9-0.5c-0.3-1.1-0.5-1.9-0.7-2.4
			c-0.2-0.5-0.4-0.9-0.5-1c-0.1-0.1-0.3-0.3-0.5-0.4c-0.5-0.3-2.6-0.5-6.2-0.5c-2.8,0-4.2,0.2-4.2,0.5v11.1c0,2.5,0.1,3.8,0.4,4
			c0.5,0.4,1.9,0.6,4.2,0.6h2.8c3.2,0,5.7-0.5,7.4-1.6c1.3-0.7,2.5-2.7,3.7-5.9c0.1-0.2,0.4-0.4,0.8-0.4c0.7,0,1.2,0.1,1.5,0.4
			c-0.2,0.5-0.5,1.3-0.9,2.4s-0.7,2-1,2.7c-0.2,0.7-0.5,1.5-0.8,2.4c-0.3,0.9-0.4,1.6-0.5,2.2c-2,0-5.1,0-9.4-0.1
			c-4.3-0.1-7.8-0.1-10.5-0.1c-0.9,0-2.1,0-3.6,0.1c-1.5,0.1-2.6,0.1-3.3,0.1c-0.2-0.2-0.2-0.4-0.2-0.8c0-0.4,0.1-0.7,0.2-0.8
			c0.6,0,1.4-0.1,2.4-0.3c1-0.2,1.6-0.4,1.6-0.7c0.2-0.6,0.3-2.1,0.3-4.3v-25c0-2.3-0.1-3.7-0.3-4.3c-0.1-0.3-0.6-0.5-1.6-0.7
			c-1-0.2-1.8-0.3-2.4-0.3c-0.1-0.2-0.2-0.4-0.2-0.8c0-0.4,0-0.7,0.2-0.8C84.8,479.8,87.1,479.9,87.7,479.9z"/>
		<path class="st5" d="M155,479.7c1.2,0,2.3-0.3,3.5-0.9c0.5-0.2,0.8-0.3,1.1-0.1c0.5,4.1,1,7.5,1.5,10.1c-0.3,0.3-0.7,0.4-1.1,0.4
			c-0.4,0-0.7-0.1-0.8-0.3c-0.4-2.1-1.1-3.9-2.1-5.2c-1-1.3-2.1-2-3.5-2h-7.4v29.9c0,2.3,0.1,3.7,0.3,4.3c0.1,0.3,0.6,0.5,1.6,0.7
			c1,0.2,1.8,0.3,2.4,0.3c0.1,0.2,0.2,0.4,0.2,0.8c0,0.4,0,0.7-0.2,0.8c-4-0.2-6.3-0.3-6.9-0.3c-0.6,0-2.9,0.1-6.9,0.3
			c-0.2-0.2-0.2-0.4-0.2-0.8c0-0.4,0.1-0.7,0.2-0.8c0.6,0,1.4-0.1,2.4-0.3c1-0.2,1.6-0.4,1.6-0.7c0.2-0.6,0.3-2.1,0.3-4.3v-29.9
			h-7.6c-1.4,0-2.6,0.7-3.5,2c-1,1.3-1.7,3-2.1,5.2c-0.1,0.2-0.4,0.3-0.8,0.3c-0.4,0-0.8-0.1-1.1-0.4c0.5-2.6,1.1-6,1.5-10.1
			c0.3-0.2,0.8-0.1,1.3,0.2c1.1,0.5,2.2,0.8,3.3,0.8H155z"/>
		<path class="st5" d="M171.5,479.9c0.6,0,2.9-0.1,6.9-0.3c0.2,0.2,0.2,0.5,0.2,0.9c0,0.5-0.1,0.8-0.2,0.9c-0.6,0-1.4,0.1-2.4,0.3
			c-1,0.2-1.6,0.4-1.6,0.7c-0.2,0.6-0.3,2.1-0.3,4.3V497l0.1,0.2c5.7,0.1,8.8,0.2,9.2,0.2c0.7,0,3.7-0.1,9-0.2
			c0.1-0.1,0.1-0.2,0.1-0.2v-10.2c0-2.3-0.1-3.7-0.3-4.3c-0.1-0.3-0.6-0.5-1.6-0.7c-1-0.2-1.8-0.3-2.4-0.3c-0.1-0.2-0.2-0.5-0.2-0.9
			c0-0.5,0-0.8,0.2-0.9c4,0.2,6.3,0.3,6.9,0.3c0.5,0,2.8-0.1,6.9-0.3c0.2,0.2,0.2,0.5,0.2,0.9c0,0.5-0.1,0.8-0.2,0.9
			c-0.6,0-1.4,0.1-2.4,0.3c-1,0.2-1.6,0.4-1.6,0.7c-0.2,0.6-0.3,2.1-0.3,4.3v24.7c0,2.3,0.1,3.7,0.3,4.3c0.1,0.3,0.6,0.5,1.6,0.7
			c1,0.2,1.8,0.3,2.4,0.3c0.1,0.2,0.2,0.5,0.2,0.9c0,0.5,0,0.8-0.2,0.9c-4-0.2-6.3-0.3-6.9-0.3c-0.6,0-2.9,0.1-6.9,0.3
			c-0.2-0.2-0.2-0.5-0.2-0.9c0-0.5,0.1-0.8,0.2-0.9c0.6,0,1.4-0.1,2.4-0.3c1-0.2,1.6-0.4,1.6-0.7c0.2-0.6,0.3-2.1,0.3-4.3v-11.6
			l-0.1-0.2c-0.5,0-1.8,0-4-0.1c-2.2-0.1-3.8-0.1-5-0.1c-5.7,0-8.8,0.1-9.3,0.4l-0.1,0.1v11.6c0,2.3,0.1,3.7,0.3,4.3
			c0.1,0.3,0.6,0.5,1.6,0.7c1,0.2,1.8,0.3,2.4,0.3c0.1,0.2,0.2,0.5,0.2,0.9c0,0.5,0,0.8-0.2,0.9c-4-0.2-6.3-0.3-6.9-0.3
			s-2.9,0.1-6.9,0.3c-0.2-0.2-0.2-0.5-0.2-0.9c0-0.5,0.1-0.8,0.2-0.9c0.6,0,1.4-0.1,2.4-0.3c1-0.2,1.6-0.4,1.6-0.7
			c0.2-0.6,0.3-2.1,0.3-4.3v-24.7c0-2.3-0.1-3.7-0.3-4.3c-0.1-0.3-0.6-0.5-1.6-0.7c-1-0.2-1.8-0.3-2.4-0.3c-0.1-0.2-0.2-0.5-0.2-0.9
			c0-0.5,0-0.8,0.2-0.9C168.6,479.8,170.9,479.9,171.5,479.9z"/>
		<path class="st5" d="M225.8,479.3c5.3,0,9.8,1.9,13.5,5.6s5.6,8.5,5.6,14.2c0,5.4-1.9,10.1-5.7,14c-3.8,3.9-8.3,5.8-13.4,5.8
			c-5.2,0-9.7-1.9-13.4-5.6c-3.7-3.8-5.6-8.5-5.6-14.2c0-5.5,1.9-10.1,5.6-14C216.2,481.3,220.6,479.3,225.8,479.3z M224.9,481.3
			c-2.1,0-4,0.5-5.6,1.5c-1.6,1-2.9,2.3-3.9,3.9c-0.9,1.6-1.6,3.4-2.1,5.3c-0.5,1.9-0.7,3.9-0.7,5.9c0,3.1,0.5,6.1,1.6,9
			c1.1,2.9,2.7,5.3,4.9,7.2c2.2,2,4.8,2.9,7.6,2.9c2.1,0,4-0.5,5.6-1.5c1.6-1,2.9-2.3,3.9-3.9s1.7-3.4,2.1-5.3
			c0.5-1.9,0.7-3.9,0.7-6c0-3.1-0.5-6.1-1.6-8.9c-1.1-2.8-2.7-5.2-4.9-7.1S227.8,481.3,224.9,481.3z"/>
		<path class="st5" d="M256,479.9c0.6,0,2.9-0.1,6.9-0.3c0.2,0.2,0.2,0.4,0.2,0.8s-0.1,0.7-0.2,0.8c-0.6,0-1.4,0.1-2.4,0.3
			s-1.6,0.4-1.6,0.7c-0.2,0.6-0.3,2.1-0.3,4.3v14.5c0,4.8,1,8.4,2.9,10.8c1.8,2.3,4.5,3.4,8,3.4c7.4,0,11.2-4.3,11.4-12.9v-15.9
			c0-2.1-0.2-3.4-0.6-4c-0.2-0.3-0.8-0.5-1.8-0.8c-1.1-0.3-1.9-0.4-2.4-0.4c-0.3-0.4-0.4-1-0.1-1.7c3.9,0.2,6.1,0.3,6.5,0.3
			c0.8,0,1.5,0,2.1-0.1c0.6,0,1.3-0.1,2.1-0.1c0.7,0,1.4-0.1,2.1-0.1c0.3,0.5,0.3,1,0,1.7c-0.5,0-1.4,0.1-2.5,0.4s-1.8,0.5-2,0.8
			c-0.4,0.7-0.6,2-0.6,4v15.8c0,5.6-1.3,9.8-4,12.4c-2.7,2.7-6.4,4-11.2,4c-4.3,0-7.7-1.3-10.4-3.9c-2.9-2.8-4.3-6.5-4.3-11.1v-17.1
			c0-2.3-0.1-3.7-0.3-4.3c-0.1-0.3-0.6-0.5-1.6-0.7s-1.8-0.3-2.4-0.3c-0.1-0.2-0.2-0.4-0.2-0.8s0-0.7,0.2-0.8
			C253,479.8,255.3,479.9,256,479.9z"/>
		<path class="st5" d="M305,479.4c0.9,0,1.7,0.1,2.4,0.1c0.8,0.1,1.4,0.2,1.9,0.3s1.2,0.3,2.1,0.6c0.9,0.3,1.7,0.5,2.4,0.6
			c0.3,1.7,0.5,4.5,0.8,8.3c0,0.2-0.1,0.4-0.4,0.5s-0.6,0.2-0.8,0.2s-0.5-0.1-0.6-0.2c-0.2-1.8-1.1-3.7-2.6-5.6s-3.4-2.8-5.6-2.8
			c-2.2,0-3.8,0.7-4.8,2c-1,1.3-1.6,2.8-1.6,4.5c0,0.7,0.1,1.5,0.4,2.1c0.3,0.7,0.5,1.3,0.8,1.7c0.3,0.4,0.8,1,1.5,1.6
			s1.2,1,1.6,1.2s1,0.7,2,1.3c1,0.6,1.6,1,1.9,1.2c0.2,0.1,0.9,0.5,2.1,1.3c1.2,0.7,2,1.2,2.4,1.5s1.1,0.8,2,1.6s1.6,1.4,2,2
			s0.8,1.3,1.2,2.2s0.6,1.8,0.6,2.7c0,3.1-1.2,5.7-3.7,7.7c-2.4,2-5.3,3-8.6,3c-0.9,0-1.9-0.1-3-0.2s-1.9-0.3-2.6-0.4
			s-1.6-0.3-2.7-0.6c-1.1-0.3-1.8-0.4-2.3-0.5c-0.8-4-1.2-7.1-1.2-9.1c0.5-0.5,1-0.7,1.5-0.7c0.4,0,0.6,0.2,0.6,0.5
			c0.1,0.6,0.3,1.2,0.5,1.8c0.2,0.6,0.6,1.4,1.1,2.3c0.5,0.9,1.1,1.7,1.8,2.4c0.7,0.7,1.6,1.3,2.7,1.8c1.1,0.5,2.3,0.7,3.7,0.7
			c2,0,3.7-0.6,5-1.9s2-3,2-5.2c0-0.8-0.1-1.5-0.4-2.2c-0.2-0.7-0.5-1.2-0.7-1.6c-0.3-0.4-0.7-0.9-1.3-1.4c-0.6-0.5-1.1-0.8-1.5-1.1
			s-1-0.6-1.9-1.1c-0.9-0.5-1.6-0.9-1.9-1.1c-1.1-0.7-1.9-1.1-2.4-1.4c-0.4-0.3-1.2-0.8-2.2-1.4c-1-0.7-1.8-1.3-2.3-1.8
			s-1-1.2-1.6-1.9s-1.1-1.6-1.3-2.4c-0.3-0.9-0.4-1.8-0.4-2.7c0-3,1.2-5.5,3.5-7.4S302,479.4,305,479.4z"/>
		<path class="st5" d="M324.7,510.3c5.2-13.2,8.9-22.9,11.3-29c0.2-0.3,0.5-0.7,1-1.1s0.9-0.6,1.2-0.6c0.1,0,0.1,0,0.2,0.1
			c0.1,0.1,0.1,0.1,0.2,0.1l12,31.3l1.5,3.9c0.2,0.6,0.8,1.1,1.8,1.4c1,0.4,1.7,0.6,2.2,0.6c0.3,0.4,0.4,1,0.1,1.7
			c-3.9-0.2-6.1-0.3-6.4-0.3c0,0-2.3,0.1-6.8,0.3c-0.2-0.2-0.2-0.4-0.2-0.8s0.1-0.7,0.3-0.8c1.6,0,2.7-0.3,3.3-0.8
			c0.2-0.2,0.2-0.4,0.2-0.8c0-0.5-0.3-1.7-1-3.6c-0.7-1.9-1.3-3.7-2-5.3l-1-2.5c-0.1-0.2-0.2-0.2-0.4-0.2c-0.5,0-2.4-0.1-5.8-0.1
			c-2.5,0-4.6,0.1-6.3,0.2l-0.3,0.2c-1.1,2.9-2,5.3-2.6,7.1c-0.5,1.6-0.8,3-0.8,4.2c0,0.6,0.5,1,1.5,1.3c1,0.3,1.9,0.4,2.5,0.4
			c0.1,0.1,0.1,0.3,0.2,0.8c0,0.4,0,0.8-0.1,0.9c-0.5,0-1.2-0.1-1.8-0.1s-1.3-0.1-1.8-0.1c-0.6,0-1.2-0.1-2-0.1s-1.5,0-2.1,0.1
			c-0.6,0-1.3,0.1-2.1,0.1s-1.4,0.1-2.1,0.1c-0.1-0.1-0.1-0.3-0.1-0.8c0-0.4,0-0.7,0.1-0.9c0.5,0,1.2-0.1,1.9-0.3
			c0.8-0.2,1.3-0.5,1.6-0.8C322.8,514.7,323.7,512.9,324.7,510.3z M336.2,486.7l-5.4,14.3c0,0.2,0,0.2,0.1,0.2
			c2,0.1,3.8,0.1,5.3,0.1c1.5,0,3.1-0.1,4.9-0.2l0.2-0.3L336.2,486.7z"/>
		<path class="st5" d="M364.2,479.7c1.9,0,3.4,0,4.5-0.1c1,1.5,4.5,6,10.5,13.4s10.2,12.6,12.4,15.7v-3.4v-18.8c0-2.1-0.2-3.4-0.6-4
			c-0.2-0.3-0.8-0.5-1.9-0.8c-1.1-0.3-2-0.4-2.5-0.4c-0.3-0.4-0.4-1-0.1-1.7c3.9,0.2,6.2,0.3,6.7,0.3c0.8,0,1.5,0,2.1-0.1
			c0.6,0,1.3-0.1,2.1-0.1c0.7,0,1.4-0.1,2.1-0.1c0.3,0.5,0.3,1,0,1.7c-0.5,0-1.4,0.1-2.5,0.4c-1.2,0.2-1.8,0.5-2,0.8
			c-0.4,0.7-0.6,2-0.6,4v23.8c0,3.4,0,6.1,0.1,8.1c0,0.2-0.3,0.4-0.8,0.4c-0.7,0-1.3-0.4-2.1-1.3l-25.5-32.3v26.6
			c0,2.1,0.2,3.4,0.6,4c0.2,0.3,0.8,0.5,1.9,0.8c1.1,0.3,1.9,0.4,2.5,0.4c0.3,0.4,0.4,1,0.1,1.7c-3.9-0.2-6.1-0.3-6.7-0.3
			c-0.8,0-1.5,0-2.1,0.1c-0.6,0-1.3,0.1-2.1,0.1s-1.4,0.1-2.1,0.1c-0.3-0.5-0.3-1.1,0-1.7c0.5,0,1.4-0.1,2.5-0.4s1.8-0.5,2-0.8
			c0.4-0.7,0.6-2,0.6-4v-25.4c0-2-0.2-3.3-0.6-4c-0.2-0.3-0.9-0.6-2-0.8s-2-0.4-2.5-0.4c-0.3-0.6-0.3-1.2,0-1.7
			c0.6,0,1.6,0.1,2.9,0.2C362.5,479.7,363.5,479.7,364.2,479.7z"/>
		<path class="st5" d="M419.4,479.9c6.3,0,11.3,1.8,15,5.3c3.7,3.6,5.6,8.1,5.6,13.7c0,2.7-0.4,5.1-1.1,7.3s-1.8,4.3-3.4,6.2
			c-1.5,1.9-3.8,3.4-6.6,4.5c-2.9,1.1-6.3,1.6-10.3,1.6H404c-0.2-0.2-0.2-0.4-0.2-0.8c0-0.4,0.1-0.7,0.2-0.8c0.6,0,1.4-0.1,2.4-0.3
			c1-0.2,1.6-0.4,1.6-0.7c0.2-0.6,0.3-2.1,0.3-4.3v-25c0-2.3-0.1-3.7-0.3-4.3c-0.1-0.3-0.6-0.5-1.6-0.7c-1-0.2-1.8-0.3-2.4-0.3
			c-0.1-0.2-0.2-0.4-0.2-0.8c0-0.4,0-0.7,0.2-0.8c4,0.2,6.3,0.3,6.9,0.3c0.7,0,2.1,0,4.1,0C417,479.9,418.5,479.9,419.4,479.9z
			 M413.5,486.7v25c0,2.5,0.1,3.9,0.4,4.2c0.4,0.5,2,0.8,4.8,0.8c4.5,0,8.2-1.4,11.1-4.2c2.9-2.8,4.4-7,4.4-12.4
			c0-3.2-0.4-6-1.3-8.4c-0.9-2.4-2.1-4.3-3.7-5.7c-1.6-1.4-3.3-2.5-5.2-3.1c-1.9-0.7-3.9-1-6.1-1c-2.6,0-3.9,0.2-4,0.6
			C413.6,483,413.5,484.4,413.5,486.7z"/>
	</g>
	<g class="st3">
		<path class="st5" d="M75.4,551.8c3,0,5.7,0.9,8.2,2.7c2.5,1.8,3.7,4.3,3.7,7.4c0,2-0.8,4-2.4,5.8c-1.6,1.9-3.5,3.1-5.5,3.8
			c2.6,4.3,5.8,8.9,9.4,13.8c0.9,1.1,1.8,2,2.8,2.5c1,0.5,2.3,0.9,3.8,1c0.1,0.2,0.2,0.5,0.1,0.9c0,0.4-0.1,0.7-0.2,0.8
			c-3.8,0-6.4-0.2-7.7-0.7c-1.7-0.6-2.9-1.4-3.8-2.6c-1.8-2.4-4.9-7.1-9.3-13.9c-0.3-0.5-0.9-0.7-1.8-0.7h-3.1v10.9
			c0,2.3,0.1,3.7,0.3,4.3c0.1,0.3,0.6,0.5,1.6,0.7c1,0.2,1.8,0.3,2.4,0.3c0.1,0.2,0.2,0.4,0.2,0.8c0,0.4,0,0.7-0.2,0.8
			c-4-0.2-6.3-0.3-6.9-0.3s-2.9,0.1-6.9,0.3c-0.2-0.2-0.2-0.4-0.2-0.8c0-0.4,0.1-0.7,0.2-0.8c0.6,0,1.4-0.1,2.4-0.3
			c1-0.2,1.6-0.4,1.6-0.7c0.2-0.6,0.3-2.1,0.3-4.3v-25c0-2.3-0.1-3.7-0.3-4.3c-0.1-0.3-0.6-0.5-1.6-0.7c-1-0.2-1.8-0.3-2.4-0.3
			c-0.1-0.2-0.2-0.4-0.2-0.8c0-0.4,0-0.7,0.2-0.8c4,0.2,6.3,0.3,6.9,0.3c0.7,0,1.9,0,3.7-0.1C72.7,551.8,74.2,551.8,75.4,551.8z
			 M81.9,562.5c0-2.7-0.7-4.8-2.2-6.4s-3.7-2.4-6.8-2.4c-1.8,0-2.8,0.2-2.9,0.6c-0.2,0.5-0.3,1.9-0.3,4.4v12.2h3.2
			c2.4,0,4.5-0.8,6.4-2.4S81.9,564.9,81.9,562.5z"/>
		<path class="st5" d="M103.5,551.9c1.8,0,4.8-0.1,9.1-0.2c4.3-0.1,7.6-0.2,9.8-0.2c0.2,1.1,0.5,2.6,0.9,4.5c0.4,1.9,0.7,3,0.8,3.5
			c-0.2,0.2-0.5,0.3-1.1,0.3c-0.5,0-0.8-0.1-0.8-0.4c-0.6-2.2-1.4-3.7-2.5-4.4c-1.1-0.7-2.5-1.1-4.3-1.1h-5c-2.6,0-3.9,0.2-4,0.6
			c-0.2,0.6-0.3,2-0.3,4.2v11c0,0.2,0.8,0.4,2.5,0.4h3.1c2.6,0,4.2-0.2,4.8-0.6c0.6-0.4,1.1-1.4,1.5-3.1c0-0.2,0.1-0.4,0.1-0.5
			c0-0.3,0.3-0.4,0.9-0.4c0.5,0,0.8,0.1,1,0.3v11.1c-0.2,0.2-0.5,0.2-0.9,0.2c-0.5,0-0.8-0.2-0.9-0.5c-0.3-1.1-0.5-1.9-0.7-2.4
			c-0.2-0.5-0.4-0.9-0.5-1c-0.1-0.1-0.3-0.3-0.5-0.4c-0.5-0.3-2.6-0.5-6.2-0.5c-2.8,0-4.2,0.2-4.2,0.5v11.1c0,2.5,0.1,3.8,0.4,4
			c0.5,0.4,1.9,0.6,4.2,0.6h2.8c3.2,0,5.7-0.5,7.4-1.6c1.3-0.7,2.5-2.7,3.7-5.9c0.1-0.2,0.4-0.4,0.8-0.4c0.7,0,1.2,0.1,1.5,0.4
			c-0.2,0.5-0.5,1.3-0.9,2.4s-0.7,2-1,2.7c-0.2,0.7-0.5,1.5-0.8,2.4c-0.3,0.9-0.4,1.6-0.5,2.2c-2,0-5.1,0-9.4-0.1
			c-4.3-0.1-7.8-0.1-10.5-0.1c-0.9,0-2.1,0-3.6,0.1c-1.5,0.1-2.6,0.1-3.3,0.1c-0.2-0.2-0.2-0.4-0.2-0.8c0-0.4,0.1-0.7,0.2-0.8
			c0.6,0,1.4-0.1,2.4-0.3c1-0.2,1.6-0.4,1.6-0.7c0.2-0.6,0.3-2.1,0.3-4.3v-25c0-2.3-0.1-3.7-0.3-4.3c-0.1-0.3-0.6-0.5-1.6-0.7
			c-1-0.2-1.8-0.3-2.4-0.3c-0.1-0.2-0.2-0.4-0.2-0.8c0-0.4,0-0.7,0.2-0.8C100.6,551.8,102.9,551.9,103.5,551.9z"/>
		<path class="st5" d="M143.6,551.4c0.9,0,1.7,0.1,2.4,0.1c0.8,0.1,1.4,0.2,1.9,0.3c0.5,0.1,1.2,0.3,2.1,0.6
			c0.9,0.3,1.7,0.5,2.4,0.6c0.3,1.7,0.5,4.5,0.8,8.3c0,0.2-0.1,0.4-0.4,0.5s-0.6,0.2-0.8,0.2c-0.3,0-0.5-0.1-0.6-0.2
			c-0.2-1.8-1.1-3.7-2.6-5.6c-1.5-1.9-3.4-2.8-5.6-2.8c-2.2,0-3.8,0.7-4.8,2c-1,1.3-1.6,2.8-1.6,4.5c0,0.7,0.1,1.5,0.4,2.1
			c0.3,0.7,0.5,1.3,0.8,1.7c0.3,0.4,0.8,1,1.5,1.6c0.7,0.6,1.2,1,1.6,1.2c0.3,0.2,1,0.7,2,1.3c1,0.6,1.6,1,1.9,1.2
			c0.2,0.1,0.9,0.5,2.1,1.3c1.2,0.7,2,1.2,2.4,1.5c0.4,0.3,1.1,0.8,2,1.6c0.9,0.8,1.6,1.4,2,2s0.8,1.3,1.2,2.2
			c0.4,0.9,0.6,1.8,0.6,2.7c0,3.1-1.2,5.7-3.7,7.7c-2.4,2-5.3,3-8.6,3c-0.9,0-1.9-0.1-3-0.2s-1.9-0.3-2.6-0.4s-1.6-0.3-2.7-0.6
			c-1.1-0.3-1.8-0.4-2.3-0.5c-0.8-4-1.2-7.1-1.2-9.1c0.5-0.5,1-0.7,1.5-0.7c0.4,0,0.6,0.2,0.6,0.5c0.1,0.6,0.3,1.2,0.5,1.8
			c0.2,0.6,0.6,1.4,1.1,2.3c0.5,0.9,1.1,1.7,1.8,2.4c0.7,0.7,1.6,1.3,2.7,1.8c1.1,0.5,2.3,0.7,3.7,0.7c2,0,3.7-0.6,5-1.9s2-3,2-5.2
			c0-0.8-0.1-1.5-0.4-2.2c-0.2-0.7-0.5-1.2-0.7-1.6c-0.3-0.4-0.7-0.9-1.3-1.4c-0.6-0.5-1.1-0.8-1.5-1.1s-1-0.6-1.9-1.1
			c-0.9-0.5-1.6-0.9-1.9-1.1c-1.1-0.7-1.9-1.1-2.4-1.4c-0.4-0.3-1.2-0.8-2.2-1.4c-1-0.7-1.8-1.3-2.3-1.8s-1-1.2-1.6-1.9
			c-0.6-0.8-1.1-1.6-1.3-2.4c-0.3-0.9-0.4-1.8-0.4-2.7c0-3,1.2-5.5,3.5-7.4C137.9,552.4,140.6,551.4,143.6,551.4z"/>
		<path class="st5" d="M167.3,551.9c0.6,0,2.9-0.1,6.9-0.3c0.2,0.2,0.2,0.4,0.2,0.8c0,0.4-0.1,0.7-0.2,0.8c-0.6,0-1.4,0.1-2.4,0.3
			c-1,0.2-1.6,0.4-1.6,0.7c-0.2,0.6-0.3,2.1-0.3,4.3v25c0,2.3,0.1,3.7,0.3,4.3c0.1,0.3,0.6,0.5,1.6,0.7c1,0.2,1.8,0.3,2.4,0.3
			c0.1,0.2,0.2,0.4,0.2,0.8c0,0.4,0,0.7-0.2,0.8c-4-0.2-6.3-0.3-6.9-0.3s-2.9,0.1-6.9,0.3c-0.2-0.2-0.2-0.4-0.2-0.8
			c0-0.4,0.1-0.7,0.2-0.8c0.6,0,1.4-0.1,2.4-0.3c1-0.2,1.6-0.4,1.6-0.7c0.2-0.6,0.3-2.1,0.3-4.3v-25c0-2.3-0.1-3.7-0.3-4.3
			c-0.1-0.3-0.6-0.5-1.6-0.7c-1-0.2-1.8-0.3-2.4-0.3c-0.1-0.2-0.2-0.4-0.2-0.8c0-0.4,0-0.7,0.2-0.8
			C164.4,551.8,166.7,551.9,167.3,551.9z"/>
		<path class="st5" d="M194.8,551.9c6.3,0,11.3,1.8,15,5.3c3.7,3.6,5.6,8.1,5.6,13.7c0,2.7-0.4,5.1-1.1,7.3s-1.8,4.3-3.4,6.2
			c-1.5,1.9-3.8,3.4-6.6,4.5c-2.9,1.1-6.3,1.6-10.3,1.6h-14.6c-0.2-0.2-0.2-0.4-0.2-0.8c0-0.4,0.1-0.7,0.2-0.8
			c0.6,0,1.4-0.1,2.4-0.3c1-0.2,1.6-0.4,1.6-0.7c0.2-0.6,0.3-2.1,0.3-4.3v-25c0-2.3-0.1-3.7-0.3-4.3c-0.1-0.3-0.6-0.5-1.6-0.7
			c-1-0.2-1.8-0.3-2.4-0.3c-0.1-0.2-0.2-0.4-0.2-0.8c0-0.4,0-0.7,0.2-0.8c4,0.2,6.3,0.3,6.9,0.3c0.7,0,2.1,0,4.1,0
			C192.4,551.9,193.9,551.9,194.8,551.9z M188.9,558.7v25c0,2.5,0.1,3.9,0.4,4.2c0.4,0.5,2,0.8,4.8,0.8c4.5,0,8.2-1.4,11.1-4.2
			c2.9-2.8,4.4-7,4.4-12.4c0-3.2-0.4-6-1.3-8.4c-0.9-2.4-2.1-4.3-3.7-5.7c-1.6-1.4-3.3-2.5-5.2-3.1c-1.9-0.7-3.9-1-6.1-1
			c-2.6,0-3.9,0.2-4,0.6C189,555,188.9,556.4,188.9,558.7z"/>
		<path class="st5" d="M227.4,551.9c1.8,0,4.8-0.1,9.1-0.2c4.3-0.1,7.6-0.2,9.8-0.2c0.2,1.1,0.5,2.6,0.9,4.5c0.4,1.9,0.7,3,0.8,3.5
			c-0.2,0.2-0.5,0.3-1.1,0.3s-0.8-0.1-0.8-0.4c-0.6-2.2-1.4-3.7-2.5-4.4c-1.1-0.7-2.5-1.1-4.3-1.1h-5c-2.6,0-3.9,0.2-4,0.6
			c-0.2,0.6-0.3,2-0.3,4.2v11c0,0.2,0.8,0.4,2.5,0.4h3.1c2.6,0,4.2-0.2,4.8-0.6c0.6-0.4,1.1-1.4,1.5-3.1c0-0.2,0.1-0.4,0.1-0.5
			c0-0.3,0.3-0.4,0.9-0.4c0.5,0,0.8,0.1,1,0.3v11.1c-0.2,0.2-0.5,0.2-0.9,0.2c-0.5,0-0.8-0.2-0.9-0.5c-0.3-1.1-0.5-1.9-0.7-2.4
			s-0.4-0.9-0.5-1c-0.1-0.1-0.3-0.3-0.5-0.4c-0.5-0.3-2.6-0.5-6.2-0.5c-2.8,0-4.2,0.2-4.2,0.5v11.1c0,2.5,0.1,3.8,0.4,4
			c0.5,0.4,1.9,0.6,4.2,0.6h2.8c3.2,0,5.7-0.5,7.4-1.6c1.3-0.7,2.5-2.7,3.7-5.9c0.1-0.2,0.4-0.4,0.8-0.4c0.7,0,1.2,0.1,1.5,0.4
			c-0.2,0.5-0.5,1.3-0.9,2.4s-0.7,2-1,2.7c-0.2,0.7-0.5,1.5-0.8,2.4c-0.3,0.9-0.4,1.6-0.5,2.2c-2,0-5.1,0-9.4-0.1s-7.8-0.1-10.5-0.1
			c-0.9,0-2.1,0-3.6,0.1s-2.6,0.1-3.3,0.1c-0.2-0.2-0.2-0.4-0.2-0.8s0.1-0.7,0.2-0.8c0.6,0,1.4-0.1,2.4-0.3s1.6-0.4,1.6-0.7
			c0.2-0.6,0.3-2.1,0.3-4.3v-25c0-2.3-0.1-3.7-0.3-4.3c-0.1-0.3-0.6-0.5-1.6-0.7s-1.8-0.3-2.4-0.3c-0.1-0.2-0.2-0.4-0.2-0.8
			s0-0.7,0.2-0.8C224.5,551.8,226.8,551.9,227.4,551.9z"/>
		<path class="st5" d="M260.6,551.7c1.9,0,3.4,0,4.5-0.1c1,1.5,4.5,6,10.5,13.4s10.2,12.6,12.4,15.7v-3.4v-18.8c0-2.1-0.2-3.4-0.6-4
			c-0.2-0.3-0.8-0.5-1.9-0.8c-1.1-0.3-2-0.4-2.5-0.4c-0.3-0.4-0.4-1-0.1-1.7c3.9,0.2,6.2,0.3,6.7,0.3c0.8,0,1.5,0,2.1-0.1
			c0.6,0,1.3-0.1,2.1-0.1c0.7,0,1.4-0.1,2.1-0.1c0.3,0.5,0.3,1,0,1.7c-0.5,0-1.4,0.1-2.5,0.4s-1.8,0.5-2,0.8c-0.4,0.7-0.6,2-0.6,4
			v23.8c0,3.4,0,6.1,0.1,8.1c0,0.2-0.3,0.4-0.8,0.4c-0.7,0-1.3-0.4-2.1-1.3l-25.5-32.3v26.6c0,2.1,0.2,3.4,0.6,4
			c0.2,0.3,0.8,0.5,1.9,0.8c1.1,0.3,1.9,0.4,2.5,0.4c0.3,0.4,0.4,1,0.1,1.7c-3.9-0.2-6.1-0.3-6.7-0.3c-0.8,0-1.5,0-2.1,0.1
			c-0.6,0-1.3,0.1-2.1,0.1s-1.4,0.1-2.1,0.1c-0.3-0.5-0.3-1.1,0-1.7c0.5,0,1.4-0.1,2.5-0.4s1.8-0.5,2-0.8c0.4-0.7,0.6-2,0.6-4v-25.4
			c0-2-0.2-3.3-0.6-4c-0.2-0.3-0.9-0.6-2-0.8s-2-0.4-2.5-0.4c-0.3-0.6-0.3-1.2,0-1.7c0.6,0,1.6,0.1,2.9,0.2
			C258.8,551.7,259.9,551.7,260.6,551.7z"/>
		<path class="st5" d="M327.4,551.7c1.2,0,2.3-0.3,3.5-0.9c0.5-0.2,0.8-0.3,1.1-0.1c0.5,4.1,1,7.5,1.5,10.1
			c-0.3,0.3-0.7,0.4-1.1,0.4c-0.4,0-0.7-0.1-0.8-0.3c-0.4-2.1-1.1-3.9-2.1-5.2c-1-1.3-2.1-2-3.5-2h-7.4v29.9c0,2.3,0.1,3.7,0.3,4.3
			c0.1,0.3,0.6,0.5,1.6,0.7s1.8,0.3,2.4,0.3c0.1,0.2,0.2,0.4,0.2,0.8s0,0.7-0.2,0.8c-4-0.2-6.3-0.3-6.9-0.3c-0.6,0-2.9,0.1-6.9,0.3
			c-0.2-0.2-0.2-0.4-0.2-0.8s0.1-0.7,0.2-0.8c0.6,0,1.4-0.1,2.4-0.3s1.6-0.4,1.6-0.7c0.2-0.6,0.3-2.1,0.3-4.3v-29.9h-7.6
			c-1.4,0-2.6,0.7-3.5,2c-1,1.3-1.7,3-2.1,5.2c-0.1,0.2-0.4,0.3-0.8,0.3c-0.4,0-0.8-0.1-1.1-0.4c0.5-2.6,1.1-6,1.5-10.1
			c0.3-0.2,0.8-0.1,1.3,0.2c1.1,0.5,2.2,0.8,3.3,0.8H327.4z"/>
		<path class="st5" d="M349.7,551.4c0.9,0,1.7,0.1,2.4,0.1c0.8,0.1,1.4,0.2,1.9,0.3s1.2,0.3,2.1,0.6c0.9,0.3,1.7,0.5,2.4,0.6
			c0.3,1.7,0.5,4.5,0.8,8.3c0,0.2-0.1,0.4-0.4,0.5s-0.6,0.2-0.8,0.2s-0.5-0.1-0.6-0.2c-0.2-1.8-1.1-3.7-2.6-5.6s-3.4-2.8-5.6-2.8
			c-2.2,0-3.8,0.7-4.8,2c-1,1.3-1.6,2.8-1.6,4.5c0,0.7,0.1,1.5,0.4,2.1c0.3,0.7,0.5,1.3,0.8,1.7c0.3,0.4,0.8,1,1.5,1.6
			s1.2,1,1.6,1.2s1,0.7,2,1.3c1,0.6,1.6,1,1.9,1.2c0.2,0.1,0.9,0.5,2.1,1.3c1.2,0.7,2,1.2,2.4,1.5s1.1,0.8,2,1.6s1.6,1.4,2,2
			s0.8,1.3,1.2,2.2s0.6,1.8,0.6,2.7c0,3.1-1.2,5.7-3.7,7.7c-2.4,2-5.3,3-8.6,3c-0.9,0-1.9-0.1-3-0.2s-1.9-0.3-2.6-0.4
			s-1.6-0.3-2.7-0.6c-1.1-0.3-1.8-0.4-2.3-0.5c-0.8-4-1.2-7.1-1.2-9.1c0.5-0.5,1-0.7,1.5-0.7c0.4,0,0.6,0.2,0.6,0.5
			c0.1,0.6,0.3,1.2,0.5,1.8c0.2,0.6,0.6,1.4,1.1,2.3c0.5,0.9,1.1,1.7,1.8,2.4c0.7,0.7,1.6,1.3,2.7,1.8c1.1,0.5,2.3,0.7,3.7,0.7
			c2,0,3.7-0.6,5-1.9s2-3,2-5.2c0-0.8-0.1-1.5-0.4-2.2c-0.2-0.7-0.5-1.2-0.7-1.6c-0.3-0.4-0.7-0.9-1.3-1.4c-0.6-0.5-1.1-0.8-1.5-1.1
			s-1-0.6-1.9-1.1c-0.9-0.5-1.6-0.9-1.9-1.1c-1.1-0.7-1.9-1.1-2.4-1.4c-0.4-0.3-1.2-0.8-2.2-1.4c-1-0.7-1.8-1.3-2.3-1.8
			s-1-1.2-1.6-1.9s-1.1-1.6-1.3-2.4c-0.3-0.9-0.4-1.8-0.4-2.7c0-3,1.2-5.5,3.5-7.4S346.6,551.4,349.7,551.4z"/>
		<path class="st5" d="M366.6,587.8c0-0.9,0.3-1.6,1-2.2c0.6-0.6,1.4-0.9,2.3-0.9c0.9,0,1.6,0.3,2.2,0.9c0.6,0.6,0.9,1.4,0.9,2.3
			c0,0.9-0.3,1.7-0.9,2.3s-1.4,1-2.2,1s-1.6-0.3-2.3-1S366.6,588.7,366.6,587.8z"/>
	</g>
</g>
</svg>
