<?xml version="1.0" encoding="utf-8"?>
<!-- Generator: Adobe Illustrator 19.0.0, SVG Export Plug-In . SVG Version: 6.00 Build 0)  -->
<svg version="1.1" id="Layer_1" xmlns="http://www.w3.org/2000/svg" xmlns:xlink="http://www.w3.org/1999/xlink" x="0px" y="0px"
	 viewBox="0 0 792 612" style="enable-background:new 0 0 792 612;" xml:space="preserve">
<style type="text/css">
	.st0{fill:none;}
	.st1{fill:none;stroke:#000000;stroke-width:2;stroke-miterlimit:10;}
</style>
<g>
	<g>
		<path d="M154,194.1v-9.3h41.3v9.3h-15.1v41.1h-11.1v-41.1H154z"/>
		<path d="M212.1,184.8v19.3h20.4v-19.3h11.1v50.4h-11.1v-21.7h-20.4v21.7H201v-50.4H212.1z"/>
		<path d="M264.4,184.8v50.4h-11.1v-50.4H264.4z"/>
		<path d="M282.6,222.7c0.6,1.2,1.4,2.1,2.4,2.9c1,0.7,2.2,1.3,3.6,1.6c1.4,0.4,2.8,0.5,4.2,0.5c1,0,2-0.1,3.2-0.2
			c1.1-0.2,2.2-0.5,3.2-1c1-0.5,1.8-1.1,2.5-1.9c0.7-0.8,1-1.9,1-3.1c0-1.4-0.4-2.5-1.3-3.3c-0.9-0.8-2-1.6-3.4-2.1s-3-1.1-4.8-1.5
			c-1.8-0.4-3.6-0.9-5.4-1.4c-1.9-0.5-3.7-1-5.5-1.7c-1.8-0.7-3.4-1.6-4.8-2.6c-1.4-1.1-2.6-2.4-3.4-4.1c-0.9-1.6-1.3-3.6-1.3-5.9
			c0-2.6,0.6-4.8,1.7-6.7c1.1-1.9,2.6-3.5,4.3-4.8c1.8-1.3,3.8-2.2,6.1-2.8c2.3-0.6,4.5-0.9,6.8-0.9c2.6,0,5.2,0.3,7.6,0.9
			c2.4,0.6,4.6,1.5,6.5,2.9c1.9,1.3,3.4,3,4.5,5c1.1,2,1.7,4.5,1.7,7.4h-10.7c-0.1-1.5-0.4-2.8-1-3.7c-0.5-1-1.3-1.8-2.2-2.3
			c-0.9-0.6-1.9-1-3.1-1.2c-1.2-0.2-2.4-0.4-3.8-0.4c-0.9,0-1.8,0.1-2.7,0.3c-0.9,0.2-1.7,0.5-2.4,1c-0.7,0.5-1.3,1.1-1.8,1.8
			c-0.5,0.7-0.7,1.6-0.7,2.7c0,1,0.2,1.8,0.6,2.4c0.4,0.6,1.1,1.2,2.2,1.7c1.1,0.5,2.6,1,4.6,1.6c2,0.5,4.5,1.2,7.7,2
			c0.9,0.2,2.2,0.5,3.9,1c1.7,0.5,3.3,1.3,5,2.4c1.6,1.1,3.1,2.5,4.3,4.3c1.2,1.8,1.8,4.1,1.8,6.9c0,2.3-0.4,4.4-1.3,6.4
			c-0.9,2-2.2,3.7-4,5.1c-1.8,1.4-3.9,2.6-6.6,3.4c-2.6,0.8-5.6,1.2-9.1,1.2c-2.8,0-5.5-0.3-8.1-1s-4.9-1.8-6.9-3.2
			c-2-1.5-3.6-3.3-4.8-5.6c-1.2-2.3-1.7-4.9-1.7-8h10.7C281.6,220.1,281.9,221.5,282.6,222.7z"/>
		<path d="M377.1,184.8v9.3h-26.6v10.8H375v8.6h-24.4v12.3h27.2v9.3h-38.2v-50.4H377.1z"/>
		<path d="M393.7,222.7c0.6,1.2,1.4,2.1,2.4,2.9c1,0.7,2.2,1.3,3.6,1.6c1.4,0.4,2.8,0.5,4.2,0.5c1,0,2-0.1,3.2-0.2
			c1.1-0.2,2.2-0.5,3.2-1c1-0.5,1.8-1.1,2.5-1.9c0.7-0.8,1-1.9,1-3.1c0-1.4-0.4-2.5-1.3-3.3c-0.9-0.8-2-1.6-3.4-2.1
			c-1.4-0.6-3-1.1-4.8-1.5c-1.8-0.4-3.6-0.9-5.4-1.4c-1.9-0.5-3.7-1-5.5-1.7c-1.8-0.7-3.4-1.6-4.8-2.6c-1.4-1.1-2.6-2.4-3.4-4.1
			c-0.9-1.6-1.3-3.6-1.3-5.9c0-2.6,0.6-4.8,1.7-6.7c1.1-1.9,2.6-3.5,4.3-4.8c1.8-1.3,3.8-2.2,6.1-2.8c2.3-0.6,4.5-0.9,6.8-0.9
			c2.6,0,5.2,0.3,7.6,0.9c2.4,0.6,4.6,1.5,6.5,2.9c1.9,1.3,3.4,3,4.5,5c1.1,2,1.7,4.5,1.7,7.4H412c-0.1-1.5-0.4-2.8-1-3.7
			c-0.5-1-1.3-1.8-2.2-2.3c-0.9-0.6-1.9-1-3.1-1.2c-1.2-0.2-2.4-0.4-3.8-0.4c-0.9,0-1.8,0.1-2.7,0.3c-0.9,0.2-1.7,0.5-2.4,1
			c-0.7,0.5-1.3,1.1-1.8,1.8c-0.5,0.7-0.7,1.6-0.7,2.7c0,1,0.2,1.8,0.6,2.4c0.4,0.6,1.1,1.2,2.2,1.7c1.1,0.5,2.6,1,4.6,1.6
			c2,0.5,4.5,1.2,7.7,2c0.9,0.2,2.2,0.5,3.9,1s3.3,1.3,5,2.4c1.6,1.1,3.1,2.5,4.3,4.3c1.2,1.8,1.8,4.1,1.8,6.9
			c0,2.3-0.4,4.4-1.3,6.4s-2.2,3.7-4,5.1c-1.8,1.4-4,2.6-6.6,3.4c-2.6,0.8-5.6,1.2-9.1,1.2c-2.8,0-5.5-0.3-8.1-1
			c-2.6-0.7-4.9-1.8-6.9-3.2c-2-1.5-3.6-3.3-4.8-5.6c-1.2-2.3-1.7-4.9-1.7-8h10.7C392.7,220.1,393,221.5,393.7,222.7z"/>
		<path d="M439.4,222.7c0.6,1.2,1.4,2.1,2.4,2.9c1,0.7,2.2,1.3,3.6,1.6c1.4,0.4,2.8,0.5,4.2,0.5c1,0,2-0.1,3.2-0.2
			c1.1-0.2,2.2-0.5,3.2-1c1-0.5,1.8-1.1,2.5-1.9c0.7-0.8,1-1.9,1-3.1c0-1.4-0.4-2.5-1.3-3.3c-0.9-0.8-2-1.6-3.4-2.1
			c-1.4-0.6-3-1.1-4.8-1.5c-1.8-0.4-3.6-0.9-5.4-1.4c-1.9-0.5-3.7-1-5.5-1.7c-1.8-0.7-3.4-1.6-4.8-2.6c-1.4-1.1-2.6-2.4-3.4-4.1
			c-0.9-1.6-1.3-3.6-1.3-5.9c0-2.6,0.6-4.8,1.7-6.7c1.1-1.9,2.6-3.5,4.3-4.8c1.8-1.3,3.8-2.2,6.1-2.8c2.3-0.6,4.5-0.9,6.8-0.9
			c2.6,0,5.2,0.3,7.6,0.9c2.4,0.6,4.6,1.5,6.5,2.9c1.9,1.3,3.4,3,4.5,5c1.1,2,1.7,4.5,1.7,7.4h-10.7c-0.1-1.5-0.4-2.8-1-3.7
			c-0.5-1-1.3-1.8-2.2-2.3c-0.9-0.6-1.9-1-3.1-1.2c-1.2-0.2-2.4-0.4-3.8-0.4c-0.9,0-1.8,0.1-2.7,0.3c-0.9,0.2-1.7,0.5-2.4,1
			c-0.7,0.5-1.3,1.1-1.8,1.8c-0.5,0.7-0.7,1.6-0.7,2.7c0,1,0.2,1.8,0.6,2.4c0.4,0.6,1.1,1.2,2.2,1.7c1.1,0.5,2.6,1,4.6,1.6
			c2,0.5,4.5,1.2,7.7,2c0.9,0.2,2.2,0.5,3.9,1s3.3,1.3,5,2.4c1.6,1.1,3.1,2.5,4.3,4.3c1.2,1.8,1.8,4.1,1.8,6.9
			c0,2.3-0.4,4.4-1.3,6.4s-2.2,3.7-4,5.1c-1.8,1.4-4,2.6-6.6,3.4c-2.6,0.8-5.6,1.2-9.1,1.2c-2.8,0-5.5-0.3-8.1-1
			c-2.6-0.7-4.9-1.8-6.9-3.2c-2-1.5-3.6-3.3-4.8-5.6c-1.2-2.3-1.7-4.9-1.7-8h10.7C438.5,220.1,438.8,221.5,439.4,222.7z"/>
		<path d="M501.8,184.8l18.8,50.4h-11.5l-3.8-11.2h-18.8l-4,11.2h-11.1l19-50.4H501.8z M502.5,215.7l-6.3-18.5H496l-6.6,18.5H502.5z
			"/>
		<path d="M514.4,184.8h12.4l11.8,19.9l11.7-19.9h12.3l-18.7,31v19.3h-11.1v-19.6L514.4,184.8z"/>
		<path d="M597.6,184.8v50.4h-11.1v-50.4H597.6z"/>
		<path d="M615.8,222.7c0.6,1.2,1.4,2.1,2.4,2.9c1,0.7,2.2,1.3,3.6,1.6c1.4,0.4,2.8,0.5,4.2,0.5c1,0,2-0.1,3.2-0.2
			c1.1-0.2,2.2-0.5,3.2-1c1-0.5,1.8-1.1,2.5-1.9c0.7-0.8,1-1.9,1-3.1c0-1.4-0.4-2.5-1.3-3.3c-0.9-0.8-2-1.6-3.4-2.1
			c-1.4-0.6-3-1.1-4.8-1.5c-1.8-0.4-3.6-0.9-5.4-1.4c-1.9-0.5-3.7-1-5.5-1.7c-1.8-0.7-3.4-1.6-4.8-2.6c-1.4-1.1-2.6-2.4-3.4-4.1
			c-0.9-1.6-1.3-3.6-1.3-5.9c0-2.6,0.6-4.8,1.7-6.7c1.1-1.9,2.6-3.5,4.3-4.8c1.8-1.3,3.8-2.2,6.1-2.8c2.3-0.6,4.5-0.9,6.8-0.9
			c2.6,0,5.2,0.3,7.6,0.9c2.4,0.6,4.6,1.5,6.5,2.9c1.9,1.3,3.4,3,4.5,5c1.1,2,1.7,4.5,1.7,7.4h-10.7c-0.1-1.5-0.4-2.8-1-3.7
			c-0.5-1-1.3-1.8-2.2-2.3c-0.9-0.6-1.9-1-3.1-1.2c-1.2-0.2-2.4-0.4-3.8-0.4c-0.9,0-1.8,0.1-2.7,0.3c-0.9,0.2-1.7,0.5-2.4,1
			c-0.7,0.5-1.3,1.1-1.8,1.8c-0.5,0.7-0.7,1.6-0.7,2.7c0,1,0.2,1.8,0.6,2.4c0.4,0.6,1.1,1.2,2.2,1.7c1.1,0.5,2.6,1,4.6,1.6
			c2,0.5,4.5,1.2,7.7,2c0.9,0.2,2.2,0.5,3.9,1s3.3,1.3,5,2.4c1.6,1.1,3.1,2.5,4.3,4.3c1.2,1.8,1.8,4.1,1.8,6.9
			c0,2.3-0.4,4.4-1.3,6.4s-2.2,3.7-4,5.1c-1.8,1.4-4,2.6-6.6,3.4c-2.6,0.8-5.6,1.2-9.1,1.2c-2.8,0-5.5-0.3-8.1-1
			c-2.6-0.7-4.9-1.8-6.9-3.2c-2-1.5-3.6-3.3-4.8-5.6c-1.2-2.3-1.7-4.9-1.7-8h10.7C614.8,220.1,615.1,221.5,615.8,222.7z"/>
	</g>
	<g>
		<path d="M325,293.7c-3.7,10.3-13.1,12.4-19.8,12.4c-7.2,0-15.4-3.5-15.4-18c0-15.4,5-35.3,23.8-35.3c6.6,0,12.3,2.6,12.3,9.5
			c0,3.7-1.3,6.5-4.9,6.5c-1.1,0-2.7-0.3-4-1.8c1.8-0.5,3.1-4,3.1-5.8c0-1.1-0.4-5-4.9-5c-8.7,0-14.2,17.9-14.2,30.5
			c0,9.2,1.7,13.2,9.3,13.2c5.4,0,10.6-2.3,13.2-6.8L325,293.7z"/>
		<path d="M337.2,300.6c3.5,0,9.4-4.1,11.9-9.3h3.2c-4,7.3-10.8,14.4-19.9,14.4c-6.8,0-10.4-5.1-10.4-11.2c0-9,3.8-24.7,16.6-24.7
			c5.8,0,9,2.4,9,7.3c0,8.6-9.2,13.5-15.9,14.4c-0.1,1.1-0.2,2.2-0.2,3C331.4,299.2,334.4,300.6,337.2,300.6z M340.9,273.5
			c-4,0-7.2,8-8.7,14.6c6.5-0.1,11.1-5.6,11.1-10.7C343.3,276,343,273.5,340.9,273.5z"/>
		<path d="M363.6,270.4l-0.8,3.5c2.5-2,5.4-3.5,8.3-3.5c3.2,0,5.1,1.8,5.1,4.5c0,2.5-1.8,5.5-5.3,5.5c-4,0-2-4.7-4.1-4.7
			s-3.2,0.8-4.9,2.3l-5.9,27.7H346l7.5-35.3H363.6z"/>
		<path d="M393.9,259.3c0,0-1.1,4.8-2.4,11.1h4.2l-0.6,2.8h-4.2c-4.9,22.3-4.8,23-4.8,23.3c0,1.6,0.7,2.7,3.5,2.7
			c2.8,0,6.5-4,9.3-6.2h2.4c-3.2,3.2-11.2,12.6-16.7,12.6c-5.4,0-8.7-2.4-8.7-7.7c0-3.7,3.7-18.7,4.9-24.8h-2.3l0.6-2.8h2.3l2.1-9.7
			L393.9,259.3z"/>
		<path d="M411.3,270.4l-5.1,24c-0.1,0.8-0.3,1.6-0.3,2.2c0,1.6,0.7,2.7,3.5,2.7c2.8,0,6.5-4,9.3-6.2h2.4
			c-3.2,3.2-11.2,12.6-16.7,12.6c-5.4,0-8.8-2.4-8.8-7.7c0-1.1,0.1-2.3,0.4-3.6l5.1-24H411.3z M408,255.4c3.1,0,5.6,2.5,5.6,5.6
			c0,3.1-2.5,5.6-5.6,5.6s-5.6-2.5-5.6-5.6C402.4,258,404.9,255.4,408,255.4z"/>
		<path d="M442.1,262.9c0-1.8,0.8-3.6,2.1-3.6c0.1,0,0.4,0,0.6,0.1c-0.1-1.8-1.8-2.4-3.8-2.4c-4.4,0-7.8,3.7-8.7,7.7l-1.2,5.8h7.1
			l-0.6,2.8h-7.1l-8,38.1c-2.1,10.1-8.2,12-12.8,12c-4.3,0-8.3-3-8.3-7.6c0-6.5,5.5-8.5,12.2-10.6l8.5-40.3
			c2.1-10.1,10.9-12,15.5-12c6.3,0,14.3,1,14.3,8.6c0,3.2-2.8,5.2-5,5.2C444,266.7,442.1,265.9,442.1,262.9z M408.1,317
			c1.4,0,3.3-1.3,4.2-5.5l0.8-4.1c-4.4,1.5-7.8,3.5-7.8,7.3C405.3,315.7,406.5,317,408.1,317z M450.9,270.4l-5.1,24
			c-0.2,0.8-0.4,1.6-0.4,2.3c0,1.6,0.8,2.6,3.5,2.6c2.8,0,6.5-4,9.3-6.2h2.4c-3.2,3.2-11.2,12.6-16.7,12.6c-5.5,0-8.7-2.4-8.7-7.7
			c0-1.1,0.1-2.3,0.4-3.6l5-24H450.9z"/>
		<path d="M469.2,300.6c3.5,0,9.4-4.1,11.9-9.3h3.2c-4,7.3-10.8,14.4-19.9,14.4c-6.8,0-10.4-5.1-10.4-11.2c0-9,3.8-24.7,16.6-24.7
			c5.8,0,9,2.4,9,7.3c0,8.6-9.2,13.5-15.9,14.4c-0.1,1.1-0.2,2.2-0.2,3C463.4,299.2,466.4,300.6,469.2,300.6z M472.8,273.5
			c-4,0-7.2,8-8.7,14.6c6.5-0.1,11.1-5.6,11.1-10.7C475.3,276,474.9,273.5,472.8,273.5z"/>
		<path d="M507.5,294.4c-0.2,0.8-0.4,1.6-0.4,2.4c0,1.5,0.6,2.6,2.5,2.6c0.5,0,1.3,0,1.8-0.2c-2,6.1-4.9,6.5-7.3,6.5
			c-4.1,0-6.3-2.1-7-5.3c-2.1,2.9-5.3,5.7-9.5,5.7c-6.8,0-8.7-4.8-8.7-9c0-12.1,4.4-26.7,18.5-26.7c1.7,0,3.5,0.8,4.7,1.8l3.1-14.5
			l10.4-1.4L507.5,294.4z M488.4,295.2c0,4.2,2.3,5,4.1,5c1.6,0,3.1-1.6,4.4-3.5c0.1-0.8,0.2-1.6,0.4-2.4l4-18.8
			c-1.1-0.9-2.5-1.2-3.5-1.2C492.6,274.4,488.4,285.6,488.4,295.2z"/>
	</g>
	<g>
		<path class="st0" d="M0,351.7L31.8,362C271,439.4,529.1,435.8,766,351.7l0,0"/>
		<path d="M98.4,382.6c-4.8-1.2-8.9-2.8-12.5-4.8c-3.6-2-6.6-4.1-9.1-6.4c-2.5-2.3-4.5-4.6-6.1-7c-1.6-2.4-2.8-4.7-3.7-6.8l19.8-8.2
			c1.4,3.1,3.3,6,5.6,8.5c2.3,2.5,5.6,4.3,9.9,5.4c3.4,0.9,6.2,1,8.4,0.5c2.2-0.6,3.5-2.1,4.2-4.5c0.5-1.8,0.2-3.5-1-4.9
			c-1.1-1.4-3-2.9-5.6-4.6l-9.2-6c-2.8-1.8-5.4-3.8-7.6-6c-2.2-2.2-4-4.6-5.3-7.1c-1.3-2.6-2.2-5.4-2.5-8.4c-0.3-3-0.1-6.2,0.8-9.8
			c1.1-4.2,2.8-7.7,5.2-10.4c2.4-2.8,5.3-4.9,8.5-6.3c3.3-1.4,6.8-2.2,10.6-2.4c3.8-0.2,7.6,0.2,11.4,1.2s7.1,2.2,9.9,3.6
			c2.8,1.4,5.2,2.9,7.2,4.5c2,1.6,3.7,3.3,5,5.1c1.4,1.8,2.5,3.6,3.4,5.4l-16.6,10.3c-1.3-2.3-2.8-4.3-4.6-6c-1.8-1.7-4.4-3-7.9-3.8
			c-2.8-0.7-5-0.7-6.7,0.1c-1.7,0.8-2.7,2-3.2,3.7c-0.4,1.7-0.3,3.1,0.4,4.3c0.7,1.2,2,2.4,4,3.6l10.3,6.7c3.9,2.5,7.1,5,9.6,7.5
			c2.5,2.5,4.3,5,5.5,7.6c1.2,2.6,1.9,5.3,2,8c0.1,2.8-0.2,5.6-1,8.7c-1,3.9-2.6,7.4-4.7,10.4c-2.1,3-4.8,5.3-8,7
			c-3.3,1.7-7.1,2.7-11.6,3C109,384.7,104,384.1,98.4,382.6z"/>
		<path d="M188.9,402c-6.3-1.1-12.1-3.2-17.3-6.4c-5.3-3.1-9.7-7.1-13.2-11.8c-3.6-4.7-6.2-10-7.7-15.9c-1.6-5.9-1.8-12.1-0.7-18.7
			c1.1-6.6,3.4-12.4,6.9-17.4c3.5-5,7.7-9.1,12.6-12.3c4.9-3.2,10.4-5.4,16.4-6.6c6-1.2,12.2-1.3,18.5-0.2c6.2,1.1,12,3.2,17.3,6.3
			c5.3,3.2,9.7,7.1,13.3,11.7c3.6,4.7,6.2,9.9,7.7,15.8c1.6,5.9,1.8,12.1,0.7,18.7c-1.1,6.6-3.4,12.4-6.9,17.4
			c-3.5,5-7.7,9.1-12.6,12.4c-4.9,3.2-10.4,5.4-16.5,6.6C201.3,403,195.1,403.1,188.9,402z M192.4,381.8c3.7,0.6,7,0.6,10.1-0.2
			s5.7-2.1,8.1-3.9c2.3-1.8,4.3-4.2,5.8-7c1.5-2.8,2.6-5.9,3.2-9.3c0.6-3.4,0.6-6.7,0.1-9.9c-0.5-3.2-1.6-6-3.1-8.5
			c-1.6-2.5-3.7-4.6-6.3-6.4c-2.6-1.7-5.7-2.9-9.4-3.5c-3.7-0.6-7-0.6-10,0.2c-3,0.8-5.7,2-8,3.9c-2.3,1.8-4.3,4.2-5.8,7
			c-1.5,2.8-2.6,5.9-3.2,9.3c-0.6,3.4-0.6,6.7-0.1,9.9c0.5,3.2,1.6,6,3.1,8.5c1.6,2.5,3.7,4.7,6.3,6.4
			C185.6,379.9,188.7,381.1,192.4,381.8z"/>
		<path d="M288.8,414.9c-5.5-0.5-10.5-1.6-15.1-3.5c-4.5-1.9-8.4-4.4-11.5-7.6c-3.2-3.2-5.5-7.1-7-11.7c-1.5-4.6-2-9.8-1.6-15.8
			l4.5-53.9l23.5,2l-4.5,53.8c-0.4,5,0.4,9,2.6,11.9c2.1,2.9,5.7,4.6,10.7,5c5,0.4,8.8-0.6,11.4-3.2c2.6-2.5,4.1-6.3,4.5-11.3
			l4.5-53.8l23.5,2l-4.5,53.9c-0.5,5.9-1.9,11-4.1,15.3c-2.3,4.2-5.2,7.7-8.9,10.3c-3.7,2.6-7.9,4.5-12.6,5.6
			C299.5,415,294.3,415.3,288.8,414.9z"/>
		<path d="M346.4,329l23.6,0.2l-0.6,68.4l37.5,0.3l-0.2,19.9l-61.1-0.5L346.4,329z"/>
		<path d="M416.3,329.2l23.6-1.4l3.9,68.3l37.4-2.2l1.1,19.8l-61,3.5L416.3,329.2z"/>
		<path d="M485.9,324.7l61.4-7.7l2.5,19.7l-38,4.8l2.6,20.3l31.7-4l2.4,18.7l-31.7,4l1.2,9.1l39.8-5l2.5,19.7l-63.2,8L485.9,324.7z"
			/>
		<path d="M604.4,397.3c-4.8,1-9.3,1.3-13.4,1c-4.1-0.3-7.7-0.9-10.9-1.8c-3.2-1-6.1-2.2-8.5-3.7c-2.5-1.5-4.5-3-6.2-4.5l14.3-15.9
			c2.6,2.2,5.5,4,8.7,5.2c3.2,1.3,6.9,1.5,11.2,0.6c3.5-0.7,6.1-1.7,7.8-3.2c1.7-1.4,2.3-3.4,1.8-5.8c-0.4-1.9-1.4-3.2-3-4
			c-1.6-0.8-4-1.4-7-1.7l-10.9-1.4c-3.3-0.4-6.5-1.1-9.4-2.1c-2.9-1-5.6-2.4-7.9-4.1c-2.3-1.7-4.3-3.9-5.9-6.4
			c-1.6-2.5-2.8-5.6-3.5-9.2c-0.8-4.2-0.8-8.1,0.2-11.7c1-3.5,2.6-6.7,5-9.4c2.3-2.7,5.2-5,8.5-6.8c3.3-1.8,6.9-3.1,10.8-3.8
			c3.8-0.8,7.3-1.1,10.4-1.1c3.1,0,6,0.4,8.5,1c2.5,0.6,4.8,1.4,6.8,2.4c2,1,3.8,2.2,5.4,3.4l-10.5,16.5c-2.1-1.5-4.4-2.6-6.7-3.4
			c-2.3-0.7-5.3-0.8-8.7-0.1c-2.8,0.6-4.8,1.5-6,3c-1.2,1.4-1.6,3-1.3,4.7c0.3,1.7,1.1,2.9,2.2,3.7c1.2,0.7,2.9,1.2,5.1,1.5
			l12.2,1.6c4.6,0.6,8.6,1.5,11.9,2.6c3.3,1.2,6.1,2.6,8.3,4.5c2.2,1.8,4,3.9,5.3,6.4c1.3,2.4,2.3,5.2,2.9,8.2
			c0.8,4,0.9,7.8,0.3,11.4c-0.6,3.6-2,6.9-4.2,9.8s-5.2,5.5-9.1,7.7C614.9,394.6,610.1,396.2,604.4,397.3z"/>
		<path d="M680,379.8c-4.8,1.3-9.2,1.9-13.3,1.9c-4.1,0-7.8-0.3-11-1.1s-6.2-1.8-8.8-3.1c-2.6-1.3-4.7-2.7-6.5-4.1l13.2-16.8
			c2.8,2,5.8,3.6,9,4.6c3.2,1.1,7,1,11.3-0.1c3.4-0.9,5.9-2.2,7.5-3.7c1.6-1.5,2.1-3.5,1.4-6c-0.5-1.8-1.6-3.1-3.2-3.8
			c-1.7-0.7-4-1.1-7.1-1.2l-10.9-0.7c-3.4-0.2-6.5-0.7-9.5-1.5c-3-0.8-5.7-2-8.2-3.6c-2.4-1.6-4.5-3.6-6.3-6
			c-1.8-2.4-3.1-5.4-4.1-8.9c-1.1-4.2-1.3-8.1-0.6-11.7c0.7-3.6,2.2-6.8,4.3-9.7c2.1-2.9,4.8-5.3,8-7.3c3.2-2,6.7-3.5,10.5-4.6
			s7.2-1.6,10.3-1.8c3.1-0.2,6,0,8.5,0.4c2.5,0.4,4.8,1.1,6.9,2c2.1,0.9,3.9,1.9,5.6,3.1l-9.4,17.2c-2.2-1.4-4.6-2.3-7-2.9
			c-2.4-0.6-5.3-0.4-8.7,0.5c-2.8,0.7-4.7,1.9-5.8,3.4c-1.1,1.5-1.4,3.1-0.9,4.8c0.4,1.7,1.3,2.8,2.5,3.5c1.2,0.7,2.9,1,5.2,1.2
			l12.3,0.7c4.6,0.3,8.7,0.9,12,1.8c3.4,0.9,6.2,2.2,8.6,3.9c2.3,1.7,4.2,3.7,5.7,6c1.5,2.3,2.6,5,3.4,8c1.1,3.9,1.4,7.7,1,11.3
			c-0.4,3.6-1.6,7-3.5,10.1c-2,3.1-4.9,5.8-8.6,8.3C690.2,376.3,685.6,378.3,680,379.8z"/>
		<path d="M734.7,363.6c-3.3,1.1-6.5,0.9-9.7-0.5c-3.2-1.4-5.4-4-6.5-7.6c-1.2-3.6-0.9-6.9,0.9-10s4.3-5.1,7.6-6.1
			c1.6-0.5,3.2-0.7,4.9-0.6c1.7,0.1,3.3,0.5,4.7,1.2c1.5,0.7,2.8,1.7,4,3c1.2,1.3,2.1,2.8,2.6,4.6c0.6,1.8,0.8,3.6,0.5,5.3
			c-0.2,1.7-0.7,3.3-1.5,4.7c-0.8,1.4-1.8,2.7-3.2,3.7C737.7,362.3,736.3,363.1,734.7,363.6z"/>
	</g>
</g>
<line class="st1" x1="273" y1="280" x2="154" y2="280"/>
<line class="st1" x1="645" y1="280" x2="526" y2="280"/>
<g>
</g>
<g>
</g>
<g>
</g>
<g>
</g>
<g>
</g>
<g>
</g>
</svg>
