<?xml version="1.0" encoding="utf-8"?>
<!-- Generator: Adobe Illustrator 19.0.0, SVG Export Plug-In . SVG Version: 6.00 Build 0)  -->
<svg version="1.1" id="Layer_1" xmlns="http://www.w3.org/2000/svg" xmlns:xlink="http://www.w3.org/1999/xlink" x="0px" y="0px"
	 viewBox="-89 -90 612 792" style="enable-background:new -89 -90 612 792;" xml:space="preserve">
<style type="text/css">
	.st0{fill:#EEEEEE;}
	.st1{fill:none;stroke:#262262;stroke-width:10;stroke-miterlimit:10;}
	.st2{fill:none;stroke:#000000;stroke-width:10;stroke-miterlimit:10;}
	.st3{enable-background:new    ;}
	.st4{fill:#E87370;}
	.st5{fill:#33A851;}
	.st6{fill:#EEEEEE;stroke:#262262;stroke-width:10;stroke-miterlimit:10;}
	.st7{fill:none;stroke:#D1D3D4;stroke-width:10;stroke-miterlimit:10;}
</style>
<g id="XMLID_1_">
	<g id="XMLID_30_">
		
			<image style="overflow:visible;opacity:0.75;enable-background:new    ;" width="2338" height="1608" id="XMLID_112_" xlink:href="../1998DB697B1D0252.png"  transform="matrix(0.2396 0 0 0.2396 -59.4332 120.1295)">
		</image>
		<g id="XMLID_105_">
			<rect id="XMLID_111_" x="-39.4" y="135.1" class="st0" width="520.1" height="345.3"/>
			<rect id="XMLID_110_" x="-39.4" y="135.1" class="st1" width="520.1" height="345.3"/>
		</g>
	</g>
	<g id="XMLID_2_">
		<path id="XMLID_17_" d="M337,308.8c0.3-4.6,1.4-8.4,3.4-11.4c2-3,4.6-5.5,7.7-7.3c3.1-1.8,6.6-3.1,10.5-3.9
			c3.9-0.8,7.8-1.2,11.8-1.2c3.6,0,7.2,0.3,10.9,0.8c3.7,0.5,7,1.5,10.1,3c3,1.5,5.5,3.5,7.4,6.1s2.9,6.1,2.9,10.4v37.1
			c0,3.2,0.2,6.3,0.6,9.2c0.4,2.9,1,5.1,1.9,6.6h-19.8c-0.4-1.1-0.7-2.2-0.9-3.4c-0.2-1.1-0.4-2.3-0.5-3.5c-3.1,3.2-6.8,5.5-11,6.8
			c-4.2,1.3-8.5,1.9-13,1.9c-3.4,0-6.6-0.4-9.5-1.2c-2.9-0.8-5.5-2.1-7.7-3.9c-2.2-1.7-3.9-3.9-5.2-6.6c-1.2-2.7-1.9-5.8-1.9-9.5
			c0-4,0.7-7.4,2.1-10c1.4-2.6,3.3-4.7,5.5-6.3c2.2-1.6,4.8-2.7,7.7-3.5c2.9-0.8,5.8-1.4,8.8-1.9c2.9-0.5,5.8-0.8,8.7-1.1
			c2.8-0.3,5.4-0.7,7.6-1.2c2.2-0.6,3.9-1.4,5.2-2.4c1.3-1.1,1.9-2.6,1.8-4.6c0-2.1-0.3-3.8-1-5s-1.6-2.2-2.8-2.9
			c-1.1-0.7-2.5-1.1-4-1.4c-1.5-0.2-3.1-0.3-4.9-0.3c-3.9,0-6.9,0.8-9.1,2.5c-2.2,1.7-3.5,4.4-3.9,8.3L337,308.8L337,308.8z
			 M382.2,323.3c-0.8,0.7-1.9,1.3-3.1,1.7c-1.2,0.4-2.6,0.8-4,1c-1.4,0.3-2.9,0.5-4.5,0.7c-1.6,0.2-3.1,0.4-4.7,0.7
			c-1.5,0.3-2.9,0.6-4.3,1.1c-1.4,0.5-2.7,1.1-3.7,1.9c-1.1,0.8-1.9,1.8-2.5,3c-0.6,1.2-1,2.7-1,4.5c0,1.7,0.3,3.2,1,4.4
			c0.6,1.2,1.5,2.1,2.6,2.8c1.1,0.7,2.4,1.2,3.9,1.4c1.5,0.3,3,0.4,4.5,0.4c3.9,0,6.8-0.6,9-1.9c2.1-1.3,3.7-2.8,4.7-4.6
			c1-1.8,1.6-3.6,1.9-5.4c0.2-1.8,0.3-3.3,0.3-4.4L382.2,323.3L382.2,323.3z"/>
		<path id="XMLID_23_" d="M435.5,286.9v13.2h0.3c0.9-2.2,2.2-4.2,3.7-6.1c1.6-1.9,3.4-3.5,5.4-4.8c2-1.3,4.2-2.4,6.5-3.1
			c2.3-0.7,4.7-1.1,7.2-1.1c1.3,0,2.7,0.2,4.3,0.7v18.2c-0.9-0.2-2-0.3-3.3-0.5c-1.3-0.1-2.5-0.2-3.7-0.2c-3.6,0-6.6,0.6-9.1,1.8
			c-2.5,1.2-4.5,2.8-6,4.9s-2.6,4.5-3.2,7.2c-0.6,2.8-1,5.7-1,9v32.1h-19.6v-71.3L435.5,286.9L435.5,286.9z"/>
		<g id="XMLID_3_">
			<path id="XMLID_4_" d="M32.1,349.1c-2.3,3.9-5.3,6.6-9,8.3s-7.9,2.5-12.6,2.5c-5.3,0-10-1-14.1-3.1c-4-2.1-7.4-4.9-10-8.4
				c-2.6-3.5-4.6-7.6-5.9-12.2c-1.3-4.6-2-9.4-2-14.3c0-4.8,0.7-9.4,2-13.9c1.3-4.5,3.3-8.4,5.9-11.8c2.6-3.4,5.9-6.1,9.9-8.2
				c3.9-2.1,8.5-3.1,13.8-3.1c4.2,0,8.2,0.9,12.1,2.7c3.8,1.8,6.8,4.4,9,7.9h0.3v-35.8H51v98.4H32.4v-9.1L32.1,349.1L32.1,349.1z
				 M31.3,313.9c-0.6-2.7-1.5-5.1-2.8-7.2c-1.3-2.1-3.1-3.7-5.2-5c-2.1-1.3-4.8-1.9-8-1.9c-3.2,0-5.9,0.6-8.1,1.9
				c-2.2,1.3-4,3-5.3,5.1c-1.3,2.1-2.3,4.5-2.9,7.2c-0.6,2.7-0.9,5.5-0.9,8.5c0,2.8,0.3,5.5,1,8.3c0.6,2.8,1.7,5.2,3.1,7.4
				c1.4,2.2,3.2,3.9,5.4,5.2c2.2,1.3,4.8,2,7.8,2c3.2,0,5.9-0.6,8.1-1.9c2.2-1.3,3.9-3,5.2-5.2c1.3-2.2,2.2-4.6,2.8-7.4
				c0.6-2.8,0.8-5.6,0.8-8.5C32.1,319.4,31.8,316.6,31.3,313.9z"/>
			<path id="XMLID_7_" d="M66.3,275.9v-16.1h19.6v16.1H66.3z M85.9,286.9v71.3H66.3v-71.3H85.9z"/>
			<path id="XMLID_10_" d="M117.8,340.5c0.9,1.5,2,2.8,3.4,3.7c1.4,1,3,1.7,4.8,2.1c1.8,0.5,3.7,0.7,5.6,0.7c1.4,0,2.8-0.2,4.3-0.5
				c1.5-0.3,2.9-0.8,4.1-1.5c1.2-0.7,2.3-1.6,3.1-2.8c0.8-1.1,1.2-2.6,1.2-4.3c0-2.9-2-5.1-5.9-6.6c-3.9-1.5-9.4-2.9-16.3-4.4
				c-2.8-0.6-5.6-1.4-8.3-2.3c-2.7-0.9-5.1-2-7.2-3.4c-2.1-1.4-3.8-3.2-5.1-5.4c-1.3-2.2-1.9-4.8-1.9-7.9c0-4.6,0.9-8.4,2.7-11.3
				c1.8-2.9,4.2-5.3,7.1-7c2.9-1.7,6.2-2.9,9.9-3.6c3.7-0.7,7.4-1,11.3-1s7.6,0.4,11.2,1.1c3.6,0.7,6.9,2,9.7,3.7
				c2.8,1.7,5.2,4.1,7.1,7c1.9,2.9,3,6.5,3.4,11h-18.6c-0.3-3.8-1.7-6.3-4.3-7.6c-2.6-1.3-5.6-2-9.1-2c-1.1,0-2.3,0.1-3.6,0.2
				c-1.3,0.1-2.5,0.4-3.5,0.9c-1.1,0.5-2,1.1-2.7,2c-0.7,0.9-1.1,2-1.1,3.5c0,1.7,0.6,3.2,1.9,4.3c1.3,1.1,3,2,5,2.7
				s4.4,1.3,7.1,1.9c2.7,0.6,5.4,1.1,8.1,1.8c2.8,0.6,5.6,1.4,8.3,2.3c2.7,0.9,5.1,2.1,7.2,3.7c2.1,1.5,3.8,3.4,5.1,5.7
				c1.3,2.3,1.9,5,1.9,8.3c0,4.7-0.9,8.6-2.8,11.8c-1.9,3.2-4.3,5.7-7.4,7.6c-3,1.9-6.5,3.3-10.4,4.1c-3.9,0.8-7.9,1.2-11.9,1.2
				c-4.1,0-8.2-0.4-12.1-1.2c-4-0.8-7.5-2.2-10.5-4.1c-3.1-1.9-5.6-4.5-7.6-7.6c-2-3.2-3.1-7.1-3.2-11.9h18.6
				C116.5,337.1,116.9,339,117.8,340.5z"/>
			<path id="XMLID_12_" d="M196.3,341.1c2.9,2.8,7.2,4.3,12.7,4.3c3.9,0,7.3-1,10.2-3c2.8-2,4.6-4.1,5.2-6.3h17.2
				c-2.8,8.5-7,14.7-12.7,18.3c-5.7,3.7-12.6,5.5-20.7,5.5c-5.6,0-10.7-0.9-15.2-2.7c-4.5-1.8-8.3-4.3-11.4-7.6
				c-3.1-3.3-5.5-7.3-7.2-11.9c-1.7-4.6-2.5-9.6-2.5-15.2c0-5.3,0.9-10.3,2.6-14.9c1.7-4.6,4.2-8.6,7.4-11.9c3.2-3.4,7-6,11.5-7.9
				c4.5-1.9,9.4-2.9,14.8-2.9c6.1,0,11.3,1.2,15.8,3.5c4.5,2.3,8.2,5.5,11.1,9.4c2.9,4,5,8.5,6.3,13.5c1.3,5.1,1.7,10.3,1.4,15.8
				h-51.4C191.7,333.7,193.3,338.3,196.3,341.1z M218.4,303.6c-2.3-2.6-5.9-3.9-10.7-3.9c-3.1,0-5.7,0.5-7.8,1.6
				c-2.1,1.1-3.7,2.4-5,3.9c-1.2,1.6-2.1,3.2-2.6,5c-0.5,1.7-0.8,3.3-0.9,4.7h31.8C222.4,310,220.7,306.2,218.4,303.6z"/>
			<path id="XMLID_15_" d="M273,286.9v9.9h0.4c2.5-4.1,5.7-7.1,9.6-9c4-1.9,8-2.8,12.1-2.8c5.2,0,9.5,0.7,12.9,2.1
				c3.4,1.4,6,3.4,7.9,5.9c1.9,2.5,3.3,5.6,4.1,9.2c0.8,3.6,1.2,7.6,1.2,12.1v43.8h-19.6v-40.2c0-5.9-0.9-10.3-2.8-13.2
				c-1.8-2.9-5.1-4.3-9.8-4.3c-5.3,0-9.2,1.6-11.6,4.8c-2.4,3.2-3.6,8.4-3.6,15.6v37.3h-19.6v-71.3L273,286.9L273,286.9z"/>
		</g>
		<path id="XMLID_19_" d="M31.4,260.9H51c0-12.3,15.3-12.3,15.3,0l19.6-1.1C85.9,227.1,31.4,228,31.4,260.9z"/>
		<ellipse id="XMLID_20_" class="st2" cx="271.1" cy="265.2" rx="16.7" ry="13.6"/>
		<ellipse id="XMLID_21_" class="st2" cx="304.5" cy="265.2" rx="16.7" ry="13.6"/>
	</g>
	<g id="XMLID_25_" class="st3">
		<path class="st4" d="M132.2,191.7c0.4-1.5,1.2-2.5,2.4-3c1.1-0.5,2.3-0.7,3.4-0.4c1.1,0.3,2,0.9,2.7,1.8c0.7,0.9,0.8,2.2,0.3,3.7
			c-1.1,3.6-2.4,6.6-3.9,9.1c-1.5,2.5-3.1,4.5-4.9,6c-1.7,1.5-3.6,2.7-5.5,3.4c-1.9,0.7-3.9,1.1-5.9,1.1c-1.8,0-3.4-0.3-5-0.8
			c-1.6-0.5-2.9-1.3-4.1-2.2c-1.2-1-2.1-2.2-2.8-3.6c-0.7-1.4-1-3-1-4.8c0-1.8,0.3-3.7,1-5.6l9.6-27.3c0.1-0.4,0.3-0.9,0.4-1.3
			c0.1-0.4,0.1-0.8,0.1-1.2c0-1.1-0.3-1.9-0.9-2.6c-0.6-0.7-1.5-1-2.5-1c-1.7,0-3.3,0.7-4.9,2.2c-1.6,1.5-2.9,3.5-3.8,6.1
			l-13.1,37.3c-0.4,1.3-1.1,2.3-2,3c-0.9,0.8-1.8,1.3-2.8,1.5c-1,0.2-2,0.3-3,0c-1-0.2-1.8-0.6-2.5-1.3c-0.7-0.6-1.1-1.5-1.3-2.5
			c-0.2-1-0.1-2.3,0.5-3.7l12.2-34.2c0.6-1.6,1-3,1.1-4.1c0.1-1.1,0.1-2-0.1-2.7c-0.2-0.7-0.6-1.2-1-1.5c-0.5-0.3-1-0.4-1.6-0.4
			c-1.7,0-3.3,0.7-4.9,2.1c-1.6,1.4-2.9,3.2-4,5.4l-13.5,38.4c-0.4,1.2-1.1,2.2-1.9,2.9c-0.9,0.7-1.8,1.2-2.7,1.5
			c-1,0.3-1.9,0.3-2.9,0.1c-1-0.2-1.8-0.6-2.5-1.2c-0.7-0.6-1.2-1.4-1.5-2.3c-0.3-1-0.2-2.1,0.1-3.4l18.2-51.7
			c0.6-1.6,1.5-2.7,2.6-3.2c1.2-0.6,2.4-0.8,3.6-0.6c1.2,0.1,2.3,0.5,3.3,1.2c1,0.7,1.6,1.4,1.9,2.2c0-0.1,0.3-0.3,0.8-0.7
			c0.5-0.4,1.1-0.8,1.8-1.2c0.8-0.4,1.7-0.8,2.7-1.1c1.1-0.3,2.2-0.4,3.5-0.3c2.2,0.1,3.9,0.7,5.1,1.6c1.2,0.9,2.4,2.2,3.5,3.8
			c1.7-1.8,3.8-3.1,6.2-4s4.7-1.3,6.9-1.3c1.8,0,3.5,0.3,5.1,0.9c1.5,0.6,2.8,1.4,3.9,2.5c1.1,1.1,1.9,2.3,2.6,3.8
			c0.6,1.5,0.9,3,0.9,4.7c0,1.8-0.3,3.6-0.9,5.3v-0.1l-11.2,31.2c-0.1,0.4-0.3,0.9-0.4,1.2c-0.1,0.4-0.1,0.8-0.1,1.1
			c0,0.7,0.2,1.3,0.7,1.8s1,0.7,1.8,0.7c1.7,0,3.5-1,5.4-3C128.9,199.1,130.7,195.9,132.2,191.7z"/>
		<path class="st4" d="M166.6,192.5c0.4-1.3,1.2-2.2,2.3-2.7c1.1-0.5,2.3-0.7,3.4-0.5c1.1,0.2,2.1,0.7,2.8,1.5
			c0.7,0.8,0.8,2,0.3,3.4c-1.2,3.5-2.8,6.5-4.7,8.9c-1.9,2.4-4.1,4.4-6.5,5.9c-2.4,1.5-4.9,2.6-7.5,3.3c-2.6,0.7-5.2,1-7.7,1
			c-2.7,0-5.2-0.3-7.4-1c-2.3-0.7-4.3-1.6-5.9-2.8s-3-2.7-4-4.5c-1-1.8-1.5-3.7-1.5-5.9c0-0.8,0.1-1.7,0.3-2.6
			c0.2-0.9,0.4-1.8,0.7-2.6l4.3-12.5c0.6-1.8,1.5-3.4,2.6-4.8c1.1-1.4,2.3-2.6,3.7-3.5c1.4-0.9,2.8-1.7,4.4-2.1
			c1.6-0.5,3.2-0.7,4.8-0.7c2,0,3.9,0.3,5.6,0.9c1.7,0.6,3.2,1.5,4.3,2.6c1.2,1.1,2.1,2.4,2.8,3.9c0.7,1.5,1,3.1,1,4.9
			c0,1.2-0.2,2.6-0.6,4c-0.5,1.7-1.2,3.1-2.2,4.5c-0.9,1.3-2.1,2.4-3.3,3.4c-1.3,0.9-2.7,1.6-4.2,2.2c-1.5,0.5-3.1,0.8-4.8,0.8
			c-1.5,0-2.8-0.2-4.1-0.6c-1.3-0.4-2.5-0.9-3.5-1.6l-0.6,1.4c-0.2,0.6-0.4,1.3-0.4,2c0,1.7,0.8,3.1,2.3,4.3
			c1.6,1.2,3.7,1.8,6.4,1.8c1.6,0,3.2-0.2,4.9-0.7c1.7-0.5,3.3-1.2,4.8-2.2c1.5-1,2.9-2.2,4.2-3.7
			C164.7,196.5,165.8,194.7,166.6,192.5z M150.5,179c-0.8,0-1.6,0.3-2.4,0.9c-0.8,0.6-1.4,1.5-1.9,2.6l-1.5,4.4
			c0.7,0.4,1.5,0.7,2.4,0.8c0.9,0.1,1.8,0.1,2.7,0c0.9-0.1,1.7-0.5,2.4-1c0.7-0.5,1.2-1.3,1.5-2.2c0.2-0.5,0.3-1.1,0.3-1.8
			c0-1-0.3-1.9-0.9-2.6C152.4,179.3,151.6,179,150.5,179z"/>
		<path class="st4" d="M220.1,206.8c2.9-1.5,5.5-3.3,7.8-5.7c2.3-2.3,4.1-5.3,5.5-9.1c0.6-1.7,1.5-2.8,2.7-3.4
			c1.2-0.6,2.3-0.8,3.4-0.6c1.1,0.2,2,0.8,2.6,1.8c0.6,1,0.7,2.2,0.2,3.7c-1.3,3.8-2.8,7.1-4.7,9.8s-4,5-6.3,6.9s-4.8,3.4-7.3,4.6
			c-2.6,1.2-5.2,2.2-7.8,3c-0.5,1.5-1.1,3-1.7,4.6s-1.1,3.1-1.7,4.7c-0.7,2.1-1.7,4-2.9,5.5c-1.2,1.5-2.5,2.8-4,3.8
			c-1.5,1-3.1,1.8-4.8,2.3c-1.7,0.5-3.5,0.7-5.3,0.7c-2,0-4-0.4-5.9-1.1c-1.9-0.8-3.5-1.8-4.8-3.1c-1.3-1.3-2.2-2.9-2.7-4.8
			c-0.5-1.9-0.4-3.9,0.2-6.1c0.5-1.8,1.4-3.3,2.7-4.6c1.3-1.3,2.8-2.3,4.4-3.2c1.6-0.9,3.4-1.6,5.2-2.1c1.8-0.5,3.6-0.9,5.3-1.3
			c-2.5-0.5-4.6-1.7-6.4-3.6c-1.8-1.9-2.6-4.2-2.6-7.1c0-1.5,0.3-3,0.8-4.6l6.5-18.8c0.6-1.7,1.4-3.2,2.3-4.4c1-1.2,2.1-2.3,3.3-3.1
			c1.2-0.8,2.5-1.4,3.8-1.8c1.3-0.4,2.7-0.6,4.1-0.6c1.9,0,3.6,0.3,5.1,0.8c1.4,0.6,2.8,1.5,4.1,2.8c0.3-0.8,0.7-1.4,1.2-2
			s1.1-1,1.7-1.3c0.6-0.3,1.3-0.5,2-0.5s1.3,0,2,0.2c0.3,0.1,0.7,0.3,1.2,0.5c0.5,0.2,0.9,0.6,1.3,1.2c0.4,0.6,0.6,1.3,0.7,2.3
			c0.1,1-0.2,2.3-0.7,4L220.1,206.8z M202.8,221.2c-2.4,0.6-4.4,1.3-6.1,2.1c-1.7,0.8-2.8,1.8-3.3,3.1c-0.2,0.6-0.4,1.1-0.4,1.5
			c0,0.7,0.2,1.2,0.6,1.7c0.4,0.4,1,0.7,1.9,0.7c1.1,0,2.2-0.3,3.2-1c1-0.7,1.8-1.7,2.3-3.1L202.8,221.2z M217.2,183.3
			c0-0.2,0.1-0.4,0.1-0.5c0-0.2,0-0.3,0-0.5c0-1.3-0.4-2.3-1.2-3c-0.8-0.8-1.7-1.2-2.8-1.3c-0.8-0.1-1.7,0.1-2.5,0.6
			c-0.8,0.5-1.4,1.3-1.8,2.4l-6.9,19.6c-0.1,0.2-0.2,0.5-0.2,0.8c0,0.3-0.1,0.5-0.1,0.7c0,0.8,0.3,1.4,0.8,1.8
			c0.5,0.4,1.2,0.6,2,0.7c1.3,0.1,2.6-0.3,3.8-1.3c1.2-0.9,2.2-2.1,3-3.5L217.2,183.3z"/>
		<path class="st4" d="M273.6,192.2c0.4-1.4,1.2-2.4,2.4-2.8c1.1-0.5,2.3-0.6,3.4-0.4c1.1,0.2,2,0.8,2.7,1.6
			c0.7,0.9,0.8,1.9,0.4,3.2c-1.3,3.8-2.8,6.9-4.4,9.5c-1.6,2.5-3.3,4.5-5,6c-1.8,1.5-3.5,2.5-5.3,3.1c-1.8,0.6-3.6,0.9-5.3,0.9
			c-2.2,0-4.2-0.5-6.1-1.4c-1.9-0.9-3.3-2.1-4.4-3.7c-1.4,1.5-3,2.7-4.8,3.7c-1.8,1-3.8,1.5-6,1.5c-1.6,0-3-0.2-4.3-0.7
			c-1.3-0.5-2.5-1.2-3.5-2c-1-0.9-1.8-1.9-2.3-3.1c-0.6-1.2-0.8-2.6-0.8-4c0-1.3,0.2-2.6,0.7-3.9l9-25.1c0.4-1.3,1.1-2.2,1.9-2.9
			s1.7-1.1,2.6-1.2c0.9-0.1,1.8-0.1,2.7,0.2s1.6,0.8,2.2,1.4c0.6,0.7,1,1.5,1.2,2.4c0.2,0.9,0.1,2-0.4,3.2l-8.4,23
			c-0.2,0.8-0.4,1.5-0.4,2c0,1.2,0.6,1.8,1.7,1.8c0.7,0,1.5-0.2,2.3-0.6c0.8-0.4,1.6-0.9,2.3-1.6c0.8-0.7,1.5-1.4,2.2-2.3
			c0.7-0.9,1.3-1.8,1.8-2.8l8-22.6c0.7-1.9,1.7-3.2,3.1-3.8c1.4-0.6,2.7-0.7,3.9-0.3c1.3,0.4,2.3,1.2,3,2.4c0.7,1.2,0.8,2.6,0.2,4.3
			l-8.7,24.6c-0.1,0.4-0.2,0.8-0.2,1.1c0,0.5,0.2,1,0.6,1.3c0.4,0.3,0.9,0.5,1.6,0.5c1.7,0,3.4-1,5.3-3
			C270.2,199.8,272,196.6,273.6,192.2z"/>
		<path class="st4" d="M309.9,192.5c0.5-1.4,1.3-2.2,2.4-2.6c1.1-0.4,2.2-0.4,3.3-0.1c1.1,0.3,2,0.8,2.7,1.6
			c0.7,0.8,0.9,1.7,0.5,2.7c-1.2,3.4-2.6,6.2-4.4,8.6c-1.8,2.4-3.9,4.4-6.4,5.9c-2.5,1.6-5.2,2.7-8.4,3.5c-3.1,0.8-6.6,1.3-10.4,1.5
			c-0.6,0.1-1.3,0.2-2.1,0.2c-0.8,0-1.5,0.1-2.1,0.1c-2.1-0.1-4.1-0.5-6-1.2c-1.9-0.7-3.5-1.6-4.9-2.7c-1.4-1.1-2.5-2.5-3.4-4
			c-0.8-1.5-1.2-3.2-1.2-5c0-1.2,0.1-2.4,0.4-3.6c0.3-1.2,0.7-2.4,1.4-3.4c0.6-1.1,1.4-2,2.3-2.8c0.9-0.8,2-1.4,3.2-1.6
			c1.5-2.8,2.9-5.5,4.5-8.3s3-5.5,4.4-8.3c0.8-1.2,1.7-2.1,2.6-2.8c0.9-0.6,1.7-1,2.6-1.2c0.4-0.1,0.9-0.2,1.4-0.2
			c0.5,0,1,0,1.5,0.1v-0.1c0.8,0.1,1.5,0.4,2.2,0.9c0.7,0.4,1.2,1,1.7,1.6c0.4,0.6,0.8,1.3,0.9,2.1s0.2,1.6,0.1,2.3
			c-0.2,1-0.6,1.9-1.2,2.8c-0.6,0.8-1.4,1.4-2.4,1.8c0.1,1.1,0.5,2.3,1.2,3.5c0.6,1.2,1.3,2.5,2,3.7c1,1.7,2,3.5,2.9,5.5
			c0.9,2,1.4,4,1.4,6.2c0,0.5,0,0.9-0.1,1.4c0,0.4-0.1,0.9-0.2,1.4C305.6,199.7,308.2,196.7,309.9,192.5z M286.7,190.6
			c1,1,1.6,2.3,1.8,3.8c0.1,1.5-0.1,2.9-0.7,4.2c-0.6,1.3-1.6,2.3-2.9,3.1c-1.3,0.8-2.9,1-4.7,0.6c0.4,1,1.1,1.7,2.1,2.2
			c1,0.5,2.1,0.8,3.4,0.8c1.3,0,2.4-0.4,3.3-1.1c0.9-0.7,1.6-1.6,2-3c0.6-2,0.5-4.1-0.3-6.3c-0.8-2.1-1.9-4-3.2-5.7L286.7,190.6z"/>
		<path class="st4" d="M333.6,192.6c0.5-1.4,1.4-2.4,2.6-2.8c1.2-0.5,2.3-0.6,3.4-0.4c1.1,0.2,1.9,0.8,2.6,1.6
			c0.7,0.9,0.8,1.9,0.3,3.2c-2.1,6-5,10.7-8.7,13.9c-3.7,3.3-7.9,4.9-12.6,4.9c-1.9,0-3.7-0.3-5.4-0.8c-1.7-0.5-3.2-1.3-4.5-2.3
			c-1.3-1-2.3-2.3-3.1-3.7s-1.2-3.1-1.2-5c0-1.5,0.3-3.1,0.9-4.9v0.1c0.5-1.6,1-3,1.5-4.3c0.5-1.3,1-2.7,1.4-4
			c0.5-1.3,0.9-2.6,1.4-4c0.5-1.3,1-2.8,1.5-4.3h-2.4c-1.1,0-1.9-0.4-2.5-1.4c-0.6-0.9-0.8-1.9-0.7-3c0.1-1.1,0.6-2.1,1.5-3
			c0.9-0.9,2.2-1.4,4.1-1.4h3l5.5-15.4c0.6-1.8,1.5-3.1,2.9-3.6c1.3-0.6,2.6-0.7,3.9-0.4c1.3,0.3,2.3,1,3.1,2c0.8,1,1,2.3,0.5,3.7
			l-4.8,13.7h3.3c1.6,0,2.7,0.5,3.3,1.4c0.6,0.9,0.9,1.9,0.7,3c-0.2,1.1-0.7,2.1-1.7,3c-1,0.9-2.3,1.4-3.9,1.4h-4.7l-6.9,19.5
			c-0.2,0.4-0.3,1-0.3,1.6c0,1,0.4,1.8,1.1,2.5c0.8,0.7,1.8,1,3.1,1c2.1,0,4.3-1,6.4-2.9C330.3,199.6,332.1,196.7,333.6,192.6z"/>
		<path class="st4" d="M371.4,193.6c0.3-1.1,0.9-1.9,1.5-2.6c0.7-0.6,1.4-1.1,2.2-1.3c0.8-0.2,1.6-0.3,2.4-0.1c0.8,0.1,1.5,0.5,2,1
			c0.5,0.5,0.9,1.2,1,2.1c0.1,0.9,0,1.9-0.5,3c-0.3,0.8-0.5,1.4-0.8,1.9c-0.2,0.5-0.5,1-0.8,1.7c-1.3,2.6-2.6,4.8-4.1,6.6
			c-1.5,1.8-3,3.2-4.5,4.2c-1.6,1-3.1,1.8-4.7,2.3c-1.6,0.5-3.2,0.7-4.7,0.7c-0.6,0-1.3,0-2.2-0.1c-0.9-0.1-1.8-0.3-2.8-0.6
			c-1-0.3-1.9-0.8-2.8-1.4c-0.9-0.6-1.6-1.3-2.2-2.3c-1.3,1.2-2.8,2.1-4.4,2.7c-1.6,0.7-3.3,1-4.9,1c-1.6,0-3.1-0.3-4.5-0.9
			c-1.4-0.6-2.6-1.4-3.6-2.4c-1-1-1.8-2.2-2.4-3.5s-0.9-2.8-0.9-4.3c0-0.7,0.1-1.3,0.2-2c0.1-0.6,0.3-1.3,0.5-2l6.9-19.3
			c1.1-2.8,2.7-4.8,5-6.2c2.3-1.4,4.6-2,7-2c2,0,3.8,0.3,5.2,0.8c1.4,0.5,2.5,1,3.2,1.5c0.9-1.1,2-1.8,3.4-2.1
			c1.4-0.3,2.7-0.3,3.8,0.2c1.2,0.4,2.1,1.2,2.7,2.4c0.6,1.1,0.6,2.6,0,4.5l-8.2,23.4c-0.2,0.9-0.4,1.6-0.4,2.1c0,1.2,0.7,1.8,2,1.8
			c1.7,0,3.4-0.9,5.1-2.6C368.2,200.2,369.8,197.4,371.4,193.6z M343.6,201.9c0.3,0.1,0.8,0.1,1.3,0c0.5-0.1,1.1-0.3,1.6-0.7
			c0.6-0.4,1.2-1,1.8-1.8c0.6-0.8,1.2-1.9,1.8-3.2l2.6-7.5c0.6-1.8,0.9-3.2,0.8-4.2c0-1-0.2-1.8-0.5-2.4s-0.6-0.9-0.9-1.1
			c-0.3-0.2-0.5-0.3-0.6-0.3c0,0-0.3-0.1-0.6-0.2c-0.4-0.1-0.8,0-1.4,0.2c-0.5,0.2-1.1,0.7-1.7,1.4c-0.6,0.7-1.2,1.8-1.8,3.4
			l-3.8,11.3c-0.1,0.4-0.3,0.8-0.4,1.4c-0.1,0.5-0.1,1-0.1,1.5c0,0.5,0.2,1,0.5,1.4C342.6,201.5,343,201.7,343.6,201.9z"/>
	</g>
	<g id="XMLID_26_" class="st3">
		<path class="st5" d="M77.4,398.2c0.1-0.7,0.8-1.4,1.5-1.4h6.4c0.7,0,1.2,0.7,1.1,1.4l-6.8,48.3c-0.1,0.7-0.8,1.4-1.5,1.4h-6.5
			c-0.7,0-1.1-0.7-1-1.4L77.4,398.2z"/>
		<path class="st5" d="M103.8,417.9c6.7,0,11.6,6.1,11.6,13.3c0,9.4-7.3,17.4-15.9,17.4c-6.8,0-11.6-6.4-11.6-13.4
			C87.8,425.9,95,417.9,103.8,417.9z M107.3,432c0-3.4-1.8-6.2-4.6-6.2c-3.6,0-6.8,3.9-6.8,8.5c0,3.5,1.8,6.4,4.7,6.4
			C104,440.7,107.3,436.8,107.3,432z"/>
		<path class="st5" d="M119,444l2.4-3.7c0.3-0.5,1.2-0.7,1.7-0.4c0.9,0.6,2.9,1.4,5.3,1.4c1.3,0,2.3-0.7,2.3-1.7
			c0-1.5-0.7-2.2-3.9-4.1c-3.6-2-5.9-4.3-5.9-8.5c0-4.7,2.8-9.1,11-9.1c4,0,7.2,1.5,8.4,2.4c0.6,0.4,0.9,1.4,0.4,2.1l-2.5,3.6
			c-0.4,0.5-1.2,0.8-1.9,0.3c-0.7-0.4-2.6-1.1-4.9-1.1c-1.5,0-2.3,0.6-2.3,1.7c0,1.1,0.9,1.8,2.9,2.8c4.4,2.4,7.7,4.6,7.7,9.3
			c0,5-3.9,9.5-11.5,9.5c-4.7,0-7.7-1.8-9-2.8C118.6,445.3,118.6,444.6,119,444z"/>
		<path class="st5" d="M176.7,417.9c4.5,0,8.1,2.3,9.9,5.2c0.4,0.7,0.1,1.5-0.6,2l-2.9,2.7c-0.7,0.6-1.5,0.3-1.8-0.1
			c-0.8-0.7-2-2-4.4-2c-3.5,0-7.1,3.6-7.1,8.6c0,3.5,1.9,6.3,4.7,6.3c2.6,0,4.3-1.8,5.2-2.8c0.4-0.5,1.2-0.7,1.8-0.1l2.8,2.8
			c0.6,0.6,0.7,1.3,0.2,2c-2.6,3.4-6.4,5.9-10.9,5.9c-7.2,0-12.5-5.8-12.5-13.6C161.1,425,168.3,417.9,176.7,417.9z"/>
		<path class="st5" d="M216.1,446.5c-0.1,0.7-0.8,1.4-1.5,1.4h-2.8c-0.4,0-0.9-0.2-1.2-1.2l-0.4-2.2c-1.1,1-4.2,4.2-9.4,4.2
			c-6.1,0-10.7-6-10.7-13.4c0-9.4,6.5-17.2,15-17.2c4.2,0,7.2,2.6,8.2,4l1.3-2.3c0.3-0.5,0.7-0.9,1.3-0.9h2.8c0.7,0,1.2,0.6,1,1.4
			L216.1,446.5z M209.8,429.9c-0.2-1.2-1.7-4.1-4.7-4.1c-3.4,0-6.9,3.4-6.9,9.2c0,3.1,1.8,5.7,4.8,5.7c3.1,0,5.4-3.3,5.9-4.7
			L209.8,429.9z"/>
		<path class="st5" d="M228.6,420.1c0.1-0.8,0.7-1.4,1.4-1.4h2.8c0.4,0,0.9,0.4,1.1,0.9l0.7,2.8c1.1-1.5,4.2-4.5,7.9-4.5
			c2.1,0,3.9,0.7,4.6,1.2c0.5,0.4,0.6,0.9,0.1,1.8l-2.7,4.7c-0.4,0.7-0.9,0.9-1.5,0.6c-0.7-0.3-1.8-0.4-2.5-0.4
			c-2.7,0-4.5,3.1-4.5,3.1l-2.5,17.7c-0.1,1-0.7,1.4-1.7,1.4h-6c-0.7,0-1.2-0.7-1-1.4L228.6,420.1z"/>
		<path class="st5" d="M253,426.3h-2.6c-0.7,0-1.1-0.7-1-1.4l0.7-4.9c0.1-0.8,0.7-1.4,1.4-1.4h2.7l1.1-8.1c0.1-0.7,0.8-1.4,1.5-1.4
			l6.4-0.1c0.7,0,1.1,0.7,0.9,1.4l-1.1,8.2h5.3c0.7,0,1.2,0.6,1,1.4l-0.7,4.9c-0.1,0.7-0.7,1.4-1.5,1.4h-5.3l-1.7,11.5
			c-0.3,2,0.7,2.3,1.6,2.3c1,0,2.2-0.6,2.9-0.9c0.7-0.3,1.2,0.1,1.4,0.8l0.7,4.8c0.1,0.7-0.3,1.3-1.1,1.8c-0.6,0.4-4.8,1.9-8.1,1.9
			c-5,0-7.2-3.5-6.4-9.4L253,426.3z"/>
		<path class="st5" d="M289.4,417.9c5.8,0,9.3,3.3,9.3,7.7c0,7.4-10.9,9.9-18.3,10c-0.2,3,1.2,5.3,4.8,5.3c1.8,0,3.9-0.9,5.2-1.8
			c0.7-0.4,1.3-0.6,1.7,0l2.4,3.4c0.4,0.5,0.4,1.3-0.2,1.9c-2.6,2.3-6.2,4-10.4,4c-7,0-11.6-6-11.6-13
			C272.2,426.5,279.2,417.9,289.4,417.9z M290.5,426.6c0-1-0.8-1.8-2.5-1.8c-2.9,0-5.7,2.8-6.5,5.3
			C285,429.9,290.5,428.9,290.5,426.6z"/>
		<path class="st5" d="M308.7,398.2c0.1-0.7,0.8-1.4,1.5-1.4h6.4c0.7,0,1.2,0.7,1.1,1.4l-6.8,48.3c-0.1,0.7-0.8,1.4-1.5,1.4H303
			c-0.7,0-1.1-0.7-1-1.4L308.7,398.2z"/>
		<path class="st5" d="M336.3,417.9c5.8,0,9.3,3.3,9.3,7.7c0,7.4-10.9,9.9-18.3,10c-0.2,3,1.2,5.3,4.8,5.3c1.8,0,3.9-0.9,5.2-1.8
			c0.7-0.4,1.3-0.6,1.7,0l2.4,3.4c0.4,0.5,0.4,1.3-0.2,1.9c-2.6,2.3-6.2,4-10.4,4c-7,0-11.6-6-11.6-13
			C319.1,426.5,326,417.9,336.3,417.9z M337.4,426.6c0-1-0.8-1.8-2.5-1.8c-2.9,0-5.7,2.8-6.5,5.3
			C331.9,429.9,337.4,428.9,337.4,426.6z"/>
		<path class="st5" d="M347.9,444l2.4-3.7c0.3-0.5,1.2-0.7,1.7-0.4c0.9,0.6,2.9,1.4,5.3,1.4c1.3,0,2.3-0.7,2.3-1.7
			c0-1.5-0.7-2.2-3.9-4.1c-3.7-2-5.9-4.3-5.9-8.5c0-4.7,2.8-9.1,11-9.1c4,0,7.2,1.5,8.4,2.4c0.6,0.4,0.9,1.4,0.4,2.1l-2.5,3.6
			c-0.4,0.5-1.2,0.8-1.9,0.3c-0.7-0.4-2.6-1.1-4.9-1.1c-1.5,0-2.3,0.6-2.3,1.7c0,1.1,0.9,1.8,2.9,2.8c4.4,2.4,7.7,4.6,7.7,9.3
			c0,5-3.9,9.5-11.5,9.5c-4.7,0-7.7-1.8-9-2.8C347.5,445.3,347.6,444.6,347.9,444z"/>
	</g>
	<g id="XMLID_27_">
		
			<image style="overflow:visible;opacity:0.75;enable-background:new    ;" width="2358" height="804" id="XMLID_568_" xlink:href="../1998DB697B1D0255.png"  transform="matrix(0.2395 0 0 0.2395 -63.9043 -73.8092)">
		</image>
		<g id="XMLID_336_">
			<g id="XMLID_497_">
				<rect id="XMLID_530_" x="-44" y="-58.4" class="st6" width="151.6" height="151.6"/>
				<line id="XMLID_529_" class="st7" x1="-31.3" y1="-40.8" x2="93.1" y2="-40.8"/>
				<line id="XMLID_527_" class="st7" x1="-31.3" y1="-19.6" x2="93.1" y2="-19.6"/>
				<line id="XMLID_526_" class="st7" x1="-31.3" y1="-19.6" x2="93.1" y2="-19.6"/>
				<line id="XMLID_525_" class="st7" x1="-31.3" y1="1.6" x2="93.1" y2="1.6"/>
				<line id="XMLID_524_" class="st7" x1="-31.3" y1="1.6" x2="93.1" y2="1.6"/>
				<line id="XMLID_523_" class="st7" x1="-31.3" y1="22.8" x2="93.1" y2="22.8"/>
				<line id="XMLID_522_" class="st7" x1="-31.3" y1="22.8" x2="93.1" y2="22.8"/>
				<line id="XMLID_521_" class="st7" x1="-31.3" y1="44.1" x2="93.1" y2="44.1"/>
				<line id="XMLID_520_" class="st7" x1="-31.3" y1="44.1" x2="93.1" y2="44.1"/>
				<line id="XMLID_519_" class="st7" x1="-31.3" y1="65.3" x2="93.1" y2="65.3"/>
				<rect id="XMLID_518_" x="-44" y="-58.4" class="st6" width="151.6" height="151.6"/>
				<line id="XMLID_517_" class="st7" x1="-31.3" y1="-40.8" x2="93.1" y2="-40.8"/>
				<line id="XMLID_516_" class="st7" x1="-31.3" y1="-19.6" x2="93.1" y2="-19.6"/>
				<line id="XMLID_515_" class="st7" x1="-31.3" y1="1.6" x2="93.1" y2="1.6"/>
				<line id="XMLID_514_" class="st7" x1="-31.3" y1="22.8" x2="93.1" y2="22.8"/>
				<line id="XMLID_513_" class="st7" x1="-31.3" y1="44.1" x2="93.1" y2="44.1"/>
				<line id="XMLID_512_" class="st7" x1="-31.3" y1="65.3" x2="93.1" y2="65.3"/>
				<rect id="XMLID_511_" x="144.8" y="-58.4" class="st6" width="151.6" height="151.6"/>
				<line id="XMLID_510_" class="st7" x1="157.6" y1="-40.8" x2="281.9" y2="-40.8"/>
				<line id="XMLID_509_" class="st7" x1="157.6" y1="-19.6" x2="281.9" y2="-19.6"/>
				<line id="XMLID_508_" class="st7" x1="157.6" y1="1.6" x2="281.9" y2="1.6"/>
				<line id="XMLID_507_" class="st7" x1="157.6" y1="22.8" x2="281.9" y2="22.8"/>
				<line id="XMLID_506_" class="st7" x1="157.6" y1="44.1" x2="281.9" y2="44.1"/>
				<line id="XMLID_505_" class="st7" x1="157.6" y1="65.3" x2="281.9" y2="65.3"/>
				<rect id="XMLID_504_" x="329.1" y="-58.4" class="st6" width="151.6" height="151.6"/>
				<line id="XMLID_503_" class="st7" x1="341.9" y1="-40.8" x2="466.2" y2="-40.8"/>
				<line id="XMLID_502_" class="st7" x1="341.9" y1="-19.6" x2="466.2" y2="-19.6"/>
				<line id="XMLID_501_" class="st7" x1="341.9" y1="1.6" x2="466.2" y2="1.6"/>
				<line id="XMLID_500_" class="st7" x1="341.9" y1="22.8" x2="466.2" y2="22.8"/>
				<line id="XMLID_499_" class="st7" x1="341.9" y1="44.1" x2="466.2" y2="44.1"/>
				<line id="XMLID_498_" class="st7" x1="341.9" y1="65.3" x2="466.2" y2="65.3"/>
			</g>
		</g>
	</g>
	<g id="XMLID_32_">
		
			<image style="overflow:visible;opacity:0.75;enable-background:new    ;" width="2358" height="804" id="XMLID_569_" xlink:href="../1998DB697B1D0257.png"  transform="matrix(0.2395 0 0 0.2395 -63.9043 503.4445)">
		</image>
		<g id="XMLID_337_">
			<g id="XMLID_469_">
				<rect id="XMLID_534_" x="-44" y="518.8" class="st6" width="151.6" height="151.6"/>
				<line id="XMLID_533_" class="st7" x1="-31.3" y1="536.5" x2="93.1" y2="536.5"/>
				<line id="XMLID_532_" class="st7" x1="-31.3" y1="557.7" x2="93.1" y2="557.7"/>
				<line id="XMLID_531_" class="st7" x1="-31.3" y1="557.7" x2="93.1" y2="557.7"/>
				<line id="XMLID_528_" class="st7" x1="-31.3" y1="578.9" x2="93.1" y2="578.9"/>
				<line id="XMLID_496_" class="st7" x1="-31.3" y1="578.9" x2="93.1" y2="578.9"/>
				<line id="XMLID_495_" class="st7" x1="-31.3" y1="600.1" x2="93.1" y2="600.1"/>
				<line id="XMLID_494_" class="st7" x1="-31.3" y1="600.1" x2="93.1" y2="600.1"/>
				<line id="XMLID_493_" class="st7" x1="-31.3" y1="621.3" x2="93.1" y2="621.3"/>
				<line id="XMLID_492_" class="st7" x1="-31.3" y1="621.3" x2="93.1" y2="621.3"/>
				<line id="XMLID_491_" class="st7" x1="-31.3" y1="642.5" x2="93.1" y2="642.5"/>
				<rect id="XMLID_490_" x="-44" y="518.8" class="st6" width="151.6" height="151.6"/>
				<line id="XMLID_489_" class="st7" x1="-31.3" y1="536.5" x2="93.1" y2="536.5"/>
				<line id="XMLID_488_" class="st7" x1="-31.3" y1="557.7" x2="93.1" y2="557.7"/>
				<line id="XMLID_487_" class="st7" x1="-31.3" y1="578.9" x2="93.1" y2="578.9"/>
				<line id="XMLID_486_" class="st7" x1="-31.3" y1="600.1" x2="93.1" y2="600.1"/>
				<line id="XMLID_485_" class="st7" x1="-31.3" y1="621.3" x2="93.1" y2="621.3"/>
				<line id="XMLID_484_" class="st7" x1="-31.3" y1="642.5" x2="93.1" y2="642.5"/>
				<rect id="XMLID_483_" x="144.8" y="518.8" class="st6" width="151.6" height="151.6"/>
				<line id="XMLID_482_" class="st7" x1="157.6" y1="536.5" x2="281.9" y2="536.5"/>
				<line id="XMLID_481_" class="st7" x1="157.6" y1="557.7" x2="281.9" y2="557.7"/>
				<line id="XMLID_480_" class="st7" x1="157.6" y1="578.9" x2="281.9" y2="578.9"/>
				<line id="XMLID_479_" class="st7" x1="157.6" y1="600.1" x2="281.9" y2="600.1"/>
				<line id="XMLID_478_" class="st7" x1="157.6" y1="621.3" x2="281.9" y2="621.3"/>
				<line id="XMLID_477_" class="st7" x1="157.6" y1="642.5" x2="281.9" y2="642.5"/>
				<rect id="XMLID_476_" x="329.1" y="518.8" class="st6" width="151.6" height="151.6"/>
				<line id="XMLID_475_" class="st7" x1="341.9" y1="536.5" x2="466.2" y2="536.5"/>
				<line id="XMLID_474_" class="st7" x1="341.9" y1="557.7" x2="466.2" y2="557.7"/>
				<line id="XMLID_473_" class="st7" x1="341.9" y1="578.9" x2="466.2" y2="578.9"/>
				<line id="XMLID_472_" class="st7" x1="341.9" y1="600.1" x2="466.2" y2="600.1"/>
				<line id="XMLID_471_" class="st7" x1="341.9" y1="621.3" x2="466.2" y2="621.3"/>
				<line id="XMLID_470_" class="st7" x1="341.9" y1="642.5" x2="466.2" y2="642.5"/>
			</g>
		</g>
	</g>
</g>
</svg>
