<?xml version="1.0" encoding="utf-8"?>
<!-- Generator: Adobe Illustrator 19.0.0, SVG Export Plug-In . SVG Version: 6.00 Build 0)  -->
<svg version="1.1" id="Layer_1" xmlns="http://www.w3.org/2000/svg" xmlns:xlink="http://www.w3.org/1999/xlink" x="0px" y="0px"
	 viewBox="0 0 792 612" style="enable-background:new 0 0 792 612;" xml:space="preserve">
<style type="text/css">
	.st0{fill:#D0EDFC;stroke:#000000;stroke-width:3;stroke-miterlimit:10;}
	.st1{fill:#4F3417;stroke:#000000;stroke-width:3;stroke-miterlimit:10;}
	.st2{fill:#EEEEEE;stroke:#000000;stroke-width:3;stroke-miterlimit:10;}
	.st3{fill:none;}
	.st4{fill:#FFFFFF;stroke:#000000;stroke-width:5;stroke-miterlimit:10;}
	.st5{fill:none;stroke:#000000;stroke-width:5;stroke-miterlimit:10;}
</style>
<g>
	<g>
		<circle class="st0" cx="396" cy="312.4" r="202.5"/>
		<g>
			<circle class="st1" cx="396" cy="312.4" r="170.4"/>
			<path class="st2" d="M466.9,307.5c0,0,32.7-17.1,32.2-40.2s27.1-34.4,27.1-34.4s12.1-9,6.4-23.7c0,0-13.3-17.7-36.5-34.4
				c-41.2-29.7-113.2-59.4-195.3-3.6c-7.9,5.4-20.1,15.6-27.2,22.9c-5.8,5.8-6.5,8.4-13,15.2c-11,11.4,6.4,23.7,6.4,23.7
				s27.6,11.3,27.1,34.4c-0.6,23.1,32.2,40.2,32.2,40.2"/>
			<g>
				<path d="M319.5,225.3c-4,11-14.1,13.3-21.2,13.3c-7.7,0-16.6-3.8-16.6-19.3c0-16.5,5.4-37.9,25.5-37.9c7,0,13.2,2.8,13.2,10.1
					c0,4-1.4,7-5.3,7c-1.2,0-2.9-0.3-4.3-2c1.9-0.5,3.3-4.3,3.3-6.2c0-1.2-0.4-5.4-5.2-5.4c-9.3,0-15.3,19.2-15.3,32.7
					c0,9.9,1.8,14.1,10,14.1c5.8,0,11.3-2.4,14.1-7.3L319.5,225.3z"/>
				<path d="M352.4,200.3l-5.4,25.7c-0.2,0.8-0.3,1.7-0.3,2.3c0,1.7,0.8,2.9,3.8,2.9c3,0,7-4.2,10-6.7h2.6
					c-3.5,3.5-12,13.5-17.9,13.5c-4.9,0-8.2-1.8-9.2-5.7c-2.3,3.1-5.7,6.2-10.3,6.2c-7.3,0-9.4-5.1-9.4-9.6c0-13,4.7-28.6,19.8-28.6
					c1.8,0,3.7,0.8,5.1,1.9l0.5-2H352.4z M326.4,226.9c0,4.5,2.5,5.4,4.4,5.4c1.7,0,3.4-1.7,4.8-3.8c0.1-0.8,0.2-1.6,0.5-2.5l4.2-20
					c-1.2-1.1-2.6-1.4-3.7-1.4C330.9,204.6,326.4,216.7,326.4,226.9z"/>
				<path d="M342.3,248.9c0-7,5.9-9.1,13.1-11.3l9.1-43.2c2.3-10.8,8.8-12.9,13.8-12.9c3.4,0,6.7,1.8,8.1,4.8c3-3.9,7-4.8,10.4-4.8
					c4.6,0,8.9,3.3,8.9,8.2c0,1.2-0.1,2.2-0.2,3.1h-3.6c0.1-0.8,0.2-1.4,0.2-2c0-1.7-1.4-2.6-2.9-2.6c-1.7,0-4,0.9-5.1,6l-1.4,6.2
					h7.6l-0.7,3H392l-8.5,40.8c-2.3,10.8-8.8,12.9-13.8,12.9c-4.3,0-7-1.9-8.2-4.8c-2.9,3.9-7,4.8-10.3,4.8
					C346.6,257,342.3,253.8,342.3,248.9z M350,250.3c1.5,0,3.6-1.4,4.5-5.9l0.9-4.4c-4.8,1.6-8.4,3.7-8.4,7.8
					C346.9,248.9,348.3,250.3,350,250.3z M368,250.3c1.4,0,3.5-1.4,4.5-5.9l1.8-8.6l-7.8,1.4c-1.8,8.7-2.3,10.3-2.9,11.6
					C364.3,250,366,250.3,368,250.3z M366.8,235.3l7.8-1.4l6.4-30.6h-7.5L366.8,235.3z M380.7,188.2c-1.7,0-4,0.9-5.1,6l-1.4,6.2
					h7.5l1.3-6c0.3-1.3,0.6-2.4,0.6-3.6C383.5,189,382.2,188.2,380.7,188.2z"/>
				<path d="M413.2,232.7c3.7,0,10.1-4.4,12.7-10h3.4c-4.3,7.8-11.6,15.4-21.3,15.4c-7.3,0-11.2-5.5-11.2-12
					c0-9.6,4.1-26.5,17.8-26.5c6.2,0,9.7,2.6,9.7,7.9c0,9.2-9.9,14.5-17.1,15.4c-0.2,1.2-0.2,2.3-0.2,3.3
					C407,231.2,410.2,232.7,413.2,232.7z M417.1,203.7c-4.2,0-7.7,8.5-9.3,15.6c7-0.1,11.9-6,11.9-11.4
					C419.7,206.3,419.4,203.7,417.1,203.7z"/>
				<path d="M441.8,200.3l-5.4,25.7c-0.2,0.8-0.3,1.7-0.3,2.3c0,1.7,0.8,2.9,3.8,2.9s7-4.2,10-6.7h2.6c-3.5,3.5-12,13.5-17.9,13.5
					c-5.8,0-9.4-2.6-9.4-8.2c0-1.1,0.2-2.4,0.5-3.9l5.4-25.7H441.8z M438.3,184.3c3.3,0,6,2.7,6,6c0,3.3-2.7,6-6,6s-6-2.6-6-6
					C432.4,187,435,184.3,438.3,184.3z"/>
				<path d="M476.4,226c-0.2,0.8-0.4,1.7-0.4,2.4c0,1.7,0.8,2.8,3.8,2.8c3,0,4.2-2.3,7.2-4.8h2.6c-3.5,3.5-9.2,11.6-15.1,11.6
					s-9.4-2.6-9.4-8.2c0-1.2,0.2-2.4,0.5-3.9l2.9-13.6c0.2-0.7,0.2-1.4,0.2-2c0-2.7-1.4-4.5-3.5-4.5c-1.8,0-3.2,0.5-4.8,1.6
					l-6.4,30.5h-10.9l8-37.8H462l-0.9,4.1c3.1-2.3,6.6-4.1,9.9-4.1c4.1,0,8.7,4.4,8.7,9.4c0,0.6,0,1.2-0.2,1.8L476.4,226z"/>
				<path d="M483.2,226.1c0-9.6,4.1-26.5,17.8-26.5c6.2,0,9.7,2.6,9.7,7.9c0,9.2-9.9,14.5-17.1,15.4c-0.2,1.2-0.2,2.3-0.2,3.3
					c0,5,2.5,6.5,5.4,6.5c3.6,0,6.6-2,9.7-4.8c0,8.2-6.6,10.3-14.1,10.3C487.1,238.1,483.2,232.6,483.2,226.1z M503.5,203.7
					c-4.2,0-7.7,8.5-9.3,15.6c7-0.1,11.9-6,11.9-11.4C506.1,206.3,505.8,203.7,503.5,203.7z"/>
			</g>
			<g>
				<g>
					<circle class="st3" cx="396" cy="299.6" r="202.5"/>
					<path d="M215,205.9l-49.9-33.3l26.7-39.9l12.2,8.1l-17.4,26.1l8.5,5.7l15.8-23.6l11.5,7.7l-15.8,23.6l17.8,11.9L215,205.9z"/>
					<path d="M226.4,143.4l-21.9-25.7l12.8-10.9l21.7,25.4c2.7,3.2,5.5,5,8.4,5.4c2.9,0.4,5.6-0.6,8.3-2.8c2.6-2.2,4-4.8,4.2-7.6
						c0.1-2.8-1.1-5.8-3.8-9l-21.9-25.7l12.8-10.9l21.6,25.3c3.1,3.6,5.3,7.2,6.6,10.8s1.8,7,1.3,10.3s-1.6,6.5-3.5,9.5
						c-1.9,3.1-4.5,6-7.8,8.8c-6.7,5.7-13.4,8.4-20,8.1C238.7,154,232.4,150.4,226.4,143.4z"/>
					<path d="M291.5,124.5l-24.7-54.7l44-19.8l5.8,12.9l-29,13.1l3.7,8.3l26.3-11.8l5.4,12l-26.3,11.8l3.9,8.7L330,91.6l5.8,12.9
						L291.5,124.5z"/>
					<path d="M340.8,103.6l-10.1-59.2l16.4-2.8l7.7,44.8l28.7-4.9l2.5,14.4L340.8,103.6z"/>
					<path d="M389.6,95.8l4.9-59.8l48.1,3.9l-1.2,14.1l-31.7-2.6l-0.7,9.1l28.7,2.4L436.6,76l-28.7-2.4l-0.8,9.5l32.1,2.6l-1.2,14.1
						L389.6,95.8z"/>
					<path d="M442.7,100.6l21.5-56.1l21.6,8.3c4.9,1.9,9.1,4.3,12.6,7.2c3.5,2.9,6,6.1,7.8,9.6c1.7,3.5,2.6,7.2,2.7,11.2
						c0.1,4-0.6,8-2.2,12.1c-1.5,4-3.7,7.5-6.5,10.4c-2.8,2.9-6,5.1-9.6,6.5c-3.6,1.5-7.8,2.2-12.3,2c-4.6-0.1-9.3-1.1-14.3-3
						L442.7,100.6z M463.5,92.9l6.3,2.4c4.7,1.8,9,2,12.7,0.5c3.8-1.5,6.5-4.5,8.3-9c1.7-4.4,1.7-8.5-0.2-12.1s-5.1-6.4-9.8-8.2
						l-6.3-2.4L463.5,92.9z"/>
					<path d="M518.3,136.2L559.9,93l22.2,21.3c5.3,5.1,8,10.1,8.1,15.2c0.1,3.6-1.2,6.9-3.9,9.7c-4.4,4.5-9.7,5.6-16,3.3
						c1.9,3.6,2.8,7,2.6,10.1c-0.2,3.1-1.7,6.1-4.4,9c-3.5,3.7-7.8,5.2-12.7,4.5c-4.9-0.7-9.9-3.5-15.1-8.5L518.3,136.2z
						 M539.1,138.1l9.2,8.9c1.8,1.8,3.6,2.8,5.3,3c1.7,0.2,3.2-0.3,4.5-1.7c1.2-1.2,1.6-2.7,1.3-4.3c-0.3-1.7-1.4-3.4-3.4-5.3
						l-9.1-8.8L539.1,138.1z M555.1,121.4l7.5,7.2c3.8,3.6,6.9,4.1,9.4,1.5c1.2-1.2,1.6-2.6,1.3-4.1c-0.3-1.5-1.3-3.2-3.1-4.9
						l-7.8-7.5L555.1,121.4z"/>
					<path d="M606.5,139.6l9.6,16.3l-12.6,21.7l25.2-0.4l9.5,16.1l-43.7-0.7L574.8,204l-8.4-14.3l19.4-11.4L606.5,139.6z"/>
				</g>
				<path class="st4" d="M317.4,307.5c0,0,0.3,6,1.9,15.1c15.9,93.3,153.9,82.9,155.3-11.8c0-1.1,0-2.2,0-3.3H317.4z"/>
				<path class="st5" d="M474.2,317.5c0,0,66.7,2.8-29.6,54.4"/>
			</g>
		</g>
	</g>
</g>
<g>
</g>
<g>
</g>
<g>
</g>
<g>
</g>
<g>
</g>
<g>
</g>
</svg>
