<?xml version="1.0" encoding="utf-8"?>
<!-- Generator: Adobe Illustrator 19.0.0, SVG Export Plug-In . SVG Version: 6.00 Build 0)  -->
<svg version="1.1" id="Layer_1" xmlns="http://www.w3.org/2000/svg" xmlns:xlink="http://www.w3.org/1999/xlink" x="0px" y="0px"
	 viewBox="0 0 1080 1920" style="enable-background:new 0 0 1080 1920;" xml:space="preserve">
<style type="text/css">
	.st0{fill:none;}
	.st1{fill:#B5AFA6;}
	.st2{fill:#710000;}
	.st3{fill:#4D4444;}
	.st4{fill:#D0CCC4;}
	.st5{fill:#AAA199;}
</style>
<g id="XMLID_1_">
	<path id="XMLID_3_" d="M352.1,1784.4c0.1-1.2,1.2-2.1,2.3-2.1h3.1l36.3,51.4h0.1l6.4-48c0.1-1.2,1.1-2.3,2.3-2.3h11.5
		c1.1,0,1.9,1.1,1.8,2.3l-11.3,80.1c-0.1,1.2-1.2,2.1-2.3,2.1h-3.2l-36.2-53h-0.1l-6.4,49.5c-0.1,1.2-1.2,2.3-2.4,2.3h-11.4
		c-1,0-1.8-1-1.7-2L352.1,1784.4z"/>
	<path id="XMLID_5_" d="M437.1,1785.7c0.1-1.2,1.2-2.3,2.3-2.3h44c1.2,0,1.9,1.1,1.8,2.3l-1.4,9.8c-0.1,1.2-1.2,2.3-2.4,2.3h-30.5
		l-2.7,19.5h25.2c1.1,0,1.9,1.1,1.8,2.3l-1.4,9.9c-0.2,1.3-1.3,2.3-2.4,2.3h-25.2l-3,20.8h30.6c1.2,0,1.8,1.1,1.7,2.3l-1.3,9.8
		c-0.1,1.2-1.2,2.3-2.4,2.3h-44c-1.2,0-1.9-1.1-1.7-2.3L437.1,1785.7z"/>
	<path id="XMLID_7_" d="M494.8,1786.3c-0.2-1.7,0.8-2.9,2.3-2.9h10.4c0.8,0,1.5,0.8,1.7,1.7l4,45.1h0.5l24-46.6
		c0.4-0.7,1.1-1.3,2-1.3h1.9c1,0,1.5,0.6,1.7,1.3l9.6,46.6h0.5l16.9-45.1c0.4-0.8,1.3-1.7,2.1-1.7h11.3c1.5,0,2.3,1.2,1.5,2.9
		l-31.4,80c-0.4,1-1.3,1.7-2.1,1.7h-1.8c-1,0-1.5-0.6-1.7-1.3l-12.1-51.5h-0.5l-26.4,51.5c-0.4,0.7-1,1.3-2,1.3h-1.7
		c-1,0-1.7-0.7-1.8-1.7L494.8,1786.3z"/>
	<path id="XMLID_9_" d="M626.1,1785.7c0.1-1.2,1.3-2.3,2.4-2.3h11.4c1.2,0,1.9,1.1,1.8,2.3l-4.4,31.5h32.5l4.4-31.5
		c0.1-1.2,1.2-2.3,2.4-2.3H688c1.1,0,1.9,1.1,1.8,2.3l-11.1,78.8c-0.2,1.2-1.3,2.3-2.4,2.3h-11.5c-1.2,0-1.8-1.1-1.7-2.3l4.6-32.8
		h-32.5l-4.6,32.8c-0.2,1.2-1.2,2.3-2.4,2.3h-11.5c-1.1,0-1.9-1.1-1.7-2.3L626.1,1785.7z"/>
	<path id="XMLID_11_" d="M689.8,1863.7l44.7-80.1c0.5-0.8,1.1-1.3,2-1.3h1.1c0.8,0,1.4,0.6,1.7,1.3l21.9,80.1
		c0.5,1.5-0.6,3.1-2.3,3.1h-10.4c-1.8,0-2.7-0.6-3.1-2.4l-3-13.2h-29.6l-6.9,13.2c-0.6,1.2-1.9,2.4-3.8,2.4h-10.9
		C689.6,1866.8,689,1865.2,689.8,1863.7z M738.7,1838.3l-5.6-25.9h-0.2l-13,25.9H738.7z"/>
	<path id="XMLID_14_" d="M767.8,1786.5c-0.5-1.5,0.7-3.1,2.3-3.1h11.8c0.8,0,1.5,0.7,1.7,1.3l12.3,49.7h0.5l26.4-49.7
		c0.4-0.6,1-1.3,1.9-1.3h13.3c1.7,0,2.3,1.5,1.4,3.1l-44.7,80.1c-0.4,0.7-1.2,1.3-2,1.3h-1.1c-1,0-1.4-0.6-1.7-1.3L767.8,1786.5z"/>
	<path id="XMLID_16_" d="M850.3,1785.7c0.1-1.2,1.2-2.3,2.3-2.3h44c1.2,0,1.9,1.1,1.8,2.3l-1.4,9.8c-0.1,1.2-1.2,2.3-2.4,2.3h-30.5
		l-2.7,19.5h25.2c1.1,0,1.9,1.1,1.8,2.3l-1.4,9.9c-0.2,1.3-1.3,2.3-2.4,2.3h-25.2l-3,20.8H887c1.2,0,1.8,1.1,1.7,2.3l-1.3,9.8
		c-0.1,1.2-1.2,2.3-2.4,2.3h-44c-1.2,0-1.9-1.1-1.7-2.3L850.3,1785.7z"/>
	<path id="XMLID_18_" d="M915.3,1784.4c0.1-1.2,1.2-2.1,2.3-2.1h3.1l36.3,51.4h0.1l6.4-48c0.1-1.2,1.1-2.3,2.3-2.3h11.5
		c1.1,0,1.9,1.1,1.8,2.3l-11.3,80.1c-0.1,1.2-1.2,2.1-2.3,2.1h-3.2l-36.2-53H926l-6.4,49.5c-0.1,1.2-1.2,2.3-2.4,2.3h-11.4
		c-1,0-1.8-1-1.7-2L915.3,1784.4z"/>
</g>
<g id="XMLID_47_">
	<polygon id="XMLID_48_" class="st0" points="0,0 0,370.9 290.4,370.9 290.4,449 290.4,1686.9 290.4,1920 1080,1920 1080,0 	"/>
	<polygon id="XMLID_49_" class="st1" points="0,1686.9 0,1741.1 50.5,1741.1 50.5,1756.9 44.9,1756.9 44.9,1899.1 44.9,1920 
		107.8,1920 107.8,1899.1 107.8,1756.9 96.4,1756.9 96.4,1741.1 263.4,1741.1 263.4,1756.9 257.8,1756.9 257.8,1899.1 257.8,1920 
		290.4,1920 290.4,1686.9 	"/>
	<path id="XMLID_52_" class="st2" d="M290.4,449H0v37h53.4v15.8h-5.6V644v142.2h5.6V802H0v105h53.4v15.8h-5.6V1065v142.2h5.6v15.8H0
		v92h50.5v15.8h-5.6V1473v142.2h5.6v15.8H0v55.9h290.4V449z M263.4,1330.8h-5.6V1473v142.2h5.6v15.8h-167v-15.8h11.4V1473v-142.2
		H96.4V1315h167V1330.8z M263.4,922.8h-5.6V1065v142.2h5.6v15.8h-167v-15.8h11.4V1065V922.8H96.4V907h167V922.8z M263.4,509.7h-5.6
		v142.2v142.2h5.6v15.8h-167v-15.8h11.4V651.9V509.7H96.4v-15.8h167V509.7z"/>
	<rect id="XMLID_55_" y="370.9" class="st1" width="290.4" height="78.1"/>
	<rect id="XMLID_56_" x="107.8" y="1473" class="st3" width="150" height="142.2"/>
	<polygon id="XMLID_57_" class="st4" points="96.4,1615.2 96.4,1631 263.4,1631 263.4,1615.2 257.8,1615.2 107.8,1615.2 	"/>
	<polygon id="XMLID_58_" class="st4" points="96.4,1330.8 107.8,1330.8 257.8,1330.8 263.4,1330.8 263.4,1315 96.4,1315 	"/>
	<rect id="XMLID_59_" x="107.8" y="1330.8" class="st5" width="150" height="142.2"/>
	<rect id="XMLID_60_" x="107.8" y="1899.1" class="st3" width="150" height="20.9"/>
	<polygon id="XMLID_61_" class="st4" points="263.4,1756.9 263.4,1741.1 96.4,1741.1 96.4,1756.9 107.8,1756.9 257.8,1756.9 	"/>
	<rect id="XMLID_62_" x="107.8" y="1756.9" class="st5" width="150" height="142.2"/>
	<rect id="XMLID_63_" y="1899.1" class="st3" width="44.9" height="20.9"/>
	<polygon id="XMLID_64_" class="st4" points="50.5,1756.9 50.5,1741.1 0,1741.1 0,1756.9 44.9,1756.9 	"/>
	<rect id="XMLID_65_" y="1756.9" class="st5" width="44.9" height="142.2"/>
	<rect id="XMLID_66_" x="107.8" y="1065" class="st3" width="150" height="142.2"/>
	<polygon id="XMLID_67_" class="st4" points="96.4,1207.2 96.4,1223 263.4,1223 263.4,1207.2 257.8,1207.2 107.8,1207.2 	"/>
	<polygon id="XMLID_68_" class="st4" points="96.4,922.8 107.8,922.8 257.8,922.8 263.4,922.8 263.4,907 96.4,907 	"/>
	<rect id="XMLID_69_" x="107.8" y="922.8" class="st5" width="150" height="142.2"/>
	<rect id="XMLID_70_" y="1065" class="st3" width="47.8" height="142.2"/>
	<polygon id="XMLID_71_" class="st4" points="53.4,1207.2 47.8,1207.2 0,1207.2 0,1223 53.4,1223 	"/>
	<polygon id="XMLID_72_" class="st4" points="53.4,922.8 53.4,907 0,907 0,922.8 47.8,922.8 	"/>
	<rect id="XMLID_73_" y="922.8" class="st5" width="47.8" height="142.2"/>
	<rect id="XMLID_74_" y="644" class="st3" width="47.8" height="142.2"/>
	<polygon id="XMLID_75_" class="st4" points="53.4,786.2 47.8,786.2 0,786.2 0,802 53.4,802 	"/>
	<polygon id="XMLID_76_" class="st4" points="53.4,501.8 53.4,486 0,486 0,501.8 47.8,501.8 	"/>
	<rect id="XMLID_77_" y="501.8" class="st5" width="47.8" height="142.2"/>
	<rect id="XMLID_78_" x="107.8" y="651.9" class="st3" width="150" height="142.2"/>
	<polygon id="XMLID_79_" class="st4" points="96.4,794.1 96.4,809.9 263.4,809.9 263.4,794.1 257.8,794.1 107.8,794.1 	"/>
	<polygon id="XMLID_80_" class="st4" points="96.4,509.7 107.8,509.7 257.8,509.7 263.4,509.7 263.4,493.9 96.4,493.9 	"/>
	<rect id="XMLID_81_" x="107.8" y="509.7" class="st5" width="150" height="142.2"/>
	<rect id="XMLID_82_" y="1473" class="st3" width="44.9" height="142.2"/>
	<polygon id="XMLID_83_" class="st4" points="50.5,1615.2 44.9,1615.2 0,1615.2 0,1631 50.5,1631 	"/>
	<polygon id="XMLID_84_" class="st4" points="50.5,1330.8 50.5,1315 0,1315 0,1330.8 44.9,1330.8 	"/>
	<rect id="XMLID_85_" y="1330.8" class="st5" width="44.9" height="142.2"/>
</g>
<g id="XMLID_2_">
</g>
<g id="XMLID_20_">
</g>
<g id="XMLID_21_">
</g>
<g id="XMLID_22_">
</g>
<g id="XMLID_23_">
</g>
<g id="XMLID_24_">
</g>
</svg>
