<?xml version="1.0" encoding="utf-8"?>
<!-- Generator: Adobe Illustrator 19.0.0, SVG Export Plug-In . SVG Version: 6.00 Build 0)  -->
<svg version="1.1" id="Layer_1" xmlns="http://www.w3.org/2000/svg" xmlns:xlink="http://www.w3.org/1999/xlink" x="0px" y="0px"
	 viewBox="0 0 1080 1920" style="enable-background:new 0 0 1080 1920;" xml:space="preserve">
<style type="text/css">
	.st0{fill:#D0000A;stroke:#000000;stroke-width:10;stroke-miterlimit:10;}
	.st1{fill:#FFFFFF;stroke:#000000;stroke-width:10;stroke-miterlimit:10;}
	.st2{fill:#10076C;stroke:#000000;stroke-width:10;stroke-miterlimit:10;}
	.st3{fill:#6E6360;}
	.st4{fill:#FFFFFF;}
</style>
<g id="XMLID_2_">
	<g id="XMLID_24_">
		<path id="XMLID_26_" class="st0" d="M360.8,306.6l-5.6,34.3H170.3l5.6-34.3H360.8z"/>
	</g>
	<g id="XMLID_32_">
		<path id="XMLID_33_" class="st1" d="M611.3,342.9H426.4l5.6-34.3h184.9L611.3,342.9z"/>
	</g>
</g>
<g id="XMLID_29_">
	<g id="XMLID_30_">
		<path id="XMLID_31_" class="st2" d="M863.1,340.9H678.1l5.6-34.3h184.9L863.1,340.9z"/>
	</g>
</g>
<g id="XMLID_1_">
	<g id="XMLID_3_">
		<path id="XMLID_4_" class="st3" d="M437.4,274.3l34.8-214.7h184.9l-34.8,214.7H437.4z"/>
	</g>
	<g id="XMLID_19_">
		<path id="XMLID_20_" class="st3" d="M689.9,274.3l34.8-214.7h184.9l-34.8,214.7H689.9z"/>
	</g>
	<g id="XMLID_16_">
		<path id="XMLID_17_" class="st3" d="M181.4,274.3l34.8-214.7h184.9l-34.8,214.7H181.4z"/>
	</g>
	<g id="XMLID_12_">
		<path id="XMLID_13_" class="st4" d="M250.2,111.2h45.7c6.2,0,12.5,0.9,18.8,2.8c6.3,1.9,12,4.8,17,8.9c5,4.1,9.2,9.4,12.4,15.9
			c3.2,6.5,4.8,14.4,4.8,23.7c0,10.5-1.7,20.1-5.1,28.6c-3.4,8.6-8.1,15.8-14.1,21.7c-6,5.9-13.2,10.5-21.4,13.8
			c-8.2,3.2-17.2,4.8-26.8,4.8h-50.8L250.2,111.2z M271.3,197.6H283c4.7,0,8.8-0.9,12.3-2.6c3.5-1.8,6.5-4.1,8.9-7
			c2.4-2.9,4.2-6.2,5.4-9.9c1.2-3.7,1.8-7.5,1.8-11.5c0-3.1-0.4-6-1.2-8.7c-0.8-2.7-2.1-5.1-3.9-7.1c-1.8-2-4-3.6-6.8-4.8
			c-2.8-1.2-6-1.8-9.7-1.8H280L271.3,197.6z"/>
	</g>
	<g id="XMLID_9_">
		<path id="XMLID_10_" class="st4" d="M553.3,231.4l7.5-46.2h-31.5l-7.5,46.2h-36l19.5-120.2h35.9l-6.7,41.3h31.5l6.7-41.3h36.2
			l-19.5,120.2H553.3z"/>
	</g>
	<g id="XMLID_6_">
		<path id="XMLID_7_" class="st4" d="M829.1,147c-1.8-2.3-4.1-4.1-6.9-5.5c-2.8-1.4-6.1-2.1-9.8-2.1c-2.9,0-5.5,0.7-7.9,2
			c-2.3,1.4-3.5,3.5-3.5,6.3c0,2.3,1,4,3,5.3c2,1.2,4.9,2.5,8.7,3.9c4.8,1.7,9,3.6,12.7,5.8c3.7,2.2,6.9,4.6,9.5,7.5
			c2.6,2.8,4.6,6.1,6,9.7c1.4,3.6,2.1,7.7,2.1,12.2c0,7.7-1.6,14.3-4.7,19.7c-3.1,5.4-7.1,9.9-11.9,13.2c-4.8,3.4-10.1,5.9-15.9,7.5
			c-5.8,1.6-11.5,2.4-17,2.4c-4.4,0-8.7-0.4-13.1-1.2c-4.4-0.8-8.6-1.9-12.6-3.4c-4-1.5-7.8-3.3-11.3-5.4c-3.5-2.1-6.6-4.6-9.2-7.3
			l24.6-24.8c1.2,1.6,2.8,3,4.5,4.2c1.8,1.2,3.6,2.3,5.5,3.1c1.9,0.8,3.9,1.5,5.8,2c2,0.5,3.8,0.8,5.5,0.8c3.6,0,6.6-0.7,8.7-2
			c2.2-1.3,3.3-3.2,3.3-5.7c0-2-0.9-3.8-2.7-5.4c-1.8-1.6-5.2-3.2-10.2-4.9c-4-1.4-7.7-2.9-11.2-4.8c-3.5-1.8-6.5-4-9-6.5
			c-2.5-2.5-4.5-5.6-6-9.2c-1.5-3.6-2.2-7.9-2.2-13c0-6.2,1.2-12,3.5-17.3c2.3-5.3,5.7-9.9,10-13.8c4.3-3.9,9.5-7,15.4-9.2
			c6-2.2,12.6-3.3,19.7-3.3c4,0,7.8,0.4,11.7,1.1c3.8,0.7,7.5,1.8,10.9,3.1c3.4,1.3,6.6,2.9,9.5,4.7c2.9,1.8,5.4,3.9,7.3,6.1
			L829.1,147z"/>
	</g>
</g>
<path id="XMLID_23_" class="st1" d="M473.4,370.2"/>
<g id="XMLID_27_">
</g>
<g id="XMLID_28_">
</g>
<g id="XMLID_34_">
</g>
<g id="XMLID_35_">
</g>
<g id="XMLID_36_">
</g>
<g id="XMLID_37_">
</g>
</svg>
