<?xml version="1.0" encoding="utf-8"?>
<!-- Generator: Adobe Illustrator 19.0.0, SVG Export Plug-In . SVG Version: 6.00 Build 0)  -->
<svg version="1.1" id="Layer_1" xmlns="http://www.w3.org/2000/svg" xmlns:xlink="http://www.w3.org/1999/xlink" x="0px" y="0px"
	 viewBox="0 0 1080 1920" style="enable-background:new 0 0 1080 1920;" xml:space="preserve">
<style type="text/css">
	.st0{fill:none;stroke:#7B726E;stroke-width:10;stroke-miterlimit:10;}
	.st1{fill:#7B726E;}
</style>
<g id="XMLID_1_">
	<path id="XMLID_45_" d="M241.2,1847.4v-109h42c9.6,0,18.2,1.3,26,4c7.7,2.7,14.2,6.4,19.4,11.2c5.2,4.8,9.1,10.5,11.9,17.2
		s4.2,14,4.2,21.9c0,7.8-1.4,15.1-4.2,21.8c-2.8,6.7-6.8,12.4-12,17.3c-5.2,4.9-11.7,8.7-19.6,11.4c-7.8,2.8-16.6,4.1-26.2,4.1
		H241.2z M271.4,1820.8h12.3c9.2,0,16.5-2.5,21.9-7.4c5.4-4.9,8.1-11.8,8.1-20.6c0-8.6-2.7-15.5-8.2-20.4c-5.4-5-12.7-7.5-21.8-7.5
		h-12.3V1820.8z"/>
	<path id="XMLID_48_" d="M358.8,1799.6v-61.2h30.6v60.6c0,7.7,1.8,13.4,5.3,17.3c3.5,3.9,8.5,5.9,14.7,5.9c6.3,0,11.2-1.9,14.7-5.6
		c3.5-3.8,5.3-9.4,5.3-16.8v-61.4h30.6v60.4c0,8.7-1.2,16.2-3.6,22.7c-2.4,6.5-5.8,11.8-10.3,15.8c-4.5,4.1-9.8,7.1-16,9.1
		c-6.2,2-13.2,3-21.1,3c-16,0-28.3-4.1-37.2-12.4C363.2,1828.7,358.8,1816.2,358.8,1799.6z"/>
	<path id="XMLID_50_" d="M478.1,1847.4v-109H534c13.3,0,23.2,3.2,29.7,9.7c4.7,4.6,7.1,10.5,7.1,17.7c0,11.4-5.6,19.6-16.8,24.5
		c7,2.4,12.4,5.7,16.1,10c3.7,4.3,5.6,10.1,5.6,17.4c0,9.3-3.6,16.6-10.9,21.8c-7.3,5.3-17.4,7.9-30.4,7.9H478.1z M507.7,1781.6h19
		c9.5,0,14.3-3.3,14.3-9.9c0-3-1.2-5.4-3.5-7s-5.7-2.5-10.2-2.5h-19.6V1781.6z M507.7,1823.5H531c4.6,0,8.2-0.9,10.7-2.7
		c2.5-1.8,3.8-4.4,3.8-7.8c0-3.1-1.2-5.5-3.7-7.3c-2.5-1.8-6.2-2.7-11.1-2.7h-23V1823.5z"/>
	<path id="XMLID_54_" d="M589.3,1847.4v-109h30.2v82.4h52.8v26.5H589.3z"/>
	<path id="XMLID_56_" d="M685.8,1847.4v-109h30.2v109H685.8z"/>
	<path id="XMLID_58_" d="M736,1847.4v-109h28.2l44.8,57.6v-57.6h29.9v109h-26.4l-46.6-59.7v59.7H736z"/>
</g>
<polyline id="XMLID_3_" class="st0" points="88.3,1802.7 150.1,1802.7 212,1802.7 "/>
<polyline id="XMLID_4_" class="st0" points="340.4,1560.6 123.7,1560.6 123.7,1802.7 "/>
<path id="XMLID_7_" class="st0" d="M428.7,1376.5"/>
<polyline id="XMLID_2_" class="st0" points="340.4,1710.3 340.4,1464.8 428.7,1376.5 428.7,1224.7 471.8,1148.9 471.8,1052 
	494.5,1021.2 494.5,862.7 540,862.7 "/>
<polyline id="XMLID_11_" class="st0" points="991.7,1802.7 929.9,1802.7 868,1802.7 "/>
<polyline id="XMLID_10_" class="st0" points="739.6,1560.6 956.3,1560.6 956.3,1802.7 "/>
<path id="XMLID_9_" class="st0" d="M651.3,1376.5"/>
<polyline id="XMLID_6_" class="st0" points="739.6,1710.3 739.6,1464.8 651.3,1376.5 651.3,1224.7 608.2,1148.9 608.2,1052 
	585.5,1021.2 585.5,862.7 540,862.7 "/>
<polyline id="XMLID_8_" class="st0" points="494.5,1723.5 494.5,862.7 585.5,862.7 585.5,1723.5 "/>
<g id="XMLID_13_">
	<path id="XMLID_21_" d="M359,1893.5c-4.1,0-7.6-1.4-10.3-4.2c-2.7-2.8-4.1-6.2-4.1-10.3c0-4.1,1.4-7.5,4.1-10.3
		c2.8-2.8,6.3-4.2,10.5-4.2c2.4,0,4.5,0.4,6.1,1.2c1.7,0.8,3.2,1.9,4.7,3.4l-3.7,4.3c-1.2-1.1-2.3-1.9-3.4-2.4
		c-1.1-0.5-2.3-0.7-3.8-0.7c-2.4,0-4.3,0.9-5.8,2.5c-1.5,1.7-2.3,3.8-2.3,6.3c0,2.5,0.8,4.6,2.3,6.3c1.5,1.7,3.5,2.6,5.8,2.6
		c1.5,0,2.8-0.3,3.9-0.8c1.1-0.5,2.3-1.4,3.5-2.5l3.9,4.2c-1.5,1.6-3.2,2.8-5,3.6C363.8,1893.1,361.6,1893.5,359,1893.5z"/>
	<path id="XMLID_23_" d="M385.1,1893l12-28.3h5.7l12,28.3h-6.5l-2.6-6.3h-11.9l-2.6,6.3H385.1z M396.2,1881.2h7.5l-3.7-9.1
		L396.2,1881.2z"/>
	<path id="XMLID_26_" d="M431.2,1893v-28.1h6.2v22.5h14v5.6H431.2z"/>
	<path id="XMLID_28_" d="M468.4,1893v-28.1h6.2v28.1H468.4z"/>
	<path id="XMLID_30_" d="M493.7,1893v-28.1h21.4v5.6h-15.2v6h13.4v5.6h-13.4v10.9H493.7z"/>
	<path id="XMLID_32_" d="M556.4,1889.2c-2.9,2.8-6.4,4.2-10.7,4.2c-4.3,0-7.8-1.4-10.7-4.2c-2.8-2.8-4.2-6.3-4.2-10.3
		c0-4,1.4-7.5,4.3-10.3c2.9-2.8,6.4-4.2,10.7-4.2s7.8,1.4,10.7,4.2c2.8,2.8,4.2,6.3,4.2,10.3C560.7,1883,559.3,1886.4,556.4,1889.2z
		 M539.7,1885.2c1.6,1.7,3.6,2.6,6.1,2.6s4.5-0.8,6.1-2.6c1.6-1.7,2.4-3.8,2.4-6.3c0-2.5-0.8-4.6-2.4-6.3s-3.6-2.6-6.1-2.6
		c-2.5,0-4.5,0.9-6.1,2.5c-1.6,1.7-2.4,3.8-2.4,6.3C537.3,1881.4,538.1,1883.5,539.7,1885.2z"/>
	<path id="XMLID_35_" d="M578.3,1893v-28.1h12.8c3.6,0,6.3,1,8.2,2.9c1.6,1.6,2.4,3.8,2.4,6.5c0,4.3-2,7.2-6,8.7l6.9,10h-7.2l-6.1-9
		h-4.8v9H578.3z M584.4,1878.5h6.3c1.5,0,2.7-0.4,3.5-1.1c0.8-0.7,1.2-1.7,1.2-3c0-1.3-0.4-2.3-1.3-3s-2-1-3.6-1h-6.1V1878.5z"/>
	<path id="XMLID_38_" d="M619.3,1893v-28.1h5.7l13.2,17.3v-17.3h6.1v28.1H639l-13.6-17.9v17.9H619.3z"/>
	<path id="XMLID_40_" d="M663.4,1893v-28.1h6.2v28.1H663.4z"/>
	<path id="XMLID_42_" d="M686.2,1893l12-28.3h5.7l12,28.3h-6.5l-2.6-6.3h-11.9l-2.6,6.3H686.2z M697.3,1881.2h7.5l-3.7-9.1
		L697.3,1881.2z"/>
</g>
<path id="XMLID_15_" class="st0" d="M651.3,1376.5l88.3,88.3v95.8h151.1v-134.3h-31.1c0,0-141.1-53.5-208.3-53.5"/>
<path id="XMLID_5_" class="st0" d="M428.7,1376.5l-88.3,88.3v95.8H189.3v-134.3h31.1c0,0,141.1-53.5,208.3-53.5"/>
<g id="XMLID_12_">
	<path id="XMLID_16_" class="st1" d="M543.4,945c-8.2,0-15.1-2.8-20.5-8.4c-5.5-5.6-8.2-12.4-8.2-20.6c0-8.1,2.7-15,8.2-20.6
		c5.5-5.6,12.5-8.4,21-8.4c4.9,0,8.9,0.8,12.2,2.4c3.3,1.6,6.5,3.8,9.4,6.8l-7.4,8.5c-2.4-2.2-4.7-3.8-6.8-4.8
		c-2.1-1-4.7-1.5-7.6-1.5c-4.7,0-8.6,1.7-11.6,5.1c-3.1,3.4-4.6,7.6-4.6,12.5c0,4.9,1.5,9.1,4.6,12.5c3.1,3.4,6.9,5.1,11.6,5.1
		c3,0,5.6-0.5,7.8-1.6c2.2-1.1,4.5-2.7,7-5l7.8,8.4c-3,3.3-6.3,5.7-9.9,7.2C553,944.2,548.6,945,543.4,945z"/>
	<path id="XMLID_18_" class="st1" d="M510.3,1040l24-56.4h11.4l24,56.4h-12.9l-5.1-12.6H528l-5.1,12.6H510.3z M532.4,1016.6h14.9
		l-7.4-18.2L532.4,1016.6z"/>
</g>
<g id="XMLID_14_">
</g>
<g id="XMLID_60_">
</g>
<g id="XMLID_61_">
</g>
<g id="XMLID_62_">
</g>
<g id="XMLID_63_">
</g>
<g id="XMLID_64_">
</g>
</svg>
