<?xml version="1.0" encoding="utf-8"?>
<!-- Generator: Adobe Illustrator 19.0.0, SVG Export Plug-In . SVG Version: 6.00 Build 0)  -->
<svg version="1.1" id="Layer_1" xmlns="http://www.w3.org/2000/svg" xmlns:xlink="http://www.w3.org/1999/xlink" x="0px" y="0px"
	 viewBox="0 0 1080 1080" style="enable-background:new 0 0 1080 1080;" xml:space="preserve">
<style type="text/css">
	.st0{fill:#BDDFC3;}
	.st1{fill:#BEE3C4;}
	.st2{fill:#FFFFFF;stroke:#000000;stroke-width:60;stroke-linecap:round;stroke-linejoin:round;stroke-miterlimit:10;}
	.st3{fill:#97AACD;stroke:#000000;stroke-width:10;stroke-miterlimit:10;}
</style>
<g id="XMLID_56_">
	<g id="XMLID_2_">
		<g id="XMLID_10_">
			<g id="XMLID_70_">
				<path id="XMLID_71_" class="st0" d="M433,684.4c-0.3-5.7-2.8-11.1-3.6-16.8c-0.4-2.5-0.4-5-0.6-7.5c-0.7-8.7-3.4-17.2-7.7-24.7
					c0,0-0.5-6.7-1.4-14.7c-1-8.5-7.8-15.7-12.5-22.7c-2.8-4.2-5.8-8.6-10.3-10.8c-3.6-1.8-7.8-2-11.9-2.2
					c-19.5-0.9-38.9-1.9-58.4-2.8c-1.7-0.1-3.6-0.2-4.9-1.5c-1-1-1.3-2.4-2.2-3.5c-2-2.6-6-2.1-9.1-1.3c-4.2,1.2-8.3,2.7-12.3,4.6
					c-3.2,1.5-6.4,3.4-8,6.5c-1.7,3.3-2.3,11.7,0.6,14.4c3,2.8,12.5,2.9,16.5,3.8c2,0.4,4.1,0.9,5.5,2.4c1.8,1.8,2.1,4.7,2.1,7.3
					c0.3,21.8-5.1,43.3-7.3,65c-0.4,4.3-0.7,8.7,0.6,12.8c1.4,4.1,4.8,7.7,9.1,8.1c4.9,0.4,9.1-3.6,12.2-7.5
					c14.2-18.1,20.2-42.4,16-65.1c-1.1-6.2-3-12.4-2.2-18.6c3.6,0.1,6.5,3.2,8.2,6.4c1.7,3.2,2.7,6.8,4.8,9.8
					c3,4.1,7.9,6.3,11.7,9.8c6.4,5.9,8.8,14.8,10.9,23.3c1.3,5.3,2.7,10.7,4,16c0.4,1.6,0.8,3.1,1.2,4.7c0.1,2.5,0.7,5,1.9,7.3
					c0.7,1.3,1.5,2.5,2.5,3.5c0.1,0.2,0.2,0.3,0.3,0.5c3,4.8,8.1,8.7,13.8,9c2.2,0.1,4.5-0.4,6.1-1.8c2-1.8,2.6-4.7,2.2-7.4
					c-0.4-2.5-8.4-26.9-9.5-29.1c0-0.2,7,21.8,7.1,21.6c1.3,2.9,3,5.6,5,8.1c2.8,3.5,6.7,6.9,11.2,6.4
					C430.1,696.7,433.3,690.1,433,684.4z"/>
			</g>
			<g id="XMLID_64_">
				<path id="XMLID_69_" d="M438,684.4c-0.4-4.2-1.4-8.2-2.5-12.3c-1.3-4.9-1.5-9.7-2.1-14.7c-1-8.2-4.5-16.6-7.4-22.7
					c0.3,0.6-0.1-0.6-0.2-1.2c-0.2-1.5-0.3-3.1-0.4-4.6c-0.4-4.2-0.5-8.6-1.6-12.6c-2-7.5-7.3-13.4-11.6-19.7
					c-4.5-6.4-8.7-12.8-16.6-15.3c-8.4-2.7-18.6-1.9-27.3-2.3c-10.1-0.5-20.1-1-30.2-1.5c-2.3-0.1-4.5-0.2-6.8-0.3
					c-1.3-0.1-4.9,0.4-6.2-0.4c-0.7-0.5-1.5-2.6-2.2-3.4c-1.1-1.2-2.5-2.1-4-2.7c-7.2-2.5-16.2,1.9-22.6,4.8
					c-6.4,2.9-11.2,7.1-12.4,14.2c-0.9,5.6-0.6,12.9,4.8,16.2c5.1,3.1,11.4,2.6,17,3.8c2.6,0.6,3.6,0.8,3.9,3.5c0.3,2,0.1,4.1,0,6.1
					c-0.1,5.1-0.5,10.2-1.1,15.3c-1.1,9.8-2.8,19.5-4.2,29.2c-1.3,8.9-3.8,19.1-1.7,28c1.6,6.8,7.1,13.1,14.5,13.5
					c8.8,0.4,14.9-7.3,19.3-13.8c5.2-7.6,9.2-16.2,11.7-25c2.5-8.6,3.7-17.7,3.4-26.7c-0.3-10.2-4.4-20.4-3.4-30.6
					c-1.7,1.7-3.3,3.3-5,5c2.8,0.4,4.3,4.6,5.2,6.7c1.4,3.3,2.8,6.4,5.2,9.1c4.5,5,11,7.5,14.6,13.5c7.3,12.2,7.6,28,11.6,41.4
					c3.1,10.3,14.3,21.4,25.8,19.2c11-2.1,10.7-12.7,8.1-21.1c-2.5-8.1-4.8-16.7-8.4-24.4c-2.9,1.7-5.8,3.4-8.6,5
					c-0.7-1.4-0.3-0.8,0,0.2c0.3,1,0.6,1.9,0.9,2.8c0.9,2.8,1.8,5.6,2.7,8.4c1.4,4.4,2.6,8.9,4.9,12.9c4.1,7.2,11.1,15.6,20.4,13.9
					C434,700.8,438,692.1,438,684.4c0-6.4-10-6.4-10,0c0,2.4-0.5,6.1-2.8,7.5c-3.3,2-6.9-2.4-8.6-4.7c-0.9-1.3-1.8-2.6-2.6-4
					c-0.3-0.5-2-4.4-1-1.8c-0.4-1.1-0.7-2.2-1.1-3.3c-2-6.2-3.4-13.4-6.4-19.3c-3-5.8-11.3-0.7-8.6,5c0,0.1-0.2-0.5,0.2,0.7
					c0.3,0.9,0.6,1.8,1,2.7c0.7,2.1,1.5,4.2,2.2,6.3c1.5,4.5,3,9,4.4,13.5c1.3,4.3,2,9.6-4.9,6.9c-3.1-1.2-5.1-3.7-6.9-6.4
					c-2.6-3.6-3.1-6.2-4.1-10.4c-1.8-8.2-3.9-16.4-6.2-24.4c-1.9-7-4.5-13.9-9.4-19.3c-2.5-2.8-5.7-4.8-8.7-7.1
					c-3.3-2.5-5-5.1-6.7-8.8c-3-6.8-6.6-12.1-14.4-13.1c-2.9-0.4-4.8,2.6-5,5c-0.8,8,1.9,15.5,2.9,23.4c0.9,6.6,0.8,13.5-0.1,20.1
					c-1.9,13.6-7.4,28-16.6,38.4c-1.9,2.2-4.8,5.1-7.9,3.9c-3.8-1.5-4.4-6.5-4.4-10c-0.1-8.4,1.8-17,3-25.2
					c2.4-15.4,5.8-31.7,4.5-47.3c-0.5-6.5-4-10.8-10.4-12.3c-2.2-0.5-4.6-0.7-6.8-1c-2.1-0.3-6.2-0.2-7.9-1.6
					c-1.1-0.9-1-3.5-0.8-5.3c0.3-3.1,1.5-4.8,4.2-6.4c3.1-1.9,6.7-3.2,10.2-4.3c1.6-0.5,3.2-1.1,4.8-1.4c2.3-0.4,2.4,0,3.6,1.7
					c4.1,5.7,10.4,5.1,16.8,5.4c8.4,0.4,16.9,0.8,25.3,1.2s16.9,0.8,25.3,1.2c3.7,0.2,7.7,0.2,11,2c3,1.7,5.1,4.6,7,7.4
					c4.1,6,9.8,12,12.1,19.1c1.7,5.5,1.1,11.4,2,17c0.6,3.8,3.3,7.2,4.6,10.8c1.4,3.9,2.5,8.1,3,12.2c0.5,4.4,0.5,8.8,1.5,13.1
					c1,4.3,2.6,8.5,3,13C428.6,690.7,438.6,690.8,438,684.4z"/>
			</g>
		</g>
		<g id="XMLID_3_">
			<path id="XMLID_47_" class="st0" d="M-1.8,714.4C45.4,699,80.9,660.8,114.1,624c13-14.4,26.8-29.4,45.1-35.8
				c2-0.7,4.1-1.3,6.1-0.8c4.5,1.1,6,6.6,7.7,10.9c4.8,11.9,16.7,19.5,28.9,23.3s25.1,4.5,37.7,6.9c28.7,5.5,55.6,20.3,75.6,41.6
				c3.7,4,7.3,8.2,11.7,11.4c7.1,5.1,15.9,7.2,24.6,8.2c2.3,0.3,4.8,0.5,7-0.4c4.7-1.8,6.7-7.5,6.6-12.6
				c-0.2-13.5-10.1-24.7-20.2-33.7c-13.2-11.7-27.7-21.9-43.3-30.3c-4.4-2.4-9.1-4.8-11.6-9.1c-3.8-6.5-1-15.2,4.4-20.5
				c5.4-5.3,12.8-7.9,19.9-10.3c3.4,7.4,12.9,9.2,21.1,9.8c17.8,1.5,35.6,2.2,53.5,2.3c3.1,0,6.4,0,9.1,1.6c3.1,1.7,4.9,5.1,6.6,8.1
				c8.1,14.3,18.6,27.3,31,38.2c11.5,10.1,28.7,18.4,41.3,9.7c-7.7-13.3-15.4-26.6-23.1-39.9c-7.7-13.4-15.7-27.1-27.5-37.2
				c-16.9-14.5-39.5-19.8-60.5-27.2c-3.5-1.2-7-2.6-9.7-5.1c-2.7-2.6-4.1-6.2-6.1-9.4c-7-11.2-20.4-16.9-33.4-18.8
				c-13.1-1.8-26.4-0.5-39.6-1.1c-44.1-2-85.7-25.6-129.8-23.7c-17.6,0.8-34.8,5.7-51.8,10.5c-9,2.6-18.2,5.3-25.5,11.2
				c-5.2,4.2-9.1,9.9-15,13.1c-4.3,2.3-9.3,3-14.1,3.7c-14,2-28,4-42,6"/>
			<g id="XMLID_42_">
				<path id="XMLID_46_" d="M-0.4,719.2c38.7-12.9,69.8-40.2,97.5-69.3c14-14.8,26.7-31.3,42.4-44.4c3.6-3,7.4-5.7,11.4-8
					c2.8-1.6,10.9-6.9,14.1-4.8c2.7,1.8,3.7,8,5.1,10.8c2.2,4.2,5.4,8,8.9,11.2c16.1,14.1,37.6,14.8,57.6,18.4
					c20,3.6,38.9,11.6,55.4,23.4c8.3,5.9,15.6,12.9,22.6,20.3c6.9,7.5,14.5,13.1,24.4,15.8c8.5,2.3,20.5,5.2,27-2.5
					c5.4-6.4,4.9-16,2.4-23.5c-3.4-10.3-10.8-18.7-18.7-25.9c-8.9-8.2-18.6-15.6-28.8-22.2c-4.9-3.2-10-6.3-15.1-9.1
					c-4.6-2.5-11.2-5-12.3-10.8c-2.2-12.2,13.6-17.8,22.3-20.8c-1.9-0.8-3.8-1.5-5.6-2.3c7.3,14,27.9,12.7,41.2,13.4
					c10.6,0.6,21.1,1,31.7,1.1c3.6,0,9.2-0.9,12.5,0.9c3.5,1.9,5.4,7.5,7.4,10.8c8.8,14.4,20.2,28.3,33.8,38.5
					c12,9.1,28.8,15.7,42.7,6.8c2.3-1.5,3.2-4.4,1.8-6.8c-9.9-17.1-19.5-34.6-29.9-51.4c-9-14.7-19.9-27.6-35.1-36.2
					c-14.9-8.4-31.5-12.9-47.6-18.4c-4.5-1.6-8.4-3-11.1-7.1c-2.2-3.4-3.9-7-6.5-10.1c-5-5.9-11.7-10-18.8-12.8
					c-17.3-6.8-36.1-4.2-54.3-5c-18.5-0.7-36.6-5.5-54.3-10.4c-17.8-4.9-35.6-10.1-53.9-12.3c-19.1-2.4-37.8-0.2-56.4,4.4
					c-10.1,2.5-20.5,5.1-30.3,8.7c-9.3,3.4-16.3,8.5-23.3,15.4c-3.6,3.6-7.2,6.4-12.2,7.7c-5.1,1.3-10.5,1.8-15.7,2.5
					c-11.5,1.6-22.9,3.3-34.4,4.9c-6.3,0.9-3.6,10.5,2.7,9.6c9.9-1.4,19.8-2.8,29.6-4.2c8.7-1.2,18.2-1.6,26.3-5.3
					c7.1-3.3,11.5-9.9,17.5-14.6c6.9-5.5,15.8-7.8,24.2-10.1c18.5-5.3,37.1-10.4,56.5-10.2c18.1,0.3,35.8,4.6,53.2,9.3
					c17.2,4.7,34.2,9.9,51.8,12.6c9,1.4,18.1,2,27.2,2c9.7,0,19.6-0.6,29.3,0.8c7.5,1.1,14.8,3.4,21.1,7.5c3.1,2,5.9,4.6,8.1,7.7
					c2.4,3.4,3.8,7.3,6.6,10.4c5.4,6.1,14.1,8,21.5,10.4c8.1,2.6,16.2,5.2,24,8.3c8.7,3.4,17.2,7.7,24.5,13.6
					c7.4,6,13.3,13.6,18.5,21.5c11.7,18,21.8,37.1,32.5,55.6c0.6-2.3,1.2-4.6,1.8-6.8c-13.4,8.6-29.3-3.3-39-12.4
					c-5.9-5.5-11.4-11.6-16.2-18.1c-4.7-6.3-8.2-13.2-12.6-19.7c-4.4-6.4-10.2-8.1-17.7-8.2c-9.3-0.1-18.5-0.3-27.8-0.7
					c-9-0.4-18.1-0.8-27-1.7c-5.7-0.6-12.5-1.7-15.5-7.3c-1-1.8-3.6-3-5.6-2.3c-9.1,3.1-18.8,6.7-24.8,14.7c-5,6.8-6.9,16.6-2.1,24
					c5.2,8,15.8,11.7,23.7,16.5c9.4,5.8,18.4,12.2,26.9,19.3c7.6,6.4,15.4,13.3,20.1,22.2c2.1,4,3.6,8.7,3.3,13.3
					c-0.1,1.8-0.5,4-1.7,5.3c-2.2,2.4-5.9,1.6-8.7,1.1c-10.6-1.5-19-5.4-26.4-13.1c-7.1-7.5-14.1-14.6-22.3-20.8
					c-15.8-12-34.2-20.9-53.6-25.5c-19.8-4.8-43.5-3.2-60.2-16.6c-3.5-2.8-6.5-6.1-8.5-10.1c-1.9-3.7-2.8-8-5.5-11.4
					c-6.4-8.1-16.2-3.9-23.8-0.1c-17.9,9-31,25-44.2,39.5c-30.6,33.7-63.9,68.3-108.2,83.1C-9.2,711.6-6.6,721.3-0.4,719.2
					L-0.4,719.2z"/>
			</g>
		</g>
	</g>
	<g id="XMLID_5_">
		<path id="XMLID_40_" class="st1" d="M1078.3,786c-18.4,0.2-36.9-2.2-54.6-7.3c-14-4-28.3-9.6-42.7-6.9
			c-21.3,4-34.7,24.4-51.1,38.6c-18,15.5-41.7,24.2-65.5,23.9c-7.7,9.6-12,21.8-12,34c0,6.2,1,12.5-0.1,18.7
			c-1.2,6.1-5.3,12.3-11.5,13.3c-5.9,0.9-11.6-3.5-14.2-8.9c-2.6-5.4-2.8-11.6-3-17.6c-0.5-17.3-0.8-35.5,7.4-50.8
			c-16.6,15.8-28.2,36.7-33,59.2c-1.3,6-2.1,12.3-5.6,17.3s-10.4,8.4-15.8,5.4c-5.4-3-3.4-7.4-3.6-13.6
			c-0.9-28.2,5.7-54.9,19.1-78.1c-12.9,24-19.7,51.4-19.6,78.7c0,6.6-0.1,14.3-5.4,18.2c-5.9,4.3-14.8,0.5-18.5-5.8
			c-3.7-6.3-3.6-14-3.4-21.2c0.5-17.9,0.9-35.8,1.4-53.7c17-2,33.6-7.8,48-17c15.2-9.6,29.2-23.3,47.1-25c8.4-0.8,16.9,1.1,25.3,1.7
			c27.5,1.8,55.5-12.6,70.1-36c-14.3,24.1-43.2,38.7-71.1,35.9c-8.1-0.8-16.2-2.9-24.2-1.6c-6.1,1-11.7,4-17.2,7
			c-16.4,8.9-32.8,17.8-49.3,26.7c-8.6,4.6-17.6,9.4-27.4,9.3s-20.2-6.8-20.8-16.5c-0.4-7.2,4.5-13.7,9.8-18.5
			c15.3-14,35.5-21.2,54.1-30.4c18.6-9.2,37.2-22.4,43.6-42.2c-9,24.8-35.3,38-59.3,48.9c-0.6-9.2-10.9-14.3-19.9-16.5
			c-35.8-8.9-73.5-3-109.8,3.8c-6.1,1.1-13.4,1.9-17.6-2.7c-4.4-4.9-2.3-12.8,1.3-18.4c8.8-14,24.2-22.7,40.1-27
			c15.9-4.3,32.7-4.5,49.2-4.7c21.2-0.3,42.4-0.5,63.5-0.8c4.5-0.1,9.1-0.1,13.5-1.3c6.8-1.8,12.6-6,18.7-9.5
			c34.3-19.9,77-18.3,113.9-33c7.2-2.8,14.1-6.3,21.7-7.9c16-3.4,34.4,1.7,47.9-7.4c3.6-2.4,6.6-5.8,10.2-8.3
			c8.2-5.7,18.8-6.7,28.8-7.2c14.2-0.7,28.5-0.8,42.8-0.2"/>
		<g id="XMLID_21_">
			<path id="XMLID_25_" d="M1078.3,781c-14.8,0.1-29.6-1.4-44.1-4.7c-13.6-3.1-26.7-8.7-40.7-10c-24.3-2.2-40.8,14.5-56.5,30.4
				c-17.6,17.8-38.8,30.4-64.3,32.3c-2.9,0.2-6.8-0.4-9.6,0.4c-2.3,0.7-3.7,3.1-5,5c-3.8,5.3-6.6,11.4-8.4,17.7
				c-1.7,5.8-2.4,12-2.3,18c0.1,6.7,1.8,14.6-1.8,20.6c-3.3,5.6-9.4,5.6-13.3,0.4c-4.3-5.7-3.7-14.2-3.8-20.9
				c-0.4-15.2-0.3-30.9,6.8-44.8c2.5-5-3.7-10.1-7.9-6.1c-11.3,10.9-20.5,24-26.8,38.4c-3,6.9-5.5,14-7.1,21.4
				c-1.6,6.9-2,17.7-9.6,21c-3,1.3-5.9,0.9-6.1-2.6c-0.2-3.3,0.2-6.7,0.1-10c-0.1-8.4,0.5-16.7,1.8-25c2.7-16.6,8.4-32.4,16.7-47
				c-2.9-1.7-5.8-3.4-8.6-5c-7.4,14-13.1,29-16.4,44.5c-1.7,7.7-2.8,15.5-3.4,23.3c-0.5,7.1,0.4,14.5-0.9,21.5
				c-1.1,6.3-6.2,8.9-11.6,4.7c-6.2-4.8-5.5-14.7-5.3-21.6c0.4-17.9,0.9-35.8,1.4-53.7c-1.7,1.7-3.3,3.3-5,5
				c15.3-1.9,30.1-6.3,43.7-13.6c12.7-6.8,23.5-16.8,36.3-23.4c6.5-3.3,13.3-5.2,20.6-5.1c7.9,0.1,15.7,1.9,23.6,2
				c13.2,0.2,26.2-3.1,38-9c13.3-6.7,24.6-17,32.6-29.6c-2.9-1.7-5.8-3.4-8.6-5c-11.6,19.1-32.7,32.1-55,33.6
				c-12.8,0.9-25.4-3.9-38.1-1.4c-5.7,1.1-11,3.8-16,6.5c-6.7,3.6-13.5,7.3-20.2,10.9c-12.2,6.6-24.3,13.6-36.7,19.8
				c-9.7,4.9-25.1,9.7-32.7-1.4c-7.4-10.7,8.6-22.1,16.1-27.2c10.3-6.9,21.7-11.9,32.9-17.1c23.3-10.8,47.8-24.5,56.6-50.2
				c2.1-6.2-7.4-8.6-9.6-2.7c-9.1,24-35.2,36-57,45.9c2.5,1.4,5,2.9,7.5,4.3c-2.4-19.8-27.4-23-43.2-24.9
				c-22.2-2.6-44.7-0.5-66.7,2.8c-5.6,0.9-11.2,1.8-16.8,2.8c-5,0.9-10.2,2.4-15.3,2.4c-13.7,0.1-5.4-14.6-0.3-20.2
				c14.1-15.8,35.6-21.1,55.9-22.7c23.7-1.8,47.7-1.1,71.4-1.4c10.8-0.1,22.9,1.2,33.4-2.1c9.7-3.1,17.9-9.8,27.1-14.1
				c18.6-8.6,39.2-12,59.2-15.9c9.9-2,19.8-4,29.6-6.8c10.3-3,19.8-7.6,29.9-11.1c10.7-3.7,21.6-2.8,32.8-3.4
				c11.5-0.7,20.6-3.8,29.3-11.3c9.5-8.1,20.2-9.4,32.3-9.9c13.6-0.6,27.2-0.6,40.8-0.1c6.4,0.2,6.4-9.8,0-10
				c-12.3-0.4-24.6-0.5-36.9,0c-10.5,0.4-21.5,0.6-31.3,4.9c-9.7,4.2-15.5,13.3-26.2,15.5c-9.7,2.1-19.9,0.7-29.8,1.8
				c-10.8,1.2-20.1,5.7-30.1,9.6c-9.9,3.8-20.3,6.5-30.7,8.8c-20.7,4.5-42,7.4-62.1,14.6c-9.8,3.5-18.7,8.3-27.6,13.6
				c-4.8,2.8-9.6,5.1-15.2,5.7c-5.8,0.6-11.7,0.3-17.6,0.4c-24.8,0.3-49.8-0.2-74.6,1.2c-20.9,1.2-42.1,5.4-59,18.6
				c-7.2,5.7-14.1,13.2-17,22.1c-2.7,8.3-0.3,17.7,8.3,21c10.1,4,23.4-1,33.6-2.7c13.2-2.2,26.5-4.1,39.9-4.8
				c13.5-0.7,27.2-0.5,40.5,1.9c7.7,1.3,25.1,3.6,26.3,13.8c0.5,3.9,3.8,6,7.5,4.3c24.8-11.2,51.4-24.9,61.6-51.9
				c-3.2-0.9-6.4-1.8-9.6-2.7c-8.8,25.6-36.4,37-59,47.4c-12.3,5.7-24.5,11.9-35,20.7c-9.1,7.7-17.8,19.6-11.9,31.8
				c4.8,10,16.7,14.8,27.3,13.8c14.5-1.4,27.6-10.5,40.1-17.2c13.4-7.2,26.6-14.8,40.2-21.7c7-3.5,13.5-4.8,21.3-4
				c7.3,0.7,14.5,2.2,21.9,2c27-0.8,52.6-15.7,66.6-38.7c3.4-5.5-5.2-10.5-8.6-5c-8.8,13.7-22.2,24.2-37.5,29.6
				c-7.6,2.6-15.6,4.1-23.7,4.1c-9.4,0-18.6-2.5-28-1.9c-17.4,1-31.1,11.8-44.8,21.4c-15.7,10.9-33.1,18.4-52.2,20.7
				c-2.7,0.3-4.9,2-5,5c-0.3,10.6-0.6,21.2-0.8,31.8c-0.3,10-1.2,20.3-0.5,30.4c0.5,7.9,2.7,16,9.2,21c5.3,4.1,12.9,5.9,19.1,2.5
				c6.5-3.6,8.4-10.9,8.8-17.8c0.6-8.9,0.2-17.8,1.4-26.7c2.5-19.2,8.6-37.8,17.6-54.8c3-5.7-5.4-10.7-8.6-5
				c-7.4,13-13,27.1-16.2,41.7c-3.3,14.8-3.6,29.6-3.8,44.7c-0.1,13.4,14.5,17.3,24.2,9.9c5.6-4.3,8.1-11,9.6-17.7
				c1.5-7,3-13.9,5.4-20.7c5.7-15.9,15.3-30.3,27.4-42c-2.6-2-5.2-4-7.9-6.1c-7.4,14.4-8.5,30.4-8.2,46.3
				c0.2,13.1-0.2,30.5,13.9,36.9c13.3,6.1,23.9-6.3,25.3-18.6c0.9-8.5-1-17,0.6-25.5c1.5-7.9,4.8-15.5,9.7-21.9
				c-1.2,0.5-2.4,1-3.5,1.5c30.5,0.1,57.3-13.1,78.6-34.4c9.2-9.3,18.3-19.9,30.5-25.5c15.5-7.1,31.8-0.8,47.1,3.7
				c18.7,5.4,38.2,8.1,57.7,7.9C1084.8,791,1084.8,781,1078.3,781L1078.3,781z"/>
		</g>
	</g>
	<path id="XMLID_8_" class="st2" d="M553.7,492"/>
	<path id="XMLID_6_" class="st2" d="M594.2,535.7"/>
	<g id="XMLID_176_">
		<path id="XMLID_177_" class="st3" d="M453.1,945L453.1,945c-31.3-81.7-68.7-161-112-237.1l-1.9-3.4
			c-10.9-23.1-16.7-48.3-16.2-73.8c0.9-46.3,20.2-80.5,67.2-96.2c62.7-20.9,136.5,10.6,164.8,70.4l18,37.9c2.4,5.1,8.3,7.5,13.6,5.5
			l32.2-12.1c61.6-23.2,136.4,5.8,167.1,64.8c30.7,59,5.6,125.6-56,148.8l-42.2,11.6c-77.4,21.3-152.2,50.9-223.2,88.3l0,0
			C460.1,951.3,455.1,949.3,453.1,945z"/>
	</g>
	<g id="XMLID_11_">
		<path id="XMLID_39_" class="st1" d="M842,787.5c-6.1,1-11.7,4-17.2,7c-16.4,8.9-32.8,17.8-49.3,26.7c-8.6,4.6-17.6,9.4-27.4,9.3
			s-20.2-6.8-20.8-16.5c-0.4-7.2,4.5-13.7,9.8-18.5c15.3-14,35.5-21.2,54.1-30.4c18.6-9.2,37.2-22.4,43.6-42.2"/>
		<g id="XMLID_34_">
			<path id="XMLID_38_" d="M840.7,782.6c-9.1,1.8-17.1,6.8-25.2,11.2c-9.1,4.9-18.1,9.8-27.2,14.7c-8.7,4.7-17.4,10.1-26.5,13.9
				c-7.5,3.1-16,4.7-23.2,0.2c-18.6-11.5,9.1-29.9,18.9-35.5c15.3-8.8,32.1-14.6,47.3-23.7c15.5-9.3,29.1-21.8,35.1-39.3
				c2.1-6.1-7.6-8.7-9.6-2.7c-12.8,37.3-60.9,43.3-89,64.2c-6.9,5.1-14,11.2-17.2,19.5c-3.1,7.9-1.2,16.5,4.9,22.5
				c14.1,13.7,33.6,6.2,48.5-1.8c11-5.9,22-11.9,33-17.9c10.4-5.6,21.2-13.3,33-15.7C849.6,791,847,781.4,840.7,782.6L840.7,782.6z"
				/>
		</g>
	</g>
	<g id="XMLID_12_">
		<path id="XMLID_32_" class="st0" d="M201.9,621.6c12.2,3.8,25.1,4.5,37.7,6.9c28.7,5.5,55.6,20.3,75.6,41.6
			c3.7,4,7.3,8.2,11.7,11.4c7.1,5.1,15.9,7.2,24.6,8.2c2.3,0.3,4.8,0.5,7-0.4c4.7-1.8,6.7-7.5,6.6-12.6
			c-0.2-13.5-10.1-24.7-20.2-33.7c-13.2-11.7-27.7-21.9-43.3-30.3c-4.4-2.4-9.1-4.8-11.6-9.1c-3.8-6.5-1-15.2,4.4-20.5"/>
		<g id="XMLID_27_">
			<path id="XMLID_31_" d="M200.6,626.4c11.7,3.5,23.9,4.4,35.9,6.6c10.8,2,21.5,5.1,31.5,9.6c9.7,4.3,18.9,9.8,27.3,16.2
				c8.6,6.6,15.4,14.5,23.1,22c7.9,7.7,17.7,11.7,28.5,13.4c4.8,0.7,10.1,1.6,14.6-0.7c4-2,6.5-6,7.7-10.2
				c5.5-20.2-13.8-38.1-27.6-49.4c-9.9-8.1-20.4-15.5-31.4-21.9c-4.9-2.8-12.1-5.3-15.5-10.1c-3.4-5-0.5-11.2,3.2-15.1
				c4.4-4.7-2.6-11.7-7.1-7.1c-6,6.3-9.7,15.6-6.3,24.1c3.6,9.3,14.3,13,22.2,17.7c9.8,5.8,19.1,12.3,27.9,19.5
				c7.9,6.5,16.1,13.5,21.4,22.5c2.3,4,4.1,8.7,4.1,13.4c0,2-0.2,4.4-1.4,6.1c-1.7,2.5-4.5,2.1-7.2,1.9
				c-11.2-1.2-20.6-5.2-28.3-13.4c-14.3-15.1-29.7-27.9-48.7-36.8c-10.2-4.7-20.9-8.4-32-10.7c-13.1-2.7-26.5-3.4-39.3-7.3
				C197.1,614.9,194.4,624.6,200.6,626.4L200.6,626.4z"/>
		</g>
	</g>
</g>
<g id="XMLID_57_">
	<path id="XMLID_7_" d="M163,341.2c0,14.3-0.2,19.3,8.9,21.7l0,1.9l-27.8,0l0-1.9c4.7-1.7,5.4-5.6,5.4-21.8l0-33.8l-50.6,0l0,33.8
		c0,19.5,0.7,20,5.6,21.7l0,1.9l-28.2,0l0-1.9c9.2-2.4,9.2-4,9.2-21.8l-0.1-75.2c0-16.7-0.9-20.4-9.2-21.9l0-1.7l28.2,0l0,1.7
		c-4.9,1.6-5.6,3.3-5.6,21.9l0,38.6l50.6,0l0-38.6c0-18.6-0.5-20.4-5.4-21.9l0-1.7l27.8,0l0,1.7c-8.2,1.6-8.9,3.3-8.9,21.9
		L163,341.2z"/>
	<path id="XMLID_13_" d="M248.2,344.5c-1.2,7.8-10.6,21.9-29.7,21.9c-21.1,0-36.6-16.5-36.6-40.9c0-26.3,16.2-42.6,36.3-42.7
		c17.9,0,32.7,12.7,32.7,40.2l-55.7,0c0.4,26.6,11.7,36.4,26.3,37c11.1,0.5,22.4-7.3,25.2-16.2L248.2,344.5z M239.2,321
		c0-27-13.4-36.2-21.1-36.2c-9.9,0-22.8,11.9-22.8,36.2L239.2,321z"/>
	<path id="XMLID_18_" d="M289.8,364.8l-26.1,0l0-1.9c6.6-1.9,7-2.8,7-11.7l-0.1-99.2c0-6.1-1.4-8.5-8.7-9.2l0-1.9l20.7-3.8
		l0.1,114.2c0,9.6,0.9,10.1,7.1,11.7L289.8,364.8z"/>
	<path id="XMLID_20_" d="M340.3,366.3c-9.2,0-16.5-2.8-22.1-7.1l0,38.5c0,9.6,0.9,9.7,7.1,11.3l0,1.9l-26.1,0l0-1.9
		c6.6-1.9,7-2.4,7-11.3l-0.1-100.1c0-6.1-1.4-8.4-8.7-9l0-1.7l20.7-4l0,13.2c5-8.7,16.2-13.2,25.4-13.2c25.1,0,36.4,20,36.4,42.4
		C380,351.9,362.9,366.3,340.3,366.3z M339,287.5c-12.4,0-20.2,8.4-20.9,20.9l0,33.2c0.7,14.4,9.4,22.8,21.4,22.8
		c11.1,0,25.6-7.7,25.6-36.2C365.1,300.7,354.5,287.5,339,287.5z"/>
	<path id="XMLID_49_" d="M422.6,364.7l-25.9,0l0-1.9c6.6-1.9,7-2.8,7-11.7l0-53.2c0-5.9-1.4-8.4-8.7-9.4l0-1.7l20.5-4l0.1,68.4
		c0,9.6,0.9,10.1,7.1,11.7L422.6,364.7z M400.4,260.7c0-4.2,3.1-7.5,7.3-7.5c4,0,7.5,3.3,7.5,7.5c0,4-3.5,7.3-7.5,7.3
		C403.6,268,400.4,264.7,400.4,260.7z"/>
	<path id="XMLID_52_" d="M509.6,364.6l-25.9,0l0-1.7c6.6-1.9,7-3,7-11.8l0-39.3c0-13.6-7-22.4-19.9-22.4c-9.9,0-17,9.4-19.1,15.3
		l0,46.5c0,9.6,0.9,10.1,7.1,11.7l0,1.9l-26.1,0l0-1.9c6.6-1.9,7-2.8,7-11.7l0-53.1c0-6.1-1.4-8.5-8.7-9.6l0-1.7l20.7-4l0,17.9
		c3.5-9.7,14.8-17.9,25.7-17.9c14.3,0,25.1,7.5,25.1,28.3l0,40c0,9.6,0.9,10.3,7.1,11.8L509.6,364.6z"/>
	<path id="XMLID_54_" d="M592.2,293.1c-1-1.6-1.6-3.5-1-5.2c0.3-1.4-5.7-0.9-9,4.2c4.5,4.3,6.8,11.1,6.8,17.4
		c0,14.1-12.7,27.2-32.3,27.2c-6.8,0-12.2-1-16.9-3.1c-9.7,1.1-17.7,20.7,4,20.7l19.1,0c12,0,33.4-1.6,30.5,19.5
		c0,0-0.5,13.1-18.8,23.3c-23.3,13.2-48.7,10.1-56-2.6c-6.6-11.3-0.2-23.7,11.8-31.2c-5.2-2.6-7.1-7.3-7.1-12.7
		c0,0-1.1-14.1,14.8-17.9c-9.4-4.2-13.4-13.9-13.4-23.1c0-14.1,12.7-26.8,32-26.8c9.7,0,18.8,3.1,24.4,8.3
		c4.3-6.4,11.3-9.2,15.3-9.4c2.8-0.2,5.6,0.7,7.1,2.8c2.4,3.1,1.7,7.5-1.4,9.7C599,296.5,594.7,296,592.2,293.1z M573.5,395.2
		c14.6-9.2,13.6-20.2,13.6-20.2s-0.2-8.9-16.2-8.9l-24.4,0c-1.9,0-8.5,0.2-14.3-1.9c-16.9,11.8-2.8,27.5-3.3,27
		C536.4,400.1,558.5,404.6,573.5,395.2z M556.5,284.6c-8.7,0-19.5,5.4-19.5,24.9c0,19.5,11.9,25.2,19.5,25.2c8,0,19.8-5.8,19.8-25.2
		C576.4,289.9,564,284.6,556.5,284.6z"/>
	<path id="XMLID_60_" d="M738.4,340.8c0,14.3-0.2,19.3,8.9,21.7l0,1.9l-27.8,0l0-1.9c4.7-1.7,5.4-5.6,5.4-21.8l0-33.8l-50.6,0
		l0,33.8c0,19.5,0.7,20,5.6,21.7l0,1.9l-28.2,0l0-1.9c9.2-2.4,9.2-4,9.2-21.8l-0.1-75.2c0-16.7-0.9-20.4-9.2-21.9l0-1.7l28.2,0
		l0,1.7c-4.9,1.6-5.6,3.3-5.6,21.9l0,38.6l50.6,0l0-38.6c0-18.6-0.5-20.4-5.4-21.9l0-1.7l27.8,0l0,1.7c-8.2,1.6-8.9,3.3-8.9,21.9
		L738.4,340.8z"/>
	<path id="XMLID_62_" d="M828,353.6l1.7,0.7c-1,5.2-5.7,11.7-13.9,11.7c0,0-12.9,0.5-13.4-15c-2.4,8.7-12.3,15-24.5,15
		c0,0-19.7,0-19.7-18.1c0-16.5,14.8-21.4,44.2-29.1l0-9.7c0-17.9-8.5-28.5-23.3-21.9c-7.5,3.5-8.7,7.1-7.7,7.3
		c1.7,0.3,3.5,1,4.7,2.6c2.6,3.1,1.9,7.7-1.2,10.3c-3,2.4-7.5,2.1-9.9-1.2c-1.7-2.3-2.1-5.2-1-7.5c1-2.4,4.3-7.8,13.6-12.9
		c7.3-3.7,15.7-3.3,15.7-3.3c17.1,0,21.8,14.1,21.8,34.8l0,31.3c0,0-0.2,10.4,7.5,10.4C822.5,359,826.8,359,828,353.6z M770.3,344.8
		c0,7.5,4.7,14.8,15,14.8c10.8,0,15.3-7.7,17.2-11.8l0-27C780.7,326,770.3,333.5,770.3,344.8z"/>
	<path id="XMLID_75_" d="M912.6,364.3l-25.9,0l0-1.7c6.6-1.9,7-3,7-11.8l0-39.3c0-13.6-7-22.4-19.9-22.4c-9.9,0-17,9.4-19.1,15.3
		l0,46.5c0,9.6,0.9,10.1,7.1,11.7l0,1.9l-26.1,0l0-1.9c6.6-1.9,7-2.8,7-11.7l0-53.1c0-6.1-1.4-8.5-8.7-9.6l0-1.7l20.7-4l0,17.9
		c3.5-9.7,14.8-17.9,25.7-17.9c14.3,0,25.1,7.5,25.1,28.3l0,40c0,9.6,0.9,10.3,7.1,11.8L912.6,364.3z"/>
	<path id="XMLID_77_" d="M1005.5,362.7l-15.8,3c-4.9,0.9-4.9-3.1-4.9-3.1l0-8.9c-5.2,8.2-16.2,12.2-25,12.2
		c-25.1,0-36.4-20-36.4-42.6c0-26.6,17.2-40.9,39.8-40.9c8.7,0,16,2.8,21.6,6.9l0-37.6c0-6.1-1.7-8.7-8.9-9.4l0-1.9l20.7-3.8
		l0.1,115.7c0,8.5,1.9,9,8.9,8.7L1005.5,362.7z M984.8,307.6c0-14.3-10.3-23.3-21.1-23.3c-11,0-25.6,7.3-25.6,36
		c0,27.3,10.3,41.1,26,41c11.3,0,20.7-8.2,20.7-20.4L984.8,307.6z"/>
</g>
<g id="XMLID_1_">
</g>
<g id="XMLID_80_">
</g>
<g id="XMLID_81_">
</g>
<g id="XMLID_82_">
</g>
<g id="XMLID_83_">
</g>
<g id="XMLID_84_">
</g>
</svg>
