<?xml version="1.0" encoding="utf-8"?>
<!-- Generator: Adobe Illustrator 19.0.0, SVG Export Plug-In . SVG Version: 6.00 Build 0)  -->
<svg version="1.1" id="Layer_1" xmlns="http://www.w3.org/2000/svg" xmlns:xlink="http://www.w3.org/1999/xlink" x="0px" y="0px"
	 viewBox="0 0 1080 1080" style="enable-background:new 0 0 1080 1080;" xml:space="preserve">
<style type="text/css">
	.st0{fill:#231F20;}
	.st1{stroke:#000000;stroke-width:1.5;stroke-miterlimit:10;}
	.st2{fill:none;stroke:#000000;stroke-width:1.5;stroke-miterlimit:10;}
	.st3{fill:#EAE821;}
</style>
<g id="XMLID_126_">
	<path id="XMLID_194_" class="st0" d="M0.4,591.6l20.9-22.2L153.4,694l-20.9,22.2L0.4,591.6z"/>
	<path id="XMLID_196_" class="st0" d="M217.1,641.3l-56.9-39.8l-13.1,9.9l39.7,52.7l-24.5,18.5L53,537.5L82.8,515
		c30.7-23.1,63.5-17.4,83.9,9.8c18.5,24.5,13.6,43.9,10.8,50.8l65.9,45.8L217.1,641.3z M143.1,542.7c-10.5-13.9-24.7-16.3-41.9-3.3
		l-5.3,4l33.4,44.3l5.3-4C151.9,570.6,153.2,556.2,143.1,542.7z"/>
	<path id="XMLID_199_" class="st0" d="M317.4,537.6c10.8,24-0.2,53.1-25.8,64.7c-25.7,11.6-55.5,0.9-66.3-23.2L188.7,498
		c-11.1-24.7,0.9-53.4,26.5-65s54.4-1.3,65.6,23.5L317.4,537.6z M252.1,469.4c-4.2-9.3-15.4-13.6-24.7-9.3c-10,4.5-14.3,15.7-10,25
		l36.6,81.2c4.2,9.3,15.1,12.9,25.1,8.3c9.3-4.2,13.9-14.7,9.7-24L252.1,469.4z"/>
	<path id="XMLID_202_" class="st0" d="M375.1,570.9l-29.7,6.7l-40-177.2l29.7-6.7l58.9,92.7l-22.7-100.8l29.2-6.6l40,177.2
		l-29.2,6.6l-57.4-85.9L375.1,570.9z"/>
	<path id="XMLID_204_" class="st0" d="M514.5,551.5l-30.7,0.4l-2.5-181.6l30.7-0.4l1.1,77.5l36.3-0.5l-1.1-77.5l30.7-0.4l2.6,181.7
		l-30.7,0.4l-1-73.4l-36.3,0.5L514.5,551.5z"/>
	<path id="XMLID_206_" class="st0" d="M699.1,519.7c-3.8,26.1-28.8,44.7-56.6,40.6c-27.9-4.1-47.2-29.1-43.4-55.2l12.9-88.1
		c3.9-26.8,29.5-44.6,57.4-40.5c27.9,4.1,46.6,28.3,42.6,55.1L699.1,519.7z M680.9,427c1.5-10.1-5.7-19.7-15.8-21.2
		c-10.9-1.6-20.5,5.5-21.9,15.7l-12.9,88.1c-1.5,10.1,5.8,18.9,16.7,20.5c10.1,1.5,19.6-4.9,21.1-15L680.9,427z"/>
	<path id="XMLID_209_" class="st0" d="M767.1,590.2l0.8-69.4l-15.5-5.3L731.2,578l-29.1-9.9l58.3-172.1l35.4,12
		c36.4,12.3,50.1,42.6,39.2,74.9c-9.9,29.1-28.7,35.9-35.9,37.5l-0.7,80.3L767.1,590.2z M806.9,473.4c5.6-16.5-0.5-29.6-20.9-36.5
		l-6.3-2.1l-17.8,52.6l6.3,2.1C788.8,496.5,801.5,489.4,806.9,473.4z"/>
	<path id="XMLID_212_" class="st0" d="M925.6,519.8c5.4-9.3,2.1-21-7.1-26.4c-9.5-5.5-19.7-2.3-23.7,4.6c-3.5,6-2.7,13.8,0.4,22.7
		l15.1,41.7c4.8,13.1,8.1,32.3-1.6,49.1c-12.9,22.1-44.1,30.5-68.5,16.4c-24.1-14-33-44.1-18.8-68.4l27.2,15.8
		c-5.4,9.3-2.3,21.2,6.8,26.5c8.2,4.8,19.3,3,24.2-5.4c3.9-6.6,1.6-15-2-26.6l-13.8-42.4c-5.4-16.7-4.4-33.1,2.1-44.3
		c13.4-23,44.4-29.5,67.9-15.9c24.3,14.2,33.1,44.4,19,68.5L925.6,519.8z"/>
	<path id="XMLID_214_" class="st0" d="M958.3,717.7L889.9,656l121.7-134.9l68.4,61.7l-19.9,22l-45.6-41.1L984,597.5l31.5,28.5
		l-20.4,22.6l-31.5-28.5l-31,34.4l45.6,41.1L958.3,717.7z"/>
</g>
<g id="XMLID_125_">
	<path id="XMLID_166_" class="st0" d="M494.9,931.2l1.2,1.2c0.5,3.6,0,6.9-1.5,10c-1.3,1.5-2.3,3-3.1,4.4c-0.8,1.4-1.8,2.7-3.1,4
		c-2.6,2.3-5.4,4-8.4,5c-1.3,0.8-2.8,0.9-4.6,0.4c-1-0.3-1.9-0.5-2.5-0.8c-0.6-0.3-1.3-0.5-2.1-0.8c-0.5,0-1-0.1-1.3-0.4
		c-0.4-0.3-0.8-0.1-1.3,0.4c-0.8,0.3-1.5,0-2.3-0.8c-1.8-1.3-4-2.3-6.5-3.1c-1.8-1-3.5-2-5.2-2.9c-1.7-0.9-3.4-1.7-5.2-2.5
		c-0.8-1.3-1.8-2.2-3.1-2.9c-1.3-0.6-2.4-1.5-3.5-2.5c-0.5-0.5-1-0.8-1.5-0.8c-0.5,0-1-0.4-1.5-1.2c-0.3-0.5-1.2-1-2.7-1.5
		c-0.3,0-0.4-0.1-0.4-0.4c-1-0.8-1.9-1.6-2.7-2.5c-0.8-0.9-1.5-1.7-2.3-2.5c-0.5-0.5-1-1.5-1.3-2.9c-0.4-1.4-0.6-2.8-0.6-4
		c-0.5-0.3-1.3-0.4-2.3-0.4c-0.3-0.5-0.5-1.1-0.8-1.7c-0.3-0.6-0.5-1.3-0.8-2.1c0-0.8-0.5-1.4-1.5-1.9c-0.8-0.5-0.9-1-0.4-1.5
		c0.5-0.8,0.6-1.5,0.2-2.3c-0.4-0.8-0.6-1.5-0.6-2.3c-0.5,0.3-1.2,0.4-1.9,0.4c-0.5,0-1-0.1-1.5-0.4c-0.5-2-1.1-4-1.7-5.8
		c-0.6-1.8-0.8-3.7-0.6-5.8c0.5-0.8,0.9-0.9,1.2-0.4c0.3,0.5,0.6,0.9,1.2,1.1c1-0.8,1-1.7,0-2.7c0.5-0.3,0.9-0.4,1.1-0.6
		c0.3-0.1,0.6-0.3,1.2-0.6l-0.8-1.5c-0.3,0-0.4,0.1-0.4,0.4c-0.8,0.3-1.3,0.5-1.7,0.8c-0.4,0.3-0.8,0.5-1.3,0.8
		c-0.8,0.8-1.4,0.5-1.9-0.8c-0.3-1.5-0.6-3.1-1.2-4.6c-0.5-1.5-0.5-3.1,0-4.6c0.5-0.8,0.6-1.5,0.2-2.3c-0.4-0.8-0.6-1.5-0.6-2.3
		c0-0.8,0.1-1.7,0.2-2.7c0.1-1-0.1-2.2-0.6-3.5c-0.3,1.3-0.4,2.4-0.4,3.3c0,0.9,0,1.6,0,2.1c0-0.3-0.4,0-1.2,0.8
		c-0.3-0.3-0.4-0.5-0.4-0.8v-0.8c0-0.3,0.1-0.4,0.4-0.4c-0.5-1.3-0.7-2.4-0.6-3.3c0.1-0.9-0.1-2-0.6-3.3v-1.5c1-1.5,1.3-3,1-4.4
		c-0.4-1.4-0.6-2.7-0.6-4c0-0.5-0.1-1-0.2-1.5c-0.1-0.5-0.1-1,0.2-1.5c0.3-1,0.3-1.9,0-2.5c-0.3-0.6-0.3-1.3,0-2.1
		c0.3-1.3,0.1-2.7-0.4-4.2c-0.5-0.5-0.5-1,0-1.5c0.5-1.8,0.7-3,0.6-3.6c-0.1-0.6-0.4-2-1-4l-0.8-0.4v-0.4c1-1.3,1.3-2.6,1-3.8
		c-0.4-1.3-0.2-2.6,0.6-3.8v-1.5c-0.3-0.5-0.6-0.9-1.2-1.2c-0.5-0.3-0.6-0.6-0.4-1.2c0.5-1,0.5-1.9,0-2.5c-0.5-0.6-0.6-1.3-0.4-2.1
		c0-0.8,0-1.4,0-1.9c0-0.5,0.4-1,1.2-1.5c0.3,0,0.4-0.4,0.4-1.2c0-0.8-0.1-1.5-0.2-2.1c-0.1-0.6-0.2-1.3-0.2-2.1
		c0-0.5,0.3-1.3,0.8-2.3c1.3-0.8,1.9-1.7,1.7-2.7c-0.1-1-0.1-2.2,0.2-3.5l-0.8-1.5c-0.8-1.5-0.8-2.8,0-3.8c0.5-0.5,0.9-1,1.2-1.5
		c0-0.5-0.1-0.8-0.4-0.8c-0.3,0-0.5,0.1-0.8,0.4c-0.3,0.3-0.5,0.4-0.8,0.4c-0.5-1.5-0.5-2.9,0-4.2c0.2-0.5,0.3-1.2,0.2-1.9
		c-0.1-0.8-0.1-1.5,0.2-2.3c0.3-0.5,0.2-1-0.2-1.3c-0.4-0.4-0.7-1-1-1.7c1.3-1.5,2-2.6,2.1-3.3c0.1-0.6-0.1-2-0.6-4
		c1-1,2-1.8,3.1-2.3c-0.3-0.5-0.5-1-0.8-1.3c-0.3-0.4-0.4-0.8-0.4-1.3c-0.3-1.5,0.5-2.6,2.3-3.1c0.3-1,0.6-2,1.2-3.1
		c0.5-1,0.5-2.2,0-3.5h-0.8c-0.5,0-0.9-0.1-1.2-0.4c-0.5-0.2-0.4-0.8,0.4-1.5c0.3-0.8,0.9-1.7,1.9-2.7c0.5-0.5,0.8-1,0.8-1.5
		c0-0.2-0.1-0.4-0.4-0.6c-0.3-0.1-0.5-0.4-0.8-1l-0.4-0.8c0-0.8,0.3-1.4,1-1.9c0.6-0.5,1.2-1.3,1.7-2.3c-0.8-0.8-1.3-1.4-1.5-1.9
		c-0.3-0.3-0.4-0.8-0.4-1.5l1.2-4.6c0.5-1.3,1-2.3,1.5-3.1c0.5-0.8,0.8-1.5,0.8-2.3c0-1,0.1-1.9,0.4-2.7c0.3-0.8,0.5-1.5,0.8-2.3
		c0.3-1.3,0.4-2.5,0.4-3.6c0-1.2,0.2-2.4,0.8-3.6c0.3-0.8,0.4-1.9,0.4-3.5l-0.8-1.2c0.3-0.5,0.6-1,1-1.5c0.4-0.5,0.7-1,1-1.5
		c0.3-0.8,0.4-1.3,0.4-1.7c0-0.4,0.3-0.7,0.8-1l-1.2-1.5c0.3-1,0.5-1.9,0.8-2.7c0.3-0.8,0.5-1.5,0.8-2.3c0-1,0.1-1.9,0.2-2.5
		c0.1-0.6,0.3-1.3,0.6-2.1c0-1.3,0.1-2.3,0.2-3.1c0.1-0.8,0.3-1.5,0.6-2.3c1.3-2.8,2.2-5.7,2.9-8.6c0.6-2.9,1.3-5.8,2.1-8.6
		c0.3-1,0.8-2,1.5-3.1c0.3-0.5,0.2-1-0.2-1.5c-0.4-0.5-0.2-1,0.6-1.5c0.5-0.2,0.7-0.6,0.6-1.1c-0.1-0.5,0.1-1,0.6-1.5
		c0.5-0.5,0.8-1,0.8-1.3c0-0.4,0.3-0.8,0.8-1.3c-0.3-0.8-0.5-1.6-0.8-2.5c-0.3-0.9-0.5-1.9-0.8-2.9v-3.1c0.2-1.3,0.5-2.6,0.8-3.8
		c0.3-1.3,0.5-2.6,0.8-3.8c0.5-1.3,0.5-2.3,0-3.1c0-0.5-0.5-1-1.5-1.5c0.2-0.5,0.5-1,0.8-1.3c0.3-0.4,0.5-0.8,0.8-1.3v-2.7l-0.4-0.4
		l-0.8-0.4l-0.4,0.4c0,0.3-0.1,0.4-0.4,0.4c0.5,1,0.5,1.8,0,2.3c-0.5,0.5-0.9,1.2-1.2,1.9c0.5,1.5,1,2.8,1.5,3.8
		c-0.3,0.5-0.4,1.1-0.6,1.7c-0.1,0.6-0.3,1.2-0.6,1.7h-2.7c0.2,0.8,0.4,1.6,0.4,2.5c0,0.9,0.1,1.7,0.4,2.5c0,1.3-0.4,1.9-1.2,1.9
		c-0.3,0-0.6-0.3-1.2-0.8c-0.5,0-0.8,0.1-1,0.2c-0.1,0.1-0.6,0.6-1.3,1.3c1,1,1.5,2,1.3,2.9c-0.1,0.9-0.4,1.9-1,2.9
		c-0.3,0.3-0.5,0.4-0.8,0.4c-0.3,0-0.5,0.1-0.8,0.4c-0.8,1.3-1.5,2.8-2.3,4.6c-0.8,0-1.2-0.1-1.2-0.4c0-0.3,0-0.6,0-1.2
		c0-0.5-0.2-0.9-0.6-1.2c-0.4-0.2-0.7-0.5-1-0.8c-0.8,0.8-0.9,2.1-0.4,3.8v1.9c-1,1.8-1.3,3.1-0.8,3.8c-1,1-1.3,2.1-0.8,3.1
		c-0.8,1.3-1.4,2.5-1.9,3.6c-0.5,1.2-1,2.1-1.5,2.9c-0.5,0.8-1,1.5-1.5,2.1c-0.5,0.6-0.8,1.5-0.8,2.5c-0.5,1.8-1.2,3.3-2.1,4.6
		c-0.9,1.3-1.6,2.7-2.1,4.2c-0.5,1.3-1.1,2.3-1.9,3.1c-0.3,1.3-0.8,2.4-1.5,3.5c-0.3,0.3-0.4,0.5-0.6,0.8c-0.1,0.3-0.4,0.6-1,1.1
		c0.5,1,0.2,2-0.8,2.9c-1,0.9-1.9,1.3-2.7,1.3l-0.4,0.4c0.2,1.3-0.1,2.7-1.2,4.2c-0.5,0.5-0.9,1-1.2,1.5c-0.3,0.5-0.6,1-1.2,1.5
		c-0.8,0.8-1.2,1.7-1.3,2.7c-0.1,1-0.4,2.1-1,3.1c-1,1.3-1.7,2.7-2.1,4.2c-0.4,1.5-1.1,2.9-2.1,4.2c-0.3,0.5-0.4,1-0.4,1.3
		c0,0.4-0.1,0.8-0.4,1.3c-0.3,0.5-0.5,1-0.8,1.5c-0.3,0.5-0.6,1-1.2,1.5c-1.5,2.3-2.6,5.5-3.1,9.6c0,1.3-0.4,2.3-1.2,3.1
		c-0.8,0.8-1.7,1.4-2.7,1.9c-0.5,0-1-0.1-1.5-0.4c0,0.3-0.1,0.4-0.4,0.6c-0.3,0.1-0.5,0.4-0.8,1c-1,1-2.2,2-3.5,2.9
		c-1.3,0.9-2.7,1.2-4.2,1c-0.5,0-1,0.1-1.5,0.4c-0.5,0.3-1,0.4-1.5,0.4c-0.8,0-2.1-0.6-3.8-1.9c-0.5-0.5-0.8-0.6-1-0.2
		c-0.1,0.4-0.4,0.7-1,1c-0.5-2-0.8-3.3-0.8-3.8c-1-1.8-2.2-2-3.5-0.8c-0.5,0.5-1,0.8-1.5,0.8c-0.5,0-1,0-1.5,0
		c-2.3,0.8-3.5-0.3-3.5-3.1c0-0.2,0.1-0.5,0.4-0.8c0.3-0.3,0.1-0.5-0.4-0.8c-1.3-0.5-2.1-1.2-2.3-1.9c-0.3-0.8-0.5-1.5-0.8-2.3
		c-0.3-1-1-2.4-2.3-4.2c-0.3,0-0.3-0.6,0-1.9c0.8,0,1.4,0.1,1.9,0.4v-0.8c-0.5-1.3-1.1-2.3-1.7-3.1c-0.6-0.8-1.2-1.8-1.7-3.1
		c-0.3-0.8-0.5-1.5-0.8-2.3c-0.3-0.8-0.1-1.5,0.4-2.3c-0.3-1-0.4-1.9-0.6-2.5c-0.1-0.6-0.2-1.3-0.2-2.1s-0.1-1.4-0.2-1.9
		c-0.1-0.5-0.3-1-0.6-1.5c-0.5-0.5-0.8-1.2-0.8-2.1c0-0.9,0-1.7,0-2.5c-0.3-1-0.4-2-0.4-2.9c0-0.9-0.1-1.9-0.4-2.9
		c-0.5-1.3-1-2.4-1.3-3.3c-0.4-0.9-0.4-2-0.2-3.3v-0.4c0-0.3-0.1-0.4-0.2-0.4c-0.1,0-0.2-0.1-0.2-0.4c-0.8-1.3-1.2-2.7-1.3-4.2
		c-0.1-1.5-0.3-3.1-0.6-4.6c-0.3,0.5-0.4,1.3-0.4,2.3c-0.5,1.3-1.4,1.9-2.7,1.9c-1-0.2-1.7-1-1.9-2.3V704l-0.8-0.8
		c-1.5,1.8-1.4,3.5,0.4,5c0.2,0.3,0.4,0.8,0.4,1.5c0.5,0,0.8-0.3,1-0.8c0.1-0.5,0.4-0.5,1,0c-0.5,2.8-1.3,4.7-2.3,5.8
		c-1,1-1.3,1.7-0.8,1.9c0,0.3-0.1,0.4-0.2,0.6c-0.1,0.1-0.2,0.4-0.2,1c-1.3,2.1-2.4,4.2-3.3,6.3c-0.9,2.2-1.9,4.3-2.9,6.3
		c-0.5,1.3-1,2.4-1.3,3.3c-0.4,0.9-0.8,1.9-1.3,2.9c-0.5,1.5-0.9,2.5-1.2,2.9c-0.3,0.4-1,1.1-2.3,2.1c0.2,0.8,0.4,1.5,0.6,2.1
		c0.1,0.6-0.1,1.2-0.6,1.7c-0.3,0-0.4,0.1-0.4,0.4c-0.3,0.5-0.4,1.1-0.6,1.7c-0.1,0.6-0.3,1.2-0.6,1.7l-1.2,3.1
		c-0.5,1.8-1.3,3.6-2.3,5.4c-1,1.8-1.9,3.7-2.7,5.8c-0.5,0.5-1.1,0.7-1.7,0.6c-0.6-0.1-1.2,0.1-1.7,0.6l1.5,0.8
		c-0.8,4.1-2,7.5-3.8,10.4c-0.5,1.3-0.9,2.5-1.2,3.6c-0.3,1.2-1,2-2.3,2.5c0.5,1,0.3,2.3-0.8,3.8c-0.5,1.3-1.1,2.5-1.7,3.6
		c-0.6,1.1-1,2.5-1,4c-1.3,2.8-2.4,5.6-3.5,8.4c-1,2.8-2.6,5.4-4.6,7.7l-0.4,0.4c0.8,1.8,0.6,3.3-0.6,4.4c-1.2,1.1-1.5,2.5-1,4
		c-0.5,1-1,2-1.3,2.9c-0.4,0.9-0.8,1.9-1.3,2.9c-0.5,0.5-0.8,1.3-0.8,2.3c-0.8,4.4-1.9,8.3-3.5,11.9c-1.3,2.6-2.3,5.4-3.1,8.4
		c-0.8,2.3-1.5,4.6-2.3,6.9c-0.8,2.3-1.4,4.6-1.9,6.9c-0.5,1.3-0.9,2.6-1.2,4c-0.3,1.4-0.5,2.8-0.8,4c0,1.8-0.5,3.2-1.5,4.2
		c-1,2.8-1.9,5.6-2.5,8.4c-0.6,2.8-1.3,5.8-2.1,8.8c0,1.3-0.6,2.2-1.9,2.7c-0.5,0.5-1.1,0.9-1.9,1.2c-0.8,0.3-1.4,0.9-1.9,1.9
		c0,0.5-0.5,0.8-1.5,0.8c-1.8,1-3.5,1.7-5.2,1.9c-1.7,0.3-3.4,0.6-5.2,1.2h-2.3c-1-1-2.4-1-4.2,0c-1.8,0.5-3.2,0.1-4.2-1.2
		c-0.5-0.5-1.2-0.8-2.1-1c-0.9-0.1-1.1-0.8-0.6-2.1c-0.5-0.5-0.8-0.6-1-0.4c-0.1,0.3-0.3,0.4-0.6,0.4c-0.5,0-1-0.2-1.3-0.6
		c-0.4-0.4-0.3-0.8,0.2-1.3c0.5-1.3,1-2.6,1.5-4c0.5-1.4,0.8-2.9,0.8-4.4c0.8-2.3,1.5-4.7,2.1-7.3c0.6-2.6,1.2-5,1.7-7.3
		c0.5-2,1.2-3.9,1.9-5.6c0.8-1.7,1.7-3.5,2.7-5.6c0.5-1,0.8-1.9,1-2.7c0.1-0.8,0.4-1.8,1-3.1c0.3-0.8,0.4-1.5,0.6-2.3
		c0.1-0.8,0.7-1.5,1.7-2.3c0.3-0.2,0.4-0.5,0.4-0.8c0-0.3,0.1-0.5,0.4-0.8l1.2-5.8c0.5-1,0.9-1.9,1.2-2.7c0.3-0.8,0.5-1.5,0.8-2.3
		c0-1,0.4-1.8,1.2-2.3c0.8-0.5,1-1.3,0.8-2.3c1.3-2.6,1.9-4.9,1.9-6.9c1-1,1.7-2.1,1.9-3.3c0.3-1.2,0.6-2.4,1.2-3.6
		c0.5-1,1-2,1.3-3.1c0.4-1,0.8-2.2,1.3-3.5c0.3-0.3,0.4-0.8,0.4-1.5c1.8-5.9,4.4-11.9,7.7-18c0.5-1.5,1-2.8,1.5-3.8
		c0.5-1,1-2,1.3-2.9c0.4-0.9,0.8-1.7,1.3-2.5c0.5-1,0.9-1.9,1.2-2.7c0.3-0.8,0.5-1.7,0.8-2.7c1-2,1.9-4.2,2.5-6.3
		c0.6-2.2,1.6-4.3,2.9-6.3c0.5-0.5,0.8-1,1-1.5c0.1-0.5,0.3-1,0.6-1.5c0.5-1.3,1-2.6,1.3-4c0.4-1.4,1-2.6,1.7-3.6l0.4-0.8
		c1-2,1.9-4.1,2.7-6.1c0.8-2,1.5-4.1,2.3-6.1c0.5-2,1.5-3.7,3.1-5h0.4l0.4-0.8c-0.3-1.3,0.1-2.2,1.2-2.9c1-0.6,1.4-1.6,1.2-2.9
		c0-0.3,0.3-1.2,0.8-2.7c1-2,2.3-4.2,3.8-6.5c0.3-0.5,0.2-1.1-0.2-1.7c-0.4-0.6-0.2-1.2,0.6-1.7c0.5-0.5,0.8-1.3,0.8-2.3
		c0.8-1.8,1.4-3.5,1.9-5c0.5-1.5,1.4-3.1,2.7-4.6c0.5-1,0.8-2.2,0.8-3.5c0.8-2.3,1.9-4.6,3.5-6.9c0.5-1.3,1.1-2.3,1.7-3.1
		c0.6-0.8,1-1.8,1-3.1c0-1,0.3-1.5,0.8-1.5c0.8-0.5,1.3-1.2,1.7-1.9c0.4-0.8,0.8-1.7,1.3-2.7c1-1.5,1.9-3.2,2.7-5
		c0.8-1.8,1.5-3.6,2.3-5.4c0.5-1.3,1.2-2.6,2.1-3.8c0.9-1.3,1.7-2.6,2.5-3.8c0.5-1.3,1-2.4,1.3-3.5c0.4-1,1.2-2.2,2.5-3.5
		c0.3-0.3,0.6-1.2,1.2-2.7c0.8-2.8,2.2-4.9,4.2-6.1c0-0.3,0.3-0.9,0.8-1.9c-0.5-0.3,0.3-1.7,2.3-4.2c-0.5-0.5-0.9-0.8-1.2-0.8
		c0.3-1.8,0.8-3.1,1.7-4c0.9-0.9,1.7-1.9,2.5-2.9h0.4l0.4,0.4c0.5,0.5,1.3,0.6,2.3,0.4c1,0,2,0.3,2.9,0.8c0.9,0.5,2,0.6,3.3,0.4
		c0-0.5,0.4-0.4,1.2,0.4c0.3,0,0.4,0.1,0.6,0.2c0.1,0.1,0.4,0.2,1,0.2c1,0.3,1.9,0.4,2.7,0.6c0.8,0.1,1.4,0.7,1.9,1.7
		c0.2,0.5,1,0.8,2.3,0.8c2,0.8,3.4,1.5,4,2.1c0.6,0.6,1.2,2,1.7,4l0.8,1.2c0.3,0.5,0.6,1,1.2,1.5c0.3,0.8,0.4,2.2,0.4,4.2
		c0.5,0.8,0.8,2.1,0.8,3.8c-0.5,1.5-0.6,2.9-0.4,4.2c0.3,1.3,0.1,2.6-0.4,3.8c-0.3,1-0.2,1.9,0.2,2.7c0.4,0.8,0.3,1.7-0.2,2.7
		c-0.8,1.3-1.2,2.8-1.2,4.6c0.3,1,0.3,2.1,0.2,3.1c-0.1,1-0.2,2.2-0.2,3.5c-0.3,0.8-0.4,1.5-0.6,2.1c-0.1,0.6-0.2,1.3-0.2,2.1
		c-0.3,0.5-0.4,1-0.4,1.5c0,0.5,0,1,0,1.5c0.5,1,0.7,2.1,0.6,3.1c-0.1,1-0.3,2-0.6,3.1c0,1.8,0,3.5,0,5c0,1.5,0.1,3.1,0.4,4.6
		c0.3,0.8,0.4,2.1,0.4,3.8c-0.3,1.3-0.3,2.6-0.2,4c0.1,1.4,0.3,2.8,0.6,4c0.5,0.5,1,0.6,1.3,0.4c0.4-0.3,0.7-0.5,1-0.8l5.4-8.8
		c1.8-2.8,3.5-5.8,5-8.8c1.5-3.1,3.3-6,5.4-8.8c0-0.3,0.3-0.6,0.8-1.2c2.3-2.3,3.7-4.5,4.2-6.5c1.5-3.3,3.5-6.4,5.8-9.2
		c1-1.3,1.7-2.4,1.9-3.5c0.5-1.3,0.9-2.3,1.2-3.1c0.3-0.8,0.6-1.7,1.2-2.7c0.2-1.3,1-2.3,2.3-3.1c1.5-1,2.3-2.6,2.3-4.6
		c0-1,0.5-2.3,1.5-3.8c2-2,3.2-4,3.5-5.8c0.2-0.8,0.5-1.5,0.8-2.3c0.3-0.8,0.5-1.5,0.8-2.3c0.5-0.3,1-0.4,1.3-0.6
		c0.4-0.1,0.7-0.3,1-0.6c0.5-0.8,0.8-1.6,1-2.5c0.1-0.9,0.4-1.7,1-2.5c0.2-0.2,0.6-0.4,1-0.4c0.4,0,0.7-0.3,1-0.8
		c1-1.8,2.1-3.5,3.3-5c1.2-1.5,2.2-3.2,3.3-5c0.5-1.5,1.1-2.9,1.7-4c0.6-1.2,1.2-2.5,1.7-4c0-0.5,0.6-1.1,1.9-1.9
		c0.5-0.5,1-1,1.5-1.5c0.5-0.5,0.5-1.2,0-1.9c0-0.3,0.2-0.4,0.6-0.6c0.4-0.1,0.7-0.3,1-0.6c0.5-0.5,0.9-1,1.2-1.3
		c0.3-0.4,0.6-0.8,1.2-1.3c0.8,0,1.2-0.3,1.3-1c0.1-0.6,0.3-1.2,0.6-1.7c0.5-1.5,1.3-2.6,2.3-3.1c1.5-0.8,2.3-2,2.3-3.8
		c0.5-1.3,1.4-2.2,2.7-2.7c1.3-0.8,2-1.7,2.3-2.7c1.5-1.8,3.2-3.1,5-3.8c1.5-0.3,3-0.5,4.4-0.8c1.4-0.2,2.9-0.2,4.4,0
		c0.5,1,1.2,1.9,1.9,2.7c0.8,0.8,1.5,1.7,2.3,2.7h2.3c2.8,0.3,4.9,1.9,6.1,5c0.3,1,0.4,1.9,0.6,2.5c0.1,0.6,0.1,1.3-0.2,2.1
		c0.8,0.5,1.1,1.2,1.1,2.1c0,0.9,0.3,1.6,0.8,2.1c0.5,1,0.5,2.1,0,3.1c0,0.8-0.1,1.5-0.4,2.3c-0.3,0.8-0.1,1.7,0.4,2.7
		c-0.5,1.5-0.8,3.1-0.8,4.8c0,1.7,0,3.4,0,5.2v0.8c-1,2.1-1.7,4-1.9,5.9c-0.3,1.9-0.8,3.8-1.5,5.6c-0.3,1-0.4,2.3-0.4,3.8
		c0,1.3-0.1,2.3-0.2,3.1c-0.1,0.8-0.2,1.5-0.2,2.3c0,1-0.1,1.9-0.2,2.7c-0.1,0.8-0.7,1.4-1.7,1.9c-0.5,0.3-1,0.8-1.3,1.5
		c-0.4,0.8-0.4,1.4-0.2,1.9c0.5,2.1,0.6,3.9,0.2,5.6c-0.4,1.7-0.8,3.4-1.3,5.2c-0.3,1-0.5,2-0.8,2.9c-0.3,0.9-0.1,1.9,0.4,2.9
		c0,0.8-0.1,1.4-0.4,1.9c0,1.3-0.4,2.7-1.1,4.2c-0.5,1.5-0.8,3.1-1,4.6c-0.1,1.5,0.3,2.9,1.3,4.2c-0.5,1.3-1,2.3-1.5,3.1
		c-0.5,0.8-0.8,1.8-0.8,3.1c0,0.5-0.3,1-0.8,1.5c-1,1-1.3,2.1-0.8,3.1c0,2.6-0.5,4.9-1.5,6.9l-0.4,1.5c-0.3,2.8-0.7,5.4-1.3,7.9
		c-0.6,2.4-1.2,5.1-1.7,7.9c-1.3,2.3-2,4.7-2.3,7.3c-0.3,2.6-1,5.1-2.3,7.7c-0.3,1-0.5,2-0.8,2.9c-0.3,0.9-0.1,1.7,0.4,2.5
		c-0.5,0.8-0.6,1.6-0.4,2.5c0.3,0.9,0.1,1.6-0.4,2.1c-0.8,0-0.9,0.4-0.4,1.1c0.5,0.8,0.5,1.5,0,2.3c-0.5,0.8-0.6,1.7-0.4,2.7
		c0,0.5,0.1,0.8,0.4,0.8c0.8,0.5,1,1.2,0.8,1.9c-0.3,0.8-0.3,1.5,0,2.3c-0.8,0.5-1.1,1.2-1,1.9c0.1,0.8,0.3,1.7,0.6,2.7v1.5
		c-0.5,1.3-0.8,2.6-0.8,4c0,1.4,0,2.9,0,4.4c-0.5,1-0.8,2.1-0.8,3.1c0.5,0,0.9,0.1,1.2,0.4c0.5,0.8,0.5,1.4,0,1.9
		c-1.3,1.3-1.9,2.8-1.9,4.4c0,1.7,0.3,3.5,0.8,5.6c0.5,1,0.3,1.8-0.8,2.3c-0.8,1.3-0.9,2.3-0.4,3.1c0.8,1.3,1,2.6,0.6,3.8
		c-0.4,1.3-0.4,2.6-0.2,3.8l-0.4,1.9c-0.5,0.5-0.8,1-0.8,1.5c0,0.5,0,1,0,1.5c0,1.3-0.1,2.6-0.2,3.8c-0.1,1.3-0.4,2.6-1,3.8
		c0.3,2.1,0.2,3.9-0.2,5.6c-0.4,1.7-0.3,3.5,0.2,5.6c0,1.3-0.1,2.4-0.2,3.5c-0.1,1,0.1,2.2,0.6,3.5v1.2c-0.5,2.1-0.8,3.8-0.8,5.4
		c0,1.5,0.2,3.3,0.8,5.4c0,0.5-0.1,1.1-0.2,1.7c-0.1,0.6-0.1,1.2,0.2,1.7c0.3,0.8,0.3,1.4,0,1.9c-0.3,0.5-0.4,1-0.4,1.5
		c-0.3,1.5-0.1,3.2,0.4,5c0.3,1.8,0.4,3.5,0.4,5.2c0,1.7,0.3,3.3,0.8,4.8c0.5,1.5,0.8,3.1,1,4.8c0.1,1.7,0.4,3.3,1,4.8
		c0.2,1.5,0.5,3,0.8,4.4c0.3,1.4,0.6,2.8,1.2,4v1.2c-0.5,0.8-0.6,1.4-0.4,1.9c0.3,0.5,0.5,1,0.8,1.5l0.8,1.9c0.5,1.8,1,3.5,1.5,5
		c0.5,1.5,1,2.9,1.5,4.2c0.5,1.3,0.9,2.4,1.2,3.3c0.3,0.9,0.6,2,1.2,3.3c0.8,1.3,1.5,2.4,2.1,3.5c0.6,1,1.2,2.2,1.7,3.5
		c0.5,1.3,1.2,2.4,1.9,3.5c0.8,1,1.5,2.1,2.3,3.1c0.5,0.8,1,1.5,1.5,2.1c0.5,0.6,1,1.2,1.5,1.7c1.3,1.5,2.7,2.9,4.4,4
		c1.7,1.2,3.4,2.4,5.2,3.6c0.3,0,0.4,0.1,0.6,0.2c0.1,0.1,0.3,0.2,0.6,0.2c1.5,0.2,3.1,0.8,4.6,1.7c1.5,0.9,3.2,1.6,5,2.1
		c1.3,0,2.2-1,2.7-3.1C493.8,930.8,494.4,930.7,494.9,931.2z M304.6,777.3v-1.5c-0.5,1-1,1.9-1.5,2.5c-0.5,0.6-0.5,1.5,0,2.5
		C303.5,780,304,778.8,304.6,777.3z M315.3,745.8c0.8-0.8,0.9-1.4,0.4-1.9c-0.5-0.2-0.8-0.2-1,0.2c-0.1,0.4-0.3,0.7-0.6,1
		c-0.3,0.5-0.4,1-0.4,1.3c0,0.4-0.1,0.8-0.4,1.3h1.2C315,746.7,315.3,746.1,315.3,745.8z M320.7,730.1c2.6-1.8,3.5-3.7,2.7-5.8
		c-0.5,1-1,2-1.3,2.9C321.6,728.1,321.2,729.1,320.7,730.1z M328.7,715.1c0.8-0.8,1.3-1.4,1.5-1.9l-1.2-2.7c-0.5,1.3-0.8,2.4-1,3.3
		c-0.1,0.9-0.4,1.9-1,2.9c0.8,0,1.2-0.1,1.2-0.4C328.3,716,328.5,715.6,328.7,715.1z M334.9,701.7c0-0.5,0.3-1.1,0.8-1.7
		c0.5-0.6,0.5-1.6,0-2.9c-1,0.8-1.5,1.5-1.3,2.3C334.4,700.2,334.6,700.9,334.9,701.7z M408.6,705.2c1.3-0.8,1.2-2.2-0.4-4.2
		l-1.2,5.8c0,1,0.3,1.5,0.8,1.5c0.5,0,0.8-0.5,0.8-1.5C408,706.2,408,705.7,408.6,705.2z M412.4,828c0.8-0.8,1-1.3,0.8-1.5v-0.8
		h-1.5l-0.4,0.8c0,0.8,0.1,1.3,0.4,1.5C411.6,828.5,411.9,828.5,412.4,828z M413.9,844.1c0.5-1.3,0.8-2,0.8-2.3c0-0.2-0.3-1-0.8-2.3
		c-0.5,0.5-0.8,0.9-0.8,1.2C413.2,840.9,413.4,842,413.9,844.1z M416.6,691.7c0.5-1.3,1.1-2.6,1.7-3.8c0.6-1.3,1-2.6,1-3.8H417
		c-0.5,0.5-0.8,1-0.8,1.5c-0.3,0.5-0.4,1-0.4,1.5c0,0.5-0.1,1.1-0.4,1.9C415,689.5,415.3,690.4,416.6,691.7z M417,681
		c1.3,0.8,2,1.2,2.3,1.2c0.3,0,0.9-0.4,1.9-1.2c-0.5-0.3-1-0.4-1.3-0.6c-0.4-0.1-0.7-0.3-1-0.6c-0.5-0.5-0.5-1,0-1.5
		c0.5-0.5,0.5-1,0-1.5c-0.8,0.5-1.1,1.2-1.1,2.1C417.8,679.8,417.5,680.5,417,681z M429.3,920.5l-0.4-0.4h-0.4
		c-0.3,0-0.6,0.3-1.1,0.8v0.8c0,0.3,0.1,0.4,0.4,0.4l1.5,0.8C430.3,922,430.3,921.2,429.3,920.5z M440.4,647.6v-3.1l-1.2-0.4
		c0,0.3-0.3,0.6-0.8,1.2c-0.5,0.8-0.6,1.3-0.4,1.5L440.4,647.6z"/>
	<path id="XMLID_180_" class="st0" d="M614.3,724.7c0.5,0,0.9,0.2,1.2,0.6c0.3,0.4,0.6,0.7,1.2,1c-2.1,3.6-3.9,7.1-5.6,10.6
		c-1.7,3.5-3.5,6.7-5.6,9.8c-2.8,4.1-5.5,8.1-8.1,11.9c-2.6,3.8-5.2,7.8-8.1,11.9L575.5,790c-2.3,3.3-4.5,6.5-6.7,9.4
		c-2.2,2.9-4.7,5.8-7.5,8.6c-2.1,2-3.9,4-5.6,5.8c-1.7,1.8-3.5,3.5-5.6,5c-4.6,3.1-9.5,3.1-14.6,0c-1.3-0.8-2.6-1.7-3.8-2.7
		c-1.3-1-2.6-1.9-3.8-2.7c-0.5-3.6-0.8-7-1-10.4c-0.1-3.3-0.4-6.7-1-10c-1,0.5-1.7,1.1-1.9,1.7c-0.3,0.6-0.6,1.2-1.1,1.7L511.4,813
		c-2.8,3.8-6.4,7.2-10.7,10c-2.8,1.5-5.4,2.2-7.7,2.1c-2.3-0.1-4.6-0.8-6.9-2.1c-1.5-0.8-3.1-1.7-4.6-2.7c-1.5-1-2.9-2-4.2-3.1
		c-2.1-1.8-3.4-3.8-4-6.1c-0.6-2.3-0.8-4.7-0.6-7.3c0.3-1.3,0.5-2.7,0.8-4.2c0.3-1.5,0.4-2.9,0.4-4.2c0.3-1,0.3-2,0.2-2.9
		c-0.1-0.9-0.2-1.9-0.2-2.9c0.5-0.8,1-1.7,1.3-2.7c0.4-1,0.8-2,1.3-3.1c0.5-1.3,1.1-2.6,1.7-3.8c0.6-1.3,1.9-2.2,3.6-2.7
		c1-0.5,1.6-1.3,1.7-2.3c0.1-1,0.3-2,0.6-3.1h-0.4c1.3-1,2.1-2.2,2.5-3.6c0.4-1.4,0.7-2.7,1-4c0.3-2,0.8-4,1.5-5.8
		c0.8-1.8,1.7-3.6,2.7-5.4c0.3-0.3,0.6-0.9,1.2-1.9c2.8-2,5.1-4.5,6.9-7.3c1.8-2.8,3.7-5.6,5.8-8.4c0.5-1.3,1.1-2.5,1.7-3.6
		c0.6-1.2,1.3-2.4,2.1-3.6c0.5-1,0.9-1.7,1.2-1.9c1.8-1.3,3.3-2.7,4.4-4.4c1.2-1.7,2.5-3.3,4-4.8c0.5-0.5,1-1,1.3-1.5
		c0.4-0.5,0.8-1,1.3-1.5c0.8-0.5,1.2-1,1.2-1.5c0-0.5,0.1-1,0.4-1.5c0.2-0.3,0.9-0.6,1.9-1.2l0.4,0.4c0.3,0,0.4-0.1,0.6-0.2
		c0.1-0.1,0.3-0.2,0.6-0.2H526c1.3-0.5,2-1.2,2.1-1.9c0.1-0.8,0.3-1.8,0.6-3.1l3.8-1.2c0.5-0.2,1.1-0.4,1.9-0.4
		c1.3,0.3,2.6,0.6,3.8,1c1.3,0.4,2.8,0.2,4.6-0.6c1.3-0.5,2.6-0.5,3.8,0c1.3,0.5,2.6,1,3.8,1.5c1.3,0.5,2.6,1,4,1.5
		c1.4,0.5,2.7,1.2,4,1.9c5.4,2.6,6.9,6.8,4.6,12.7c0,0.3-0.3,0.9-0.8,1.9c1,1.5,1.4,3.1,1.2,4.8c-0.3,1.7-0.6,3.4-1.2,5.2
		c-1.3,4.1-2.6,8.1-3.8,11.9c-1.3,3.8-2.6,7.8-3.8,11.9c-1.5,4.9-2.9,9.7-4.2,14.4c-1.3,4.7-2.6,9.7-3.8,14.8
		c-1,2.6-1.5,4.5-1.5,5.8c0,2.1-0.1,4-0.2,5.9c-0.1,1.9,0.1,4,0.6,6.3c0.5-0.5,1-0.8,1.3-1c0.4-0.1,0.8-0.4,1.3-1
		c1.5-1.8,3.2-3.5,5-5.2c1.8-1.7,3.5-3.5,5-5.6l24.6-30.3c2.6-3.1,4.8-6.2,6.7-9.4c1.9-3.2,3.8-6.6,5.6-10.2
		c2.3-4.9,5.2-9.2,8.8-13.1C606.5,725.5,609.9,724.2,614.3,724.7z M536.4,752l6.9-20c-0.3-1.3-0.6-2.9-1.1-5
		c-0.5-1.8-1.7-2.7-3.5-2.7c-1,1.8-2.1,2.9-3.1,3.5c-1.5,1-2.8,2.2-3.8,3.5c-1,1.3-2.2,2.6-3.5,3.8c-5.6,6.7-10.7,13.4-15.4,20.3
		c-4.6,6.9-8.3,14.5-11.1,22.6c-1.3,3.8-2.3,7.7-3.1,11.5c-0.8,3.8-1.4,7.7-1.9,11.5c0-0.3,0.3,0.4,0.8,1.9c2.3-2.8,4.5-5.5,6.5-8.1
		c2-2.6,4.1-5.2,6.1-8.1c3.6-4.9,7.2-9.6,10.9-14.2c3.7-4.6,7.4-9.3,10.9-14.2C533.9,756.5,535.3,754.3,536.4,752z"/>
	<path id="XMLID_183_" class="st0" d="M554,842.6c0.5-0.5,0.8-1.2,0.8-2.1c0-0.9,0.3-1.7,0.8-2.5c0.8-2.6,1.5-5.1,2.1-7.7
		c0.6-2.6,1.3-5.1,2.1-7.7c3.6-12.5,7.8-24.2,12.7-34.9c0.8-1.8,1.4-3.6,1.9-5.4c0.5-1.8,1.2-3.5,1.9-5c1.8-3.6,3.3-7.2,4.6-10.7
		c1.3-3.6,2.9-7.2,5-10.7c1.3-2.6,2.6-5.1,3.8-7.7c1.3-2.6,2.6-5.2,3.8-8.1c1-2,2-4.2,2.9-6.3c0.9-2.2,2-4.3,3.3-6.3
		c4.3-7.4,8.7-14.7,13-21.9c4.3-7.2,8.8-14.3,13.4-21.5c0.5-1,1-1.9,1.5-2.7c0.5-0.8,0.9-1.8,1.2-3.1c0.5-1,1-1.9,1.5-2.7
		c0.5-0.8,1-1.7,1.5-2.7c1.5-2.6,2.8-4.7,3.8-6.3c1-1.7,2-3.2,3.1-4.6c1-1.4,2.1-2.9,3.3-4.4c1.2-1.5,2.7-3.3,4.8-5.4l4.2-5.8
		c4.6-1.8,9.2-2.2,13.8-1.2c1.3,0.5,2.7,0.7,4.2,0.6c1.5-0.1,2.9-0.1,4.2,0.2c3.6,2.8,4.7,6.8,3.5,11.9c-0.8,3.8-1.4,6.8-1.9,9
		c-0.5,2.2-1.1,4.2-1.7,6.1c-0.6,1.9-1.5,4-2.5,6.1c-1,2.2-2.3,5.3-3.8,9.4c-2.3,5.4-4.2,10.7-5.8,16.1c-0.8,3.3-1.9,6.5-3.3,9.6
		c-1.4,3.1-3.3,6-5.6,8.8c-0.5,0.5-1,1-1.5,1.5c-0.5,0.5-1,1-1.5,1.5l-6.9,6.5c2.6,0,4.2-0.1,5-0.4c4.1-1,8.1-2,12.1-2.9
		c4-0.9,7.9-2,11.7-3.3c2-0.5,4-1,5.8-1.5c1.8-0.5,3.7-0.2,5.8,0.8c0.3,0.3,0.9,0.6,1.9,1.1c-0.3,1-0.5,2.1-0.8,3.1
		c-0.3,1-0.5,2.2-0.8,3.5c-3.3,2-6.6,4.1-9.8,6.1c-3.2,2.1-6.7,3.6-10.6,4.6c-2.6,0.5-5,1.3-7.3,2.3c-2.3,1-4.7,1.8-7.3,2.3
		c-5.4,1.3-10.7,1.3-16.1,0c-1-0.3-2-0.5-2.9-0.8c-0.9-0.2-2-0.5-3.3-0.8h-2.7c0.3,2.1,0.4,4.1,0.4,6.1c0,2.1,0.1,4.1,0.4,6.1
		c0.3,1.3,0.5,2.4,0.8,3.5c0.2,1,0.5,2.2,0.8,3.5c1.3,6.7,1.3,13.3,0,20c-0.5,2.1-0.8,4-0.8,5.8c0,1.8-0.3,3.7-0.8,5.8
		c0,1,0,2,0,2.9c0,0.9,0.3,1.7,0.8,2.5c0.5,1.3,0.6,2.4,0.4,3.5c-0.3,1-0.5,2.2-0.8,3.5c-0.8,5.4-1.9,11.3-3.5,17.7
		c-0.3,1-0.6,2.1-1,3.1c-0.4,1-0.7,2.1-1,3.1l-8.1,31.5c-0.8,2.8-1.7,5.4-2.9,7.9c-1.2,2.4-2.4,4.9-3.6,7.5c-1,1.8-2,3.6-2.9,5.4
		c-0.9,1.8-2,3.6-3.3,5.4c-3.1,3.6-6.3,6.9-9.6,10c-3.3,3.1-7,5.8-11.1,8.1c-2.1,1.5-4.2,1.9-6.5,1.2c-0.5-0.3-1.5-0.4-3.1-0.4h-4.2
		c-4.1-2.3-6.8-5.2-8.1-8.8c-0.3-0.5-0.6-1-1-1.5c-0.4-0.5-0.8-1-1.3-1.5c-0.5-0.5-0.8-0.9-0.8-1.2l-2.3-11.5v-6.1
		c0-0.5,0.1-1.1,0.2-1.7c0.1-0.6,0.2-1.2,0.2-1.7c-0.3-3.6-0.2-7.1,0.2-10.6c0.4-3.5,0.8-7,1.3-10.6c0.3-0.8,0.3-1.6,0-2.5
		c-0.3-0.9-0.4-1.7-0.4-2.5c0.5-1.3,0.8-2.4,1-3.5c0.1-1,0.3-1.8,0.6-2.3C553.5,843.3,553.8,842.8,554,842.6z M572.1,884l1.5-1.5
		c1.3-2.6,2.5-5.1,3.6-7.7c1.2-2.6,2.4-5.2,3.6-8.1c2.3-4.9,4.5-9.7,6.5-14.6c2-4.9,4.2-9.8,6.5-15c4.1-8.4,7.3-17.5,9.6-27.2
		c0.5-2.8,1-5.5,1.5-8.1c0.5-2.6,1.3-5.2,2.3-8.1l1.1-6.1v-25.3c0-1.5-0.1-3.1-0.2-4.6c-0.1-1.5-0.8-3.1-2.1-4.6
		c-1.8,0.8-3.1,2.3-3.8,4.6c-1.8,4.4-3.5,8.5-5.2,12.5c-1.7,4-3.5,8-5.6,12.1c-2.1,3.8-3.8,7.8-5.4,11.9c-1.5,4.1-3.1,8.3-4.6,12.7
		c-0.8,2.3-1.6,4.7-2.5,7.1c-0.9,2.4-1.7,4.9-2.5,7.5c-0.5,1.8-1.2,3.5-2.1,5c-0.9,1.5-1.3,3.3-1.3,5.4c0.3,0.8,0.1,1.5-0.4,2.3
		c-0.5,0.8-0.8,1.5-0.8,2.3c0.5,1.5,0.5,3,0,4.4c-0.5,1.4-0.8,2.8-0.8,4c0.3,1.5,0.3,3,0,4.4c-0.3,1.4-0.5,2.8-0.8,4
		c-0.3,2.1-0.4,4-0.4,5.9s-0.2,3.9-0.8,5.9c-0.3,0.5-0.3,1-0.2,1.5c0.1,0.5,0.2,1,0.2,1.5c0.3,1.8,0.4,3.5,0.4,5.2
		c0,1.7,0.1,3.4,0.4,5.2c0.3,0.8,0.4,1.7,0.4,2.7C570.5,882.3,571,883.2,572.1,884z M618.1,729.7c0.8,0,1.5-0.1,2.3-0.2
		c0.8-0.1,1.5-0.2,2.3-0.2c0.8,0,1.4-0.1,1.9-0.4c2,0,3.5-0.9,4.2-2.7l2.3-3.8c1.5-2.6,3-5.1,4.4-7.7c1.4-2.6,2.9-5.1,4.4-7.7
		l10.7-18.8c1.3-2,2.6-4.2,3.8-6.3c1.3-2.2,2.6-4.3,3.8-6.3c1.3-1.5,2.2-3.2,2.7-5c0.5-1.8,1-3.6,1.5-5.4c0.3-0.5,0.1-1-0.4-1.3
		c-0.5-0.4-1-0.6-1.5-0.6c-0.5,0.3-1,0.4-1.3,0.4c-0.4,0-0.7,0.3-1,0.8c-0.8,0.5-1.7,1.5-2.7,3.1c-2.6,4.1-5.1,8.1-7.7,11.9
		c-2.6,3.8-5.2,7.5-8.1,11.1c-0.8,1.3-1.5,2.4-2.3,3.5c-0.8,1-1.4,2.2-1.9,3.5c-2.3,3.6-4.4,7.3-6.3,11.1c-1.9,3.8-4.2,7.6-6.7,11.1
		c-0.5,0.5-0.8,1-0.8,1.5c0,1.5-0.4,2.8-1.1,3.8c-0.8,1-1.7,2.1-2.7,3.1V729.7z"/>
	<path id="XMLID_187_" class="st0" d="M670.7,836.4c-1.8-0.5-3.3-1-4.4-1.5c-1.2-0.5-2.4-1.2-3.6-1.9c-3.1-2-5.5-5.1-7.3-9.2
		c-1.5-3.1-2.3-6.1-2.3-9c0-2.9,0.3-5.8,0.8-8.6c0.5-4.3,1-8.6,1.5-12.9c0.5-4.2,1.4-8.4,2.7-12.5c0.5-1.8,1.2-4.2,1.9-7.3
		c0.8-3.1,1.7-6.2,2.7-9.4c1-3.2,2-6.3,2.9-9.2c0.9-2.9,1.7-5.2,2.5-6.7c0.3-1,0.8-2.6,1.7-4.6c0.9-2,1.7-4.2,2.5-6.3
		c0.8-2.2,1.5-4.2,2.3-6.1s1.4-3.4,1.9-4.4c1-1.5,1.5-2.8,1.5-3.8c0-1.5,0.1-2.7,0.4-3.5c4.1-2.3,8.3-2.2,12.7,0.4l3.5,1.9
		c4.3,1.8,6,5.1,5,10c-0.3,0.8-0.8,2.6-1.7,5.6c-0.9,2.9-1.9,6.1-3.1,9.6c-1.2,3.5-2.2,6.7-3.1,9.6c-0.9,2.9-1.5,4.8-1.7,5.6
		c-1,1.5-1.7,2.8-1.9,3.8c-1.8,5.6-3.3,11.3-4.4,16.9c-1.2,5.6-2.4,11.4-3.6,17.3v3.1c1.3-1,2.3-2,3.1-2.9c0.8-0.9,1.5-1.9,2.3-2.9
		c5.1-5.9,9.8-11.4,14.2-16.5c4.3-5.1,8.8-11,13.4-17.7c1.3-2,2-3.3,2.1-3.6c0.1-0.4,0.4-1.1,1-2.1c0.5-0.8,1.3-2,2.5-3.6
		c1.2-1.7,2.3-3.4,3.5-5.2c1.1-1.8,2.2-3.4,3.3-4.8c1-1.4,1.5-2.4,1.5-2.9c0.5-1,1.1-1.7,1.9-2.1c0.8-0.4,1.4-0.8,1.9-1.3
		c4.6-2,8.8-2.9,12.7-2.7c1,1.5,1.2,2.7,0.4,3.5c-1.8,2.1-3.7,4.7-5.8,8.1c-2.1,3.3-4.1,6.7-6.1,10.2c-2,3.5-4.1,6.8-6.1,10
		c-2.1,3.2-4,5.8-5.8,7.9c-1.3,2.6-2.6,4.9-4,7.1c-1.4,2.2-3,4.7-4.8,7.5c-2.1,3.6-3.8,6.8-5.4,9.8c-1.5,2.9-3.8,6.6-6.9,10.9
		c-1,1.5-2.2,3.1-3.5,4.6c-1.3,1.5-2.3,3.2-3.1,5c-0.8,1.8-1.7,3.5-2.9,5c-1.2,1.5-2.4,3.1-3.6,4.6c-0.5,0.5-1.1,1.2-1.9,1.9
		c-0.8,0.8-1.5,1.4-2.3,1.9C677.8,834.9,674.3,836.2,670.7,836.4z M686.8,697.1c0.5-1.5,1.5-2.6,3.1-3.1c1.5-0.5,3.4-0.8,5.6-1
		c2.2-0.1,4-0.2,5.6-0.2c4.3,0.5,7.7,1.9,10,4.2c0.8,0.8,0.9,1.7,0.4,2.7c0,1-0.5,2.1-1.5,3.1c-0.5,0.5-1.1,1-1.7,1.5
		c-0.6,0.5-1.2,1.1-1.7,1.9c-1.3,1.3-2.7,2.2-4.2,2.7c-1.5,0.5-3.1,1-4.6,1.5c-1.3,0.5-2.6,0.3-3.8-0.8c-1.8-1-3.5-2.9-5.2-5.6
		C686.9,701.5,686.3,699.1,686.8,697.1z"/>
	<path id="XMLID_191_" class="st0" d="M839.6,724.7c0.5,0,0.9,0.2,1.2,0.6c0.3,0.4,0.6,0.7,1.2,1c-2.1,3.6-3.9,7.1-5.6,10.6
		c-1.7,3.5-3.5,6.7-5.6,9.8c-2.8,4.1-5.5,8.1-8.1,11.9c-2.6,3.8-5.2,7.8-8.1,11.9L800.8,790c-2.3,3.3-4.5,6.5-6.7,9.4
		c-2.2,2.9-4.7,5.8-7.5,8.6c-2.1,2-3.9,4-5.6,5.8c-1.7,1.8-3.5,3.5-5.6,5c-4.6,3.1-9.5,3.1-14.6,0c-1.3-0.8-2.6-1.7-3.8-2.7
		c-1.3-1-2.6-1.9-3.8-2.7c-0.5-3.6-0.8-7-1-10.4c-0.1-3.3-0.4-6.7-1-10c-1,0.5-1.7,1.1-1.9,1.7c-0.3,0.6-0.6,1.2-1.1,1.7L736.7,813
		c-2.8,3.8-6.4,7.2-10.7,10c-2.8,1.5-5.4,2.2-7.7,2.1c-2.3-0.1-4.6-0.8-6.9-2.1c-1.5-0.8-3.1-1.7-4.6-2.7c-1.5-1-2.9-2-4.2-3.1
		c-2.1-1.8-3.4-3.8-4-6.1c-0.6-2.3-0.8-4.7-0.6-7.3c0.3-1.3,0.5-2.7,0.8-4.2c0.3-1.5,0.4-2.9,0.4-4.2c0.3-1,0.3-2,0.2-2.9
		c-0.1-0.9-0.2-1.9-0.2-2.9c0.5-0.8,1-1.7,1.3-2.7c0.4-1,0.8-2,1.3-3.1c0.5-1.3,1.1-2.6,1.7-3.8c0.6-1.3,1.9-2.2,3.6-2.7
		c1-0.5,1.6-1.3,1.7-2.3c0.1-1,0.3-2,0.6-3.1h-0.4c1.3-1,2.1-2.2,2.5-3.6c0.4-1.4,0.7-2.7,1-4c0.3-2,0.8-4,1.5-5.8
		c0.8-1.8,1.7-3.6,2.7-5.4c0.3-0.3,0.6-0.9,1.2-1.9c2.8-2,5.1-4.5,6.9-7.3c1.8-2.8,3.7-5.6,5.8-8.4c0.5-1.3,1.1-2.5,1.7-3.6
		c0.6-1.2,1.3-2.4,2.1-3.6c0.5-1,0.9-1.7,1.2-1.9c1.8-1.3,3.3-2.7,4.4-4.4c1.2-1.7,2.5-3.3,4-4.8c0.5-0.5,1-1,1.3-1.5
		c0.4-0.5,0.8-1,1.3-1.5c0.8-0.5,1.2-1,1.2-1.5c0-0.5,0.1-1,0.4-1.5c0.2-0.3,0.9-0.6,1.9-1.2l0.4,0.4c0.3,0,0.4-0.1,0.6-0.2
		c0.1-0.1,0.3-0.2,0.6-0.2h-0.4c1.3-0.5,2-1.2,2.1-1.9c0.1-0.8,0.3-1.8,0.6-3.1l3.8-1.2c0.5-0.2,1.1-0.4,1.9-0.4
		c1.3,0.3,2.6,0.6,3.8,1c1.3,0.4,2.8,0.2,4.6-0.6c1.3-0.5,2.6-0.5,3.8,0c1.3,0.5,2.6,1,3.8,1.5c1.3,0.5,2.6,1,4,1.5
		c1.4,0.5,2.7,1.2,4,1.9c5.4,2.6,6.9,6.8,4.6,12.7c0,0.3-0.3,0.9-0.8,1.9c1,1.5,1.4,3.1,1.2,4.8c-0.3,1.7-0.6,3.4-1.2,5.2
		c-1.3,4.1-2.6,8.1-3.8,11.9c-1.3,3.8-2.6,7.8-3.8,11.9c-1.5,4.9-2.9,9.7-4.2,14.4c-1.3,4.7-2.6,9.7-3.8,14.8
		c-1,2.6-1.5,4.5-1.5,5.8c0,2.1-0.1,4-0.2,5.9c-0.1,1.9,0.1,4,0.6,6.3c0.5-0.5,1-0.8,1.3-1c0.4-0.1,0.8-0.4,1.3-1
		c1.5-1.8,3.2-3.5,5-5.2c1.8-1.7,3.5-3.5,5-5.6l24.6-30.3c2.6-3.1,4.8-6.2,6.7-9.4c1.9-3.2,3.8-6.6,5.6-10.2
		c2.3-4.9,5.2-9.2,8.8-13.1C831.7,725.5,835.2,724.2,839.6,724.7z M761.6,752l6.9-20c-0.3-1.3-0.6-2.9-1.1-5
		c-0.5-1.8-1.7-2.7-3.5-2.7c-1,1.8-2.1,2.9-3.1,3.5c-1.5,1-2.8,2.2-3.8,3.5c-1,1.3-2.2,2.6-3.5,3.8c-5.6,6.7-10.7,13.4-15.4,20.3
		c-4.6,6.9-8.3,14.5-11.1,22.6c-1.3,3.8-2.3,7.7-3.1,11.5c-0.8,3.8-1.4,7.7-1.9,11.5c0-0.3,0.3,0.4,0.8,1.9c2.3-2.8,4.5-5.5,6.5-8.1
		c2-2.6,4.1-5.2,6.1-8.1c3.6-4.9,7.2-9.6,10.9-14.2c3.7-4.6,7.4-9.3,10.9-14.2C759.2,756.5,760.6,754.3,761.6,752z"/>
</g>
<g id="XMLID_1_">
	<path id="XMLID_38_" d="M379,993.6c1.8,0,3.4,0.3,4.9,0.8c1.5,0.6,2.8,1.4,4,2.5c1.1,1.1,2,2.5,2.6,4.2c0.6,1.7,0.9,3.7,0.9,5.9
		c0,2-0.3,3.8-0.8,5.5c-0.5,1.7-1.3,3.1-2.3,4.4s-2.3,2.2-3.9,2.9c-1.5,0.7-3.4,1.1-5.5,1.1h-11.8v-27.4H379z M378.6,1015.9
		c0.9,0,1.7-0.1,2.5-0.4c0.8-0.3,1.5-0.7,2.2-1.4c0.6-0.7,1.2-1.5,1.5-2.6c0.4-1,0.6-2.3,0.6-3.8c0-1.4-0.1-2.6-0.4-3.7
		c-0.3-1.1-0.7-2.1-1.3-2.9c-0.6-0.8-1.4-1.4-2.4-1.8s-2.3-0.6-3.7-0.6h-4.3v17.3H378.6z"/>
	<path id="XMLID_41_" d="M431.1,1018.9c-2.1,1.8-4.9,2.7-8.6,2.7c-3.7,0-6.6-0.9-8.6-2.7s-3.1-4.6-3.1-8.3v-17h6v17
		c0,0.7,0.1,1.5,0.2,2.2c0.1,0.7,0.4,1.3,0.8,1.9c0.4,0.6,1,1,1.7,1.3c0.7,0.3,1.7,0.5,2.9,0.5c2.1,0,3.6-0.5,4.5-1.4
		c0.8-1,1.2-2.5,1.2-4.5v-17h6v17C434.2,1014.3,433.2,1017.1,431.1,1018.9z"/>
	<path id="XMLID_43_" d="M467.7,993.6c1.3,0,2.5,0.1,3.6,0.3c1.1,0.2,2,0.6,2.8,1.1c0.8,0.5,1.4,1.2,1.8,2.1
		c0.4,0.9,0.6,1.9,0.6,3.2c0,1.4-0.3,2.5-0.9,3.5c-0.6,0.9-1.6,1.7-2.8,2.3c1.7,0.5,2.9,1.3,3.8,2.6c0.8,1.2,1.2,2.7,1.2,4.4
		c0,1.4-0.3,2.6-0.8,3.6c-0.5,1-1.3,1.8-2.2,2.5c-0.9,0.6-1.9,1.1-3.1,1.4c-1.2,0.3-2.4,0.5-3.6,0.5h-13.3v-27.4H467.7z
		 M466.9,1004.7c1.1,0,2-0.3,2.6-0.8c0.7-0.5,1-1.3,1-2.5c0-0.6-0.1-1.2-0.3-1.6c-0.2-0.4-0.5-0.7-0.9-1c-0.4-0.2-0.8-0.4-1.3-0.5
		c-0.5-0.1-1-0.1-1.6-0.1h-5.6v6.4H466.9z M467.2,1016.3c0.6,0,1.2-0.1,1.7-0.2s1-0.3,1.4-0.6c0.4-0.3,0.7-0.6,1-1.1
		c0.2-0.5,0.4-1,0.4-1.8c0-1.4-0.4-2.4-1.2-3c-0.8-0.6-1.8-0.9-3.1-0.9h-6.6v7.5H467.2z"/>
	<path id="XMLID_47_" d="M503.2,993.6v22.3h13.4v5.1h-19.4v-27.4H503.2z"/>
	<path id="XMLID_49_" d="M541.3,993.6v27.4h-6v-27.4H541.3z"/>
	<path id="XMLID_51_" d="M567.9,993.6l11.4,18.4h0.1v-18.4h5.6v27.4h-6l-11.4-18.3h-0.1v18.3h-5.6v-27.4H567.9z"/>
	<path id="XMLID_53_" d="M611.4,1015.1v5.9c0,0.9-0.2,1.7-0.5,2.4c-0.3,0.7-0.7,1.4-1.3,1.9s-1.2,1-1.9,1.3
		c-0.7,0.3-1.5,0.6-2.3,0.7v-2.8c0.4-0.1,0.7-0.2,1.1-0.5c0.3-0.2,0.6-0.5,0.9-0.8c0.3-0.3,0.4-0.7,0.6-1.1c0.1-0.4,0.2-0.8,0.2-1.2
		h-2.8v-5.9H611.4z"/>
	<path id="XMLID_55_" d="M675.3,1000.9c-0.4-0.6-0.8-1.1-1.3-1.5c-0.5-0.4-1.1-0.8-1.8-1s-1.4-0.4-2.1-0.4c-1.4,0-2.5,0.3-3.5,0.8
		c-0.9,0.5-1.7,1.2-2.3,2.1c-0.6,0.9-1,1.9-1.3,3c-0.3,1.1-0.4,2.3-0.4,3.5c0,1.2,0.1,2.3,0.4,3.4c0.3,1.1,0.7,2.1,1.3,2.9
		c0.6,0.9,1.4,1.6,2.3,2.1c0.9,0.5,2.1,0.8,3.5,0.8c1.8,0,3.3-0.6,4.3-1.7c1-1.1,1.7-2.6,1.9-4.5h5.8c-0.2,1.7-0.6,3.3-1.2,4.6
		c-0.6,1.4-1.5,2.6-2.5,3.5c-1,1-2.3,1.7-3.7,2.2c-1.4,0.5-3,0.8-4.6,0.8c-2.1,0-4-0.4-5.7-1.1c-1.7-0.7-3.1-1.7-4.2-3
		c-1.2-1.3-2-2.8-2.6-4.5c-0.6-1.7-0.9-3.6-0.9-5.6c0-2,0.3-3.9,0.9-5.7c0.6-1.8,1.5-3.3,2.6-4.6c1.2-1.3,2.6-2.3,4.2-3.1
		c1.7-0.7,3.6-1.1,5.7-1.1c1.5,0,2.9,0.2,4.3,0.7c1.3,0.4,2.5,1.1,3.6,1.9c1.1,0.8,1.9,1.9,2.6,3.1c0.7,1.2,1.1,2.6,1.3,4.2H676
		C675.9,1002.1,675.7,1001.5,675.3,1000.9z"/>
	<path id="XMLID_57_" d="M715.2,993.6l10.2,27.4h-6.3l-2.1-6.1h-10.2l-2.1,6.1h-6.1l10.4-27.4H715.2z M715.6,1010.4l-3.5-10.1H712
		l-3.6,10.1H715.6z"/>
</g>
<g id="XMLID_30_">
	<path id="XMLID_34_" d="M534.6,185.3V72.7h19.2v112.6H534.6z"/>
</g>
<g id="XMLID_32_">
	<path id="XMLID_29_" d="M487.6,326.1V219.5h31.2l25.4,41.3l25.4-41.3h31.3v106.7h-29.5v-61.2l-27.2,41.7h-0.6l-27.2-41.4v60.9
		H487.6z"/>
</g>
<g id="XMLID_3_">
	<path id="XMLID_4_" d="M487.6,326.1V219.5h31.2l25.4,41.3l25.4-41.3h31.3v106.7h-29.5v-61.2l-27.2,41.7h-0.6l-27.2-41.4v60.9H487.6
		z"/>
</g>
<g id="XMLID_35_">
	<line id="XMLID_16_" class="st1" x1="561.6" y1="94.3" x2="685.5" y2="94.1"/>
	<line id="XMLID_17_" class="st1" x1="561.6" y1="103.9" x2="678.9" y2="104.1"/>
	<line id="XMLID_18_" class="st1" x1="561.6" y1="113.5" x2="672.5" y2="113.7"/>
	<line id="XMLID_14_" class="st2" x1="561.6" y1="123.1" x2="666.1" y2="123.3"/>
	<line id="XMLID_19_" class="st2" x1="561.6" y1="132.7" x2="659.9" y2="132.5"/>
	<line id="XMLID_20_" class="st2" x1="561.6" y1="142.5" x2="653.3" y2="142.5"/>
	<path id="XMLID_37_" class="st2" d="M564.1,79.4"/>
	<path id="XMLID_21_" class="st2" d="M724.7,79.4"/>
</g>
<line id="XMLID_15_" class="st2" x1="561.6" y1="85.1" x2="691.7" y2="84.9"/>
<g id="XMLID_7_">
	<line id="XMLID_23_" class="st1" x1="527" y1="94.5" x2="403.3" y2="94.5"/>
	<line id="XMLID_22_" class="st1" x1="527" y1="104.1" x2="409.9" y2="104.4"/>
	<line id="XMLID_13_" class="st1" x1="527" y1="114" x2="416.3" y2="114"/>
	<line id="XMLID_12_" class="st2" x1="527" y1="123.4" x2="422.7" y2="123.6"/>
	<line id="XMLID_11_" class="st2" x1="527" y1="132.9" x2="428.9" y2="132.9"/>
	<line id="XMLID_10_" class="st2" x1="527" y1="142.5" x2="435.5" y2="142.8"/>
	<path id="XMLID_9_" class="st2" d="M524.7,79.8"/>
	<path id="XMLID_8_" class="st2" d="M364,79.8"/>
</g>
<line id="XMLID_6_" class="st2" x1="527" y1="84.9" x2="397.1" y2="85.2"/>
<g id="XMLID_31_">
	<path id="XMLID_24_" class="st3" d="M500.1,251.5v-97.1H527v36.6h34.5v-36.6h26.9v97.1h-26.9v-36.9H527v36.9H500.1z"/>
</g>
<g id="XMLID_25_">
	<path id="XMLID_26_" class="st3" d="M500.1,251.5v-97.1H527v36.6h34.5v-36.6h26.9v97.1h-26.9v-36.9H527v36.9H500.1z"/>
</g>
<g id="XMLID_2_">
</g>
<g id="XMLID_60_">
</g>
<g id="XMLID_61_">
</g>
<g id="XMLID_62_">
</g>
<g id="XMLID_63_">
</g>
<g id="XMLID_64_">
</g>
</svg>
