<?xml version="1.0" encoding="utf-8"?>
<!-- Generator: Adobe Illustrator 19.0.0, SVG Export Plug-In . SVG Version: 6.00 Build 0)  -->
<svg version="1.1" id="Layer_1" xmlns="http://www.w3.org/2000/svg" xmlns:xlink="http://www.w3.org/1999/xlink" x="0px" y="0px"
	 viewBox="0 0 792 612" style="enable-background:new 0 0 792 612;" xml:space="preserve">
<style type="text/css">
	.st0{enable-background:new    ;}
	.st1{fill:#A7A9AC;stroke:#808285;stroke-width:10;stroke-miterlimit:10;}
	.st2{clip-path:url(#SVGID_2_);fill:#EC6473;}
	.st3{clip-path:url(#SVGID_4_);fill:#65C4EC;}
	.st4{clip-path:url(#SVGID_6_);fill:#85C87F;}
	.st5{clip-path:url(#SVGID_8_);}
	.st6{fill:#000001;}
	.st7{clip-path:url(#SVGID_10_);}
	.st8{fill:none;stroke:#000000;stroke-width:10;stroke-miterlimit:10;}
</style>
<g id="XMLID_391_" class="st0">
	<path d="M154.5,90.8c0.3-1,0.7-1.7,1.3-2.3c0.6-0.6,1.2-1,1.8-1.2c0.7-0.2,1.3-0.2,1.9-0.1c0.6,0.1,1.2,0.4,1.6,0.9
		c0.4,0.4,0.7,1,0.9,1.8c0.1,0.8,0,1.6-0.3,2.7l-11.3,32.4c-0.3,1-0.7,1.7-1.3,2.3c-0.6,0.6-1.2,1-1.8,1.2c-0.7,0.2-1.3,0.2-1.9,0.1
		c-0.6-0.1-1.2-0.4-1.6-0.9c-0.4-0.4-0.7-1-0.9-1.8c-0.1-0.8,0-1.6,0.3-2.7L154.5,90.8z"/>
	<path d="M174.1,115.4c0.4-0.9,0.9-1.6,1.7-1.9s1.5-0.4,2.2-0.2c0.7,0.2,1.3,0.5,1.7,1.1c0.4,0.6,0.5,1.3,0.2,2.1
		c-1.4,4-3.3,7-5.7,9.2c-2.4,2.1-5.2,3.2-8.3,3.2c-1.2,0-2.4-0.2-3.5-0.5c-1.1-0.4-2.1-0.9-2.9-1.5s-1.5-1.5-2-2.4
		c-0.5-1-0.8-2-0.8-3.3c0-1,0.2-2.1,0.6-3.2v0c0.3-1,0.7-2,1-2.9c0.3-0.9,0.6-1.8,0.9-2.6c0.3-0.9,0.6-1.7,0.9-2.6
		c0.3-0.9,0.7-1.8,1-2.9h-1.6c-0.7,0-1.2-0.3-1.6-0.9c-0.4-0.6-0.5-1.2-0.5-2c0.1-0.7,0.4-1.4,1-2c0.6-0.6,1.5-0.9,2.7-0.9h2
		l3.6-10.1c0.4-1.2,1-2,1.9-2.4c0.9-0.4,1.7-0.5,2.6-0.3c0.8,0.2,1.5,0.7,2,1.3c0.5,0.7,0.6,1.5,0.4,2.4l-3.2,9h2.2
		c1,0,1.7,0.3,2.2,0.9c0.4,0.6,0.6,1.2,0.5,2c-0.1,0.7-0.5,1.4-1.1,2c-0.6,0.6-1.5,0.9-2.6,0.9h-3.1l-4.6,12.8
		c-0.1,0.3-0.2,0.6-0.2,1.1c0,0.6,0.2,1.2,0.7,1.6c0.5,0.4,1.2,0.7,2,0.7c1.4,0,2.8-0.6,4.2-1.9C171.9,120,173.1,118.1,174.1,115.4z
		"/>
	<path d="M187.4,83.3c0.9,0.4,1.5,1,1.9,1.8c0.4,0.8,0.6,1.6,0.6,2.5c0,0.8-0.1,1.6-0.3,2.2v0c-0.5,1.5-1.4,2.6-2.7,3.4
		c-1.3,0.8-2.8,1.2-4.5,1.2c-0.6,0-1.3-0.1-1.9-0.2c-0.7-0.2-1.1-0.5-1.4-0.9c-0.2-0.4-0.3-0.9-0.2-1.3c0.1-0.4,0.4-0.8,0.8-1
		c0.4-0.3,0.9-0.3,1.6-0.1c0.4,0.1,0.8,0.1,1.2,0c0.4-0.1,0.8-0.3,1.1-0.6c-0.3-0.2-0.6-0.4-0.9-0.6s-0.5-0.5-0.7-0.9h0
		c-0.4-0.6-0.6-1.3-0.6-2c0-0.7,0.2-1.3,0.5-1.9s0.8-1.1,1.4-1.5c0.4-0.2,0.7-0.3,1-0.4c0.3-0.1,0.7-0.1,1-0.1
		c0.6,0,1.2,0.1,1.7,0.4l0,0L187.4,83.3z"/>
	<path d="M204.9,115.3c0.3-0.9,0.8-1.5,1.6-1.7c0.7-0.3,1.5-0.3,2.2-0.1c0.7,0.2,1.3,0.6,1.8,1.1c0.4,0.5,0.6,1.1,0.3,1.8
		c-0.8,2.2-1.7,4.1-2.9,5.7c-1.2,1.6-2.6,2.9-4.2,3.9c-1.6,1-3.4,1.8-5.5,2.3c-2,0.5-4.3,0.8-6.9,1c-0.4,0.1-0.8,0.1-1.4,0.1
		c-0.5,0-1,0-1.4,0c-1.4-0.1-2.7-0.3-3.9-0.8c-1.2-0.4-2.3-1-3.2-1.8c-0.9-0.8-1.7-1.6-2.2-2.6c-0.5-1-0.8-2.1-0.8-3.3
		c0-0.8,0.1-1.6,0.3-2.4c0.2-0.8,0.5-1.6,0.9-2.3s0.9-1.3,1.5-1.8c0.6-0.5,1.3-0.9,2.1-1.1c1-1.8,1.9-3.6,2.9-5.5
		c1-1.8,2-3.6,2.9-5.5c0.5-0.8,1.1-1.4,1.7-1.8c0.6-0.4,1.1-0.7,1.7-0.8c0.3-0.1,0.6-0.1,0.9-0.1c0.3,0,0.6,0,1,0v0
		c0.5,0.1,1,0.3,1.4,0.6s0.8,0.6,1.1,1c0.3,0.4,0.5,0.9,0.6,1.4c0.1,0.5,0.2,1,0.1,1.5c-0.1,0.7-0.4,1.3-0.8,1.8
		c-0.4,0.5-0.9,0.9-1.6,1.2c0.1,0.7,0.4,1.5,0.8,2.3c0.4,0.8,0.9,1.6,1.3,2.4c0.7,1.1,1.3,2.3,1.9,3.6c0.6,1.3,0.9,2.6,0.9,4.1
		c0,0.3,0,0.6,0,0.9c0,0.3-0.1,0.6-0.1,0.9C202.1,120.1,203.7,118.1,204.9,115.3z M189.6,114.1c0.7,0.7,1.1,1.5,1.2,2.5
		c0.1,1-0.1,1.9-0.5,2.7c-0.4,0.8-1,1.5-1.9,2s-1.9,0.6-3.1,0.4c0.3,0.6,0.7,1.1,1.4,1.5c0.7,0.3,1.4,0.5,2.2,0.5
		c0.8,0,1.6-0.3,2.2-0.7c0.6-0.4,1.1-1.1,1.3-1.9c0.4-1.3,0.3-2.7-0.2-4.1c-0.5-1.4-1.2-2.7-2.1-3.7L189.6,114.1z"/>
	<path d="M248,116.1c0.2-0.7,0.6-1.3,1-1.7c0.4-0.4,0.9-0.7,1.5-0.8c0.5-0.1,1.1-0.2,1.6-0.1c0.5,0.1,1,0.3,1.3,0.7
		c0.4,0.4,0.6,0.8,0.7,1.4s0,1.2-0.3,2c-0.2,0.5-0.4,0.9-0.5,1.2c-0.1,0.3-0.3,0.7-0.5,1.1c-0.8,1.7-1.7,3.2-2.7,4.3
		c-1,1.2-2,2.1-3,2.8c-1,0.7-2.1,1.2-3.1,1.5c-1.1,0.3-2.1,0.5-3.1,0.5c-0.4,0-0.9,0-1.5-0.1c-0.6-0.1-1.2-0.2-1.8-0.4
		c-0.6-0.2-1.3-0.5-1.8-0.9c-0.6-0.4-1.1-0.9-1.4-1.5c-0.9,0.8-1.8,1.4-2.9,1.8c-1.1,0.4-2.2,0.6-3.2,0.6c-1.1,0-2-0.2-3-0.6
		c-0.9-0.4-1.7-0.9-2.4-1.6c-0.7-0.7-1.2-1.4-1.6-2.3c-0.4-0.9-0.6-1.8-0.6-2.8c0-0.4,0-0.9,0.1-1.3c0.1-0.4,0.2-0.8,0.4-1.3
		l4.5-12.7c0.7-1.8,1.8-3.2,3.3-4.1c1.5-0.9,3-1.3,4.6-1.3c1.3,0,2.5,0.2,3.4,0.5c0.9,0.3,1.6,0.7,2.1,1c0.6-0.7,1.3-1.2,2.2-1.4
		c0.9-0.2,1.8-0.2,2.5,0.1s1.4,0.8,1.8,1.6c0.4,0.8,0.4,1.7,0,3l-5.4,15.4c-0.2,0.6-0.2,1-0.2,1.4c0,0.8,0.4,1.2,1.3,1.2
		c1.1,0,2.2-0.6,3.4-1.7C245.8,120.4,246.9,118.6,248,116.1z M229.7,121.5c0.2,0.1,0.5,0.1,0.8,0c0.3-0.1,0.7-0.2,1.1-0.5
		c0.4-0.3,0.8-0.6,1.2-1.2c0.4-0.5,0.8-1.2,1.2-2.1l1.7-4.9c0.4-1.2,0.6-2.1,0.6-2.8c0-0.7-0.1-1.2-0.3-1.6
		c-0.2-0.4-0.4-0.6-0.6-0.7c-0.2-0.1-0.4-0.2-0.4-0.2c0,0-0.2-0.1-0.4-0.1c-0.2,0-0.5,0-0.9,0.1c-0.4,0.1-0.7,0.4-1.1,0.9
		c-0.4,0.5-0.8,1.2-1.2,2.2l-2.5,7.4c-0.1,0.3-0.2,0.6-0.2,0.9c-0.1,0.3-0.1,0.7,0,1c0,0.3,0.1,0.6,0.3,0.9
		C229,121.2,229.3,121.4,229.7,121.5z"/>
	<path d="M253.3,121.1c-0.1,0.2-0.1,0.3-0.1,0.5c0,0.1,0,0.3,0,0.4c0,0.4,0.1,0.7,0.4,0.9c0.3,0.3,0.6,0.4,1.1,0.4
		c1.1,0,2.3-0.6,3.6-1.9c1.3-1.3,2.5-3.4,3.6-6.3c0.4-1.1,1-1.8,1.8-2.2c0.8-0.4,1.5-0.4,2.2-0.2c0.7,0.2,1.3,0.6,1.7,1.2
		s0.5,1.4,0.2,2.3c-0.8,2.5-1.8,4.6-2.9,6.2c-1.1,1.6-2.3,3-3.5,3.9s-2.4,1.7-3.7,2.1c-1.2,0.4-2.4,0.6-3.6,0.6
		c-1.1,0-2.1-0.2-3-0.5c-1-0.3-1.8-0.7-2.5-1.3s-1.3-1.3-1.7-2.1c-0.4-0.8-0.6-1.8-0.6-3c0-1,0.2-2,0.6-3.1l9.4-27.3
		c0.3-0.9,0.7-1.5,1.2-2c0.5-0.5,1.1-0.8,1.7-1c0.6-0.2,1.2-0.2,1.8-0.1c0.6,0.1,1.1,0.4,1.5,0.8c0.4,0.4,0.7,0.9,0.8,1.6
		c0.1,0.6,0.1,1.4-0.3,2.3L253.3,121.1z"/>
	<path d="M271.9,119l5.5-15.5c0.3-0.8,0.7-1.5,1.2-1.9c0.5-0.4,1.1-0.7,1.7-0.8c0.6-0.1,1.2,0,1.8,0.1c0.6,0.2,1.1,0.5,1.5,0.9
		c0.4,0.4,0.7,1,0.8,1.6c0.1,0.6,0,1.3-0.2,2.1l-5.6,15.2c-0.1,0.3-0.1,0.6-0.1,1c0,0.4,0.1,0.8,0.4,1.1c0.3,0.3,0.6,0.4,1.1,0.4
		c0.8,0,1.6-0.4,2.3-1.1c0.7-0.7,1.3-1.6,1.7-2.6l1.4-3.7c-0.4-0.7-0.7-1.6-0.9-2.6c-0.1-1-0.2-2.1,0-3.2c0.1-1.1,0.3-2.2,0.7-3.3
		c0.3-1.1,0.8-2.1,1.3-3c0.5-0.9,1.2-1.7,1.9-2.3c0.7-0.6,1.5-0.9,2.4-1c1.1-0.1,2,0,2.7,0.4c0.7,0.3,1.3,0.9,1.7,1.6
		c0.4,0.7,0.6,1.6,0.6,2.5c0,1-0.2,2.1-0.6,3.3l-2.5,6.9c-0.1,0.5,0.1,1,0.6,1.3c0.4,0.3,1,0.5,1.7,0.5c0.7,0,1.4-0.2,1.9-0.6
		c0.5-0.4,0.9-1,1.2-1.8c0.3-0.9,0.8-1.5,1.6-1.8c0.7-0.3,1.4-0.4,2.1-0.3c0.7,0.1,1.3,0.5,1.7,1.1c0.4,0.6,0.6,1.3,0.3,2.3
		c-0.2,0.9-0.6,1.8-1.2,2.7c-0.6,0.8-1.3,1.6-2.1,2.2c-0.8,0.6-1.7,1.1-2.6,1.5c-0.9,0.4-1.9,0.6-2.9,0.6c-1.8,0-3.3-0.4-4.6-1.3
		c-0.5,1.2-1.1,2.3-1.9,3.3c-0.8,1-1.7,1.8-2.7,2.5c-1,0.7-2.1,1.2-3.2,1.6c-1.1,0.4-2.3,0.6-3.4,0.6c-1.2,0-2.4-0.2-3.6-0.7
		c-1.2-0.5-2.1-1.1-2.8-2c-0.9,0.8-1.8,1.5-2.9,2c-1.1,0.5-2.3,0.7-3.5,0.7c-1,0-1.9-0.2-2.7-0.5c-0.8-0.3-1.6-0.7-2.2-1.3
		c-0.6-0.5-1.1-1.2-1.5-2c-0.4-0.8-0.6-1.7-0.6-2.6c0-0.4,0-0.9,0.1-1.3c0.1-0.5,0.2-0.9,0.4-1.4l4.7-13.5h0l1.1-3
		c0.3-0.8,0.7-1.5,1.2-1.9c0.5-0.4,1.1-0.7,1.7-0.8c0.6-0.1,1.2,0,1.8,0.1c0.6,0.2,1.1,0.5,1.5,0.9c0.4,0.4,0.7,1,0.8,1.6
		s0,1.3-0.2,2.1l-5.4,15.3c-0.1,0.3-0.1,0.6-0.1,0.9c0,0.4,0.1,0.7,0.3,0.9c0.2,0.3,0.5,0.4,1,0.4c0.8,0,1.6-0.4,2.4-1.2
		C270.9,121.2,271.5,120.2,271.9,119L271.9,119z"/>
	<path d="M322.3,116.1c0.2-0.7,0.6-1.3,1-1.7c0.4-0.4,0.9-0.7,1.5-0.8c0.5-0.1,1.1-0.2,1.6-0.1c0.5,0.1,1,0.3,1.3,0.7
		c0.4,0.4,0.6,0.8,0.7,1.4s0,1.2-0.3,2c-0.2,0.5-0.4,0.9-0.5,1.2c-0.1,0.3-0.3,0.7-0.5,1.1c-0.8,1.7-1.7,3.2-2.7,4.3
		c-1,1.2-2,2.1-3,2.8c-1,0.7-2.1,1.2-3.1,1.5c-1.1,0.3-2.1,0.5-3.1,0.5c-0.4,0-0.9,0-1.5-0.1c-0.6-0.1-1.2-0.2-1.8-0.4
		c-0.6-0.2-1.3-0.5-1.8-0.9c-0.6-0.4-1.1-0.9-1.4-1.5c-0.9,0.8-1.8,1.4-2.9,1.8c-1.1,0.4-2.2,0.6-3.2,0.6c-1.1,0-2-0.2-3-0.6
		c-0.9-0.4-1.7-0.9-2.4-1.6c-0.7-0.7-1.2-1.4-1.6-2.3c-0.4-0.9-0.6-1.8-0.6-2.8c0-0.4,0-0.9,0.1-1.3c0.1-0.4,0.2-0.8,0.4-1.3
		l4.5-12.7c0.7-1.8,1.8-3.2,3.3-4.1c1.5-0.9,3-1.3,4.6-1.3c1.3,0,2.5,0.2,3.4,0.5c0.9,0.3,1.6,0.7,2.1,1c0.6-0.7,1.3-1.2,2.2-1.4
		c0.9-0.2,1.8-0.2,2.5,0.1s1.4,0.8,1.8,1.6c0.4,0.8,0.4,1.7,0,3l-5.4,15.4c-0.2,0.6-0.2,1-0.2,1.4c0,0.8,0.4,1.2,1.3,1.2
		c1.1,0,2.2-0.6,3.4-1.7C320.2,120.4,321.3,118.6,322.3,116.1z M304,121.5c0.2,0.1,0.5,0.1,0.8,0c0.3-0.1,0.7-0.2,1.1-0.5
		c0.4-0.3,0.8-0.6,1.2-1.2c0.4-0.5,0.8-1.2,1.2-2.1l1.7-4.9c0.4-1.2,0.6-2.1,0.6-2.8c0-0.7-0.1-1.2-0.3-1.6
		c-0.2-0.4-0.4-0.6-0.6-0.7c-0.2-0.1-0.4-0.2-0.4-0.2c0,0-0.2-0.1-0.4-0.1c-0.2,0-0.5,0-0.9,0.1c-0.4,0.1-0.7,0.4-1.1,0.9
		c-0.4,0.5-0.8,1.2-1.2,2.2l-2.5,7.4c-0.1,0.3-0.2,0.6-0.2,0.9c-0.1,0.3-0.1,0.7,0,1c0,0.3,0.1,0.6,0.3,0.9
		C303.4,121.2,303.6,121.4,304,121.5z"/>
	<path d="M327.7,120.7c-0.2,0.5-0.2,0.9-0.2,1.2c0,0.9,0.5,1.4,1.4,1.4c0.6,0,1.4-0.3,2.2-0.8c0.8-0.5,1.6-1.4,2.4-2.8l5.5-16.1
		c0.4-1.2,1.1-2,1.9-2.4c0.9-0.4,1.7-0.5,2.6-0.2c0.8,0.2,1.5,0.7,2,1.5c0.5,0.8,0.6,1.7,0.3,2.8l-2.4,6.7l-1.4,4.1l-3,8.7
		c1.9-1,3.6-2.2,5.1-3.7c1.5-1.5,2.7-3.5,3.6-6c0.4-1.1,1-1.8,1.8-2.2c0.8-0.4,1.5-0.5,2.3-0.4c0.7,0.1,1.3,0.5,1.7,1.2
		c0.4,0.6,0.5,1.5,0.1,2.4c-0.8,2.5-1.9,4.7-3.1,6.5c-1.2,1.8-2.6,3.3-4.2,4.5c-1.5,1.2-3.1,2.2-4.8,3c-1.7,0.8-3.4,1.4-5.1,2
		c-0.4,1-0.7,2-1.1,3c-0.4,1-0.7,2-1.1,3.1c-0.5,1.4-1.2,2.6-1.9,3.6c-0.8,1-1.7,1.8-2.6,2.5c-1,0.7-2,1.2-3.2,1.5
		c-1.1,0.3-2.3,0.5-3.5,0.5c-1.3,0-2.6-0.2-3.9-0.7c-1.2-0.5-2.3-1.2-3.1-2.1c-0.9-0.9-1.5-1.9-1.8-3.1c-0.3-1.2-0.3-2.6,0.1-4
		c0.4-1.2,0.9-2.1,1.7-3c0.8-0.8,1.7-1.5,2.8-2.1c1.1-0.6,2.2-1,3.4-1.4c1.2-0.4,2.3-0.7,3.5-0.9c-1.6-0.3-2.9-1-3.9-2.2
		s-1.5-2.5-1.5-4.1c0-0.4,0-0.9,0.1-1.3c0.1-0.4,0.2-0.9,0.4-1.3l5.8-16.4c0.3-0.8,0.7-1.5,1.2-1.9c0.5-0.4,1.1-0.7,1.7-0.8
		c0.6-0.1,1.2,0,1.8,0.1c0.6,0.2,1.1,0.5,1.5,0.9c0.4,0.4,0.7,1,0.8,1.6s0,1.3-0.2,2.1L327.7,120.7z M327.5,134.2
		c-1.6,0.4-2.9,0.9-4,1.4c-1.1,0.5-1.8,1.2-2.2,2c-0.1,0.2-0.1,0.3-0.1,0.5c0,0.2,0,0.3,0,0.5c0,0.4,0.1,0.8,0.4,1.1
		c0.3,0.3,0.7,0.4,1.2,0.4c0.7,0,1.4-0.2,2.1-0.7c0.7-0.4,1.2-1.1,1.5-2L327.5,134.2z"/>
	<path d="M371.5,115.3c0.3-0.9,0.8-1.5,1.6-1.7c0.7-0.3,1.5-0.3,2.2-0.1c0.7,0.2,1.3,0.6,1.8,1.1c0.4,0.5,0.6,1.1,0.3,1.8
		c-0.8,2.2-1.7,4.1-2.9,5.7c-1.2,1.6-2.6,2.9-4.2,3.9c-1.6,1-3.4,1.8-5.5,2.3c-2,0.5-4.3,0.8-6.9,1c-0.4,0.1-0.8,0.1-1.4,0.1
		c-0.5,0-1,0-1.4,0c-1.4-0.1-2.7-0.3-3.9-0.8c-1.2-0.4-2.3-1-3.2-1.8c-0.9-0.8-1.7-1.6-2.2-2.6c-0.5-1-0.8-2.1-0.8-3.3
		c0-0.8,0.1-1.6,0.3-2.4c0.2-0.8,0.5-1.6,0.9-2.3s0.9-1.3,1.5-1.8c0.6-0.5,1.3-0.9,2.1-1.1c1-1.8,1.9-3.6,2.9-5.5
		c1-1.8,2-3.6,2.9-5.5c0.5-0.8,1.1-1.4,1.7-1.8c0.6-0.4,1.1-0.7,1.7-0.8c0.3-0.1,0.6-0.1,0.9-0.1c0.3,0,0.6,0,1,0v0
		c0.5,0.1,1,0.3,1.4,0.6s0.8,0.6,1.1,1c0.3,0.4,0.5,0.9,0.6,1.4c0.1,0.5,0.2,1,0.1,1.5c-0.1,0.7-0.4,1.3-0.8,1.8
		c-0.4,0.5-0.9,0.9-1.6,1.2c0.1,0.7,0.4,1.5,0.8,2.3c0.4,0.8,0.9,1.6,1.3,2.4c0.7,1.1,1.3,2.3,1.9,3.6c0.6,1.3,0.9,2.6,0.9,4.1
		c0,0.3,0,0.6,0,0.9c0,0.3-0.1,0.6-0.1,0.9C368.7,120.1,370.4,118.1,371.5,115.3z M356.3,114.1c0.7,0.7,1.1,1.5,1.2,2.5
		c0.1,1-0.1,1.9-0.5,2.7c-0.4,0.8-1,1.5-1.9,2s-1.9,0.6-3.1,0.4c0.3,0.6,0.7,1.1,1.4,1.5c0.7,0.3,1.4,0.5,2.2,0.5
		c0.8,0,1.6-0.3,2.2-0.7c0.6-0.4,1.1-1.1,1.3-1.9c0.4-1.3,0.3-2.7-0.2-4.1c-0.5-1.4-1.2-2.7-2.1-3.7L356.3,114.1z"/>
</g>
<g id="XMLID_392_" class="st0">
	<path d="M237.8,346.4c0.1-0.6,0.3-0.6,0.8-0.1l29,32.6l28.6-32.6c0.5-0.5,0.7-0.5,0.8,0.1l3.6,61.2h-15.9l-1.4-25.8l-15.1,17.6
		c-0.3,0.3-0.6,0.3-0.8,0l-15.8-17.6l-1.4,25.9h-15.9L237.8,346.4z"/>
	<path d="M309.9,347h16.2v60.6h-16.2V347z"/>
	<path d="M392.3,394c-3,5-6.7,8.7-11,11c-4.3,2.3-9.5,3.4-15.7,3.4c-4.3,0-8.3-0.8-12.1-2.3c-3.8-1.5-7.1-3.7-10-6.4
		c-2.9-2.8-5.2-6-6.9-9.8c-1.7-3.8-2.5-8-2.5-12.6c0-4.6,0.8-8.8,2.5-12.6c1.7-3.8,3.9-7.1,6.7-9.8c2.8-2.7,6.1-4.9,9.8-6.4
		c3.7-1.5,7.6-2.3,11.6-2.3c3.3,0,6.2,0.3,8.9,1c2.7,0.7,5.1,1.6,7.2,2.7c2.1,1.2,4,2.5,5.7,4.1c1.7,1.6,3.1,3.3,4.4,5.2l-12.2,8.3
		c-0.6-0.9-1.3-1.8-2-2.6c-0.8-0.9-1.7-1.6-2.8-2.3c-1.1-0.7-2.4-1.2-3.8-1.6c-1.5-0.4-3.1-0.6-5-0.6c-2.3,0-4.3,0.4-6,1.3
		c-1.8,0.9-3.3,2-4.5,3.6c-1.2,1.5-2.2,3.3-2.9,5.4c-0.7,2.1-1,4.3-1,6.7c0,2.4,0.3,4.6,1,6.7c0.7,2.1,1.7,3.9,2.9,5.4
		c1.3,1.5,2.8,2.7,4.7,3.6c1.8,0.9,3.9,1.3,6.2,1.3c3.9,0,7-0.8,9.1-2.4c2.1-1.6,3.9-3.6,5.2-6L392.3,394z"/>
	<path d="M435.3,377.4v30.2H420v-61.4c0-0.3,0.1-0.5,0.3-0.6c0.2-0.1,0.5,0,1,0.4l38,31.4V347h15.2v61.5c0,0.4-0.1,0.6-0.3,0.7
		c-0.2,0.1-0.5-0.1-1-0.5L435.3,377.4z"/>
	<path d="M485.4,347h16.2v60.6h-16.2V347z"/>
	<path d="M554.1,387.2h-12v-12.5h26.5V400c-1.4,1.2-3,2.3-4.6,3.3c-1.7,1-3.5,1.9-5.6,2.6c-2.1,0.7-4.4,1.3-7.1,1.8
		c-2.6,0.4-5.7,0.7-9,0.7c-4.5,0-8.7-0.8-12.6-2.3s-7.4-3.7-10.4-6.4c-3-2.8-5.3-6-7-9.8c-1.7-3.8-2.6-8-2.6-12.6
		c0-4.6,0.9-8.8,2.6-12.6c1.7-3.8,4.1-7.1,7-9.8c2.9-2.7,6.4-4.9,10.2-6.4c3.9-1.5,8-2.3,12.4-2.3c5.4,0,10.1,1,14.2,2.9
		c4.1,1.9,7.4,4.5,10.1,7.9l-11.3,9.8c-1.5-2-3.4-3.5-5.6-4.7c-2.2-1.2-4.8-1.8-7.8-1.8c-2.5,0-4.7,0.4-6.6,1.3
		c-1.9,0.9-3.5,2-4.8,3.6c-1.3,1.5-2.3,3.3-2.9,5.4c-0.7,2.1-1,4.3-1,6.7c0,2.4,0.3,4.6,1,6.7c0.7,2.1,1.7,4,3.1,5.6
		c1.4,1.6,3.1,2.9,5.1,3.8c2,0.9,4.4,1.4,7,1.4c3,0,5.3-0.2,7.1-0.7c1.8-0.5,3.3-1,4.6-1.7V387.2z"/>
	<path d="M613.9,347h16.2v60.6h-16.2v-19.2h-21v19.2h-16.2V347h16.2v27.7h21V347z"/>
	<path d="M653.5,360.7h-16V347h48.3v13.6h-16v47h-16.2V360.7z"/>
	<path d="M688.3,408.5c-2.4,0-4.5-0.8-6.2-2.4c-1.8-1.6-2.7-3.7-2.7-6.3c0-2.6,0.9-4.7,2.7-6.3c1.8-1.6,3.9-2.4,6.2-2.4
		c1.1,0,2.2,0.2,3.3,0.6c1.1,0.4,2,1,2.9,1.8c0.8,0.8,1.5,1.7,2,2.8c0.5,1.1,0.8,2.3,0.8,3.6c0,1.3-0.3,2.5-0.8,3.6
		c-0.5,1.1-1.2,2-2,2.8c-0.8,0.8-1.8,1.4-2.9,1.8C690.6,408.3,689.5,408.5,688.3,408.5z"/>
</g>
<g id="XMLID_393_">
	<g id="XMLID_394_">
		<g id="XMLID_395_">
			<path id="XMLID_396_" class="st1" d="M131.2,473.5l-25.4-10.6c-12.7-5.3-18.8-20-13.4-32.7L163,261.1l71.5,29.9L163.9,460
				C158.6,472.8,143.9,478.8,131.2,473.5z"/>
			<circle id="XMLID_397_" cx="218.1" cy="229.6" r="75"/>
		</g>
		<path id="XMLID_398_" d="M134.9,479.3l-35.7-14.9l-2.6,6.1c-0.4,0.9,0.1,2,1,2.4l32.3,13.5c0.9,0.4,2-0.1,2.4-1L134.9,479.3z"/>
		<path id="XMLID_399_" d="M100.6,474.1l-1.9,4.5c-0.3,0.7,0,1.5,0.7,1.8l23.7,9.9c0.7,0.3,1.5,0,1.8-0.7l1.9-4.5L100.6,474.1z"/>
	</g>
	<g id="XMLID_400_" class="st0">
		<path d="M345.4,300.1h-38.2V157.3h54.2c9.7,0,18.2,1.4,25.6,4.3c7.4,2.9,13.7,6.8,18.8,11.9c5.1,5,9,11,11.7,17.7
			c2.7,6.8,4,14.2,4,22.2c0,8-1.3,15.4-4,22.2c-2.7,6.8-6.5,12.7-11.7,17.6c-5.1,5-11.4,8.9-18.8,11.8c-7.4,2.9-16,4.3-25.6,4.3h-16
			V300.1z M359.5,237.1c8.6,0,14.7-2.2,18.3-6.6c3.6-4.4,5.4-10.1,5.4-17.2c0-3.5-0.4-6.7-1.3-9.6c-0.8-2.9-2.2-5.4-4.1-7.5
			c-1.9-2.1-4.3-3.8-7.3-5c-3-1.2-6.6-1.8-11-1.8h-14.2v47.7H359.5z"/>
		<path d="M439,157.3h100.2v32.1h-62v33.2h51.7v30.5h-51.7V268h64.9v32.1H439V157.3z"/>
		<path d="M596.5,228.9v71.2h-35.9V155.4c0-0.7,0.2-1.2,0.6-1.5c0.4-0.3,1.2,0.1,2.3,1l89.7,73.9v-71.6h35.9v144.9
			c0,0.8-0.2,1.4-0.6,1.6s-1.2-0.2-2.3-1.2L596.5,228.9z"/>
	</g>
</g>
<g id="XMLID_401_">
	<g id="XMLID_402_">
		<g>
			<defs>
				<rect id="SVGID_1_" x="676.9" y="496.9" width="115.1" height="115.1"/>
			</defs>
			<clipPath id="SVGID_2_">
				<use xlink:href="#SVGID_1_"  style="overflow:visible;"/>
			</clipPath>
			<polygon id="XMLID_403_" class="st2" points="702.3,567.8 702.3,541.2 721.1,522.3 747.8,522.3 			"/>
		</g>
		<g>
			<defs>
				<rect id="SVGID_3_" x="676.9" y="496.9" width="115.1" height="115.1"/>
			</defs>
			<clipPath id="SVGID_4_">
				<use xlink:href="#SVGID_3_"  style="overflow:visible;"/>
			</clipPath>
			<polygon id="XMLID_404_" class="st3" points="721.1,586.6 747.8,586.6 766.6,567.8 766.6,541.2 			"/>
		</g>
		<g>
			<defs>
				
					<rect id="SVGID_5_" x="676.9" y="496.9" transform="matrix(-0.7071 0.7071 -0.7071 -0.7071 1645.838 427.2109)" width="115.1" height="115.1"/>
			</defs>
			<clipPath id="SVGID_6_">
				<use xlink:href="#SVGID_5_"  style="overflow:visible;"/>
			</clipPath>
			
				<rect id="XMLID_405_" x="702.3" y="541.2" transform="matrix(-0.7071 0.7071 -0.7071 -0.7071 1645.8705 427.2244)" class="st4" width="64.3" height="26.6"/>
		</g>
		<g>
			<defs>
				<rect id="SVGID_7_" x="676.9" y="496.9" width="115.1" height="115.1"/>
			</defs>
			<clipPath id="SVGID_8_">
				<use xlink:href="#SVGID_7_"  style="overflow:visible;"/>
			</clipPath>
			<g id="XMLID_406_" class="st5">
				<g class="st0">
					<path class="st6" d="M726.7,567.7c-1.3,0.5-2.8,0.7-4.5,0.7c-2,0-3.9-0.4-5.4-1.1c-1.6-0.8-2.9-1.8-4-3.1
						c-1.1-1.3-1.9-2.8-2.4-4.6c-0.6-1.7-0.8-3.6-0.8-5.5s0.3-3.8,0.8-5.5c0.5-1.7,1.4-3.3,2.4-4.6c1.1-1.3,2.4-2.3,4-3.1
						c1.6-0.8,3.4-1.2,5.4-1.2s3.9,0.4,5.4,1.2c1.6,0.8,2.9,1.8,4,3.1c1.1,1.3,1.9,2.8,2.4,4.6c0.5,1.7,0.8,3.6,0.8,5.5
						c0,2.2-0.3,4.2-1,6.1c-0.7,1.9-1.7,3.5-3.1,4.9l4.4,3l-0.4,0.5l-4.5-3C729.2,566.5,728.1,567.2,726.7,567.7z M725.2,561.2
						l4.9,3.4c1.3-1.2,2.2-2.7,2.9-4.5c0.7-1.8,1-3.8,1.1-6c0-2-0.3-3.8-0.9-5.4s-1.3-3.1-2.3-4.3c-1-1.2-2.2-2.1-3.7-2.8
						c-1.5-0.7-3.1-1-4.9-1c-1.8,0-3.5,0.3-4.9,1c-1.5,0.7-2.7,1.6-3.7,2.8c-1,1.2-1.8,2.6-2.3,4.3c-0.6,1.7-0.8,3.5-0.9,5.4
						c0,2,0.3,3.8,0.9,5.4c0.5,1.7,1.3,3.1,2.3,4.3c1,1.2,2.2,2.1,3.7,2.8c1.5,0.7,3.1,1,4.9,1c1.5,0,2.8-0.2,4.1-0.7
						s2.3-1.1,3.3-1.9l-4.8-3.3L725.2,561.2z"/>
				</g>
			</g>
		</g>
		<g>
			<defs>
				<rect id="SVGID_9_" x="676.9" y="496.9" width="115.1" height="115.1"/>
			</defs>
			<clipPath id="SVGID_10_">
				<use xlink:href="#SVGID_9_"  style="overflow:visible;"/>
			</clipPath>
			<g id="XMLID_407_" class="st7">
				<g class="st0">
					<path class="st6" d="M751.6,545.5h-13.5v-5.1h21.6v4.8l-14.7,17.6H760v5.1h-23.1v-4.8L751.6,545.5z"/>
				</g>
			</g>
		</g>
	</g>
</g>
<path id="XMLID_409_" class="st8" d="M112.7,482.3l-14.1,32.5c-5.9,13.8-23.9,17-34.2,6.2l0,0c-8.1-8.5-21.5-8.6-29.8-0.4l-43.1,52"
	/>
</svg>
