<?xml version="1.0" encoding="utf-8"?>
<!-- Generator: Adobe Illustrator 19.0.0, SVG Export Plug-In . SVG Version: 6.00 Build 0)  -->
<svg version="1.1" id="Layer_1" xmlns="http://www.w3.org/2000/svg" xmlns:xlink="http://www.w3.org/1999/xlink" x="0px" y="0px"
	 viewBox="0 0 1080 1080" style="enable-background:new 0 0 1080 1080;" xml:space="preserve">
<style type="text/css">
	.st0{fill:none;}
	.st1{fill:#FFFFFF;}
	.st2{fill:#FFFFFF;stroke:#FFFFFF;stroke-width:30;stroke-miterlimit:10;}
</style>
<circle id="XMLID_123_" cx="540" cy="559.3" r="449.5"/>
<g id="XMLID_20_">
	<rect id="XMLID_35_" x="444.6" y="189.4" class="st0" width="190.8" height="102.5"/>
	<path id="XMLID_15_" class="st1" d="M487.8,188.4c16.5,0,29.6,13.2,29.6,29.7h-21.5c0-5.7-3.9-8.2-8.5-8.2s-7.5,3-7.5,6.3
		c0,3.4,1.3,5.3,6.2,9.3l17.5,14.9c10,8.5,13.9,16.5,13.9,22.7c0,16.5-13.1,29.7-29.6,29.7c-16.5,0-29.6-13.2-29.6-29.7h21.4
		c0.4,6.3,3,8.9,7.9,8.9c4.4,0,7.5-2.3,7.5-6.9c0-3.4-2.2-6.2-9.5-12.8l-17.4-15.6c-5.5-4.9-9.8-12.3-9.8-21
		c0-14.8,13.1-27.4,29.6-27.4H487.8z"/>
	<path id="XMLID_17_" class="st1" d="M525.5,291.5V189.6h20.7v101.9H525.5z"/>
	<path id="XMLID_21_" class="st1" d="M575.7,291.5h-23.1l23.3-51.1l-21.7-50.8h23.5l9.9,24.1l10.2-24.1h23l-21.7,50.7l23.8,51.2
		h-23.7l-11.8-25.5L575.7,291.5z"/>
</g>
<g id="XMLID_19_">
	<path id="XMLID_2_" class="st1" d="M321.9,465.3V346.8h-26.3v-29.9h83v29.9H352v118.6H321.9z"/>
	<path id="XMLID_4_" class="st1" d="M408.6,465.3h-30.5V316.9h30.5v58.8h22.2v-58.8h30.5v148.5h-30.5v-59.6h-22.2V465.3z"/>
	<path id="XMLID_6_" class="st1" d="M478,465.3V316.9h30.1v148.5H478z"/>
	<path id="XMLID_8_" class="st1" d="M565.4,417H555v48.3h-30.1V316.9h34.5c32.8,0,51.6,22.8,51.6,49.8c0,15.9-6.9,30.5-18.2,40.4
		l20.5,58.3h-31.2L565.4,417z M579.9,366.2c0-11.3-6.1-18.8-21.1-18.8H555v38.1h3.8C574.4,385.5,579.9,379.2,579.9,366.2z"/>
	<path id="XMLID_11_" class="st1" d="M642.2,465.3V346.8h-26.3v-29.9h83v29.9h-26.6v118.6H642.2z"/>
	<path id="XMLID_13_" class="st1" d="M714.3,465.3v-57.1l-34.1-91.4h31.6l17.6,52.9l17.4-52.9h31.4l-33.5,91.4v57.1H714.3z"/>
</g>
<circle id="XMLID_124_" class="st1" cx="540" cy="559.3" r="64.2"/>
<rect id="XMLID_126_" x="527.2" y="559.3" class="st2" width="25.7" height="321.1"/>
<rect id="XMLID_125_" x="527.2" y="559.3" width="25.7" height="192.7"/>
<g id="XMLID_132_">
	<rect id="XMLID_128_" x="527.2" y="109.7" class="st1" width="25.7" height="51.4"/>
	<rect id="XMLID_129_" x="527.2" y="957.4" class="st1" width="25.7" height="51.4"/>
	<rect id="XMLID_130_" x="938.2" y="546.4" class="st1" width="51.4" height="25.7"/>
	<rect id="XMLID_131_" x="90.5" y="546.4" class="st1" width="51.4" height="25.7"/>
</g>
<circle id="XMLID_127_" cx="540" cy="96.9" r="25.7"/>
<g id="XMLID_31_">
	<path id="XMLID_24_" class="st1" d="M243.2,678.8c-0.6,1.4-1.3,2.8-1.7,4.3c-3.8,12.6-7.5,25.2-11.3,37.8c-0.5,1.8-1.1,3.6-2.2,5.1
		c-2,2.7-4.7,4-8.1,2.8c-3.2-1.1-5.1-3.5-5.2-7c0-1.5,0.2-3.1,0.6-4.6c4.7-15.6,9.4-31.1,14.2-46.7c3.1-9.9,10.4-16,20.7-16.5
		c8.4-0.4,16.8-0.4,25.1,0c10,0.5,16.9,6.3,20,15.5c5.3,16,10,32.2,14.8,48.4c1.6,5.3-0.6,9.6-5,10.9c-4.1,1.2-7.9-1.3-9.5-6.6
		c-4-13.2-7.9-26.4-11.9-39.6c-0.4-1.4-1.3-2.7-2-4c-0.5,0.2-1.1,0.4-1.6,0.7c7.4,25.7,14.9,51.3,22.5,77.7c-7.5,0-14.1,0-21.3,0
		c0,2.3,0,4.1,0,5.9c0,17.4,0,34.7,0,52.1c0,5.3-3.3,8.8-8.1,9c-4.8,0.2-8.3-3.1-8.8-8.3c-0.1-1.4-0.1-2.8-0.1-4.2
		c0-16.1,0.1-32.3-0.1-48.4c0-2-1.1-4-1.7-6c-0.6,2-1.6,4-1.6,5.9c-0.1,17.2-0.1,34.4-0.1,51.7c0,4.1-1.6,7.2-5.6,8.7
		c-3.6,1.3-7.1,0.6-9.2-2.4c-1.5-2.1-2.2-5.1-2.2-7.8c-0.2-16.8-0.1-33.5-0.1-50.3c0-1.8,0-3.6,0-6.1c-7.2,0-13.7,0-21.1,0
		c7.6-26.4,15-52.1,22.3-77.7C244.4,679.2,243.8,679,243.2,678.8z"/>
	<path id="XMLID_23_" class="st1" d="M262.6,650.2c-9.6-0.1-17.3-8-17.2-17.7c0.1-9.4,7.9-17.1,17.3-17.2
		c9.4-0.1,17.6,8.1,17.5,17.5C280.3,642.4,272.2,650.2,262.6,650.2z"/>
</g>
<g id="XMLID_30_">
	<path id="XMLID_34_" class="st1" d="M433.5,682.2c-0.1,1.7-0.4,3.3-0.4,5c0,41.7,0,83.5,0,125.2c0,8.7-6.5,13.7-14,11
		c-4.5-1.6-6.8-5.5-6.8-12.1c0-23,0-45.9,0-68.9c0-1.8-0.2-3.5-0.3-5.3c-0.5,0-0.9-0.1-1.4-0.1c-0.2,1.6-0.6,3.3-0.6,4.9
		c0,23.6,0,47.2,0,70.8c0,6.7-3.4,10.7-9.3,11.2c-5.7,0.6-10.4-3.3-11-8.9c-0.2-1.8-0.1-3.7-0.1-5.6c0-40.7,0-81.3,0-122
		c0-1.7-0.2-3.5-0.3-5.2c-0.5,0-1.1-0.1-1.6-0.1c-0.2,1.5-0.4,2.9-0.4,4.4c0,13.2,0,26.4-0.1,39.6c0,2,0.2,4.6-0.9,5.8
		c-1.8,2.1-4.6,4.7-7,4.7c-2.4,0-5.2-2.5-7.2-4.6c-1-1.1-0.9-3.5-0.9-5.4c-0.1-16.1-0.1-32.3,0-48.4c0.1-14.8,9.3-24.1,24.1-24.3
		c10.4-0.1,20.8-0.1,31.2,0c15.2,0.2,24.3,9.3,24.3,24.4c0,16.3,0,32.6,0,48.9c0,6.4-2.5,9.6-7.5,9.7c-5.1,0.1-8-3.3-8.1-9.7
		c0-13.5,0-27,0-40.5c0-1.6-0.2-3.1-0.3-4.7C434.5,682.2,434,682.2,433.5,682.2z"/>
	<path id="XMLID_33_" class="st1" d="M428.5,633.1c0,9.7-7.8,17.4-17.4,17.4c-9.5-0.1-17.5-8.2-17.4-17.6
		c0.1-9.2,8.1-17.1,17.4-17.2C420.6,615.5,428.5,623.4,428.5,633.1z"/>
</g>
<g id="XMLID_22_">
	<path id="XMLID_28_" class="st1" d="M692.6,679.6c-0.1,1.8-0.4,3.6-0.4,5.4c0,44.6,0,89.1,0,133.7c0,9.3-6.9,14.6-15,11.7
		c-4.8-1.7-7.2-5.9-7.2-12.9c0-24.5,0-49,0-73.5c0-1.9-0.2-3.8-0.3-5.6c-0.5,0-1-0.1-1.5-0.1c-0.2,1.7-0.6,3.5-0.6,5.2
		c0,25.2,0,50.3,0,75.5c0,7.1-3.6,11.4-9.9,12c-6.1,0.6-11.1-3.5-11.7-9.5c-0.2-2-0.1-4-0.1-6c0-43.4,0-86.8,0-130.2
		c0-1.9-0.2-3.7-0.3-5.6c-0.6,0-1.1-0.1-1.7-0.1c-0.2,1.6-0.5,3.1-0.5,4.7c0,14.1,0,28.2-0.1,42.2c0,2.1,0.2,4.9-0.9,6.2
		c-1.9,2.3-4.9,5-7.5,5.1c-2.6,0-5.6-2.7-7.6-4.9c-1.1-1.2-0.9-3.8-0.9-5.7c-0.1-17.2-0.1-34.4,0-51.7c0.1-15.8,9.9-25.8,25.7-25.9
		c11.1-0.1,22.2-0.1,33.3,0c16.2,0.2,25.9,10,26,26.1c0,17.4,0,34.8,0,52.2c0,6.8-2.7,10.3-8,10.4c-5.5,0.1-8.6-3.6-8.6-10.4
		c0-14.4,0-28.8,0-43.2c0-1.7-0.2-3.3-0.3-5C693.7,679.6,693.2,679.6,692.6,679.6z"/>
	<path id="XMLID_27_" class="st1" d="M687.3,627.2c0,10.3-8.3,18.6-18.6,18.5c-10.1-0.1-18.7-8.7-18.5-18.8
		c0.1-9.8,8.7-18.3,18.6-18.4C678.9,608.5,687.3,616.9,687.3,627.2z"/>
</g>
<g id="XMLID_29_">
	<path id="XMLID_26_" class="st1" d="M851,679.6c-0.1,1.8-0.4,3.6-0.4,5.4c0,44.6,0,89.1,0,133.7c0,9.3-6.9,14.6-15,11.7
		c-4.8-1.7-7.2-5.9-7.2-12.9c0-24.5,0-49,0-73.5c0-1.9-0.2-3.8-0.3-5.6c-0.5,0-1-0.1-1.5-0.1c-0.2,1.7-0.6,3.5-0.6,5.2
		c0,25.2,0,50.3,0,75.5c0,7.1-3.6,11.4-9.9,12c-6.1,0.6-11.1-3.5-11.7-9.5c-0.2-2-0.1-4-0.1-6c0-43.4,0-86.8,0-130.2
		c0-1.9-0.2-3.7-0.3-5.6c-0.6,0-1.1-0.1-1.7-0.1c-0.2,1.6-0.5,3.1-0.5,4.7c0,14.1,0,28.2-0.1,42.2c0,2.1,0.2,4.9-0.9,6.2
		c-1.9,2.3-4.9,5-7.5,5.1c-2.6,0-5.6-2.7-7.6-4.9c-1.1-1.2-0.9-3.8-0.9-5.7c-0.1-17.2-0.1-34.4,0-51.7c0.1-15.8,9.9-25.8,25.7-25.9
		c11.1-0.1,22.2-0.1,33.3,0c16.2,0.2,25.9,10,26,26.1c0,17.4,0,34.8,0,52.2c0,6.8-2.7,10.3-8,10.4c-5.5,0.1-8.6-3.6-8.6-10.4
		c0-14.4,0-28.8,0-43.2c0-1.7-0.2-3.3-0.3-5C852.1,679.6,851.5,679.6,851,679.6z"/>
	<path id="XMLID_25_" class="st1" d="M845.6,627.2c0,10.3-8.3,18.6-18.6,18.5c-10.1-0.1-18.7-8.7-18.5-18.8
		c0.1-9.8,8.7-18.3,18.6-18.4C837.3,608.5,845.6,616.9,845.6,627.2z"/>
</g>
<g id="XMLID_1_">
</g>
<g id="XMLID_36_">
</g>
<g id="XMLID_37_">
</g>
<g id="XMLID_38_">
</g>
<g id="XMLID_39_">
</g>
<g id="XMLID_40_">
</g>
</svg>
